<svg width="128" height="128" viewBox="0 0 128 128" fill="none" xmlns="http://www.w3.org/2000/svg">
<g clip-path="url(#clip0_26_4)">
<rect width="128" height="128" rx="20" fill="url(#paint0_radial_26_4)"/>
<path d="M95.6457 30.8132C96.4039 30.402 101.309 30.0977 102.236 30.444C102.515 31.5105 101.534 36.0986 100.992 37.0124C100.503 37.8396 97.7561 40.1719 96.8869 40.9382C95.4642 42.1736 94.0624 43.4347 92.6828 44.7194C92.3294 45.6284 86.8169 50.0139 85.2101 51.6491L83.7551 52.8688L82.2863 54.2223L81.1623 55.1803L82.7863 54.2956L84.8693 53.4098L85.5998 53.0885C86.0578 53.0105 86.7228 52.4894 86.9767 52.486C88.1674 52.4702 90.3204 53.0272 91.176 53.8542C91.6474 54.3103 90.6395 55.537 90.341 55.8952C90.0236 56.3536 89.8081 56.8644 89.3439 57.2341C88.0191 58.3264 85.949 58.6853 84.3889 59.3434C83.7881 59.5968 83.5026 59.6024 83.3264 59.7409L78.6135 61.3874L76.0305 62.4411L75.6096 62.7399L78.1564 62.5993L82.6467 62.5485C82.6785 62.5638 82.7115 62.5735 82.7453 62.5729C86.259 62.5016 89.8184 62.2853 93.3312 62.1452C94.8245 62.0847 96.3992 61.9548 97.8469 62.1139C101.486 62.1015 105.12 61.8753 108.757 61.78C109.565 61.7592 110.374 61.7303 111.183 61.7751C112.801 62.9456 114.336 64.2273 115.777 65.61C115.99 65.8495 116.246 66.0995 116.21 66.4509C116.131 67.1998 112.429 69.567 111.713 70.0114C111.312 70.2601 110.883 70.4983 110.411 70.5729C109.382 70.7371 108.218 70.5995 107.173 70.5729C104.796 70.5116 102.405 70.3849 100.029 70.3981C97.9509 70.5722 95.9418 70.3766 93.8625 70.3102C91.9746 70.2505 90.1126 70.2467 88.2297 70.1423C87.6693 70.1115 84.449 69.93 84.0764 70.026L84.0656 70.0407L81.8635 69.8717L88.0822 72.7175L88.1008 72.7096C88.4308 72.8466 88.7891 72.9534 89.1896 73.1325C90.6603 73.8048 92.1355 74.4665 93.6144 75.1198C93.9893 75.284 95.3856 75.8486 95.5275 76.0534C95.8966 76.5876 97.1278 78.6084 97.1408 79.1842C97.4933 79.8701 98.6358 81.8861 97.4719 82.2135C96.5583 82.4697 95.1466 82.6621 94.1808 82.8229C93.7879 83.1511 93.4529 83.0111 93.006 83.1081C91.1359 83.5107 89.9709 82.3704 88.4348 81.6491C87.6854 81.2971 81.4162 77.8351 81.0519 77.8747C81.0441 77.8823 81.0358 77.89 81.0275 77.8981L75.3156 74.7096L76.4709 75.9841L81.1408 80.568C83.4655 83.2588 88.9827 88.2004 89.8576 89.8913C91.7512 91.9921 93.7889 94.0187 95.7082 96.0964C96.5033 96.957 97.806 98.2203 98.465 99.1247C98.5869 100.701 98.7497 102.375 98.758 103.951C98.7613 104.578 98.7014 105.62 97.8732 105.509C97.0492 105.451 96.2644 105.239 95.466 105.058C94.4586 104.825 92.5004 104.357 91.7756 103.734C90.532 102.664 89.2519 101.076 88.1691 99.8317L83.9621 95.0182C83.6835 94.6053 82.3336 93.1142 81.9123 92.6208L76.3439 86.2067C75.7197 85.4797 74.8186 84.5264 74.2756 83.7985C74.1242 83.633 74.1001 83.5796 73.9064 83.4753L73.8537 83.6745L73.7785 83.8122C73.4294 82.1367 70.5406 79.6434 69.4152 78.2653C68.1942 76.7706 67.0671 75.1819 65.924 73.6266C65.5711 73.1467 64.8161 72.3331 64.7072 71.7536L64.8918 71.8405C65.1409 71.1143 65.0278 70.8068 65.1672 70.0475L65.175 69.7936C65.1563 67.4898 64.431 67.2808 63.6818 65.2028L63.6467 65.1032C63.7103 64.7867 63.7883 64.4936 63.8693 64.1813C64.6787 63.402 65.5393 63.0704 66.4045 62.4196C66.832 62.0979 67.3776 61.3525 67.8264 60.9147L67.8859 60.8581C69.4052 58.8227 70.7646 56.5588 72.1467 54.4264C72.4741 53.9216 73.6319 51.8335 73.8381 51.6374C74.1167 51.5797 76.2323 49.4246 76.6555 49.0368C81.5347 44.5662 86.1543 39.8621 90.9084 35.2575C92.3501 33.8606 94.0034 31.9606 95.6457 30.8132Z" fill="#4CE0F0"/>
<path d="M67.8859 60.8574C67.0128 62.678 64.0679 63.7884 63.881 64.6797L63.9367 64.7881C64.6612 64.9904 67.8056 64.8886 68.5344 64.4336C69.4841 63.84 70.3991 62.7236 71.4728 62.2129C70.9978 62.8189 69.2974 64.1927 68.6242 64.5908C67.5302 65.2375 65.5336 65.0327 64.301 65.0459C64.1399 65.0486 64.0484 65.1838 63.9543 65.2832C63.8775 65.6837 64.0709 65.8544 64.3293 66.1231C64.3026 65.9582 64.2716 65.8028 64.2385 65.6387C64.5023 65.5804 64.6625 65.8579 64.7512 65.8477C66.3702 65.6545 67.9587 65.2869 69.6008 65.2529C70.0583 65.2438 70.3048 65.2701 70.7326 65.0703C71.099 65.3944 71.5301 65.4442 71.9943 65.5586C74.2329 66.1141 76.9531 67.9977 79.1535 68.3858C79.9179 68.5209 84.8385 68.8683 85.3791 68.7373C88.2624 68.7929 90.9112 68.9621 93.7697 69.084L101.645 69.3506C104.348 69.4576 107.075 69.6247 109.78 69.5899C110.469 69.5807 111.537 69.3285 111.877 68.6719C113.208 67.9307 114.113 67.2675 115.372 66.4824C115.634 66.2785 115.584 66.3987 115.652 66.1475L115.487 65.8828C115.554 65.7983 115.697 65.6816 115.777 65.6104C115.99 65.8499 116.247 66.0997 116.21 66.4512C116.13 67.2002 112.429 69.5661 111.713 70.0108C111.312 70.2595 110.883 70.4977 110.411 70.5723C109.382 70.7364 108.218 70.5988 107.173 70.5723C104.796 70.5109 102.405 70.3852 100.029 70.3985C97.9509 70.5726 95.9418 70.3759 93.8625 70.3096C91.9746 70.2499 90.1126 70.2461 88.2297 70.1416C87.6692 70.1109 84.4483 69.9303 84.0764 70.0264L84.0656 70.041L81.8635 69.8721L88.0822 72.7178L88.1017 72.71C88.4313 72.8465 88.7897 72.953 89.1896 73.1319C90.6604 73.8042 92.1354 74.4668 93.6144 75.1201C93.9894 75.2844 95.385 75.8478 95.5275 76.0528C95.8965 76.5867 97.1284 78.6092 97.1408 79.1846C97.4932 79.8703 98.6359 81.8854 97.4719 82.2129C96.5583 82.4691 95.1467 82.6615 94.1808 82.8223C93.7878 83.1506 93.4529 83.0104 93.006 83.1074C91.1358 83.5102 89.971 82.3707 88.4348 81.6494C87.6864 81.298 81.4166 77.8347 81.0519 77.874C81.044 77.8818 81.036 77.8901 81.0275 77.8985L75.3156 74.71L76.4709 75.9844L81.134 80.5606C83.4549 83.2496 88.9819 88.1982 89.8576 89.8906C91.7513 91.9916 93.7888 94.018 95.7082 96.0957C96.5033 96.9563 97.8059 98.2205 98.465 99.125C98.5869 100.701 98.7497 102.375 98.758 103.951C98.7613 104.578 98.7014 105.62 97.8732 105.51C97.0491 105.451 96.2644 105.239 95.466 105.059C94.4585 104.826 92.5002 104.357 91.7756 103.733C90.5319 102.663 89.252 101.077 88.1691 99.8321L83.9621 95.0176C83.6834 94.6046 82.3336 93.1145 81.9123 92.6211L76.3439 86.2071C75.7196 85.4799 74.8187 84.5268 74.2756 83.7988C74.1238 83.633 74.1004 83.5791 73.9064 83.4746L73.8537 83.6738L73.7785 83.8115C73.4293 82.1359 70.5403 79.6426 69.4152 78.2647C68.1941 76.7698 67.0673 75.1814 65.924 73.626C65.571 73.1459 64.8157 72.3325 64.7072 71.7529L64.8918 71.8399C65.1408 71.1138 65.0278 70.807 65.1672 70.0479L65.175 69.793C65.1563 67.4889 64.4311 67.2807 63.6818 65.2022L63.6467 65.1026C63.7103 64.7859 63.7882 64.4932 63.8693 64.1807C64.6788 63.4013 65.5392 63.0708 66.4045 62.4199C66.8321 62.0983 67.3775 61.3519 67.8264 60.9141L67.8859 60.8574Z" fill="url(#paint1_linear_26_4)"/>
<path d="M65.1752 69.793L65.2207 69.6347C65.2761 69.4357 65.2827 69.3776 65.297 69.1662L65.3964 69.1189C67.6708 70.5716 70.2473 71.7522 72.4535 73.2687C74.3389 74.5654 76.4548 77.5668 78.2391 79.2018C78.9927 79.8916 80.8143 81.7455 81.3864 82.5249L81.2372 82.7164L81.3176 82.806C82.2188 83.8108 83.1367 85.1623 84.0545 86.2576C86.1513 88.7192 88.2714 91.1601 90.4155 93.5803C90.7546 93.9667 92.3688 95.8811 92.6474 96.061L92.936 96.4582C93.9044 97.5202 94.9084 98.55 95.9456 99.5458C95.1994 99.4844 94.362 99.312 93.6664 99.7928C92.7477 100.428 93.5255 103.15 94.2443 103.623L95.4067 104.088L95.3437 104.19C95.9713 104.564 97.6561 104.805 98.0068 105.245L97.9836 105.344C97.3734 105.358 96.1703 104.985 95.478 104.914L95.4664 105.059C94.459 104.826 92.4998 104.357 91.7752 103.734C90.5315 102.663 89.2522 101.076 88.1694 99.8318L83.9616 95.018C83.683 94.6051 82.3333 93.1143 81.9121 92.621L76.3437 86.207C75.7194 85.4799 74.819 84.5264 74.2759 83.7984C74.1242 83.6326 74.1001 83.5795 73.9061 83.4751L73.8539 83.674L73.7784 83.8117C73.4294 82.136 70.5399 79.6429 69.4148 78.2649C68.1937 76.77 67.0671 75.1814 65.9238 73.626C65.5708 73.146 64.8155 72.3326 64.707 71.753L64.892 71.8401C65.1412 71.1138 65.0281 70.807 65.1675 70.0476L65.1752 69.793Z" fill="url(#paint2_linear_26_4)"/>
<path d="M94.2443 103.623C93.6233 103.589 92.7801 103.205 92.378 102.749C90.0756 100.135 87.4423 97.3735 85.3455 94.625L85.4018 94.5943C85.823 94.8563 88.4522 98.1885 89.1843 98.8899C89.6469 98.9795 89.1834 98.8244 89.5673 98.7034C89.7704 98.8427 89.8865 98.9546 90.1295 98.9729C90.3716 98.8269 90.9163 98.0716 91.1584 97.7897C91.7786 97.5982 92.81 97.1571 92.936 96.4582C93.9044 97.5203 94.9085 98.55 95.9457 99.5458C95.1995 99.4844 94.3621 99.312 93.6664 99.7929C92.7478 100.428 93.5255 103.15 94.2443 103.623Z" fill="#4CE0F0"/>
<path d="M65.1675 70.0476C65.1864 70.5591 65.2019 71.0707 65.214 71.5831C65.792 71.9869 66.3924 73.1518 66.8616 73.7752C67.6481 74.8199 68.5128 75.829 69.2813 76.8795C69.6437 78.1472 70.0284 78.4979 71.1004 79.3129L70.7149 79.4016C71.272 80.2755 73.5297 82.4892 74.2759 83.4485C74.2908 83.5348 74.3049 83.6218 74.319 83.7089L74.2759 83.7984C74.1242 83.6326 74.1001 83.5795 73.9061 83.4751L73.8539 83.674L73.7784 83.8117C73.4294 82.136 70.5399 79.6429 69.4148 78.2649C68.1937 76.77 67.0671 75.1814 65.9238 73.626C65.5708 73.146 64.8155 72.3326 64.707 71.753L64.892 71.8401C65.1412 71.1138 65.0281 70.807 65.1675 70.0476Z" fill="#2792DB"/>
<path d="M69.2814 76.8794C70.2241 77.2069 71.1203 78.9622 71.7977 79.7598C72.2156 80.2523 74.3514 82.2339 74.3937 82.6667C74.0994 82.5755 73.912 82.0714 73.6367 81.7936C72.8043 80.9529 71.9304 80.1544 71.1004 79.3129C70.0284 78.4979 69.6437 78.1472 69.2814 76.8794Z" fill="#279DE7"/>
<path d="M94.2444 103.623C93.5255 103.15 92.7478 100.428 93.6665 99.7928C94.3621 99.312 95.1995 99.4844 95.9457 99.5458L96.1198 99.603C97.2773 101.093 97.5575 102.959 97.7333 104.817L95.4068 104.088L94.2444 103.623Z" fill="#CBF2FA"/>
<path d="M81.3864 82.5249C84.5677 86.0561 88.0376 89.346 91.2977 92.8051C91.626 93.1525 93.0181 94.4865 93.2121 94.8124C93.3364 95.4757 93.8248 95.3239 93.7941 95.8446C93.5686 96.0776 93.5479 96.0917 93.2776 96.2741C93.2444 96.4043 93.2345 96.3951 93.2361 96.5261L93.1889 96.4855L93.2311 96.454C93.1151 96.4432 92.873 96.1762 92.795 96.0917L92.6475 96.061C92.3689 95.8811 90.7546 93.9667 90.4155 93.5803C88.2714 91.1601 86.1513 88.7192 84.0545 86.2576C83.1367 85.1623 82.2189 83.8108 81.3176 82.806L81.2372 82.7164L81.3864 82.5249Z" fill="#B0EEF7"/>
<path d="M93.2121 94.8124C94.5519 96.129 96.2964 98.0426 97.6545 99.2216C97.4422 99.2224 96.3486 99.3824 96.1869 99.4347C96.1621 99.4902 96.1256 99.5425 96.1198 99.603L95.9457 99.5458C94.9084 98.55 93.9044 97.5202 92.936 96.4582L92.6475 96.061L92.795 96.0917C92.873 96.1762 93.1151 96.4432 93.2312 96.454L93.1889 96.4855L93.2361 96.5261C93.2345 96.3951 93.2444 96.4043 93.2776 96.2741C93.5479 96.0917 93.5686 96.0776 93.7941 95.8446C93.8248 95.3239 93.3364 95.4757 93.2121 94.8124Z" fill="#CBF2FA"/>
<path d="M97.6545 99.2216C97.9679 99.4794 97.9712 99.6436 97.9969 100.085C98.0666 101.294 98.4123 103.701 98.2059 104.845L98.0815 104.928C97.9986 104.903 97.8029 104.848 97.7333 104.817C97.5575 102.959 97.2773 101.093 96.1198 99.603C96.1256 99.5424 96.1621 99.4902 96.187 99.4347C96.3486 99.3824 97.4422 99.2224 97.6545 99.2216Z" fill="#F9FEFE"/>
<path d="M65.5433 66.426C66.8138 66.4956 68.4071 66.0206 69.443 66.1781C71.4793 66.4882 73.8149 67.6365 75.7633 68.4324C77.871 69.2947 81.1717 70.4223 83.0844 71.6038C83.8323 71.918 87.0683 73.1352 87.584 73.5157C90.0714 74.4634 92.596 75.6739 95.1074 76.6572C95.9498 78.1298 97.0442 79.9422 97.6321 81.5026L96.8096 81.709C96.0145 81.8376 95.1091 81.9976 94.3115 82.0183C93.9607 82.0714 93.6109 82.1219 93.2601 82.17C92.9268 82.2156 92.2859 82.3077 91.9858 82.2048C90.7919 81.7953 89.5838 81.0988 88.4637 80.511C86.6853 79.5782 84.9101 78.6471 83.1723 77.6472C82.6491 77.3462 81.5348 76.8148 81.0987 76.4848C79.0184 75.9658 69.1785 69.6156 67.0214 68.0461C66.4556 67.634 65.9189 67.0362 65.5433 66.426Z" fill="url(#paint3_linear_26_4)"/>
<path d="M93.9483 77.4018C95.2243 77.6779 96.1969 79.3088 96.497 80.511C96.5816 80.8484 96.6471 81.1535 96.7897 81.4744C96.6305 81.6377 96.633 81.5872 96.3494 81.6278L96.8096 81.709C96.0145 81.8376 95.1091 81.9976 94.3115 82.0183C93.7651 82.0125 93.6872 82.054 93.2602 81.7447C92.7146 81.297 92.4435 80.9678 91.9767 80.4305C91.8971 80.2929 91.8225 80.1528 91.7528 80.0102C90.8897 78.2102 92.9758 77.9225 93.9483 77.4018Z" fill="#B9FCFA"/>
<path d="M87.5841 73.5157C90.0714 74.4634 92.5961 75.6739 95.1074 76.6573C95.9498 78.1298 97.0443 79.9422 97.6321 81.5026L96.8096 81.709L96.3495 81.6278C96.633 81.5872 96.6305 81.6377 96.7897 81.4744C96.6471 81.1535 96.5816 80.8484 96.497 80.511C96.1969 79.3088 95.2244 77.6779 93.9483 77.4018C93.5321 77.2327 93.0521 76.9906 92.6558 76.77C90.7845 75.7287 88.8651 74.7934 86.9647 73.8126L86.9705 73.7305C87.1571 73.6824 87.6264 73.9825 87.8544 74.0978L87.9721 74.0339L88.0152 73.8698C87.8925 73.7943 87.8129 73.7495 87.6819 73.6832L87.5633 73.6227L87.5841 73.5157Z" fill="url(#paint4_linear_26_4)"/>
<path d="M81.0988 76.4848C80.7165 76.1374 80.1884 75.994 79.8808 75.6839C82.3474 76.7518 84.7941 77.8669 87.2193 79.0277C88.356 79.5608 89.5002 80.2738 90.6866 80.6436C91.2479 80.7846 91.5431 80.9678 92.0008 81.0822L92.1492 80.9919C92.1326 80.768 92.0621 80.637 91.9767 80.4305C92.4435 80.9678 92.7147 81.297 93.2602 81.7447C93.6872 82.054 93.7651 82.0125 94.3115 82.0183C93.9608 82.0714 93.6109 82.1219 93.2602 82.17C92.9269 82.2156 92.286 82.3077 91.9859 82.2049C90.7919 81.7953 89.5839 81.0988 88.4638 80.511C86.6853 79.5782 84.9102 78.6471 83.1724 77.6472C82.6492 77.3462 81.5349 76.8148 81.0988 76.4848Z" fill="#B9FCFA"/>
<path d="M91.9767 80.4305C92.4435 80.9678 92.7146 81.297 93.2602 81.7447C92.931 82.2952 91.1724 80.9123 90.6866 80.6436C91.2479 80.7846 91.5431 80.9678 92.0007 81.0822L92.1491 80.9919C92.1326 80.768 92.0621 80.637 91.9767 80.4305Z" fill="#4CE0F0"/>
<path d="M86.9647 73.8126C86.0477 73.5157 83.3722 72.1452 82.5074 71.6138L82.524 71.5424C82.7114 71.5748 82.8954 71.5939 83.0844 71.6038C83.8323 71.918 87.0683 73.1352 87.584 73.5157L87.5633 73.6227L87.6819 73.6832C87.8129 73.7495 87.8925 73.7943 88.0152 73.8698L87.9721 74.0339L87.8543 74.0978C87.6263 73.9825 87.1571 73.6824 86.9705 73.7305L86.9647 73.8126Z" fill="#B9FCFA"/>
<path d="M73.8382 51.6372C74.1168 51.5795 76.2327 49.4241 76.6555 49.0366C81.5348 44.566 86.1538 39.8622 90.908 35.2575C92.3498 33.8605 94.003 31.9605 95.6455 30.813C96.4033 30.4017 101.308 30.0979 102.235 30.4443C102.515 31.5103 101.534 36.0984 100.992 37.0122C100.503 37.8393 97.7556 40.1723 96.8867 40.9384C95.464 42.1738 94.0627 43.4342 92.6831 44.719C90.6551 46.3921 88.7092 48.3284 86.7292 50.0626C85.9142 50.7765 84.7054 51.9549 83.8456 52.5549L83.7303 52.4767C83.2793 52.8388 81.9046 54.3798 81.6418 54.4328L81.5406 54.3839C81.5697 54.2032 81.5572 54.2596 81.6393 54.0921C81.5846 54.0921 79.2995 55.6699 79.1876 55.8125L79.0583 55.7594C76.5519 57.8911 73.9169 60.0294 71.4727 62.2132C70.399 62.724 69.4845 63.84 68.5347 64.4336C67.8065 64.8888 64.6615 64.9908 63.9369 64.7885L63.8807 64.6799C64.0671 63.7886 67.0123 62.6784 67.8855 60.8576C69.4049 58.8222 70.7646 56.5587 72.1468 54.4262C72.4743 53.9213 73.6326 51.832 73.8382 51.6372Z" fill="#3CD5EF"/>
<path d="M102.235 30.4443C102.515 31.5103 101.534 36.0984 100.993 37.0122C100.503 37.8393 97.7556 40.1723 96.8867 40.9384C95.464 42.1738 94.0628 43.4342 92.6831 44.719C90.6551 46.3921 88.7092 48.3284 86.7293 50.0626C85.9142 50.7765 84.7054 51.9549 83.8456 52.5549L83.7303 52.4767C83.2793 52.8388 81.9046 54.3798 81.6418 54.4328L81.5407 54.3839C81.5697 54.2032 81.5572 54.2596 81.6393 54.0921C81.5846 54.0921 79.2996 55.6699 79.1876 55.8125L79.0583 55.7594C79.5027 55.3233 79.8252 54.4378 80.263 54.0805C81.6194 52.9715 82.9211 51.8014 84.2519 50.6616C84.7485 50.2362 85.43 49.7217 85.8487 49.2478C85.9831 48.6955 87.4597 47.8392 87.9141 47.19L87.8602 47.1428C86.575 47.7526 86.1348 46.0706 85.4649 45.601C84.6639 45.9316 84.6988 45.3873 83.9492 45.1392C83.8804 45.1164 83.6275 45.0244 83.5571 45.0611C82.7744 45.4707 81.9121 46.7756 81.078 47.007C81.2886 46.754 81.5854 46.5116 81.84 46.3005C83.8174 44.6619 85.5196 42.7364 87.4249 41.0202C87.8137 40.6693 88.2258 40.3178 88.5516 39.9067C90.554 38.2187 91.7155 37.0612 93.5819 35.2488C93.7618 35.0257 94.3646 34.5384 94.6208 34.3879C95.0801 33.9631 95.4275 33.6563 95.8213 33.1726C96.3868 32.129 99.2762 31.5167 100.381 31.5865C100.815 31.614 101.275 31.5983 101.607 31.3273L101.83 30.887C102.094 30.8111 102.041 30.7665 102.235 30.4443Z" fill="#48F4F3"/>
<path d="M102.235 30.4443C102.515 31.5103 101.534 36.0984 100.993 37.0122C100.503 37.8393 97.7556 40.1723 96.8867 40.9384C95.464 42.1738 94.0628 43.4342 92.6831 44.719C90.6551 46.3921 88.7092 48.3284 86.7293 50.0626C85.9142 50.7765 84.7054 51.9549 83.8456 52.5549L83.7303 52.4767C83.2793 52.8388 81.9046 54.3798 81.6418 54.4328L81.5407 54.3839C81.5697 54.2032 81.5572 54.2596 81.6393 54.0921C81.5846 54.0921 79.2996 55.6699 79.1876 55.8125L79.0583 55.7594C79.5027 55.3233 79.8252 54.4378 80.263 54.0805C81.6194 52.9715 82.9211 51.8014 84.2519 50.6616C84.7485 50.2362 85.43 49.7217 85.8487 49.2478C87.9033 47.5619 89.6842 45.5552 91.6401 43.7587C93.615 41.9444 99.971 37.2584 100.806 34.9874C100.945 34.6077 100.988 34.4388 100.819 34.0637C101.134 33.1676 101.397 32.2539 101.607 31.3273L101.83 30.887C102.094 30.8111 102.041 30.7665 102.235 30.4443Z" fill="#25A9E8"/>
<path d="M95.8213 33.1726C96.3867 32.129 99.2762 31.5167 100.381 31.5865C100.815 31.614 101.275 31.5983 101.607 31.3273C101.397 32.2539 101.134 33.1676 100.819 34.0637C99.7869 35.7436 98.9728 35.7003 97.0907 35.6667C95.8379 34.5742 96.4257 33.8266 95.9672 33.1763L95.8213 33.1726Z" fill="#B9FCFA"/>
<path d="M96.0187 31.1995C96.9987 31.0445 101.097 30.5264 101.83 30.887L101.607 31.3273C101.275 31.5983 100.815 31.614 100.381 31.5865C99.2762 31.5167 96.3868 32.129 95.8213 33.1726C95.4275 33.6563 95.0801 33.9631 94.6208 34.3879C94.3646 34.5384 93.7618 35.0257 93.5819 35.2488C91.7156 37.0613 90.554 38.2187 88.5517 39.9067C88.2258 40.3178 87.8138 40.6693 87.4249 41.0202C85.5196 42.7364 83.8174 44.6619 81.84 46.3005C81.5855 46.5116 81.2886 46.754 81.078 47.007C80.2953 47.4887 80.0151 48.0977 78.72 48.7601C78.9986 48.2923 80.166 47.2365 80.6195 46.7831C81.9776 45.4117 83.3432 44.0483 84.7178 42.6928C85.5478 41.8724 86.7094 40.6009 87.5343 39.8851C89.5822 37.6297 91.7562 35.5918 93.8771 33.4156C94.4964 32.7803 95.5088 31.8489 96.0187 31.1995Z" fill="#B0EEF7"/>
<path d="M78.72 48.7601C78.9986 48.2923 80.166 47.2365 80.6195 46.7831C81.9776 45.4117 83.3432 44.0483 84.7178 42.6928C85.5478 41.8724 86.7094 40.6009 87.5343 39.8851C86.7633 41.4025 83.9111 43.423 82.8042 44.8486C82.5207 45.2143 81.8416 45.6585 81.583 46.0592C82.16 46.0008 82.8573 45.0874 83.3141 44.6767C85.0976 43.0709 86.5245 41.2364 88.5517 39.9067C88.2258 40.3178 87.8138 40.6693 87.4249 41.0202C85.5196 42.7364 83.8174 44.6619 81.84 46.3005C81.5855 46.5116 81.2886 46.754 81.078 47.007C80.2953 47.4887 80.0151 48.0977 78.72 48.7601Z" fill="#6CF8F3"/>
<path d="M92.6833 44.7188C92.3317 45.6269 86.8155 50.0157 85.2097 51.6504L83.7556 52.8682L82.2869 54.2227L81.1619 55.1807L82.7869 54.2949L84.8699 53.4102L85.5984 53.0889C86.0564 53.0117 86.722 52.4888 86.9763 52.4854C88.1669 52.4695 90.3199 53.0275 91.1755 53.8545C91.6471 54.3106 90.639 55.5364 90.3406 55.8946C90.0231 56.3529 89.8086 56.8637 89.3445 57.2334C88.0196 58.3262 85.9488 58.6855 84.3884 59.3438C83.7895 59.5964 83.5043 59.6031 83.3279 59.7403L78.613 61.3867L76.031 62.4414L75.6091 62.7403L78.156 62.5996L82.6462 62.5488C82.6781 62.5643 82.7111 62.5737 82.7449 62.5733C86.2586 62.502 89.8188 62.2856 93.3318 62.1455C94.8248 62.085 96.399 61.9542 97.8464 62.1133C96.4509 62.289 93.8648 62.2923 92.3767 62.3545C88.9294 62.5294 85.4787 62.6629 82.0281 62.7549C81.1058 62.7756 76.8743 62.7555 76.3503 62.9238L76.3621 63.0235C76.12 63.0666 76.0034 63.0403 75.8591 63.1787C75.388 63.63 74.4002 63.4066 73.5955 63.7041C72.7605 64.0126 71.4336 64.5762 70.7322 65.0703C70.3044 65.2701 70.058 65.2438 69.6003 65.2529C67.9585 65.287 66.3705 65.6545 64.7517 65.8477C64.663 65.8583 64.5023 65.58 64.238 65.6387C64.2712 65.8028 64.3022 65.9582 64.3289 66.1231C64.0706 65.8545 63.8781 65.6836 63.9548 65.2832C64.0489 65.1838 64.1404 65.0484 64.3015 65.0459C65.5341 65.0327 67.5298 65.2374 68.6238 64.5908C69.2968 64.1929 70.9973 62.819 71.4724 62.2129C73.9166 60.0291 76.552 57.8914 79.0583 55.7598L79.1873 55.8125C79.2992 55.67 81.5833 54.0928 81.6394 54.0918C81.5574 54.2592 81.5698 54.2032 81.5408 54.3838L81.6414 54.4326C81.9042 54.3796 83.2792 52.8387 83.7302 52.4766L83.8455 52.5547C84.7052 51.9547 85.9142 50.7765 86.7292 50.0625C88.7091 48.3284 90.6554 46.3918 92.6833 44.7188Z" fill="url(#paint5_linear_26_4)"/>
<path d="M79.1876 55.8125C79.2996 55.6699 81.5846 54.0921 81.6393 54.0921C81.5572 54.2596 81.5697 54.2032 81.5406 54.3839L81.6418 54.4328C81.9046 54.3798 83.2793 52.8388 83.7303 52.4767L83.8456 52.5549C83.0969 53.3523 81.7728 54.4594 81.1476 55.1849C82.2288 54.7031 86.4929 52.7827 87.4705 52.5846C88.1636 52.7487 89.8732 53.2223 90.4943 53.5412C90.2281 53.6068 87.987 52.8498 87.4298 52.721C86.0676 53.1562 84.4218 53.9876 83.0803 54.5514C82.3714 54.8491 81.9138 55.1857 81.122 55.4162L81.0457 55.3656C81.015 55.1625 80.9968 54.9627 80.9337 54.7695C80.4562 55.0207 79.6594 55.7793 79.1876 55.8125Z" fill="#2792DB"/>
<path d="M87.4265 52.9844C87.9323 53.1585 90.3102 53.913 90.5946 54.0979C90.544 54.3408 90.4362 54.4071 90.2579 54.5813C89.9769 54.9792 89.1428 55.9932 88.8053 56.3042C85.3189 56.1077 87.2864 55.3316 86.8171 54.1783C86.9299 54.1667 87.6131 53.9362 87.8311 53.879L87.4613 53.8102C87.3552 53.642 87.3461 53.5783 87.274 53.3866C87.0062 53.3719 86.9332 53.4577 86.6662 53.5906L86.5037 53.528C86.8097 53.3441 87.1173 53.1628 87.4265 52.9844Z" fill="#4CE0F0"/>
<path d="M87.4265 52.9844C87.9323 53.1585 90.3102 53.913 90.5946 54.0979C90.544 54.3408 90.4362 54.4071 90.2579 54.5813C89.7953 54.3367 88.4065 54.0191 87.8311 53.879L87.4613 53.8102C87.3552 53.642 87.3461 53.5783 87.274 53.3866C87.0062 53.3719 86.9332 53.4577 86.6662 53.5906L86.5037 53.528C86.8097 53.3441 87.1173 53.1628 87.4265 52.9844Z" fill="#B0EEF7"/>
<path d="M86.5038 53.528L86.6663 53.5906C86.9332 53.4577 87.0062 53.3719 87.274 53.3866C87.3461 53.5783 87.3552 53.642 87.4614 53.8102L87.8312 53.879C87.6131 53.9362 86.9299 54.1667 86.8172 54.1783C85.1042 54.6136 82.5257 55.9642 81.1626 56.1922C81.7156 55.8092 82.8863 55.3374 83.5314 55.0182C84.523 54.5265 85.513 54.0191 86.5038 53.528Z" fill="#ADE6F9"/>
<path d="M97.8468 62.1138C101.486 62.1013 105.12 61.875 108.757 61.7796C109.566 61.7589 110.374 61.7299 111.182 61.7746C112.801 62.9454 114.335 64.2272 115.776 65.6101C115.697 65.6814 115.553 65.7983 115.487 65.8829L115.651 66.1474C115.583 66.3986 115.635 66.2784 115.373 66.4824C115.302 66.4334 115.257 66.3945 115.183 66.3671C113.923 65.9078 111.302 63.6708 110.058 63.8466C109.472 63.8814 108.702 63.7894 108.099 63.7662C105.55 63.6692 103.001 63.6982 100.451 63.6169C99.4263 63.5846 98.336 63.7115 97.3212 63.6086C97.681 63.4917 97.9803 63.5158 98.36 63.5108C98.4769 63.3682 98.4355 63.4536 98.4181 63.2165C98.3227 63.2762 98.365 63.277 98.2979 63.2629L98.3451 63.2198C98.6859 63.2049 98.8558 63.1651 99.1941 63.0963C97.1271 63.0755 95.0568 63.3052 92.9691 63.2828C90.67 63.1692 87.3933 63.4951 85.0834 63.6012C82.2247 63.733 79.3543 63.8159 76.5336 64.3217C75.3015 64.5422 73.7486 64.922 72.495 65.0994C72.335 65.1218 71.9428 64.8963 71.7745 64.8009C71.4586 64.7619 71.2629 64.9269 70.9727 65.0853C71.3724 65.2403 71.7264 65.305 72.126 65.4186C74.6407 66.1325 76.7658 67.6862 79.3145 68.3072C80.2621 68.5377 84.8944 68.4275 85.3786 68.7376C84.838 68.8686 79.9181 68.5211 79.1536 68.386C76.9531 67.998 74.2328 66.1142 71.9942 65.5587C71.5299 65.4443 71.0988 65.3946 70.7323 65.0704C71.4337 64.5762 72.7603 64.0124 73.5952 63.704C74.4003 63.4063 75.3886 63.6302 75.8595 63.1783C76.0038 63.0399 76.1199 63.0664 76.362 63.0233L76.3504 62.9238C76.8744 62.7555 81.1062 62.7754 82.0281 62.7547C85.4789 62.6626 88.9297 62.5291 92.3772 62.3542C93.8654 62.292 96.4514 62.2895 97.8468 62.1138Z" fill="#3FC2EF"/>
<path d="M99.1941 63.0963L111.081 62.3227C112.195 63.0565 113.21 63.9925 114.238 64.8424C114.427 64.9982 115.325 65.8017 115.487 65.8829L115.651 66.1474C115.583 66.3986 115.635 66.2784 115.373 66.4824C115.302 66.4334 115.257 66.3945 115.183 66.3671C113.923 65.9078 111.302 63.6708 110.058 63.8466C109.472 63.8814 108.702 63.7894 108.099 63.7662C105.55 63.6692 103.001 63.6982 100.451 63.6169C99.4263 63.5846 98.336 63.7115 97.3212 63.6086C97.681 63.4917 97.9803 63.5158 98.36 63.5108C98.477 63.3682 98.4355 63.4536 98.4181 63.2165C98.3227 63.2762 98.365 63.277 98.2979 63.2629L98.3451 63.2198C98.6859 63.2049 98.8559 63.1651 99.1941 63.0963Z" fill="url(#paint6_linear_26_4)"/>
<path d="M110.058 63.8466C111.302 63.6708 113.923 65.9078 115.183 66.3671C115.257 66.3945 115.302 66.4334 115.373 66.4824C114.113 67.2675 113.208 67.9308 111.877 68.6721C111.105 68.4167 109.382 67.503 108.955 66.7634C108.333 65.6897 109.964 64.4999 110.058 63.8466Z" fill="#B9FCFA"/>
<path d="M92.9692 63.2828C95.0569 63.3052 97.1272 63.0755 99.1942 63.0963C98.8559 63.1651 98.6859 63.2049 98.3451 63.2198L98.2979 63.2629C98.365 63.277 98.3228 63.2762 98.4181 63.2165C98.4355 63.4536 98.477 63.3682 98.3601 63.5108C97.9803 63.5158 97.681 63.4917 97.3212 63.6086C96.5882 63.6045 92.1483 63.6012 91.8839 63.4022C92.2744 63.3815 92.5845 63.3367 92.9692 63.2828Z" fill="#B9FCFA"/>
<path d="M76.2916 36.3009C76.7942 35.6767 80.1119 34.0173 80.6715 34.4445C81.1951 34.8466 81.4925 37.7972 81.5348 38.5959C80.9121 39.8381 79.9361 41.2791 79.2281 42.507C77.4672 45.5594 75.553 48.5633 73.8385 51.6378C73.6323 51.8339 72.4748 53.9205 72.1471 54.4259C70.765 56.5584 69.4047 58.8221 67.8854 60.8576L67.8268 60.9142C67.378 61.3519 66.8325 62.0983 66.4049 62.4201C65.5397 63.0709 64.6792 63.4015 63.8698 64.1808C63.7887 64.4933 63.7108 64.7861 63.6471 65.1027L63.6823 65.2023C64.4315 67.2806 65.1567 67.4892 65.1754 69.7931L65.1676 70.048C65.0283 70.8071 65.1412 71.114 64.8922 71.84L64.7076 71.7531C64.8163 72.3326 65.5715 73.1461 65.9244 73.6261C67.0675 75.1813 68.1938 76.7701 69.4147 78.2648C70.5399 79.6428 73.4297 82.1362 73.7789 83.8117L73.8541 83.674L73.9069 83.4757C74.1001 83.5799 74.1245 83.6334 74.276 83.799C74.8191 84.5269 75.7202 85.4802 76.3444 86.2072L81.9127 92.6212C82.3342 93.1148 83.6823 94.6043 83.9615 95.0177C83.8848 94.9971 83.8067 94.9759 83.7291 94.9552C82.5403 93.6719 81.2401 92.0598 80.111 90.7755C78.4852 88.9267 76.9377 87.2153 75.3707 85.3293C75.2232 85.1519 74.8353 84.5744 74.6188 84.6349C74.539 85.0381 77.178 90.5738 77.4645 91.3556C77.6586 91.8854 78.3305 92.9981 78.4352 93.5959C78.5476 94.2441 77.6251 98.4964 76.609 98.1056C75.4467 97.6563 73.4297 96.3555 72.7936 95.2238C72.3692 94.5027 72.5438 94.5431 72.2994 93.9357C71.4174 91.7439 70.5502 89.5229 69.6656 87.3302C69.6627 87.3227 69.6356 87.3113 69.6012 87.299L67.861 81.6593L67.1539 79.7882L66.8805 79.2638L67.0631 85.3556L67.0856 87.4318L67.1432 87.6837C67.1343 88.0768 67.1569 88.4925 67.194 88.7101C67.3592 89.6775 67.2252 90.7869 67.2623 91.7668L67.528 99.6691C67.5581 100.895 67.7335 102.15 67.4733 103.355C67.5326 105.931 67.6978 108.676 67.7291 111.204C67.5133 111.493 67.0863 112.097 66.8639 112.342C66.1134 113.521 64.6693 115.245 63.5983 116.09C63.1504 116.184 62.6927 115.929 62.4332 115.582C61.5279 114.369 59.5252 111.908 59.192 110.492C58.9042 109.268 59.0382 106.529 59.0602 105.233C59.0986 103.358 59.1215 101.484 59.1276 99.6086C58.8963 98.2033 59.0492 95.5525 59.0602 94.0724C59.0825 91.0482 59.4075 87.5017 59.194 84.5158L59.2369 84.4875L59.6237 80.3771L59.7291 79.6212L59.2018 80.5002L58.6041 81.8L57.8844 83.3459L57.2584 84.5197C57.197 84.5277 57.153 84.5461 57.1315 84.5812C55.3007 87.5743 53.9326 90.9499 51.984 93.8576C51.9681 93.8792 48.9223 95.2292 48.7145 95.3087L48.5836 95.2462C47.1544 95.7619 46.5444 96.1948 46.234 94.3205C46.1477 93.4345 46.0679 92.5557 45.9469 91.673C45.0104 90.4581 46.4391 88.6755 47.109 87.4054L49.4108 83.8068L48.9293 84.4005L45.8405 87.4894C43.3206 89.7282 37.9674 95.5117 36.7545 95.9259C34.9662 97.5783 32.4972 100.003 30.6334 101.47C29.4045 101.548 25.9247 101.829 24.9293 101.584C23.2918 101.462 24.514 98.8148 24.5953 97.797C24.633 97.3229 25.1746 95.4052 25.3854 95.0929C26.5947 93.3012 28.7202 91.972 30.2906 90.4357L30.361 90.3664C30.7497 89.6334 32.5826 88.1563 33.2906 87.5402C35.2023 85.8671 37.1357 84.2182 39.0895 82.5949C39.5959 82.1686 42.2409 80.0392 42.4948 79.5724L43.2906 79.0431L46.5612 76.4601L47.5612 75.6789L48.0612 75.3556L48.0504 75.2726L47.9254 75.2101L47.6656 75.2834L47.2692 75.4806L44.8424 76.5949L40.9928 78.2179C39.9879 78.5436 37.8561 79.679 37.399 79.6369C36.4955 79.5523 34.0299 78.6163 33.4469 77.9679C33.1467 76.8453 35.2786 74.5392 36.2448 73.9621C36.5405 73.7855 37.4568 73.5113 37.8385 73.382L41.4 72.1808C41.7075 72.0769 42.7747 71.766 43.2311 71.506L44.9264 70.9289L48.2379 69.6896L46.1754 69.7941L42.8073 69.9093C41.7031 69.7901 28.5241 70.3557 26.777 70.2336C27.3914 70.1283 28.767 70.1255 29.4655 70.1056L34.5231 69.9562C38.0958 69.8053 41.6712 69.7012 45.2467 69.6457C45.9505 69.6365 48.1984 69.5186 48.734 69.5617C49.5497 68.8198 52.1898 68.8567 53.3522 68.8302C54.6991 68.9479 55.3503 68.9453 56.4235 68.05C56.5735 67.9249 56.6987 67.8156 56.8893 67.7882C57.7561 67.154 59.9053 66.1523 60.2281 65.5031C61.174 65.4062 62.1534 65.6838 62.7545 64.8703C63.4673 63.8994 63.4845 62.6271 63.5182 61.4689L63.5983 60.9494C63.6934 60.3035 63.7857 59.9981 63.9674 59.3615C64.5985 58.2654 65.5173 56.2339 66.0133 55.0666C66.0353 54.987 66.0585 54.907 66.0836 54.8283C66.3224 54.0907 66.4704 54.3986 66.7711 54.0089C68.8101 50.4127 70.7426 46.7081 72.7174 43.0724C73.2823 42.0315 76.1297 37.005 76.2916 36.3009Z" fill="#3CD5EF"/>
<path d="M76.2912 36.3007C76.7936 35.6766 80.1114 34.017 80.6711 34.4443C81.1949 34.8452 81.4921 37.7968 81.5344 38.5956C80.9117 39.8379 79.9367 41.2789 79.2287 42.5068C77.4677 45.5594 75.5527 48.5629 73.8381 51.6376C73.6317 51.8342 72.4743 53.9205 72.1467 54.4257C70.7646 56.5581 69.4052 58.822 67.8859 60.8574L67.8264 60.914C67.3775 61.3518 66.8321 62.0982 66.4045 62.4199C65.5392 63.0707 64.6788 63.4012 63.8693 64.1806C63.7883 64.4931 63.7103 64.7858 63.6467 65.1025L63.6818 65.2021C64.4311 67.2807 65.1563 67.4889 65.175 69.7929L65.1672 70.0478C65.0278 70.807 65.1408 71.1137 64.8918 71.8398L64.7072 71.7529C64.8157 72.3324 65.571 73.1459 65.924 73.6259C67.0673 75.1813 68.1941 76.7697 69.4152 78.2646C70.5403 79.6425 73.4293 82.1358 73.7785 83.8115L73.8537 83.6738L73.9064 83.4755C74.1001 83.5799 74.124 83.6331 74.2756 83.7988C74.8186 84.5267 75.7196 85.4799 76.3439 86.207L81.9123 92.621C82.3336 93.1144 83.6834 94.6045 83.9621 95.0175C83.885 94.9968 83.8066 94.9757 83.7287 94.955C82.5398 93.6716 81.2398 92.0596 80.1105 90.7753C78.4846 88.9264 76.9373 87.2153 75.3703 85.329C75.2227 85.1516 74.8348 84.5735 74.6183 84.6347C74.5379 85.0368 77.1775 90.5734 77.4641 91.3554C77.658 91.8851 78.3301 92.9978 78.4348 93.5956C78.5475 94.2431 77.625 98.4977 76.6086 98.1054C75.4462 97.656 73.4291 96.3553 72.7932 95.2236C72.3688 94.5024 72.5436 94.5432 72.299 93.9355C71.417 91.7436 70.5498 89.5227 69.6652 87.33C69.6623 87.3225 69.6352 87.3111 69.6008 87.2988L67.8615 81.6591L67.1545 79.789L66.8801 79.2636L67.0627 85.3554L67.0861 87.4316L67.1437 87.6826C67.1351 88.0759 67.1574 88.4921 67.1945 88.7099C67.3598 89.6773 67.2248 90.7867 67.2619 91.7665L67.5275 99.6689C67.5577 100.895 67.734 102.15 67.4738 103.354C67.5332 105.931 67.6974 108.675 67.7287 111.204C67.5128 111.493 67.0859 112.096 66.8635 112.342C66.1129 113.521 64.6689 115.245 63.5978 116.09C63.1498 116.183 62.6922 115.929 62.4328 115.582C61.5274 114.369 59.5245 111.907 59.1916 110.492C58.9038 109.268 59.0378 106.528 59.0598 105.232C59.0981 103.358 59.1211 101.484 59.1271 99.6083C58.8958 98.2031 59.0498 95.5522 59.0607 94.0722C59.0831 91.0479 59.4071 87.5016 59.1935 84.5156L59.2365 84.4873L59.6232 80.3769L59.7287 79.622L59.2014 80.4999L58.6047 81.7998L57.884 83.3456L57.259 84.5195C57.1972 84.5274 57.1526 84.5457 57.131 84.581C55.3003 87.5741 53.9322 90.9497 51.9836 93.8574C51.9687 93.8785 48.9201 95.2298 48.7141 95.3085L48.5832 95.246C48.8665 94.9352 51.288 93.9999 51.882 93.7734C52.6703 92.5538 53.3446 91.1873 54.0334 89.9072L57.841 82.7802C58.1241 82.2386 59.1081 80.0355 59.4553 79.8623C60.097 78.0288 61.9907 73.5359 63.549 72.3935C64.2373 70.3681 63.8529 68.027 62.884 66.165C62.7613 65.8897 62.8559 65.9885 62.5969 65.8535C61.628 65.9464 60.0001 66.9217 59.5402 67.788C59.3428 67.7698 59.4135 67.7897 59.2404 67.6894C59.0415 67.7722 59.0412 67.7563 58.8723 67.8798C58.4021 68.0746 58.0263 68.2322 57.5392 68.3847L57.3703 68.2871C58.696 67.6778 59.5272 67.7058 60.3957 66.5703C60.5855 66.3224 61.9149 65.8145 62.3068 65.7763L62.3371 65.7197L62.256 65.6503C60.1777 65.2656 59.5196 66.4614 57.8127 67.3427C57.4778 67.516 57.277 67.7275 56.8889 67.788C57.7556 67.1538 59.9059 66.1521 60.2287 65.5029C61.1747 65.406 62.1541 65.6841 62.7551 64.8701C63.4679 63.8992 63.4851 62.627 63.5187 61.4687L63.5978 60.9492C63.6929 60.3033 63.7853 59.998 63.967 59.3613C64.5981 58.2652 65.5169 56.2337 66.0129 55.0664C66.0348 54.9868 66.0581 54.9068 66.0832 54.8281C66.322 54.0904 66.4699 54.3984 66.7707 54.0087C68.8097 50.4124 70.7421 46.7079 72.717 43.0722C73.2818 42.0314 76.1295 37.0044 76.2912 36.3007Z" fill="url(#paint7_linear_26_4)"/>
<path d="M76.2912 36.3007C76.7936 35.6766 80.1114 34.017 80.6711 34.4443C81.1949 34.8453 81.4921 37.7968 81.5344 38.5956C80.9117 39.838 79.9367 41.2789 79.2287 42.5068C77.4677 45.5594 75.5527 48.5629 73.8381 51.6376C73.6317 51.8341 72.4743 53.9205 72.1467 54.4257C70.7646 56.5581 69.4052 58.822 67.8859 60.8574L67.8264 60.914C67.3775 61.3518 66.8321 62.0982 66.4045 62.4199C65.5392 63.0707 64.6788 63.4012 63.8693 64.1806C63.7883 64.4931 63.7103 64.7858 63.6467 65.1025L63.6818 65.2021C64.4311 67.2807 65.1563 67.4889 65.175 69.7929L65.1672 70.0478C65.0278 70.807 65.1408 71.1137 64.8918 71.8398L64.7072 71.7529C64.8157 72.3324 65.571 73.1459 65.924 73.6259C67.0673 75.1813 68.1941 76.7697 69.4152 78.2646C70.5403 79.6425 73.4293 82.1358 73.7785 83.8115L73.8537 83.6738L73.9064 83.4755C74.1001 83.5799 74.124 83.6331 74.2756 83.7988C74.8186 84.5267 75.7196 85.4799 76.3439 86.207L81.9123 92.621C82.3336 93.1145 83.6834 94.6045 83.9621 95.0175C83.885 94.9968 83.8066 94.9757 83.7287 94.955C82.5398 93.6716 81.2398 92.0596 80.1105 90.7753C78.4846 88.9264 76.9373 87.2153 75.3703 85.329C75.2227 85.1516 74.8348 84.5735 74.6183 84.6347C74.5379 85.0368 77.1775 90.5734 77.4641 91.3554C77.658 91.8851 78.3301 92.9978 78.4348 93.5956C78.5475 94.2431 77.625 98.4976 76.6086 98.1054C75.4462 97.656 73.4291 96.3553 72.7932 95.2236C72.3688 94.5025 72.5434 94.5438 72.299 93.9365C71.4169 91.7444 70.5498 89.5229 69.6652 87.33C69.6623 87.3225 69.6351 87.311 69.6008 87.2988L67.8615 81.6591L67.1545 79.789L66.8801 79.2636L67.0627 85.3554L67.0861 87.4316L67.1437 87.6835C67.1349 88.0766 67.1574 88.4923 67.1945 88.7099C67.3598 89.6773 67.2248 90.7867 67.2619 91.7665L67.5275 99.6689C67.5577 100.895 67.734 102.15 67.4738 103.354C67.325 101.786 67.3644 99.3009 67.3176 97.6552C67.1693 93.601 67.0516 89.5451 66.9641 85.4892C66.9237 84.1601 67.002 81.7718 66.8527 80.582C66.6502 80.1856 66.5784 79.199 66.2014 78.8408C66.0527 79.0313 66.0632 79.2384 66.0207 79.5068C65.9362 79.3302 65.9483 78.3095 65.9328 78.0019C65.5858 76.3926 64.5258 74.3511 63.7277 72.8779C63.6366 72.6914 63.6115 72.5891 63.549 72.3935C64.2373 70.3681 63.8529 68.027 62.884 66.165C62.7613 65.8898 62.8559 65.9885 62.5969 65.8535C61.628 65.9464 60.0001 66.9217 59.5402 67.788C59.3428 67.7698 59.4135 67.7897 59.2404 67.6894C59.0415 67.7722 59.0412 67.7563 58.8723 67.8798C58.4021 68.0746 58.0263 68.2322 57.5392 68.3847L57.3703 68.2871C58.696 67.6778 59.5272 67.7058 60.3957 66.5703C60.5855 66.3224 61.9149 65.8145 62.3068 65.7763L62.3371 65.7197L62.256 65.6503C60.1777 65.2656 59.5196 66.4614 57.8127 67.3427C57.4778 67.516 57.277 67.7275 56.8889 67.788C57.7556 67.1538 59.9059 66.1521 60.2287 65.5029C61.1747 65.406 62.1541 65.6841 62.7551 64.8701C63.4679 63.8992 63.4851 62.627 63.5187 61.4687L63.5978 60.9492C63.6929 60.3033 63.7853 59.998 63.967 59.3613C64.5981 58.2652 65.5169 56.2337 66.0129 55.0664C66.0348 54.9868 66.0581 54.9068 66.0832 54.8281C66.322 54.0904 66.4699 54.3984 66.7707 54.0087C68.8097 50.4124 70.7421 46.7079 72.717 43.0722C73.2818 42.0314 76.1295 37.0044 76.2912 36.3007Z" fill="url(#paint8_linear_26_4)"/>
<path d="M77.1629 36.1558C77.978 35.802 79.5591 35.0797 80.3832 34.9006C80.452 35.8561 80.5897 37.3266 80.4429 38.241C80.5192 39.4019 76.6497 44.7172 75.9325 46.0056C73.4759 50.4182 70.4214 54.4494 67.7944 58.7575C67.5485 59.1605 65.456 61.6818 65.2073 61.8244C65.2839 61.3792 67.0741 55.8896 67.255 55.6326C68.1574 54.3499 70.2158 48.9658 71.02 48.1679C72.2015 45.7833 73.6475 43.2511 74.8994 40.8614C75.4458 39.9249 76.0743 38.0403 76.731 37.1233C76.8412 36.8269 77.0278 36.4508 77.1629 36.1558Z" fill="#25A9E8"/>
<path d="M77.1629 36.1558C77.978 35.802 79.5591 35.0797 80.3832 34.9006C80.452 35.8561 80.5897 37.3266 80.4429 38.241C79.613 38.6936 77.9274 39.9663 77.5609 38.183C77.5145 37.9545 77.5012 37.8764 77.4117 37.6634L77.3296 37.5289L77.3229 37.4741C77.4722 37.1678 77.4639 37.1541 77.3619 36.8346L77.2608 36.7911C76.9706 36.9141 77.0634 36.8697 76.8487 37.1478L76.731 37.1233C76.8412 36.8269 77.0278 36.4508 77.1629 36.1558Z" fill="#B0EEF7"/>
<path d="M77.1629 36.1558C77.978 35.802 79.5591 35.0797 80.3832 34.9006C80.3575 35.061 80.3393 35.4298 80.2381 35.5033C80.0632 35.6308 79.8857 35.5701 79.7075 35.6865C79.0243 36.1316 78.3419 36.6154 77.6836 37.0974C77.5327 37.2079 77.4465 37.4141 77.3296 37.5289L77.3229 37.4741C77.4722 37.1678 77.4639 37.1541 77.3619 36.8346L77.2608 36.7911C76.9706 36.9141 77.0634 36.8697 76.8487 37.1478L76.731 37.1233C76.8412 36.8269 77.0278 36.4508 77.1629 36.1558Z" fill="#CBF2FA"/>
<path d="M76.7309 37.1233L76.8487 37.1478C77.0634 36.8697 76.9706 36.9141 77.2608 36.7911L77.3619 36.8346C77.4639 37.1541 77.4722 37.1678 77.3229 37.4741L77.3296 37.5289L77.4117 37.6634C76.7757 38.8759 76.1904 39.943 75.4292 41.0912C74.6739 41.7604 74.5852 42.3968 73.9849 43.1034C74.2502 42.2576 74.8157 41.772 74.8994 40.8614C75.4458 39.9249 76.0743 38.0403 76.7309 37.1233Z" fill="#B0EEF7"/>
<path d="M74.8994 40.8614C74.8157 41.772 74.2502 42.2576 73.9849 43.1034C74.5852 42.3968 74.6739 41.7604 75.4292 41.0912L72.6302 45.8949C72.3715 46.3369 71.5084 47.8694 71.2207 48.1915C71.1659 48.1869 71.0664 48.1839 71.02 48.1679C72.2015 45.7833 73.6475 43.2511 74.8994 40.8614Z" fill="#4CE0F0"/>
<path d="M74.6283 95.9499C73.6434 95.5154 72.3358 91.0507 71.7936 89.8443C71.7041 89.6437 70.8517 87.0892 70.8492 86.9383C71.1825 88.0269 71.9976 89.6171 72.7935 90.4595C73.6633 91.3807 74.2926 89.8766 74.6764 89.2697C74.7627 89.3924 74.7303 89.3236 74.7685 89.4762C74.5056 88.2789 73.5389 86.4557 73.1766 85.2187C73.131 85.062 73.2064 84.9898 73.2777 84.8862L73.359 84.8763C73.5895 85.0512 73.655 85.3704 73.7536 85.6573C74.897 87.9614 76.0693 91.1684 77.3354 93.339C77.5858 93.6209 77.6795 93.713 77.667 94.1084C77.648 94.7096 77.1431 96.9606 76.7898 97.3121L76.7078 97.332C76.4748 97.1115 74.9517 96.1149 74.6283 95.9499Z" fill="#25A9E8"/>
<path d="M76.7309 93.5911L76.8503 93.3531C77.1206 93.2279 76.9714 93.2652 77.3354 93.339C77.5858 93.6209 77.6795 93.713 77.667 94.1084C77.6479 94.7095 77.143 96.9606 76.7898 97.3121L76.7077 97.332C76.4748 97.1115 74.9517 96.1149 74.6283 95.9499C74.601 95.0321 74.0355 92.6285 76.1182 93.4335C76.357 93.5256 76.396 93.572 76.6596 93.5861L76.7309 93.5911Z" fill="#ADE6F9"/>
<path d="M76.731 93.5911L76.8504 93.3531C77.1207 93.2279 76.9714 93.2652 77.3354 93.339C77.5858 93.6209 77.6795 93.713 77.667 94.1084C77.648 94.7095 77.143 96.9606 76.7898 97.3121L76.7078 97.332C76.7633 96.0544 77.24 94.9218 76.731 93.5911Z" fill="#CBF2FA"/>
<path d="M73.7536 85.6573C74.8969 87.9614 76.0693 91.1684 77.3354 93.339C76.9714 93.2652 77.1206 93.2279 76.8503 93.3531L76.7309 93.5911L76.6596 93.5861C75.964 91.607 74.3108 88.0294 73.6616 85.9077C73.6922 85.8239 73.7229 85.741 73.7536 85.6573Z" fill="url(#paint9_linear_26_4)"/>
<path d="M63.549 72.3936C63.6115 72.5892 63.6366 72.6915 63.7277 72.878C63.399 73.2476 63.0975 73.7849 62.8107 74.1787C62.3965 74.7483 60.978 76.3737 60.8664 77.0801C60.3587 80.2979 60.58 83.9637 60.4846 87.252C60.4215 89.4275 60.4175 91.4531 60.4377 93.6104C60.4415 93.6402 60.4456 93.6695 60.4494 93.6992C60.474 96.5131 60.4276 99.3274 60.3107 102.14C60.2082 104.639 60.0695 107.358 60.2131 109.858C60.2469 110.446 60.4646 111.051 60.8058 111.537C60.98 111.919 61.1124 112.109 61.4289 112.396C61.6265 112.772 62.7122 114.815 62.9474 115.027L63.2424 115.679C63.4967 115.782 63.427 115.778 63.5978 116.09C63.1499 116.184 62.6923 115.929 62.4328 115.582C61.5274 114.369 59.5246 111.908 59.1916 110.492C58.9038 109.268 59.0378 106.528 59.0598 105.232C59.0981 103.358 59.1211 101.484 59.1271 99.6084C58.8958 98.2032 59.0498 95.5523 59.0607 94.0723C59.0831 91.048 59.4071 87.5016 59.1935 84.5156L59.2365 84.4873L59.6232 80.377L59.7287 79.6221L59.2014 80.5L58.6047 81.7998L57.884 83.3457L57.259 84.5196C57.1972 84.5275 57.1526 84.5458 57.131 84.5811C55.3003 87.5742 53.9321 90.9498 51.9836 93.8574C51.966 93.8798 48.92 95.2299 48.7141 95.3086L48.5832 95.2461C48.8665 94.9352 51.2879 94 51.882 93.7735C52.6703 92.5538 53.3446 91.1874 54.0334 89.9072L57.841 82.7803C58.1241 82.2388 59.1081 80.0356 59.4553 79.8623C60.097 78.029 61.9907 73.536 63.549 72.3936Z" fill="url(#paint10_linear_26_4)"/>
<path d="M65.9332 78.0021C65.9487 78.3097 65.9358 79.3303 66.0203 79.5069C66.0629 79.2383 66.0526 79.031 66.2015 78.8403C66.5788 79.1985 66.6502 80.186 66.8528 80.5823C67.0021 81.7721 66.9236 84.1599 66.964 85.489C67.0516 89.545 67.1694 93.601 67.3176 97.6554C67.3645 99.3012 67.3246 101.786 67.4734 103.355C67.5328 105.932 67.6977 108.675 67.729 111.204C67.5132 111.492 67.0859 112.096 66.8634 112.341L66.735 112.332C66.5471 112.55 66.4969 112.631 66.2466 112.786L66.2233 112.67C66.4689 112.341 66.521 112.247 66.6221 111.849L66.9935 111.166C66.878 110.493 66.8571 109.218 66.8244 108.496C66.8777 106.383 66.6159 104.21 66.5019 102.108C66.3897 100.037 66.3356 97.8552 66.3189 95.7808C66.3746 95.0984 66.3209 94.1308 66.3277 93.4252C66.356 90.457 65.9993 87.5079 65.8557 84.5413C65.7497 82.3499 65.8718 80.1984 65.9332 78.0021Z" fill="url(#paint11_linear_26_4)"/>
<path d="M65.7547 108.639C65.7809 108.467 65.8086 108.295 65.8381 108.123C65.9004 107.74 65.936 107.708 66.1479 107.357L66.4029 107.317C66.7801 107.752 66.7175 107.95 66.8244 108.496C66.8571 109.218 66.878 110.493 66.9935 111.166L66.6221 111.849C66.521 112.247 66.4689 112.341 66.2233 112.67L66.2466 112.786C66.4969 112.631 66.5471 112.55 66.735 112.332L66.8634 112.341C66.1128 113.52 64.6688 115.245 63.5976 116.09C63.4268 115.778 63.4967 115.782 63.242 115.679L62.9474 115.028C62.7125 114.816 61.6263 112.772 61.4288 112.395C61.5548 111.283 61.9477 109.765 62.9828 109.125C64.2634 108.332 64.9874 110.134 65.6413 110.342C65.8044 110.101 65.7488 109.906 65.7543 109.571L65.7547 108.639Z" fill="#CBF2FA"/>
<path d="M65.7548 108.639C65.7809 108.467 65.8087 108.295 65.8382 108.123C65.9004 107.74 65.936 107.708 66.1479 107.357L66.403 107.317C66.7801 107.752 66.7175 107.95 66.8244 108.496C66.8572 109.218 66.878 110.493 66.9935 111.166L66.6221 111.849C66.521 112.247 66.469 112.341 66.2234 112.67L66.2467 112.786C66.4969 112.631 66.5472 112.55 66.735 112.332L66.8635 112.341C66.1129 113.52 64.6688 115.245 63.5977 116.09C63.4268 115.778 63.4968 115.782 63.2421 115.679L62.9474 115.028C62.9737 115 63 114.973 63.0262 114.946C63.7008 114.604 64.3498 113.578 64.7719 112.903C65.4288 111.852 66.0435 110.858 65.7544 109.571L65.7548 108.639Z" fill="#F9FEFE"/>
<path d="M63.242 115.679C64.4839 114.778 65.66 113.089 66.6221 111.849C66.521 112.247 66.4689 112.341 66.2233 112.67L66.2466 112.786C66.4969 112.631 66.5471 112.55 66.735 112.332L66.8634 112.341C66.1128 113.52 64.6687 115.245 63.5976 116.09C63.4267 115.778 63.4967 115.782 63.242 115.679Z" fill="#25A9E8"/>
<path d="M60.4495 93.6989L60.5845 93.7038C60.8991 94.3166 60.7974 99.2282 60.8673 100.322C61.0198 102.707 61.1353 105.33 61.1103 107.723C61.0952 108.59 60.8771 110.706 60.9748 111.308C60.8913 111.462 60.9301 111.425 60.8062 111.537C60.4649 111.051 60.2468 110.446 60.213 109.858C60.0694 107.358 60.2084 104.638 60.311 102.139C60.4279 99.3269 60.4741 96.5129 60.4495 93.6989Z" fill="#ADE6F9"/>
<path d="M65.7548 108.639C65.6733 106.576 65.8743 103.803 65.9425 101.672C65.9988 99.9081 65.7341 95.5088 66.099 94.009C66.2334 94.5313 66.2537 95.2153 66.3189 95.7808C66.3356 97.8552 66.3897 100.037 66.502 102.108C66.616 104.21 66.8777 106.383 66.8244 108.496C66.7175 107.95 66.7801 107.752 66.403 107.317L66.1479 107.357C65.936 107.708 65.9004 107.74 65.8382 108.123C65.8087 108.295 65.7809 108.467 65.7548 108.639Z" fill="#ADE6F9"/>
<path d="M62.5629 67.6489L62.5792 67.5478C62.8367 67.4541 63.034 67.2543 63.0649 66.9715C62.9343 66.6382 62.8587 66.5197 62.8838 66.1648C63.8529 68.027 64.2377 70.3684 63.5492 72.3939C61.9908 73.5365 60.0967 78.0294 59.455 79.8626C59.1079 80.0359 58.1239 82.2388 57.8408 82.7803L54.0335 89.9073C53.3447 91.1875 52.6706 92.5539 51.8823 93.7735C51.2887 93.9998 48.8666 94.9351 48.5832 95.246C47.1539 95.7617 46.5445 96.1953 46.2341 94.3207C46.3727 94.5877 46.549 95.0312 46.7694 95.1929L46.8054 95.3422C46.814 94.9832 46.7396 94.6606 46.8479 94.3389C46.8249 93.378 46.789 92.4179 46.7402 91.4578C46.865 91.437 46.9721 91.3931 47.0943 91.3533L46.9912 91.2621C46.9483 90.9794 47.1858 90.8451 47.3462 90.6054C48.1574 89.3933 51.8482 82.7927 51.6958 81.8425C51.7265 81.7016 56.9581 73.1974 57.4767 72.3442C57.7074 71.9653 59.1699 70.2018 59.5807 69.7449C60.3062 68.9374 61.6388 68.2592 62.5629 67.6489Z" fill="#3FC2EF"/>
<path d="M62.5629 67.6489L62.5792 67.5478C62.8367 67.4541 63.034 67.2543 63.0649 66.9715C62.9343 66.6382 62.8587 66.5197 62.8838 66.1648C63.8529 68.027 64.2377 70.3684 63.5492 72.3939C61.9908 73.5365 60.0967 78.0294 59.455 79.8626C59.1079 80.0359 58.1239 82.2388 57.8408 82.7803L54.0335 89.9073C53.3447 91.1875 52.6706 92.5539 51.8823 93.7735C51.2887 93.9998 48.8666 94.9351 48.5832 95.246C47.1539 95.7617 46.5445 96.1953 46.2341 94.3207C46.3727 94.5877 46.549 95.0312 46.7694 95.1929L46.8054 95.3422C46.814 94.9832 46.7396 94.6606 46.8479 94.3389C46.8249 93.378 46.789 92.4179 46.7402 91.4578C46.865 91.437 46.9721 91.3931 47.0943 91.3533C48.8667 90.3658 50.5238 89.6238 50.5351 92.5033C52.7874 88.0551 55.6394 84.2121 57.9351 79.9679C58.0229 79.6611 58.2359 79.3917 58.4582 79.1728L58.6807 79.2283C59.011 78.9158 60.3366 75.8804 60.6609 75.2419C61.0667 74.4419 61.8842 72.9727 62.1756 72.0996C62.5199 71.0682 62.832 68.9142 62.7937 67.8015C62.7789 67.6887 62.693 67.6954 62.5629 67.6489Z" fill="url(#paint12_linear_26_4)"/>
<path d="M57.9351 79.9679C58.0024 80.278 57.9426 80.2772 57.837 80.6304C56.8398 82.3483 55.9672 84.5413 55.0296 86.3222C53.7711 88.7134 52.5302 91.0515 51.3205 93.4692C50.0214 94.0255 48.5005 94.9591 47.131 95.1672C46.9649 95.1929 46.8673 94.4558 46.8479 94.3389C46.8249 93.378 46.789 92.4179 46.7402 91.4578C46.865 91.437 46.9721 91.3931 47.0943 91.3533C48.8667 90.3658 50.5238 89.6238 50.5351 92.5033C52.7874 88.0551 55.6394 84.2121 57.9351 79.9679Z" fill="#CBF2FA"/>
<path d="M57.9351 79.9679C58.0229 79.6611 58.2359 79.3917 58.4582 79.1728L58.6807 79.2283C58.4794 79.579 58.0635 80.346 57.837 80.6304C57.9426 80.2772 58.0024 80.278 57.9351 79.9679Z" fill="#3CD5EF"/>
<path d="M47.466 75.755C45.2194 77.4987 42.7417 79.7024 40.5676 81.5812L34.8957 86.4005C33.7105 87.4253 31.4917 89.5378 30.3605 90.3654C30.7497 89.6324 32.5822 88.1562 33.2902 87.5402C35.2018 85.8671 37.1353 84.2182 39.0891 82.5949C39.5947 82.1692 42.2343 80.0435 42.4933 79.5734L43.2902 79.0431L46.5607 76.4601L47.5607 75.6789L47.5881 75.6603C47.5457 75.6912 47.5048 75.7227 47.466 75.755Z" fill="#25A9E8"/>
<path d="M57.8127 67.3429C59.5197 66.4616 60.1777 65.2658 62.256 65.6505L62.3371 65.7199L62.3068 65.7755C61.9149 65.8137 60.5855 66.3226 60.3957 66.5705C59.5272 67.7059 58.696 67.678 57.3703 68.2873L57.5392 68.3839C56.7193 68.7205 55.7803 69.3082 55.0226 69.2785C54.884 69.2735 54.8795 69.287 54.7443 69.3293L54.8869 69.4162L55.3762 69.3742L55.3596 69.4386L55.2512 69.4845L55.2834 69.673C55.1587 69.7741 55.1976 69.7259 55.1467 69.8136C54.9495 70.205 49.0152 75.4188 48.6721 75.5793L48.7473 75.3722L48.5383 75.2023C48.2475 75.2695 48.3864 75.22 48.1213 75.4728L48.0754 75.341C48.0704 75.3442 48.0648 75.3465 48.0598 75.3498L48.05 75.2726L47.925 75.2101L47.6652 75.2824L47.2697 75.4806L44.842 76.5949L40.9855 78.2199C39.9775 78.5483 37.8539 79.6786 37.3986 79.6359C36.4946 79.5512 34.0284 78.6153 33.4465 77.9669C33.1467 76.8443 35.2782 74.5394 36.2443 73.9621C36.5399 73.7855 37.4562 73.5114 37.8381 73.382L41.3996 72.1808C41.7072 72.0768 42.7786 71.7645 43.2336 71.5041L44.926 70.9289L48.2375 69.6896L46.176 69.7941L42.8068 69.9093C41.7018 69.7901 28.5223 70.3558 26.7766 70.2336C27.3908 70.1283 28.7664 70.1255 29.465 70.1056L34.5236 69.9552C38.0965 69.8043 41.6717 69.7012 45.2473 69.6457C45.9511 69.6365 48.1978 69.5186 48.7336 69.5617C49.5491 68.8197 52.1892 68.8567 53.3517 68.8302C54.6989 68.948 55.3498 68.9454 56.423 68.05C56.5732 67.9249 56.6983 67.8157 56.8889 67.7882C57.277 67.7277 57.4778 67.5162 57.8127 67.3429Z" fill="#25A9E8"/>
<path d="M56.8892 67.7882C57.2773 67.7277 57.4778 67.5163 57.8127 67.343C59.5197 66.4616 60.1773 65.266 62.2557 65.6508L62.3373 65.7196L62.3067 65.776C61.9147 65.8141 60.5859 66.3223 60.3961 66.5703C59.5275 67.7061 58.696 67.6779 57.37 68.2873L57.539 68.3844C56.719 68.721 55.7802 69.308 55.0225 69.2781C54.8838 69.2732 54.8795 69.2873 54.7443 69.3295L54.6097 69.3478C53.7306 69.463 52.5476 69.3171 51.9405 69.4191C51.2458 69.5368 49.4349 70.3659 48.6494 70.6594C47.3501 71.1436 45.7572 71.5773 44.512 72.0822C44.1165 72.1958 41.5117 73.0183 41.2388 73.1733L41.3138 73.2736C41.0076 73.3922 40.834 73.393 40.6796 73.6127L40.7855 73.7338L38.4484 74.5306C38.2706 74.3341 38.2561 74.349 38.0028 74.2478C37.1802 74.4833 36.6743 74.538 36.0387 75.1226L35.9769 75.1806C34.9191 75.7966 34.3659 77.0254 33.5323 77.8404C33.6348 76.9574 35.2823 74.6276 36.0761 74.2619C37.4346 73.636 39.1372 73.1443 40.5704 72.6452C42.8836 71.8401 45.1652 70.9712 47.4698 70.1446C47.9131 69.9862 48.3459 69.8328 48.7337 69.5617C49.5493 68.8196 52.1898 68.8569 53.3522 68.8304C54.6993 68.9482 55.3499 68.9457 56.4231 68.0502C56.5733 67.925 56.6984 67.8156 56.8892 67.7882Z" fill="#246BD3"/>
<path d="M38.0029 74.2478C38.851 73.8847 40.3429 73.4428 41.2388 73.1733L41.3138 73.2736C41.0076 73.3922 40.834 73.393 40.6797 73.6127L40.7855 73.7338L38.4484 74.5306C38.2706 74.3341 38.2562 74.349 38.0029 74.2478Z" fill="#4CE0F0"/>
<path d="M55.1467 69.8135C54.9495 70.2048 49.0154 75.4184 48.6721 75.5791L48.7473 75.3721L48.5383 75.2022C48.2474 75.2693 48.3865 75.2208 48.1213 75.4737L48.0754 75.3408C48.0704 75.3441 48.0648 75.3464 48.0598 75.3496L48.05 75.2725L47.925 75.21L47.6652 75.2832L47.2697 75.4805L47.2531 75.4873L47.2502 75.4844C44.0627 76.8589 40.6968 78.2016 37.4514 79.4444C37.218 79.5339 36.9345 79.4631 36.7043 79.3926C37.1854 79.2342 37.5855 78.9703 37.9758 78.6494L38.4719 78.4063L39.3928 77.9756C39.6813 77.9085 42.1743 76.7188 42.6935 76.499C42.8394 76.4671 43.9291 75.9882 44.1633 75.8946C46.4281 74.9892 48.5309 74.0953 50.6096 72.8028C51.3437 72.3464 54.3636 69.6712 54.9641 69.6319L55.1467 69.8135ZM47.466 75.7549L47.4641 75.753L47.5607 75.6787L47.5881 75.6602C47.5457 75.6911 47.5048 75.7226 47.466 75.7549Z" fill="#2077D9"/>
<path d="M33.5323 77.8404C34.3659 77.0254 34.9191 75.7966 35.9769 75.1806L35.97 75.3141L36.2904 75.2909C37.097 75.4252 37.6542 75.5927 38.3277 76.0968C38.2035 76.445 37.8107 77.4001 37.8043 77.682C37.9814 77.7815 37.8837 77.7566 38.1147 77.7036C38.7439 77.6903 38.8898 77.5635 39.3928 77.9755L38.4716 78.4058L37.9753 78.6496C37.5851 78.9705 37.1854 79.2341 36.7043 79.3925C35.7778 78.9215 34.2277 78.58 33.5323 77.8404Z" fill="#4CE0F0"/>
<path d="M33.5323 77.8404C34.3659 77.0254 34.9191 75.7966 35.9769 75.1806L35.97 75.3141C35.2242 75.9135 34.6871 76.7567 34.0797 77.4756C34.8923 77.5933 35.8867 77.7823 36.6826 77.6306C36.9994 77.5701 37.3567 77.4565 37.6128 77.556L37.6677 77.8072C37.4822 78.2367 37.4885 78.342 37.4628 78.8022C37.61 78.7226 37.8054 78.6911 37.9753 78.6496C37.5851 78.9705 37.1854 79.2341 36.7043 79.3925C35.7778 78.9215 34.2277 78.58 33.5323 77.8404Z" fill="#F9FEFE"/>
<path d="M33.5323 77.8404C34.3659 77.0254 34.9191 75.7966 35.9769 75.1806L35.97 75.3141C35.2242 75.9135 34.6871 76.7567 34.0797 77.4756L34.1035 77.6787C34.587 78.0327 36.4711 78.8221 37.1046 78.8975C37.1881 78.9075 37.3711 78.8361 37.4628 78.8022C37.61 78.7226 37.8054 78.6911 37.9753 78.6496C37.5851 78.9705 37.1854 79.2341 36.7043 79.3925C35.7778 78.9215 34.2277 78.58 33.5323 77.8404Z" fill="#2792DB"/>
<path d="M37.6678 77.8072C38.1671 77.9357 38.1409 77.9871 38.4717 78.4058L37.9754 78.6496C37.8054 78.6911 37.6101 78.7226 37.4629 78.8022C37.4886 78.342 37.4822 78.2367 37.6678 77.8072Z" fill="#ADE6F9"/>
<path d="M38.1147 77.7036C38.4457 77.5626 39.0752 77.4093 39.4376 77.3239C40.2839 77.1232 41.9378 76.1333 42.6933 76.4989C42.174 76.7186 39.6814 77.9084 39.3928 77.9755C38.8898 77.5635 38.744 77.6903 38.1147 77.7036Z" fill="#3CD5EF"/>
<path d="M44.512 72.0822C44.6674 72.0938 44.8122 72.1046 44.9677 72.1112C44.5413 72.607 41.4808 73.553 40.7856 73.7338L40.6797 73.6127C40.8341 73.393 41.0076 73.3922 41.3139 73.2736L41.2388 73.1733C41.5117 73.0183 44.1165 72.1958 44.512 72.0822Z" fill="#3FC2EF"/>
<path d="M35.9769 75.1806L36.0387 75.1226C36.6743 74.538 37.1802 74.4833 38.0029 74.2478C38.2561 74.349 38.2706 74.3341 38.4484 74.5306C38.0123 74.6367 36.7577 74.8937 36.4234 75.0711L36.2904 75.2909L35.97 75.3141L35.9769 75.1806Z" fill="#3CD5EF"/>
<path d="M62.5969 65.8535C62.8559 65.9886 62.7613 65.8898 62.884 66.1651C62.8589 66.5197 62.9341 66.6385 63.0646 66.9717C63.0336 67.2543 62.8367 67.4542 62.5793 67.5479L62.5627 67.6485C61.6387 68.2587 60.3067 68.9376 59.5812 69.7451C59.1705 70.2018 57.7081 71.9642 57.4767 72.3438C56.9581 73.1969 51.7263 81.7018 51.6955 81.8428C51.8473 82.7937 48.157 89.3934 47.3459 90.6055C47.1855 90.8449 46.9487 90.9793 46.9914 91.2617L47.0939 91.3535C46.9719 91.3933 46.8651 91.4373 46.7404 91.458C46.7892 92.418 46.8249 93.3781 46.8478 94.3389C46.7396 94.6605 46.8144 94.983 46.8058 95.3418L46.7697 95.1934C46.5493 95.0317 46.3732 94.5873 46.2346 94.3203C46.1482 93.4342 46.0675 92.5557 45.9465 91.6729C45.0101 90.4582 46.4387 88.6762 47.1086 87.4063L47.5578 86.7022L49.4103 83.8067L48.9299 84.4004L47.4777 85.8516L45.84 87.4893C43.32 89.7284 37.9665 95.5122 36.7541 95.9258C34.9657 97.5782 32.4967 100.003 30.633 101.47C29.4038 101.548 25.9236 101.829 24.9289 101.584C25.0394 101.577 25.1494 101.59 25.2619 101.599L25.215 101.497L25.5646 101.535C25.3463 101.352 24.8662 101.465 24.5129 101.267L24.674 101.167C24.9635 101.247 25.3496 101.344 25.6281 101.216L25.0041 101.14L24.756 101.024C24.6538 100.753 24.6852 100.841 24.7902 100.497C25.9101 100.781 29.3508 100.038 30.1994 99.1778C31.7258 98.0742 33.216 96.5378 34.7092 95.4326C35.0741 94.9345 45.0015 86.3385 45.3215 86.2158L45.3713 86.3467L45.2394 86.5781C45.6809 86.2722 46.4008 85.5634 46.7873 85.1563C48.5967 83.2511 50.6857 81.6186 51.9494 79.2774C52.1141 79.1928 57.2475 70.0879 58.3957 68.7041L58.9074 68.0772L58.8723 67.8799C59.0412 67.7564 59.0416 67.7723 59.2404 67.6895C59.4135 67.7898 59.3428 67.7699 59.5402 67.7881C60 66.9217 61.6279 65.9465 62.5969 65.8535Z" fill="url(#paint13_linear_26_4)"/>
<path d="M34.7087 95.4325C35.0718 94.9359 45.0012 86.3388 45.3213 86.2161L45.3713 86.3463L45.2398 86.5784C44.4121 87.255 43.4549 88.2939 42.6397 89.0392C40.2484 91.2265 37.8908 93.732 35.5018 95.8819L35.5153 95.7791L35.4055 95.7385C34.5925 96.4664 33.5374 97.5866 32.7143 98.2192C32.701 97.958 32.7119 97.9597 32.6165 97.7209L32.4493 97.6695C33.1922 96.9084 34.0188 96.3081 34.7382 95.5727L34.7087 95.4325Z" fill="#B0EEF7"/>
<path d="M34.7087 95.4325L34.7382 95.5726C34.0188 96.3081 33.1922 96.9083 32.4493 97.6695L32.6165 97.7209C32.712 97.9597 32.701 97.958 32.7143 98.2192C33.5374 97.5866 34.5926 96.4664 35.4055 95.7385L35.5154 95.7791L35.5018 95.8819C33.7965 97.526 31.8604 99.3343 30.0576 100.876C28.1803 101.146 26.5293 100.95 25.0043 101.139L24.7564 101.025C24.654 100.753 24.6851 100.842 24.7903 100.497C25.9102 100.78 29.3506 100.037 30.1992 99.1776C31.7256 98.0741 33.2155 96.5377 34.7087 95.4325Z" fill="url(#paint14_linear_26_4)"/>
<path d="M51.6958 81.8425C51.8482 82.7927 48.1575 89.3933 47.3463 90.6054C47.1858 90.8451 46.9483 90.9794 46.9912 91.2621L47.0943 91.3533C46.9721 91.3931 46.8651 91.437 46.7402 91.4578C46.6975 91.2057 46.6565 90.8301 46.7457 90.5913C47.2718 89.181 48.2163 87.8188 48.9713 86.5104C49.8731 84.9467 50.7572 83.3731 51.6958 81.8425Z" fill="#B0EEF7"/>
<path d="M58.8726 67.8794L58.9071 68.0767L58.3959 68.7044C57.2476 70.0882 52.1143 79.1927 51.9497 79.2772C51.9272 78.6645 54.5439 75.0993 54.6672 74.2727C54.5349 74.2536 52.9562 74.7826 52.7226 74.9335C50.9491 76.0785 48.7077 77.0055 46.9557 78.0933C43.5134 80.2299 40.5125 83.2421 37.4145 85.8181C36.141 86.8595 34.8906 87.9282 33.6642 89.0243C33.4367 89.2274 32.6167 89.943 32.4812 90.1229L32.1546 90.4205C30.7722 91.6087 28.5594 93.412 27.3636 94.6523C26.643 95.1797 26.1134 95.692 25.8437 96.5626L25.5985 96.9142C25.7092 97.2184 25.7293 97.216 25.9393 97.4473C25.822 97.7449 25.6107 98.2316 25.5195 98.5202C25.3005 99.1387 25.0507 99.9081 24.7903 100.497C24.6851 100.842 24.654 100.753 24.7565 101.025L25.0043 101.139L25.6277 101.216C25.3492 101.344 24.9639 101.246 24.6744 101.167L24.5134 101.267C24.867 101.466 25.347 101.352 25.5651 101.536L25.2151 101.497L25.2622 101.599C25.1496 101.59 25.0394 101.576 24.9288 101.584C23.2909 101.462 24.5138 98.8137 24.5947 97.7963C24.6324 97.3221 25.1746 95.4043 25.3853 95.0926C26.5946 93.3009 28.7196 91.9718 30.2901 90.4355L30.3604 90.3658C31.4915 89.5384 33.7107 87.4249 34.896 86.4002L40.5678 81.5814C42.7419 79.7026 45.2192 77.4988 47.4658 75.7552C47.647 75.6043 47.8752 75.4691 48.0755 75.3406L48.1216 75.4733C48.3868 75.2204 48.2473 75.2693 48.5382 75.2022L48.7472 75.3721L48.6721 75.5794C49.0148 75.4194 54.9495 70.2051 55.1466 69.8137C55.1977 69.7259 55.1585 69.7739 55.2832 69.6728L55.2511 69.4846L55.3597 69.439L55.3761 69.3743L54.8873 69.4166L54.7444 69.3295C54.8796 69.2872 54.8838 69.2732 55.0225 69.2781C55.7803 69.308 56.7191 68.721 57.5391 68.3843C58.0263 68.2318 58.4022 68.0743 58.8726 67.8794Z" fill="url(#paint15_linear_26_4)"/>
<path d="M25.5985 96.9142C25.7092 97.2185 25.7293 97.216 25.9393 97.4473C25.822 97.7449 25.6107 98.2316 25.5195 98.5202C25.5066 98.4232 25.5154 98.4198 25.462 98.3328C25.0933 97.7342 25.4425 97.4473 25.5985 96.9142Z" fill="#3FC2EF"/>
<path d="M25.9393 97.4473C26.771 96.1505 28.0198 96.1746 29.421 96.2741C31.1591 97.2665 29.8234 98.1678 30.1992 99.1776C29.3506 100.037 25.9102 100.78 24.7903 100.497C25.0507 99.9081 25.3005 99.1387 25.5195 98.5202C25.6107 98.2316 25.822 97.7449 25.9393 97.4473Z" fill="#CBF2FA"/>
<path d="M47.466 75.7549L47.4641 75.753L47.5607 75.6787L47.5881 75.6602C47.5457 75.6911 47.5048 75.7226 47.466 75.7549Z" fill="#4CE0F0"/>
<path d="M47.2697 75.4805L47.2531 75.4873L47.2502 75.4844C47.3882 75.4169 47.5052 75.3519 47.6262 75.3018L47.2697 75.4805Z" fill="#4CE0F0"/>
<path d="M48.0754 75.3408C48.0704 75.3441 48.0648 75.3464 48.0598 75.3496L48.0529 75.2979L48.0754 75.3408Z" fill="#4CE0F0"/>
<path d="M48.0353 75.2647L47.9367 75.2158C47.9592 75.2128 47.9822 75.2099 48.006 75.208L48.0353 75.2647Z" fill="#4CE0F0"/>
<path d="M32.1545 90.4205C32.1914 90.5864 32.2372 90.7083 32.0771 90.8674C31.2661 91.6742 28.5168 94.4268 27.6069 94.7071L27.7658 94.5504C27.5504 94.625 27.5837 94.6283 27.3636 94.6523C28.5594 93.412 30.7722 91.6087 32.1545 90.4205Z" fill="#B9FCFA"/>
<path d="M32.4812 90.1229C32.5264 90.5789 32.5603 90.4064 32.2677 90.8583C31.7653 91.6335 26.9806 95.8247 26.5047 95.9789L26.4108 95.7352C26.2075 96.0477 26.0511 96.5087 25.8437 96.5626C26.1134 95.692 26.643 95.1796 27.3636 94.6523C27.5838 94.6283 27.5504 94.625 27.7658 94.5504L27.607 94.7071C28.5168 94.4268 31.2661 91.6741 32.0771 90.8674C32.2372 90.7082 32.1914 90.5864 32.1546 90.4205L32.4812 90.1229Z" fill="#4CE0F0"/>
<path d="M62.2648 12.7237C62.5247 12.6137 62.738 12.4708 63.0334 12.6319C64.0353 13.1788 66.6605 16.9249 67.0051 17.8272C67.3933 18.8457 67.2381 22.1477 67.2639 23.3018C67.3294 26.2366 67.1455 29.4168 67.2424 32.3145C67.6143 33.7102 67.3102 36.2198 67.2639 37.6963L66.9933 46.0098C66.9723 46.6379 66.9303 47.3135 66.9269 47.9708L66.882 49.879L66.8713 53.629L68.6105 50.2227L68.6076 50.2188C68.9831 49.9168 69.7429 48.1016 70.0178 47.5958L74.1545 40.0792C74.4737 39.4959 75.9854 36.4522 76.2912 36.3008C76.1291 37.0051 73.2817 42.0318 72.717 43.0723C70.7421 46.708 68.8097 50.4125 66.7707 54.0089C66.4699 54.3985 66.322 54.0904 66.0832 54.8282C66.0581 54.9069 66.0348 54.9869 66.0129 55.0665C65.5169 56.2339 64.5981 58.2653 63.967 59.3614C63.7853 59.9978 63.6929 60.3028 63.5978 60.9483L63.5187 61.4688C63.4851 62.6268 63.4675 63.8984 62.7551 64.8692C62.1541 65.6833 61.1747 65.4061 60.2287 65.503C60.0309 65.4218 59.6536 65.3774 59.384 65.2813L59.4514 65.213C59.7629 65.2527 61.0119 65.4383 61.1721 65.2032C61.0148 64.9802 60.6719 64.8183 60.4182 64.6641C60.8038 64.8282 61.5118 65.1596 61.8879 65.2227L61.9221 65.085C61.6339 64.6224 60.5047 64.2755 60.0197 63.9083C58.7005 62.9283 58.1478 61.4759 57.3898 60.088C56.3533 58.1911 55.3223 56.3043 54.3547 54.3702C54.1096 53.881 53.6531 53.2822 53.3254 52.837C53.4568 52.9351 53.5922 53.0273 53.7267 53.1212C53.9819 52.9881 53.8977 53.0857 53.9973 52.8253C53.8613 51.6854 52.716 50.7868 52.5226 50.17C52.5299 49.513 45.9796 37.2831 45.3098 35.0303C45.6057 33.537 46.1007 30.6055 46.8547 29.3887C47.2426 29.2683 47.5793 29.3101 47.9435 29.4893C48.9784 29.9985 51.8437 31.3413 52.3849 32.2481C52.4217 32.2684 52.4598 32.2872 52.4953 32.3096C52.8882 32.5581 56.0331 40.2947 56.4758 41.3497C56.9045 42.3713 57.3828 43.8964 58.0568 44.8624L59.7902 48.9922L59.383 44.1085C59.4142 41.8121 58.9753 35.0539 59.1183 33.7403C59.1178 31.2803 58.1972 18.5468 58.7199 17.1661C59.9102 15.8739 60.701 14.1999 62.2648 12.7237Z" fill="#48F4F3"/>
<path d="M59.0959 17.6419C59.3611 18.7965 59.5563 23.4804 59.6193 24.843C59.5614 25.6831 59.7236 27.5167 59.7756 28.4212L60.0744 34.3069C60.1076 34.9212 60.2325 36.3469 60.1965 36.8587C60.1024 39.4321 60.5307 42.8624 60.6564 45.4641C60.6961 46.2853 60.8531 49.9913 61.008 50.5637C61.7765 53.4027 63.683 56.5117 63.6516 59.6126C63.8538 59.5496 63.7848 59.5555 63.967 59.3616C63.7853 59.998 63.6929 60.3029 63.5978 60.9485L63.5187 61.469C63.4851 62.627 63.4676 63.8986 62.7551 64.8694C62.1541 65.6835 61.1747 65.4063 60.2287 65.5032C60.0308 65.4219 59.6537 65.3767 59.384 65.2805L59.4514 65.2131C59.7629 65.2529 61.0117 65.4385 61.1721 65.2034C61.0148 64.9803 60.6719 64.8185 60.4182 64.6643C60.8038 64.8284 61.5118 65.1598 61.8879 65.2229L61.9221 65.0852C61.634 64.6226 60.5048 64.2757 60.0197 63.9085C58.7004 62.9284 58.1478 61.4761 57.3898 60.0881C56.3532 58.1911 55.3224 56.3037 54.3547 54.3694C54.1096 53.8803 53.6531 53.2823 53.3254 52.8372C53.4568 52.9353 53.5922 53.0275 53.7267 53.1213C53.982 52.9882 53.8977 53.0859 53.9973 52.8255C53.8614 51.6855 52.716 50.787 52.5226 50.1702C52.5308 49.5146 45.9797 37.2836 45.3098 35.0305C45.6057 33.5372 46.1007 30.6057 46.8547 29.3889C47.2427 29.2685 47.5793 29.3102 47.9435 29.4895C48.9785 29.9988 51.8439 31.3415 52.3849 32.2483C52.4218 32.2686 52.4597 32.2874 52.4953 32.3098C52.8882 32.5583 56.0334 40.2954 56.4758 41.3499C56.9047 42.3719 57.3833 43.8977 58.0578 44.8635L59.7902 48.9924L59.383 44.1087C59.4142 41.8123 58.9751 35.0521 59.1183 33.7395C59.1177 31.2787 58.1973 18.5473 58.7199 17.1663L59.0959 17.6419Z" fill="url(#paint16_linear_26_4)"/>
<path d="M59.0959 17.6419C59.3611 18.7965 59.5563 23.4804 59.6193 24.843C59.5614 25.6831 59.7236 27.5167 59.7756 28.4212L60.0744 34.3069C60.1076 34.9212 60.2325 36.3469 60.1965 36.8587C60.1024 39.4321 60.5307 42.8624 60.6564 45.4641C60.6961 46.2853 60.8531 49.9912 61.008 50.5637C61.7765 53.4027 63.683 56.5117 63.6516 59.6126C63.8538 59.5496 63.7849 59.5555 63.967 59.3616C63.7853 59.998 63.6929 60.3029 63.5978 60.9485L63.5187 61.469C63.4851 62.627 63.4676 63.8986 62.7551 64.8694C62.3995 64.6041 61.7617 63.9301 61.5324 63.5354C61.7357 63.6589 61.9017 63.8309 62.0773 63.9934C62.0531 62.3468 62.054 59.9843 61.7883 58.3733C61.2914 55.3621 60.0133 52.274 58.8215 49.4866C58.0808 47.7545 57.3286 45.8666 56.508 44.1741C55.0471 40.769 53.7061 37.3102 52.2863 33.8889C52.1245 33.4991 51.7712 32.714 51.5002 32.4163C50.8485 31.7003 48.5969 30.3718 47.7267 30.0178C47.5805 29.9348 47.3851 29.7873 47.2424 29.6868L47.217 29.5774C47.0672 29.5255 46.9846 29.4797 46.8547 29.3889C47.2427 29.2684 47.5793 29.3102 47.9435 29.4895C48.9784 29.9987 51.8439 31.3415 52.3849 32.2483C52.4218 32.2686 52.4597 32.2874 52.4953 32.3098C52.8882 32.5583 56.0334 40.2954 56.4758 41.3499C56.9046 42.3719 57.3833 43.8977 58.0578 44.8635L59.7902 48.9924L59.383 44.1087C59.4142 41.8123 58.9751 35.0521 59.1183 33.7395C59.1177 31.2787 58.1973 18.5473 58.7199 17.1663L59.0959 17.6419Z" fill="#3FC2EF"/>
<path d="M58.7199 17.1661L59.0956 17.6422C59.3609 18.7969 59.5566 23.4803 59.6196 24.8429C59.5617 25.683 59.7238 27.5163 59.7758 28.4208L60.0741 34.3067C60.1073 34.9209 60.2321 36.3471 60.196 36.8588C60.1019 39.4323 60.5303 42.8624 60.6561 45.4642C60.6957 46.2854 60.8535 49.9915 61.0084 50.5637C61.7769 53.4027 63.6829 56.5114 63.6515 59.6123C63.8538 59.5493 63.7844 59.5551 63.9667 59.3611C63.7849 59.9979 63.6934 60.303 63.5983 60.9489L63.5184 61.4687C63.6085 59.2011 61.8242 55.0331 61.0367 52.8103C60.6837 51.8948 60.1736 50.9606 59.8878 50.0263C59.7816 49.679 59.8436 49.0278 59.7599 48.5957C59.6502 47.8308 59.6439 46.1034 59.6161 45.2356C59.5423 42.6073 59.4514 39.9796 59.3434 37.3524C59.2995 36.4072 59.2583 34.6314 59.1183 33.74C59.1178 31.2803 58.1971 18.5464 58.7199 17.1661Z" fill="url(#paint17_linear_26_4)"/>
<path d="M46.8542 29.389C46.9843 29.4798 47.0666 29.5258 47.2166 29.5777L47.2425 29.6864C46.6129 30.683 46.3577 33.4331 45.9559 34.6839C45.8755 34.9627 45.9269 34.9563 46.1076 35.2898L46.1631 35.3901C46.3098 35.0842 46.3798 34.9926 46.7165 34.9322C47.0265 35.0734 46.938 35.0468 47.1583 35.3809L47.2559 35.3578L47.281 34.9623L47.3717 34.9073L47.4383 35.0383C47.2491 35.989 52.2758 46.6975 52.9442 48.1761C53.2188 48.3537 53.7711 49.7697 53.916 50.1357C53.9567 50.2387 53.9325 50.5486 53.9281 50.6765C54.1747 51.3163 55.4625 53.3727 55.8506 54.1103C57.0715 56.4302 59.7013 61.8269 61.5321 63.5357C61.7614 63.9303 62.3991 64.6044 62.7546 64.8697C62.1535 65.6839 61.1744 65.4062 60.2283 65.5032C60.0303 65.4219 59.6534 65.3772 59.3837 65.281L59.4516 65.213C59.7633 65.2528 61.0125 65.4385 61.1721 65.203C61.0148 64.98 60.6724 64.8183 60.4186 64.6641C60.8044 64.8283 61.5122 65.1599 61.8882 65.2229L61.9216 65.0853C61.6335 64.6227 60.5043 64.2761 60.0193 63.9088C58.7 62.9288 58.1477 61.4762 57.3897 60.0882C56.3531 58.1912 55.3223 56.3042 54.3546 54.3698C54.1095 53.8807 53.653 53.2825 53.3253 52.8372C53.4567 52.9354 53.592 53.0276 53.7266 53.1214C53.982 52.9882 53.8977 53.0862 53.9973 52.8257C53.8616 51.6857 52.7165 50.787 52.5231 50.1701C52.5313 49.5145 45.9794 37.2823 45.31 35.0301C45.606 33.5368 46.1002 30.6058 46.8542 29.389Z" fill="url(#paint18_linear_26_4)"/>
<path d="M46.1631 35.3901C46.3098 35.0842 46.3798 34.9926 46.7165 34.9322C47.0265 35.0734 46.9381 35.0468 47.1584 35.3809L47.2559 35.3578L47.281 34.9623L47.3717 34.9073L47.4383 35.0383C47.2491 35.989 52.2758 46.6975 52.9442 48.1761L52.8617 48.3437C52.5275 47.8833 52.558 47.6778 52.1246 47.2514C50.3368 43.3421 47.8398 39.3443 46.1631 35.3901Z" fill="#B9FCFA"/>
<path d="M52.1246 47.2514C52.558 47.6778 52.5276 47.8833 52.8617 48.3437L52.9443 48.1761C53.2189 48.3537 53.7712 49.7697 53.916 50.1357C53.9567 50.2387 53.9325 50.5486 53.9282 50.6765C53.2669 49.5875 52.6956 48.3944 52.1246 47.2514Z" fill="#6CF8F3"/>
<path d="M47.2426 29.6864C47.3853 29.7869 47.5804 29.9346 47.7267 30.0177C48.5967 30.3716 50.849 31.7002 51.5006 32.4161C51.7717 32.7139 52.1249 33.4992 52.2866 33.889C53.7065 37.3104 55.0471 40.7693 56.5081 44.1746C56.4946 44.4395 56.4738 44.503 56.5963 44.7499L56.5064 44.9C55.7951 43.7253 55.2166 42.2852 54.592 41.0447C53.114 38.1092 51.822 35.6422 50.6984 32.5447C50.6165 33.5061 50.8172 34.1732 50.2184 35.0597C49.4279 36.2301 48.3461 35.6712 47.4384 35.0383L47.3717 34.9073L47.281 34.9623L47.256 35.3578L47.1584 35.3809C46.9381 35.0468 47.0266 35.0734 46.7166 34.9322C46.3799 34.9926 46.3099 35.0842 46.1631 35.3901L46.1077 35.2898C45.9269 34.9563 45.8755 34.9627 45.9559 34.6839C46.3577 33.4331 46.6129 30.683 47.2426 29.6864Z" fill="#B9FCFA"/>
<path d="M47.2426 29.6864C47.3853 29.7869 47.5804 29.9346 47.7267 30.0177C47.8834 30.5782 47.1741 33.7469 47.0714 34.7294C46.7094 34.7954 46.1398 35.0219 45.9559 34.6839C46.3577 33.4331 46.6129 30.683 47.2426 29.6864Z" fill="#F9FEFE"/>
<path d="M60.5129 37.8174C60.6289 37.2032 60.5531 33.2806 60.5517 32.403C60.6674 32.7077 60.5296 33.2748 60.6781 33.5923C61.8241 33.881 63.3814 32.8411 64.7523 33.0314C64.9597 33.0603 64.9584 32.7948 65.3348 32.547C65.6906 32.8288 65.5733 33.5317 66.0249 33.6996L66.1693 33.5486C66.1778 36.0919 66.1056 38.6348 65.9529 41.1736C65.8154 43.2774 65.6412 45.3696 65.4485 47.469C65.3981 48.0182 65.54 49.1464 65.5409 49.7566C65.5435 51.5425 65.6656 53.3075 66.0126 55.0663C65.5166 56.2337 64.5978 58.265 63.9667 59.3611C63.7844 59.5551 63.8538 59.5493 63.6515 59.6123C63.6829 56.5114 61.7769 53.4027 61.0084 50.5637C60.8535 49.9914 60.6957 46.2854 60.6561 45.4642C60.5303 42.8624 60.1019 39.4323 60.196 36.8588C60.531 37.7539 60.3159 38.3387 60.4489 39.2187C60.4645 38.7513 60.4859 38.2842 60.5129 37.8174Z" fill="url(#paint19_linear_26_4)"/>
<path d="M62.2648 12.7237C62.5248 12.6137 62.7378 12.4715 63.0334 12.6329C64.0356 13.1802 66.6616 16.9271 67.0051 17.8282C67.3932 18.847 67.2381 22.1478 67.2639 23.3018C67.3294 26.2366 67.1455 29.4168 67.2424 32.3145C67.6143 33.7102 67.3102 36.2198 67.2639 37.6964L66.9933 46.0098C66.9723 46.638 66.9303 47.3137 66.9269 47.9708L66.882 49.879L66.8713 53.629L68.6105 50.2227L68.6076 50.2188C68.983 49.9169 69.7428 48.103 70.0178 47.5967L74.1545 40.0792C74.4736 39.4961 75.9855 36.452 76.2912 36.3008C76.1294 37.0047 73.2817 42.0318 72.717 43.0723C70.7421 46.708 68.8097 50.4125 66.7707 54.0089C66.4699 54.3985 66.322 54.0904 66.0832 54.8282C66.0581 54.907 66.0348 54.9869 66.0129 55.0665C65.6659 53.3078 65.5438 51.5426 65.5412 49.7569C65.5403 49.1467 65.398 48.018 65.4484 47.4688C65.6411 45.3696 65.8158 43.2775 65.9533 41.1739C66.106 38.6352 66.1777 36.0921 66.1691 33.5489C66.1717 31.3244 66.2292 28.815 66.1496 26.6133C66.1641 24.2674 66.4078 19.353 65.634 17.3946C65.4927 16.9424 65.0161 16.3838 64.6701 16.0665C64.2642 15.3342 63.5775 14.044 63.0715 13.4424L62.8049 13.0079C62.4231 12.9366 62.5645 12.9963 62.2648 12.7237Z" fill="#25A9E8"/>
<path d="M63.0714 13.4427C63.5774 14.0442 64.2641 15.3339 64.6701 16.0662C64.6905 16.7213 64.7432 17.1596 64.5275 17.7938C63.0207 22.224 61.2128 18.8635 60.3472 18.7097C60.5429 16.9186 61.6756 15.7815 62.5885 14.2949C62.7774 13.9873 63.0059 13.7837 63.0714 13.4427Z" fill="#B9FCFA"/>
<path d="M62.2651 12.7236C62.5647 12.9962 62.4228 12.9366 62.8046 13.0079L63.0714 13.4427C63.006 13.7837 62.7774 13.9873 62.5885 14.2949C61.6756 15.7815 60.5429 16.9186 60.3472 18.7097C60.2797 19.3979 60.2283 20.0875 60.1929 20.7781C60.1993 21.1412 60.137 22.1717 60.2564 22.4003L60.3475 22.4518C60.3296 22.7181 60.2889 23.0067 60.3452 23.2622L60.095 23.2545C60.0952 23.9324 60.1128 24.6627 60.0445 25.3326L60.01 23.3384L59.889 23.2888C59.5798 23.578 59.7678 24.2611 59.6196 24.8429C59.5566 23.4803 59.3608 18.7969 59.0956 17.6422L58.7198 17.1661C59.9102 15.8738 60.7011 14.1999 62.2651 12.7236Z" fill="url(#paint20_linear_26_4)"/>
<path d="M62.2651 12.7236C62.5647 12.9962 62.4228 12.9366 62.8046 13.0079C61.9148 13.6661 59.4762 16.7277 59.0956 17.6422L58.7198 17.1661C59.9102 15.8738 60.7011 14.1999 62.2651 12.7236Z" fill="#3CD5EF"/>
<path d="M60.095 23.2545C60.0995 22.5017 60.0723 21.4959 60.1929 20.7781C60.1993 21.1412 60.137 22.1717 60.2564 22.4003L60.3475 22.4518C60.3296 22.7181 60.2889 23.0067 60.3453 23.2622L60.095 23.2545Z" fill="#B0EEF7"/>
<path d="M66.1496 26.6133C66.0412 27.7669 66.2285 30.6425 65.9119 31.5435C65.7785 31.2191 65.7343 30.1363 65.7073 29.7308C65.4393 25.6956 65.2538 21.5908 65.4786 17.5546C65.5303 17.5012 65.5821 17.4478 65.6339 17.3943C66.4079 19.3525 66.1641 24.2672 66.1496 26.6133Z" fill="#B9FCFA"/>
<path d="M59.6196 24.8429C59.7678 24.2611 59.5798 23.578 59.889 23.2888L60.0101 23.3384L60.0446 25.3326C60.1128 24.6627 60.0952 23.9324 60.0951 23.2545L60.3453 23.2622L60.4022 23.3562L60.2278 23.4788C60.1479 24.7599 60.2449 26.4803 60.291 27.7868C60.3814 29.9798 60.4312 32.1744 60.4401 34.3692C60.4392 34.9471 60.3312 37.4604 60.5129 37.8174C60.4859 38.2842 60.4645 38.7513 60.4489 39.2187C60.3159 38.3387 60.531 37.7539 60.196 36.8588C60.2321 36.3471 60.1073 34.9209 60.0742 34.3067L59.7758 28.4208C59.7239 27.5163 59.5617 25.683 59.6196 24.8429Z" fill="#B9FCFA"/>
<path d="M33.0695 51.9237C34.0735 51.4008 36.381 50.7791 37.3986 51.2372C40.3828 52.5805 43.4159 54.11 46.3488 55.5858C47.1964 56.0119 48.3011 56.6908 49.1506 56.9745C49.747 57.1146 50.9221 58.4361 51.4103 58.9305C51.678 59.1328 52.5552 59.961 52.6701 60.242C53.7644 61.4814 54.6502 62.411 55.8205 63.5692C56.7108 64.1918 58.3187 65.1252 59.384 65.2811C59.6537 65.3772 60.0308 65.4216 60.2287 65.5028C59.9059 66.152 57.7556 67.1537 56.8888 67.7879C56.6982 67.8154 56.5732 67.9255 56.423 68.0506C55.35 68.9459 54.6988 68.9486 53.3517 68.8309C52.1892 68.8574 49.5491 68.8195 48.7336 69.5614C48.1977 69.5183 45.9511 69.6362 45.2472 69.6454C41.6716 69.7009 38.0965 69.805 34.5236 69.9559L29.465 70.1053C28.7664 70.1252 27.3908 70.128 26.7765 70.2332C24.4174 70.1678 21.5568 70.4451 19.1388 70.4227C18.5572 70.3821 15.7664 70.6382 15.3566 70.3622C14.3825 69.7051 10.109 66.7001 10.5666 65.4823C10.6937 65.3372 10.8279 65.1978 10.9679 65.0643C11.9924 64.1083 14.8582 62.2619 16.2287 61.8358C16.962 61.608 19.51 61.6781 20.4484 61.6864C23.8292 61.7262 27.2099 61.8148 30.5881 61.9549C31.4922 61.6684 34.5753 62.0778 35.6955 62.0614C37.2185 62.039 38.8886 62.1892 40.4133 62.2489C40.865 62.266 42.1026 62.4038 42.5597 62.326L47.2385 62.494L50.4357 62.617L44.9543 60.1043L42.7111 59.2664C41.3735 58.4689 35.588 56.2735 34.7092 55.6063C34.472 55.4264 34.3066 55.1916 34.1603 54.9354C33.7504 54.2174 32.8415 52.7245 33.0695 51.9237Z" fill="#3FC2EF"/>
<path d="M33.0695 51.9237C34.0735 51.4008 36.381 50.7791 37.3986 51.2372C40.3828 52.5805 43.4159 54.11 46.3488 55.5858C47.1964 56.0119 48.3011 56.6908 49.1506 56.9745C49.747 57.1146 50.9221 58.4361 51.4103 58.9305C51.678 59.1328 52.5552 59.961 52.6701 60.242C53.7644 61.4814 54.6502 62.411 55.8205 63.5692C55.2353 63.701 54.0129 63.6082 53.3566 63.619C52.3294 63.6347 51.3015 63.6286 50.2746 63.6004L50.3293 63.5311C50.6226 63.4541 52.1109 63.5143 52.5031 63.5184C52.1223 63.312 51.7349 63.0159 51.3791 63.1258C51.0814 63.2187 50.8494 63.2565 50.6096 63.1024C50.7406 62.9415 51.06 62.9491 51.3205 62.911L51.3185 62.8377L51.0744 62.743C50.7951 62.8533 32.031 62.1391 30.5881 61.9549C31.4922 61.6684 34.5753 62.0778 35.6955 62.0614C37.2185 62.039 38.8886 62.1892 40.4133 62.2489C40.8649 62.266 42.1026 62.4038 42.5598 62.326L47.2385 62.494L50.4357 62.617L44.9543 60.1043L42.7111 59.2665C41.3735 58.4688 35.588 56.2735 34.7092 55.6063C34.472 55.4264 34.3066 55.1916 34.1603 54.9354C33.7504 54.2174 32.8415 52.7245 33.0695 51.9237Z" fill="#246BD3"/>
<path d="M36.6955 51.8786C38.3729 52.0036 44.3526 55.4833 46.0979 56.4294C47.2695 57.0603 48.4558 57.6631 49.6556 58.2385C50.1065 58.4532 50.9686 58.9407 51.4106 58.9308C51.6783 59.1331 52.555 59.9605 52.6699 60.2416C52.5716 60.6388 53.803 61.4936 54.0334 62.1221L53.9454 62.1602C52.8613 61.8932 40.6021 57.3679 40.238 57.0636C40.3124 57.0238 40.2627 57.0578 40.3372 56.9136C40.0713 56.5239 36.8608 55.1608 36.1238 54.7844C36.68 54.3715 36.9748 54.534 37.5748 53.7579C37.6344 53.2612 36.9341 52.4479 36.6955 51.8786Z" fill="#279DE7"/>
<path d="M33.4872 52.2281C34.6003 52.0622 35.5697 51.9133 36.6955 51.8786C36.9341 52.4479 37.6344 53.2612 37.5748 53.7579C36.9748 54.534 36.68 54.3715 36.1238 54.7844C35.2289 54.9369 35.5235 53.8831 34.8142 53.5193C35.0401 53.8964 35.5177 54.4726 35.2013 54.8408C34.8392 54.3541 34.5693 53.8284 34.2281 53.397L34.115 53.4221C33.8737 53.0743 33.6741 52.6153 33.4872 52.2281Z" fill="#ADE6F9"/>
<path d="M34.115 53.4221L34.2281 53.3969C34.5693 53.8284 34.8392 54.3541 35.2013 54.8408C35.5177 54.4726 35.0401 53.8964 34.8142 53.5193C35.5235 53.8831 35.2289 54.9369 36.1239 54.7844C36.8609 55.1608 40.0713 56.5239 40.3372 56.9135C40.2627 57.0578 40.3124 57.0238 40.238 57.0636C38.4327 56.4045 37.0841 55.6185 34.9856 54.9237C34.7135 54.4237 34.4047 53.913 34.115 53.4221Z" fill="#4CE0F0"/>
<path d="M55.8201 63.5689C56.7103 64.1915 58.3183 65.1251 59.3837 65.281C59.6534 65.3772 60.0304 65.4219 60.2283 65.5032C59.9055 66.1524 57.7559 67.1539 56.8892 67.7882C56.6984 67.8156 56.5734 67.925 56.4231 68.0502C55.3499 68.9457 54.6993 68.9482 53.3522 68.8304C52.1898 68.8569 49.5494 68.8196 48.7338 69.5617C48.1982 69.5186 45.9503 69.6363 45.2468 69.6454C41.6711 69.701 38.0962 69.8046 34.5232 69.9555L29.4652 70.1056C28.7667 70.1255 27.3912 70.128 26.7769 70.2333C24.4177 70.1678 21.557 70.4455 19.1389 70.4231C18.5573 70.3825 15.7665 70.6387 15.3568 70.3626C14.3832 69.706 10.1089 66.7004 10.5666 65.4825C10.6837 65.601 10.8418 65.7461 10.9336 65.8788L11.3217 65.708C11.7144 65.9393 12.0461 66.0902 12.4525 66.3381C13.5304 66.9956 14.8619 68.1663 16.0306 68.5352L16.2514 68.6845C16.3017 69.085 16.2803 69.1098 16.1473 69.5037L15.9081 69.6819C20.217 69.575 24.5299 69.3461 28.8383 69.2126C29.8825 69.1811 30.9364 69.1471 31.9789 69.0808C33.3088 69.1977 40.4865 68.9133 41.7153 68.5469C42.1568 68.8097 43.5513 68.6364 44.1295 68.6621C47.8962 68.8263 51.5594 68.2774 54.9956 66.6722C55.5949 66.392 57.3114 66.1258 57.5375 65.5579C56.2542 65.1856 55.2935 64.6169 54.1787 63.8856C53.8087 63.6426 53.8615 63.6584 53.3567 63.6194C54.0129 63.6086 55.2349 63.7007 55.8201 63.5689Z" fill="#279DE7"/>
<path d="M55.8201 63.5689C56.7103 64.1915 58.3183 65.1251 59.3837 65.281C59.6534 65.3772 60.0304 65.4219 60.2283 65.5032C59.9055 66.1524 57.7559 67.1539 56.8892 67.7882C56.6984 67.8156 56.5734 67.925 56.4231 68.0502C55.3499 68.9457 54.6993 68.9482 53.3522 68.8304C53.926 68.5883 54.9644 68.7359 55.2325 68.575C56.4662 67.8322 57.9206 66.8861 59.1406 66.1499L59.1203 66.0653C58.8985 65.9302 58.756 65.9766 58.488 65.9982L58.3776 66.0081C58.0878 65.6723 57.9755 65.6682 57.5375 65.5579C56.2542 65.1856 55.2935 64.6169 54.1787 63.8856C53.8087 63.6426 53.8615 63.6584 53.3567 63.6194C54.0129 63.6086 55.2349 63.7007 55.8201 63.5689Z" fill="#2077D9"/>
<path d="M10.9337 65.8788L11.3218 65.708C11.7144 65.9393 12.0462 66.0902 12.4525 66.3381C13.5304 66.9956 14.8619 68.1663 16.0306 68.5352L16.2514 68.6845C16.3018 69.085 16.2803 69.1098 16.1474 69.5037L15.9082 69.6819C15.3887 69.7399 15.0574 69.5534 14.6385 69.2541C13.9547 68.7666 11.0628 66.5586 10.9337 65.8788Z" fill="#F9FEFE"/>
<path d="M10.5666 65.4825C10.6938 65.3374 10.8277 65.1981 10.9678 65.0646C11.9921 64.1086 14.8578 62.2622 16.2284 61.836C16.9612 61.608 19.5105 61.6776 20.4488 61.6859C23.8296 61.7257 27.2096 61.8153 30.5877 61.9554C32.0283 62.1395 50.7949 62.8533 51.0742 62.7431L51.319 62.8376L51.3205 62.9114C51.06 62.9495 50.7405 62.9412 50.6095 63.1021C50.8494 63.2563 51.0809 63.219 51.3787 63.1261C51.7347 63.0158 52.1222 63.3118 52.5032 63.5183C52.111 63.5141 50.6219 63.4536 50.329 63.5307L50.275 63.6004C48.0398 63.7455 45.2929 63.5141 43.0994 63.7032C39.6419 63.6576 36.2875 63.0656 32.6275 63.1974C30.0679 63.1601 27.3577 63.0291 24.8177 62.9984C22.4605 62.9702 17.6004 62.627 15.5032 63.3168C15.1961 63.4246 15.2129 63.4196 14.9897 63.6617C13.6186 64.4419 12.7135 64.7719 11.3217 65.708L10.9336 65.8788C10.8419 65.7461 10.6837 65.601 10.5666 65.4825Z" fill="#2792DB"/>
<path d="M14.9897 63.6617C16.2555 64.32 18.676 65.237 17.7371 66.9898C17.2805 67.8421 16.4712 67.9839 16.0306 68.5352C14.8619 68.1663 13.5304 66.9956 12.4525 66.3381C12.0461 66.0902 11.7144 65.9393 11.3217 65.708C12.7135 64.7719 13.6186 64.4419 14.9897 63.6617Z" fill="#CBF2FA"/>
<path d="M15.5032 63.3168C17.6004 62.627 22.4605 62.9702 24.8177 62.9984C27.3577 63.0291 30.0679 63.1601 32.6275 63.1974C33.1358 63.2886 33.3523 63.3069 33.8641 63.3326C32.2511 63.5962 16.393 63.9701 15.622 63.4146C15.5803 63.384 15.5429 63.3491 15.5032 63.3168Z" fill="#B0EEF7"/>
<path d="M16.0306 68.5352C17.4984 68.5311 18.9253 68.6248 20.389 68.6745C24.2991 68.8089 28.2184 68.7135 32.1286 68.7765C31.4714 68.9067 28.6748 68.7599 28.4012 69.002L28.4461 69.0825C29.0141 69.0626 31.6849 68.8934 31.9789 69.0808C30.9364 69.1471 29.8825 69.1811 28.8383 69.2126C24.5298 69.3461 20.217 69.5749 15.9081 69.6819L16.1473 69.5037C16.2802 69.1098 16.3017 69.085 16.2514 68.6845L16.0306 68.5352Z" fill="#CBF2FA"/>
<path d="M50.275 63.6004C51.302 63.6285 52.3294 63.6352 53.3567 63.6194C53.8615 63.6584 53.8087 63.6426 54.1787 63.8856C55.2935 64.6169 56.2543 65.1856 57.5375 65.5579C57.3114 66.1258 55.5949 66.392 54.9957 66.6722C51.5594 68.2774 47.8962 68.8263 44.1295 68.6621C43.5513 68.6364 42.1568 68.8097 41.7153 68.5469L41.8192 68.4615C42.7695 68.5974 43.7866 68.4573 44.6853 68.4789C48.0069 68.5585 51.3898 68.2086 54.4034 66.7253C54.8892 66.4865 55.6202 66.3812 56.1191 66.1225C56.2808 66.0388 56.013 65.8265 55.9965 65.6566C55.9965 65.6557 56.1471 65.2702 56.1587 65.2403C55.7447 64.9601 54.1268 64.2114 53.7434 63.8184C53.7162 63.7911 52.1249 63.7977 51.8933 63.7985L46.2343 63.7877C45.5971 63.7886 43.6113 63.8615 43.0994 63.7032C45.2929 63.5141 48.0398 63.7455 50.275 63.6004Z" fill="#25A9E8"/>
<path d="M27.1011 26.2519C28.0584 26.3573 32.2892 27.398 32.8804 27.8749C33.9765 28.7591 35.9816 31.2299 36.983 32.3593L48.7144 45.8329C49.8511 47.1135 51.3922 49.0281 52.523 50.1698C52.7164 50.7867 53.8619 51.6861 53.9976 52.8261C53.8983 53.0861 53.9818 52.9883 53.7271 53.121C53.5926 53.0272 53.4571 52.935 53.3257 52.8368C53.6535 53.2821 54.11 53.8809 54.355 54.37C55.3227 56.3042 56.3536 58.191 57.3902 60.0878C58.1482 61.4758 58.6998 62.9291 60.0191 63.9091C60.504 64.2763 61.6329 64.6224 61.9214 65.0849L61.8882 65.2226C61.5122 65.1595 60.8043 64.8281 60.4185 64.664C60.6723 64.8182 61.0151 64.98 61.1724 65.2031C61.0128 65.4385 59.7634 65.2526 59.4517 65.2128L59.3834 65.2812C58.318 65.1252 56.71 64.1919 55.8199 63.5693C54.6495 62.411 53.7639 61.4807 52.6695 60.2411C52.5536 59.9595 51.6782 59.1328 51.4107 58.9306C50.9226 58.4364 49.7475 57.1146 49.1509 56.9745C48.3014 56.691 47.1968 56.011 46.3492 55.5849C43.4164 54.1092 40.383 52.5806 37.399 51.2372C36.3814 50.7792 34.0739 51.4008 33.0699 51.9238C33.5788 51.11 35.1993 51.0894 36.0777 50.955C36.5325 50.9314 36.9669 50.8392 37.398 51.04C40.594 52.5283 43.781 54.0681 46.9156 55.6865C46.9282 55.6929 46.9421 55.696 46.9566 55.6982L48.5123 56.5624L48.8658 56.787L47.8951 55.7197L47.3892 55.247L47.3873 55.248C46.9848 54.6897 45.4264 53.1457 44.9586 52.6493L38.3492 45.6728C37.9448 45.2456 36.6211 43.9412 36.4097 43.4755C36.283 43.29 34.735 41.735 34.4654 41.4589C32.6915 39.6485 30.9354 37.8208 29.1978 35.9755C28.2667 34.9916 26.4888 33.3659 26.1207 32.1181C26.1489 30.8624 25.7189 27.5745 26.192 26.4872C26.5411 26.2088 26.6157 26.1984 27.1011 26.2519Z" fill="url(#paint21_linear_26_4)"/>
<path d="M26.1918 26.4871C26.5411 26.2086 26.6158 26.1981 27.1015 26.2517C28.0588 26.3571 32.2891 27.3982 32.8803 27.8751C33.9764 28.7592 35.9814 31.2299 36.9828 32.3593L48.7148 45.8328C49.8516 47.1134 51.3924 49.0284 52.5232 50.1701C52.7165 50.787 53.8616 51.6857 53.9973 52.8257C53.8978 53.0862 53.9821 52.9882 53.7266 53.1214C53.5921 53.0276 53.4568 52.9354 53.3253 52.8372C52.2696 51.4894 51.0027 50.5576 49.9004 49.3229C47.453 46.5818 45.1475 43.0967 42.5253 40.5412C42.5082 41.1785 42.795 40.5955 42.5927 41.182C42.0057 41.5337 41.543 43.2221 41.1121 43.9187C40.7367 44.5254 40.6717 44.4356 40.2975 44.8857C40.1101 44.7454 39.5816 44.083 39.2336 43.7785C38.7731 43.0464 37.0553 41.36 36.349 40.6334C34.8936 39.1364 33.5555 37.5219 32.1446 35.9988C31.0093 34.7734 29.8695 33.6925 28.7691 32.4098L28.7165 32.5432L28.6513 32.6029C28.3788 32.3639 28.4886 32.3719 28.0706 32.4142C27.7723 32.4444 27.5983 32.4618 27.4111 32.6596C27.4964 33.041 27.8881 33.0177 27.867 33.311L27.8184 33.3519C27.3667 32.9144 26.8652 32.4431 26.6404 31.8491C26.4129 32.1138 26.5176 32.0312 26.1204 32.1183C26.1486 30.8628 25.7186 27.5743 26.1918 26.4871Z" fill="#48F4F3"/>
<path d="M26.1917 26.4871C26.541 26.2086 26.6157 26.1981 27.1015 26.2517C28.0588 26.3571 32.289 27.3982 32.8803 27.8751C33.9763 28.7592 35.9814 31.2299 36.9828 32.3593L48.7148 45.8328C49.8516 47.1134 51.3923 49.0284 52.5231 50.1701C52.7165 50.787 53.8616 51.6857 53.9973 52.8257C53.8977 53.0862 53.982 52.9882 53.7266 53.1214C53.592 53.0276 53.4567 52.9354 53.3253 52.8372C52.2696 51.4894 51.0026 50.5576 49.9003 49.3229C47.4529 46.5818 45.1475 43.0967 42.5253 40.5412C41.1676 38.9502 39.6194 37.4277 38.2659 35.831C36.5419 33.7971 34.8875 31.7077 33.087 29.7361C32.2597 28.8302 31.4947 27.9626 30.2016 27.8922C29.3485 27.5266 28.1575 27.1727 27.2674 26.9202L26.6299 26.7792C26.313 26.7391 26.3529 26.7278 26.1917 26.4871Z" fill="url(#paint22_linear_26_4)"/>
<path d="M26.1204 32.1183C26.1486 30.8628 25.7186 27.5743 26.1918 26.4871C26.3529 26.7278 26.3131 26.7391 26.6299 26.7792L27.2675 26.9202C28.1575 27.1727 29.3485 27.5266 30.2017 27.8922C31.3635 28.6348 32.3257 31.9594 30.3651 32.3501C29.8556 32.4515 28.9758 32.174 28.7349 32.2676L28.7691 32.4098L28.7165 32.5432L28.6513 32.6029C28.3788 32.3639 28.4886 32.3719 28.0706 32.4142C27.7723 32.4444 27.5983 32.4618 27.4111 32.6596C27.4964 33.041 27.8881 33.0177 27.867 33.311L27.8184 33.3519C27.3667 32.9144 26.8652 32.4431 26.6404 31.8491C26.4129 32.1138 26.5176 32.0312 26.1204 32.1183Z" fill="#B9FCFA"/>
<path d="M26.1204 32.1183C26.1486 30.8628 25.7186 27.5743 26.1918 26.4871C26.3529 26.7278 26.3131 26.7391 26.6299 26.7792L27.2675 26.9202C27.0109 28.2707 27.7755 31.4517 28.7165 32.5432L28.6513 32.6029C28.3788 32.3639 28.4886 32.3719 28.0706 32.4142C27.7723 32.4444 27.5983 32.4618 27.4111 32.6596C27.4964 33.041 27.8881 33.0177 27.867 33.311L27.8184 33.3519C27.3667 32.9144 26.8652 32.4431 26.6404 31.8491C26.4129 32.1138 26.5176 32.0312 26.1204 32.1183Z" fill="#F9FEFE"/>
<path d="M26.1204 32.1183C26.1486 30.8628 25.7186 27.5743 26.1918 26.4871C26.3529 26.7278 26.3131 26.7391 26.6299 26.7792C26.2539 27.9974 26.8078 30.9648 26.6404 31.8491C26.4129 32.1138 26.5176 32.0312 26.1204 32.1183Z" fill="#4CE0F0"/>
<path d="M27.8184 33.3519L27.8669 33.311C27.8881 33.0177 27.4963 33.041 27.411 32.6596C27.5982 32.4618 27.7723 32.4444 28.0706 32.4142C28.4885 32.3719 28.3788 32.3639 28.6513 32.6029L28.7165 32.5432L28.769 32.4098C29.8694 33.6925 31.0093 34.7734 32.1445 35.9988C33.5554 37.5219 34.8936 39.1364 36.3489 40.6334C37.0553 41.36 38.773 43.0464 39.2336 43.7785C39.5041 44.3841 40.6028 45.3715 40.5919 45.8096C39.9015 45.6549 39.3701 44.6694 38.7472 44.4594C37.8559 43.7244 35.5986 41.3786 34.718 40.4646C32.6494 38.3176 29.6929 35.596 27.8184 33.3519Z" fill="#B9FCFA"/>
<rect x="1" y="1" width="126" height="126" rx="19" stroke="url(#paint23_linear_26_4)" stroke-width="2"/>
</g>
<defs>
<radialGradient id="paint0_radial_26_4" cx="0" cy="0" r="1" gradientUnits="userSpaceOnUse" gradientTransform="translate(64 64) rotate(90) scale(64)">
<stop stop-color="#28D7F0"/>
<stop offset="1" stop-color="#111111"/>
</radialGradient>
<linearGradient id="paint1_linear_26_4" x1="88.3386" y1="59.5816" x2="100.593" y2="104.297" gradientUnits="userSpaceOnUse">
<stop stop-color="#1D9DDB"/>
<stop offset="1" stop-color="#47C1EA"/>
</linearGradient>
<linearGradient id="paint2_linear_26_4" x1="77.8958" y1="89.7631" x2="84.7443" y2="84.9898" gradientUnits="userSpaceOnUse">
<stop stop-color="#2C98E4"/>
<stop offset="1" stop-color="#4CEEFC"/>
</linearGradient>
<linearGradient id="paint3_linear_26_4" x1="71.1775" y1="62.0333" x2="89.3907" y2="83.4079" gradientUnits="userSpaceOnUse">
<stop stop-color="#1EC3E9"/>
<stop offset="1" stop-color="#62F9F9"/>
</linearGradient>
<linearGradient id="paint4_linear_26_4" x1="91.8921" y1="78.3163" x2="94.27" y2="76.1308" gradientUnits="userSpaceOnUse">
<stop stop-color="#B5FEF9"/>
<stop offset="1" stop-color="#E9F9FC"/>
</linearGradient>
<linearGradient id="paint5_linear_26_4" x1="78.1255" y1="63.5332" x2="76.4516" y2="54.8068" gradientUnits="userSpaceOnUse">
<stop stop-color="#1C79DA"/>
<stop offset="1" stop-color="#1FAAEA"/>
</linearGradient>
<linearGradient id="paint6_linear_26_4" x1="105.12" y1="67.6323" x2="109.101" y2="61.2722" gradientUnits="userSpaceOnUse">
<stop stop-color="#BBFFF0"/>
<stop offset="1" stop-color="#FCFDFF"/>
</linearGradient>
<linearGradient id="paint7_linear_26_4" x1="64.8179" y1="73.2297" x2="61.6955" y2="111.981" gradientUnits="userSpaceOnUse">
<stop stop-color="#1C9AEE"/>
<stop offset="1" stop-color="#62D6FA"/>
</linearGradient>
<linearGradient id="paint8_linear_26_4" x1="63.2274" y1="62.132" x2="84.9541" y2="67.7716" gradientUnits="userSpaceOnUse">
<stop stop-color="#1961CE"/>
<stop offset="1" stop-color="#2EA4F2"/>
</linearGradient>
<linearGradient id="paint9_linear_26_4" x1="72.7678" y1="87.8221" x2="77.8022" y2="91.5349" gradientUnits="userSpaceOnUse">
<stop stop-color="#67C7F7"/>
<stop offset="1" stop-color="#B0EBFA"/>
</linearGradient>
<linearGradient id="paint10_linear_26_4" x1="58.0407" y1="93.5778" x2="65.3223" y2="94.4028" gradientUnits="userSpaceOnUse">
<stop stop-color="#1E78D5"/>
<stop offset="1" stop-color="#2C94E6"/>
</linearGradient>
<linearGradient id="paint11_linear_26_4" x1="70.5035" y1="94.678" x2="62.0112" y2="96.9009" gradientUnits="userSpaceOnUse">
<stop stop-color="#1088D1"/>
<stop offset="1" stop-color="#45A3FC"/>
</linearGradient>
<linearGradient id="paint12_linear_26_4" x1="53.0889" y1="80.4554" x2="59.0822" y2="82.8665" gradientUnits="userSpaceOnUse">
<stop stop-color="#48B7D9"/>
<stop offset="1" stop-color="#20A1E8"/>
</linearGradient>
<linearGradient id="paint13_linear_26_4" x1="52.8023" y1="88.1264" x2="35.0165" y2="79.4945" gradientUnits="userSpaceOnUse">
<stop stop-color="#1F95E0"/>
<stop offset="1" stop-color="#53D1EA"/>
</linearGradient>
<linearGradient id="paint14_linear_26_4" x1="28.5673" y1="98.2134" x2="28.9482" y2="100.842" gradientUnits="userSpaceOnUse">
<stop stop-color="#CFF9FD"/>
<stop offset="1" stop-color="#FFFFFE"/>
</linearGradient>
<linearGradient id="paint15_linear_26_4" x1="38.6323" y1="81.7903" x2="42.8325" y2="85.9989" gradientUnits="userSpaceOnUse">
<stop stop-color="#2F97DA"/>
<stop offset="1" stop-color="#2BBAEE"/>
</linearGradient>
<linearGradient id="paint16_linear_26_4" x1="66.9314" y1="58.9482" x2="45.644" y2="37.9762" gradientUnits="userSpaceOnUse">
<stop stop-color="#1FD3EA"/>
<stop offset="1" stop-color="#51FDF7"/>
</linearGradient>
<linearGradient id="paint17_linear_26_4" x1="56.5526" y1="40.0431" x2="65.6166" y2="36.9338" gradientUnits="userSpaceOnUse">
<stop stop-color="#0AA7D7"/>
<stop offset="1" stop-color="#48C5EE"/>
</linearGradient>
<linearGradient id="paint18_linear_26_4" x1="50.9023" y1="49.5889" x2="57.0443" y2="45.8033" gradientUnits="userSpaceOnUse">
<stop stop-color="#1BA8D9"/>
<stop offset="1" stop-color="#45D6FB"/>
</linearGradient>
<linearGradient id="paint19_linear_26_4" x1="68.1594" y1="58.328" x2="60.9809" y2="33.4816" gradientUnits="userSpaceOnUse">
<stop stop-color="#13ADE4"/>
<stop offset="1" stop-color="#38F6F3"/>
</linearGradient>
<linearGradient id="paint20_linear_26_4" x1="62.5008" y1="19.1251" x2="59.5338" y2="17.1771" gradientUnits="userSpaceOnUse">
<stop stop-color="#E6FAF9"/>
<stop offset="1" stop-color="white"/>
</linearGradient>
<linearGradient id="paint21_linear_26_4" x1="41.1161" y1="53.0104" x2="47.3124" y2="44.2182" gradientUnits="userSpaceOnUse">
<stop stop-color="#23A7DD"/>
<stop offset="1" stop-color="#35F7F9"/>
</linearGradient>
<linearGradient id="paint22_linear_26_4" x1="39.1578" y1="40.806" x2="42.8498" y2="36.3861" gradientUnits="userSpaceOnUse">
<stop stop-color="#1F9ADB"/>
<stop offset="1" stop-color="#2AB1E2"/>
</linearGradient>
<linearGradient id="paint23_linear_26_4" x1="-1.25265e-06" y1="9.47619" x2="128" y2="118.524" gradientUnits="userSpaceOnUse">
<stop stop-color="#1A5B63"/>
<stop offset="1" stop-color="#3A9CA7"/>
</linearGradient>
<clipPath id="clip0_26_4">
<rect width="128" height="128" rx="20" fill="white"/>
</clipPath>
</defs>
</svg>
