<svg width="128" height="128" viewBox="0 0 128 128" fill="none" xmlns="http://www.w3.org/2000/svg">
<g clip-path="url(#clip0_49_2)">
<path d="M108 0H20C8.9543 0 0 8.9543 0 20V108C0 119.046 8.9543 128 20 128H108C119.046 128 128 119.046 128 108V20C128 8.9543 119.046 0 108 0Z" fill="url(#paint0_radial_49_2)"/>
<path d="M72.0717 55.7236C74.3944 55.5802 77.4537 55.6643 79.7937 55.7459C83.0738 55.853 86.3514 56.0334 89.6233 56.2864C91.0726 56.4009 93.9918 56.564 95.3076 56.8203C95.3983 58.0446 95.418 59.2328 95.4444 60.4613C95.6084 63.9333 95.4543 67.5406 95.6232 70.9673C96.429 70.8446 97.7597 70.7869 98.591 70.7358C100.35 70.5957 102.107 70.4268 103.86 70.2274C106.484 69.9547 108.941 69.3738 111.108 71.2755C112.461 72.4628 113.101 74.2796 113.198 76.0626C113.282 80.5118 111.587 86.7466 108.642 90.0498C106.54 92.4095 104.052 92.9434 101.075 93.1915C99.9126 93.2879 98.8003 93.451 97.6344 93.5136C96.6301 93.6331 95.624 93.7369 94.6163 93.8242C94.515 94.111 94.4491 96.0794 94.4145 96.465C93.9358 101.852 93.9168 106.312 88.3239 108.956C84.884 110.871 77.5443 112.841 73.8341 111.71C72.3922 111.26 71.1901 110.252 70.4963 108.91C69.3857 106.766 70.0769 104.98 70.3406 102.719C70.6471 100.089 71.2362 97.1777 71.2865 94.546C71.2634 94.0418 71.4669 92.2447 71.5213 91.6433C71.696 89.7243 71.8501 87.8037 71.9819 85.8815C72.1582 82.9491 72.2694 80.0142 72.3164 77.0768C72.3387 75.3663 72.2909 73.6451 72.3304 71.9379C72.3815 71.4765 72.2942 69.0714 72.2867 68.4065C72.2612 65.3876 72.2126 62.3687 72.1426 59.3506C72.0956 58.6758 72.0107 56.3094 72.0717 55.7236Z" fill="url(#paint1_linear_49_2)"/>
<path d="M33.4123 34.4005C34.2692 29.867 33.4257 24.4214 37.1455 20.9461C40.8301 17.5038 52.7264 13.5471 56.7036 17.8208C57.4739 18.6624 57.979 19.7123 58.1562 20.8396C58.3819 22.3336 57.9955 23.8408 57.8497 25.3164C57.6041 27.8154 56.9631 31.0403 56.8931 33.5136L56.8922 33.581C56.3625 38.3264 56.0205 43.0906 55.8648 47.8629C55.8121 49.539 55.7865 51.2158 55.7873 52.8928C55.7898 53.6051 55.8425 55.5127 55.7659 56.1034C55.6753 56.6126 55.7882 58.0348 55.7717 58.6585C55.7058 61.1171 56.0024 64.2019 55.8763 66.6078C55.9587 67.8083 55.9488 69.0772 55.9843 70.2867C55.9991 70.805 56.0675 71.8885 56.0255 72.3606C48.249 72.3796 40.4772 71.9684 32.7459 71.128C32.5784 70.4186 32.5765 67.983 32.5609 67.1681C32.5339 63.8921 32.5659 60.2858 32.4351 57.037C31.6397 57.0979 30.2718 57.2306 29.5078 57.2207C27.657 57.3262 25.4029 57.7439 23.5288 57.8972C22.3469 57.9837 20.8436 58.3652 19.6652 58.1237C17.091 57.5981 15.2484 55.1081 15.0823 52.5568C14.7778 47.877 16.173 42.3179 19.0123 38.5766C21.9154 34.7512 26.1102 35.0711 30.406 34.6226C30.8504 34.5315 32.9233 34.4146 33.4123 34.4005Z" fill="url(#paint2_linear_49_2)"/>
<path d="M33.5544 93.8119C33.3756 93.7987 33.1969 93.7855 33.0183 93.7707C31.3945 93.6347 29.7487 93.4131 28.1255 93.2722C24.3535 92.9451 21.8294 92.5183 19.2505 89.3923C16.2711 85.5535 14.6778 79.8947 14.8064 75.0565C14.8699 72.6679 16.6989 70.0445 19.1623 69.7413C20.8112 69.5386 23.1317 70.0206 24.8556 70.2274L32.7459 71.128C40.4772 71.9684 48.249 72.3796 56.0255 72.3606C57.5366 72.2453 60.207 72.2617 61.7659 72.2906C62.6326 72.162 65.8839 72.1225 66.8594 72.125C67.9973 71.9841 71.1184 71.9379 72.3304 71.9379C72.2909 73.6451 72.3386 75.3663 72.3164 77.0768C72.2694 80.0142 72.1582 82.9491 71.9819 85.8815C71.8501 87.8037 71.696 89.7243 71.5213 91.6433C71.4669 92.2447 71.2634 94.0418 71.2865 94.546C70.0357 94.6943 68.7364 94.5897 67.4791 94.6927C65.3648 94.7446 63.0553 94.8393 60.9477 94.7924C59.9136 94.827 58.2575 94.9291 57.282 94.8797C57.3454 95.8091 57.4006 96.7517 57.5003 97.677C57.5654 99.769 57.8933 102.682 58.1932 104.785C58.751 108.701 56.3995 111.824 52.2749 111.972C47.5047 112.144 41.0622 110.6 37.301 107.492C34.0301 104.788 34.0846 101.094 33.8139 97.1694C33.7067 96.3323 33.5475 94.649 33.5544 93.8119Z" fill="url(#paint3_linear_49_2)"/>
<path d="M70.6331 30.3575L70.1626 25.3217C69.9171 22.7576 69.3041 20.1983 71.111 18.0971C72.2867 16.7298 73.9692 16.0973 75.7572 15.9779C80.391 15.767 87.4003 17.5598 90.9572 20.5572C94.1986 23.2878 93.9588 27.245 94.3766 31.0473C94.4672 31.8295 94.585 33.429 94.5858 34.1951C96.4026 34.3866 98.2211 34.5656 100.04 34.732C103.844 35.0987 106.161 35.3881 108.8 38.7193C111.599 42.2541 113.493 48.7328 113.128 53.2336C113.003 54.7728 112.161 56.4099 110.914 57.327C109.142 58.6304 107.868 58.4311 105.814 58.1386C103.604 57.8073 101.389 57.5074 99.1711 57.2388C98.0291 57.1037 96.3631 56.9916 95.3076 56.8202C93.9918 56.564 91.0726 56.4009 89.6233 56.2863C86.3514 56.0334 83.0738 55.8529 79.7937 55.7458C77.4537 55.6643 74.3944 55.5802 72.0717 55.7236C68.1357 55.7565 64.1792 55.9057 60.2523 55.9222C59.0642 56.0507 57.0026 56.0804 55.7659 56.1034C55.8425 55.5127 55.7898 53.6051 55.7873 52.8928C55.7865 51.2158 55.8121 49.539 55.8648 47.8629C56.0205 43.0906 56.3625 38.3263 56.8922 33.5809C58.0507 33.4539 59.8345 33.4742 61.0853 33.4179C64.2838 33.4466 67.6685 33.2764 70.9033 33.25C70.746 32.6428 70.7155 31.1133 70.6331 30.3575Z" fill="url(#paint4_linear_49_2)"/>
<g opacity="0.45">
<path d="M98.591 70.7358C100.35 70.5957 102.107 70.4268 103.86 70.2274C106.484 69.9547 108.941 69.3738 111.108 71.2755C112.461 72.4628 113.101 74.2795 113.198 76.0625C113.282 80.5118 111.587 86.7466 108.642 90.0498C106.54 92.4095 104.052 92.9434 101.075 93.1914C99.9126 93.2878 98.8003 93.451 97.6344 93.5136C98.3504 86.9072 99.2881 77.2235 98.591 70.7358Z" fill="url(#paint5_linear_49_2)"/>
<path d="M29.5078 57.2207C27.657 57.3262 25.4029 57.7439 23.5288 57.8972C22.3469 57.9837 20.8436 58.3652 19.6652 58.1237C17.091 57.5981 15.2484 55.1081 15.0823 52.5568C14.7778 47.877 16.173 42.3179 19.0123 38.5766C21.9154 34.7512 26.1102 35.0711 30.406 34.6226C30.2853 36.5321 29.9039 38.8405 29.7193 40.8355C29.3913 44.6932 29.2285 48.5632 29.2315 52.4348C29.2369 53.5412 29.2793 56.2287 29.5078 57.2207Z" fill="url(#paint6_linear_49_2)"/>
<path d="M70.6331 30.3575L70.1626 25.3217C69.9171 22.7576 69.3041 20.1983 71.111 18.0971C72.2867 16.7298 73.9692 16.0973 75.7572 15.9779C80.391 15.767 87.4003 17.5598 90.9572 20.5572C94.1986 23.2878 93.9588 27.245 94.3766 31.0473C94.4672 31.8295 94.585 33.429 94.5858 34.1951C89.2739 33.7335 83.9488 33.4337 78.6187 33.296C76.3595 33.233 73.1263 33.1426 70.9033 33.25C70.746 32.6428 70.7155 31.1133 70.6331 30.3575Z" fill="url(#paint7_linear_49_2)"/>
<path d="M33.5544 93.8119C36.4364 93.9462 39.4426 94.2857 42.3597 94.462C47.3273 94.7775 52.3045 94.9168 57.282 94.8797C57.3454 95.8091 57.4006 96.7517 57.5003 97.677C57.5654 99.769 57.8933 102.682 58.1932 104.785C58.751 108.701 56.3995 111.824 52.2749 111.972C47.5047 112.144 41.0622 110.6 37.301 107.492C34.03 104.788 34.0846 101.094 33.8139 97.1694C33.7066 96.3323 33.5475 94.649 33.5544 93.8119Z" fill="url(#paint8_linear_49_2)"/>
</g>
<path d="M95.6232 70.9673C96.429 70.8445 97.7597 70.7869 98.591 70.7358C99.2881 77.2235 98.3504 86.9073 97.6344 93.5136C96.63 93.6331 95.624 93.7369 94.6163 93.8242C94.7457 93.2055 94.9369 90.0646 95.0019 89.2118C95.3373 85.0048 95.5433 80.7887 95.6215 76.5693C95.652 75.1134 95.7427 72.3705 95.6232 70.9673Z" fill="#A84800"/>
<path d="M33.4124 34.4005C33.1205 36.8919 32.9666 39.7099 32.8286 42.2136C32.614 45.5758 32.4867 48.943 32.447 52.3118C32.4376 53.085 32.3553 56.4454 32.4351 57.037C31.6397 57.0979 30.2718 57.2306 29.5078 57.2207C29.2793 56.2287 29.2369 53.5412 29.2315 52.4348C29.2285 48.5632 29.3914 44.6932 29.7194 40.8355C29.9039 38.8405 30.2853 36.5321 30.406 34.6226C30.8504 34.5316 32.9233 34.4146 33.4124 34.4005Z" fill="#A84800"/>
<path d="M33.5544 93.8119C36.4365 93.9462 39.4426 94.2857 42.3598 94.462C47.3273 94.7775 52.3046 94.9168 57.282 94.8797C57.3454 95.8091 57.4006 96.7517 57.5003 97.677C55.4421 98.5438 40.8259 97.5526 37.9798 97.3079C37.3872 97.2568 34.2241 96.8374 33.9345 96.919L33.8139 97.1694C33.7067 96.3323 33.5475 94.649 33.5544 93.8119Z" fill="#A84800"/>
<path d="M70.6331 30.3575C71.3631 30.1374 72.8965 30.1367 73.6981 30.1191C80.0046 29.9806 86.3456 30.3814 92.6084 31.1122C92.952 31.1524 94.0775 31.3657 94.3139 31.2358L94.3766 31.0473C94.4672 31.8295 94.585 33.429 94.5859 34.1951C89.2739 33.7335 83.9488 33.4337 78.6187 33.296C76.3595 33.233 73.1263 33.1426 70.9033 33.25C70.746 32.6428 70.7155 31.1133 70.6331 30.3575Z" fill="#A84800"/>
<path d="M72.0717 55.7236C74.3944 55.5802 77.4537 55.6643 79.7937 55.7459C83.0738 55.853 86.3514 56.0334 89.6233 56.2864C91.0726 56.4009 93.9918 56.564 95.3076 56.8203C95.3983 58.0446 95.418 59.2328 95.4444 60.4613C95.0835 60.3624 92.7633 60.196 92.2681 60.1539C87.3937 59.7049 82.5052 59.433 77.611 59.3391C76.7484 59.3143 72.894 59.2221 72.1426 59.3506C72.0956 58.6758 72.0107 56.3094 72.0717 55.7236Z" fill="#C85601"/>
<path d="M55.8763 66.6078C55.9587 67.8083 55.9488 69.0772 55.9843 70.2867C55.9991 70.805 56.0675 71.8885 56.0255 72.3606C48.249 72.3796 40.4772 71.9684 32.7459 71.128C32.5784 70.4186 32.5765 67.983 32.5609 67.1681C32.7702 67.4532 34.5327 67.5414 34.9955 67.5892C39.6654 68.0761 44.3524 68.3834 49.046 68.5087C51.0951 68.5762 53.9549 68.4971 55.8813 68.6471C55.8384 67.9682 55.8368 67.2868 55.8763 66.6078Z" fill="#C85601"/>
<path d="M66.8595 72.125C67.9973 71.9841 71.1184 71.9379 72.3304 71.9379C72.2909 73.6451 72.3387 75.3663 72.3164 77.0768C72.2694 80.0142 72.1582 82.9491 71.9819 85.8815C71.8501 87.8037 71.696 89.7243 71.5213 91.6433C71.4669 92.2447 71.2634 94.0418 71.2865 94.546C70.0357 94.6943 68.7364 94.5897 67.4791 94.6927C67.5738 94.5567 67.6529 92.7943 67.6925 92.4614C68.5065 85.6549 68.5386 78.9826 68.5164 72.1423C67.9314 72.1522 67.4428 72.1554 66.8595 72.125Z" fill="#C85601"/>
<path d="M56.8922 33.581C58.0507 33.4539 59.8345 33.4743 61.0853 33.4179C60.8447 33.531 60.7532 33.5057 60.7104 33.7513C60.5464 34.6815 60.4558 35.7827 60.3602 36.7172C59.8716 41.4245 59.6047 46.1522 59.561 50.8845C59.5412 52.1407 59.4399 54.5948 59.5256 55.7574C59.7076 55.9568 59.8947 55.8892 60.2523 55.9222C59.0642 56.0507 57.0026 56.0804 55.7659 56.1034C55.8425 55.5127 55.7898 53.6051 55.7873 52.8928C55.7865 51.2158 55.8121 49.539 55.8648 47.8629C56.0205 43.0906 56.3625 38.3264 56.8922 33.581Z" fill="#C85601"/>
<path d="M108 1H20C9.50659 1 1 9.50659 1 20V108C1 118.493 9.50659 127 20 127H108C118.493 127 127 118.493 127 108V20C127 9.50659 118.493 1 108 1Z" stroke="url(#paint9_linear_49_2)" stroke-width="2"/>
</g>
<defs>
<radialGradient id="paint0_radial_49_2" cx="0" cy="0" r="1" gradientUnits="userSpaceOnUse" gradientTransform="translate(64 64) rotate(90) scale(64)">
<stop stop-color="#FFC330"/>
<stop offset="1"/>
</radialGradient>
<linearGradient id="paint1_linear_49_2" x1="78.318" y1="58.3825" x2="87.1267" y2="110.303" gradientUnits="userSpaceOnUse">
<stop stop-color="#FF6D00"/>
<stop offset="1" stop-color="#FFE040"/>
</linearGradient>
<linearGradient id="paint2_linear_49_2" x1="49.2944" y1="69.3829" x2="41.2708" y2="17.4424" gradientUnits="userSpaceOnUse">
<stop stop-color="#FF6D00"/>
<stop offset="1" stop-color="#FFE040"/>
</linearGradient>
<linearGradient id="paint3_linear_49_2" x1="66.6691" y1="75.8426" x2="17.6802" y2="88.9243" gradientUnits="userSpaceOnUse">
<stop stop-color="#FF6D00"/>
<stop offset="1" stop-color="#FFE040"/>
</linearGradient>
<linearGradient id="paint4_linear_49_2" x1="59.1292" y1="54.1326" x2="109.511" y2="37.9516" gradientUnits="userSpaceOnUse">
<stop stop-color="#FF6D00"/>
<stop offset="1" stop-color="#FFE040"/>
</linearGradient>
<linearGradient id="paint5_linear_49_2" x1="113.835" y1="78.3869" x2="95.1601" y2="83.394" gradientUnits="userSpaceOnUse">
<stop stop-color="#A11E01"/>
<stop offset="1" stop-color="#C13F0F"/>
</linearGradient>
<linearGradient id="paint6_linear_49_2" x1="14.4645" y1="48.3562" x2="31.9742" y2="45.2864" gradientUnits="userSpaceOnUse">
<stop stop-color="#A41E02"/>
<stop offset="1" stop-color="#C0400E"/>
</linearGradient>
<linearGradient id="paint7_linear_49_2" x1="80.6917" y1="15.4458" x2="82.801" y2="32.5035" gradientUnits="userSpaceOnUse">
<stop stop-color="#A52001"/>
<stop offset="1" stop-color="#BF3F0A"/>
</linearGradient>
<linearGradient id="paint8_linear_49_2" x1="45.9143" y1="93.8119" x2="45.9143" y2="111.985" gradientUnits="userSpaceOnUse">
<stop stop-color="#A41E02"/>
<stop offset="1" stop-color="#C0400E"/>
</linearGradient>
<linearGradient id="paint9_linear_49_2" x1="7.09608e-07" y1="9.47619" x2="128" y2="118.524" gradientUnits="userSpaceOnUse">
<stop stop-color="#8F6C03"/>
<stop offset="1" stop-color="#532402"/>
</linearGradient>
<clipPath id="clip0_49_2">
<rect width="128" height="128" fill="white"/>
</clipPath>
</defs>
</svg>
