<svg width="512" height="512" viewBox="0 0 512 512" fill="none" xmlns="http://www.w3.org/2000/svg">
<g clip-path="url(#clip0_29_288)">
<mask id="mask0_29_288" style="mask-type:luminance" maskUnits="userSpaceOnUse" x="0" y="0" width="512" height="512">
<path d="M452 0H60C26.8629 0 0 26.8629 0 60V452C0 485.137 26.8629 512 60 512H452C485.137 512 512 485.137 512 452V60C512 26.8629 485.137 0 452 0Z" fill="white"/>
</mask>
<g mask="url(#mask0_29_288)">
<path opacity="0.6" d="M5.24048 233.193C5.24048 231.699 7.16249 231.091 8.02098 232.314L10.8015 236.269L13.582 240.214L16.3625 244.145L19.143 248.056L21.9235 251.944L24.704 255.802L27.4845 259.628L30.265 263.415L33.0455 267.159L35.826 270.857L38.6065 274.502L41.387 278.091L44.1675 281.62L46.948 285.084L49.7285 288.478L52.5089 291.799L55.2894 295.043L58.0699 298.206L60.8504 301.284L63.6309 304.273L66.4114 307.169L69.1919 309.969L71.9724 312.67L74.7529 315.268L77.5334 317.761L80.3139 320.144L83.0944 322.416L85.8749 324.572L88.6554 326.612L91.4359 328.532L94.2164 330.33L96.9969 332.004L99.7774 333.551L102.558 334.97L105.338 336.26L108.119 337.417L110.899 338.442L113.68 339.333L116.46 340.089L119.241 340.708L122.021 341.191L124.802 341.536L127.582 341.744L130.363 341.813L133.143 341.744L135.924 341.536L138.704 341.191L141.485 340.708L144.265 340.089L147.046 339.333L149.826 338.442L152.607 337.417L155.387 336.26L158.168 334.97L160.948 333.551L163.729 332.004L166.509 330.33L169.29 328.532L172.07 326.612L174.851 324.572L177.631 322.416L180.412 320.144L183.192 317.761L185.973 315.268L188.753 312.67L191.534 309.969L194.314 307.169L197.095 304.273L199.875 301.284L202.656 298.206L205.436 295.043L208.217 291.799L210.997 288.478L213.778 285.084L216.558 281.62L219.339 278.091L222.119 274.502L224.9 270.857L227.68 267.159L230.461 263.415L233.241 259.628L236.022 255.802L238.802 251.944L241.583 248.056L244.363 244.145L247.144 240.214L249.924 236.269L252.705 232.314L255.485 228.354L258.266 224.395L261.046 220.44L263.827 216.495L266.607 212.564L269.388 208.653L272.168 204.765L274.949 200.906L277.729 197.081L280.51 193.294L283.29 189.549L286.071 185.852L288.851 182.207L291.632 178.618L294.412 175.089L297.193 171.625L299.973 168.231L302.754 164.909L305.534 161.665L308.315 158.503L311.095 155.425L313.876 152.436L316.656 149.54L319.437 146.739L322.217 144.038L324.998 141.44L327.778 138.948L330.559 136.565L333.339 134.293L336.12 132.136L338.9 130.097L341.681 128.177L344.461 126.379L347.242 124.705L350.022 123.158L352.803 121.739L355.583 120.449L358.364 119.291L361.144 118.266L363.925 117.376L366.705 116.62L369.486 116L372.266 115.518L375.047 115.173L377.827 114.965L380.608 114.896L383.388 114.965L386.169 115.173L388.949 115.518L391.73 116L394.51 116.62L397.291 117.376L400.071 118.266L402.852 119.291L405.632 120.449L408.413 121.739L411.193 123.158L413.974 124.705L416.754 126.379L419.535 128.177L422.315 130.097L425.096 132.136L427.876 134.293L430.657 136.565L433.437 138.948L436.218 141.44L438.998 144.038L441.779 146.739L444.559 149.54L447.34 152.436L450.12 155.425L452.901 158.503L455.681 161.665L458.462 164.909L461.242 168.231L464.023 171.625L466.803 175.089L469.584 178.618L472.364 182.207L475.145 185.852L477.925 189.549L480.706 193.294L483.486 197.081L486.267 200.906L489.047 204.765L491.828 208.653L494.608 212.564L497.389 216.495L500.169 220.44L502.95 224.395C504.759 226.972 505.73 230.044 505.73 233.193V452C505.73 485.137 478.867 512 445.73 512H65.2405C32.1035 512 5.24048 485.137 5.24048 452V233.193Z" fill="white" fill-opacity="0.12"/>
<path d="M381.009 126.154C383.946 124.562 402.944 123.383 406.534 124.725C407.616 128.856 403.816 146.628 401.719 150.167C399.823 153.372 389.183 162.405 385.816 165.374C380.306 170.159 374.876 175.044 369.532 180.02C368.163 183.541 346.81 200.529 340.586 206.863L334.95 211.587L329.261 216.83L324.907 220.541L331.198 217.114L339.266 213.683L342.096 212.438C343.87 212.136 346.445 210.118 347.429 210.105C352.041 210.043 360.381 212.201 363.695 215.404C365.521 217.171 361.617 221.923 360.461 223.31C359.231 225.086 358.397 227.064 356.599 228.496C351.467 232.728 343.448 234.117 337.405 236.667C335.078 237.648 333.972 237.67 333.289 238.206L315.034 244.584L305.029 248.666L303.398 249.823L313.264 249.278L330.657 249.082C330.78 249.141 330.908 249.178 331.039 249.176C344.649 248.9 358.436 248.062 372.044 247.519C377.828 247.285 383.927 246.782 389.535 247.398C403.63 247.35 417.706 246.474 431.795 246.105C434.927 246.024 438.06 245.912 441.192 246.086C447.46 250.62 453.405 255.584 458.986 260.941C459.811 261.868 460.806 262.837 460.665 264.198C460.357 267.099 446.018 276.268 443.246 277.989C441.692 278.953 440.031 279.875 438.203 280.164C434.218 280.8 429.706 280.267 425.66 280.164C416.453 279.927 407.19 279.436 397.985 279.487C389.938 280.162 382.155 279.404 374.101 279.147C366.789 278.916 359.576 278.901 352.283 278.496C350.112 278.377 337.638 277.674 336.195 278.046L336.153 278.103L327.623 277.448L351.711 288.471L351.783 288.441C353.062 288.971 354.45 289.385 356.001 290.079C361.698 292.683 367.412 295.246 373.141 297.777C374.593 298.413 380.001 300.6 380.551 301.393C381.981 303.462 386.749 311.29 386.8 313.521C388.165 316.177 392.591 323.986 388.082 325.255C384.543 326.247 379.075 326.992 375.334 327.615C373.812 328.886 372.515 328.344 370.784 328.72C363.54 330.279 359.027 325.862 353.077 323.068C350.174 321.705 325.89 308.295 324.479 308.448C324.449 308.477 324.417 308.507 324.385 308.539L302.26 296.188L306.735 301.125L324.824 318.881C333.829 329.304 355.199 348.445 358.588 354.994C365.923 363.132 373.816 370.982 381.251 379.03C384.331 382.363 389.377 387.257 391.929 390.76C392.401 396.865 393.032 403.35 393.064 409.454C393.077 411.882 392.845 415.918 389.637 415.492C386.445 415.263 383.405 414.444 380.313 413.744C376.411 412.841 368.825 411.029 366.018 408.615C361.2 404.469 356.242 398.319 352.048 393.499L335.752 374.854C334.673 373.254 329.444 367.479 327.812 365.567L306.243 340.722C303.825 337.906 300.335 334.213 298.231 331.394C297.645 330.753 297.551 330.546 296.801 330.142L296.597 330.914L296.306 331.447C294.954 324.957 283.764 315.299 279.405 309.961C274.675 304.171 270.309 298.017 265.881 291.993C264.514 290.134 261.59 286.982 261.168 284.738L261.883 285.074C262.848 282.262 262.41 281.07 262.95 278.129L262.98 277.146C262.908 268.222 260.098 267.412 257.196 259.363L257.06 258.977C257.306 257.752 257.609 256.616 257.922 255.406C261.058 252.388 264.391 251.103 267.742 248.582C269.398 247.336 271.512 244.449 273.25 242.753L273.481 242.534C279.366 234.65 284.631 225.881 289.985 217.621C291.253 215.665 295.738 207.577 296.536 206.817C297.616 206.594 305.81 198.246 307.45 196.744C326.35 179.427 344.244 161.206 362.659 143.37C368.243 137.959 374.647 130.599 381.009 126.154Z" fill="white" fill-opacity="0.7"/>
<path d="M273.481 242.531C270.099 249.583 258.691 253.885 257.968 257.337L258.183 257.757C260.99 258.54 273.17 258.146 275.992 256.384C279.671 254.084 283.216 249.76 287.375 247.782C285.535 250.129 278.948 255.45 276.341 256.993C272.103 259.498 264.369 258.704 259.594 258.755C258.97 258.766 258.616 259.29 258.251 259.675C257.954 261.226 258.703 261.887 259.704 262.928C259.601 262.289 259.481 261.687 259.352 261.052C260.374 260.826 260.995 261.901 261.338 261.861C267.609 261.113 273.763 259.689 280.123 259.557C281.896 259.522 282.85 259.624 284.507 258.85C285.927 260.105 287.596 260.298 289.395 260.741C298.066 262.893 308.603 270.189 317.126 271.692C320.087 272.216 339.147 273.562 341.241 273.054C352.409 273.269 362.67 273.925 373.742 274.397L404.246 275.43C414.719 275.844 425.28 276.491 435.76 276.356C438.425 276.321 442.565 275.344 443.881 272.801C449.035 269.93 452.542 267.361 457.42 264.32C458.435 263.53 458.238 263.995 458.502 263.022L457.866 261.997C458.123 261.67 458.678 261.218 458.986 260.942C459.811 261.87 460.807 262.837 460.665 264.199C460.356 267.1 446.019 276.264 443.246 277.987C441.691 278.95 440.031 279.873 438.203 280.162C434.218 280.798 429.706 280.265 425.66 280.162C416.453 279.924 407.19 279.437 397.985 279.489C389.938 280.163 382.156 279.401 374.101 279.144C366.789 278.913 359.576 278.898 352.283 278.494C350.111 278.375 337.635 277.675 336.195 278.047L336.153 278.104L327.623 277.45L351.711 288.473L351.787 288.442C353.064 288.971 354.452 289.384 356.001 290.076C361.698 292.681 367.411 295.248 373.141 297.778C374.593 298.414 379.999 300.597 380.551 301.391C381.98 303.459 386.752 311.293 386.8 313.522C388.165 316.178 392.591 323.983 388.082 325.252C384.544 326.244 379.076 326.989 375.334 327.612C373.812 328.884 372.515 328.341 370.784 328.717C363.539 330.277 359.028 325.863 353.077 323.069C350.178 321.708 325.892 308.293 324.48 308.445C324.449 308.475 324.418 308.508 324.385 308.54L302.26 296.189L306.735 301.126L324.797 318.852C333.788 329.268 355.196 348.436 358.588 354.992C365.924 363.13 373.816 370.979 381.251 379.027C384.331 382.361 389.376 387.258 391.929 390.761C392.401 396.866 393.032 403.351 393.064 409.456C393.077 411.884 392.845 415.92 389.637 415.493C386.445 415.265 383.405 414.445 380.313 413.745C376.41 412.843 368.824 411.027 366.018 408.612C361.2 404.466 356.242 398.321 352.048 393.5L335.752 374.851C334.673 373.251 329.444 367.48 327.812 365.568L306.243 340.723C303.825 337.907 300.335 334.215 298.231 331.395C297.643 330.753 297.553 330.544 296.801 330.139L296.597 330.911L296.306 331.444C294.953 324.954 283.763 315.296 279.405 309.958C274.675 304.168 270.31 298.015 265.881 291.99C264.514 290.131 261.588 286.98 261.168 284.735L261.883 285.072C262.848 282.259 262.41 281.071 262.95 278.131L262.98 277.143C262.908 268.218 260.098 267.412 257.196 259.361L257.06 258.975C257.307 257.748 257.608 256.615 257.922 255.404C261.058 252.385 264.391 251.105 267.742 248.584C269.399 247.338 271.511 244.446 273.25 242.751L273.481 242.531Z" fill="white" fill-opacity="0.7"/>
<path d="M262.981 277.143L263.157 276.53C263.372 275.759 263.397 275.534 263.453 274.715L263.838 274.532C272.647 280.159 282.627 284.732 291.173 290.606C298.476 295.629 306.672 307.255 313.584 313.588C316.503 316.26 323.559 323.441 325.775 326.46L325.197 327.202L325.508 327.549C328.999 331.441 332.554 336.676 336.109 340.919C344.232 350.454 352.444 359.909 360.749 369.283C362.062 370.78 368.315 378.195 369.394 378.892L370.512 380.431C374.263 384.545 378.152 388.533 382.17 392.391C379.279 392.153 376.036 391.485 373.341 393.348C369.783 395.808 372.795 406.351 375.58 408.185L380.082 409.987L379.838 410.382C382.269 411.827 388.795 412.761 390.154 414.467L390.064 414.849C387.7 414.904 383.04 413.458 380.358 413.185L380.314 413.744C376.411 412.842 368.823 411.027 366.016 408.612C361.198 404.466 356.243 398.319 352.049 393.498L335.75 374.852C334.671 373.253 329.442 367.478 327.811 365.567L306.242 340.723C303.824 337.906 300.336 334.213 298.232 331.393C297.645 330.751 297.551 330.545 296.8 330.141L296.598 330.911L296.305 331.445C294.953 324.954 283.761 315.297 279.403 309.959C274.673 304.169 270.309 298.015 265.881 291.99C264.513 290.131 261.587 286.98 261.167 284.736L261.884 285.073C262.849 282.259 262.411 281.071 262.951 278.129L262.981 277.143Z" fill="white" fill-opacity="0.7"/>
<path d="M375.58 408.185C373.174 408.053 369.908 406.567 368.351 404.8C359.432 394.674 349.232 383.977 341.11 373.33L341.329 373.212C342.96 374.226 353.144 387.134 355.98 389.851C357.772 390.197 355.977 389.597 357.464 389.128C358.25 389.667 358.7 390.101 359.641 390.172C360.579 389.606 362.689 386.681 363.627 385.589C366.029 384.847 370.024 383.138 370.512 380.431C374.263 384.545 378.152 388.534 382.17 392.391C379.28 392.153 376.036 391.485 373.341 393.348C369.783 395.808 372.796 406.351 375.58 408.185Z" fill="white" fill-opacity="0.7"/>
<path d="M262.951 278.129C263.024 280.111 263.084 282.092 263.131 284.077C265.37 285.641 267.695 290.153 269.513 292.568C272.56 296.615 275.909 300.523 278.886 304.592C280.289 309.503 281.779 310.861 285.932 314.018L284.438 314.362C286.596 317.747 295.341 326.322 298.232 330.037C298.29 330.371 298.344 330.709 298.399 331.046L298.232 331.393C297.644 330.75 297.551 330.545 296.8 330.14L296.597 330.911L296.305 331.444C294.953 324.954 283.761 315.296 279.403 309.959C274.673 304.169 270.309 298.015 265.88 291.99C264.513 290.131 261.587 286.98 261.167 284.736L261.884 285.073C262.849 282.259 262.411 281.071 262.951 278.129Z" fill="white" fill-opacity="0.7"/>
<path d="M278.886 304.593C282.538 305.861 286.009 312.66 288.633 315.75C290.252 317.657 298.525 325.333 298.688 327.009C297.548 326.656 296.823 324.703 295.756 323.628C292.532 320.371 289.147 317.278 285.932 314.019C281.78 310.862 280.29 309.503 278.886 304.593Z" fill="white" fill-opacity="0.7"/>
<path d="M375.58 408.185C372.796 406.352 369.783 395.808 373.342 393.348C376.036 391.485 379.28 392.153 382.17 392.391L382.845 392.613C387.328 398.384 388.414 405.613 389.094 412.81L380.083 409.987L375.58 408.185Z" fill="white"/>
<path d="M325.775 326.461C338.098 340.138 351.538 352.882 364.166 366.28C365.438 367.626 370.83 372.793 371.581 374.055C372.063 376.625 373.955 376.037 373.836 378.054C372.962 378.956 372.882 379.011 371.835 379.717C371.706 380.222 371.668 380.186 371.674 380.694L371.491 380.536L371.655 380.414C371.205 380.373 370.268 379.338 369.966 379.011L369.394 378.892C368.315 378.195 362.062 370.78 360.749 369.283C352.444 359.909 344.232 350.454 336.11 340.919C332.555 336.676 328.999 331.442 325.509 327.549L325.197 327.202L325.775 326.461Z" fill="white"/>
<path d="M371.582 374.056C376.772 379.156 383.529 386.568 388.789 391.135C387.967 391.138 383.731 391.758 383.105 391.96C383.009 392.176 382.867 392.378 382.845 392.612L382.17 392.391C378.153 388.534 374.264 384.545 370.513 380.431L369.395 378.893L369.967 379.012C370.268 379.339 371.206 380.373 371.656 380.415L371.492 380.537L371.675 380.694C371.669 380.187 371.707 380.222 371.836 379.718C372.883 379.012 372.963 378.957 373.836 378.055C373.955 376.038 372.064 376.625 371.582 374.056Z" fill="white"/>
<path d="M388.79 391.135C390.004 392.134 390.017 392.77 390.116 394.479C390.386 399.161 391.725 408.487 390.925 412.919L390.444 413.24C390.123 413.141 389.365 412.929 389.095 412.81C388.414 405.613 387.329 398.384 382.845 392.613C382.868 392.378 383.009 392.176 383.105 391.961C383.732 391.758 387.968 391.139 388.79 391.135Z" fill="white"/>
<path d="M264.406 264.101C269.328 264.371 275.5 262.531 279.512 263.141C287.4 264.342 296.447 268.79 303.994 271.873C312.158 275.213 324.943 279.581 332.352 284.157C335.249 285.375 347.784 290.089 349.781 291.563C359.416 295.234 369.195 299.923 378.923 303.732C382.186 309.436 386.425 316.456 388.702 322.5L385.516 323.3C382.436 323.798 378.929 324.418 375.84 324.498C374.481 324.703 373.126 324.899 371.768 325.086C370.477 325.262 367.994 325.619 366.831 325.22C362.207 323.634 357.527 320.936 353.189 318.659C346.3 315.046 339.424 311.44 332.692 307.567C330.666 306.401 326.35 304.342 324.66 303.064C316.602 301.053 278.488 276.456 270.132 270.377C267.941 268.78 265.862 266.465 264.406 264.101Z" fill="white" fill-opacity="0.7"/>
<path d="M374.434 306.616C379.376 307.686 383.143 314.003 384.306 318.659C384.634 319.966 384.887 321.148 385.44 322.391C384.823 323.024 384.833 322.828 383.734 322.985L385.517 323.3C382.437 323.798 378.93 324.418 375.84 324.498C373.724 324.475 373.422 324.636 371.768 323.438C369.655 321.704 368.605 320.429 366.797 318.348C366.488 317.815 366.199 317.272 365.93 316.72C362.586 309.747 370.667 308.633 374.434 306.616Z" fill="white" fill-opacity="0.7"/>
<path d="M349.782 291.563C359.416 295.234 369.196 299.923 378.923 303.732C382.186 309.436 386.425 316.456 388.702 322.5L385.517 323.3L383.734 322.985C384.833 322.828 384.823 323.024 385.44 322.391C384.887 321.148 384.633 319.966 384.306 318.659C383.143 314.002 379.376 307.685 374.434 306.616C372.821 305.961 370.962 305.023 369.427 304.169C362.178 300.135 354.744 296.512 347.383 292.713L347.405 292.395C348.128 292.209 349.946 293.371 350.829 293.818L351.285 293.571L351.452 292.935C350.977 292.642 350.668 292.469 350.161 292.212L349.702 291.978L349.782 291.563Z" fill="white"/>
<path d="M324.661 303.064C323.18 301.718 321.135 301.163 319.943 299.962C329.497 304.098 338.975 308.418 348.368 312.914C352.771 314.979 357.203 317.741 361.799 319.173C363.973 319.719 365.117 320.429 366.889 320.872L367.464 320.522C367.4 319.655 367.127 319.147 366.796 318.348C368.604 320.429 369.654 321.704 371.768 323.438C373.422 324.636 373.723 324.475 375.84 324.498C374.481 324.703 373.126 324.899 371.768 325.086C370.477 325.262 367.994 325.619 366.832 325.22C362.207 323.634 357.528 320.936 353.189 318.659C346.3 315.046 339.424 311.44 332.693 307.567C330.666 306.401 326.35 304.342 324.661 303.064Z" fill="white" fill-opacity="0.7"/>
<path d="M366.796 318.348C368.605 320.429 369.655 321.704 371.768 323.438C370.493 325.571 363.681 320.214 361.799 319.173C363.974 319.719 365.117 320.429 366.89 320.872L367.464 320.522C367.4 319.655 367.127 319.148 366.796 318.348Z" fill="white" fill-opacity="0.7"/>
<path d="M347.382 292.713C343.83 291.563 333.467 286.255 330.117 284.196L330.181 283.92C330.907 284.045 331.62 284.119 332.352 284.157C335.249 285.375 347.784 290.089 349.781 291.563L349.701 291.978L350.16 292.212C350.668 292.469 350.976 292.642 351.451 292.935L351.284 293.57L350.828 293.818C349.945 293.371 348.127 292.209 347.405 292.395L347.382 292.713Z" fill="white" fill-opacity="0.7"/>
<path d="M296.537 206.816C297.616 206.593 305.812 198.244 307.45 196.743C326.35 179.426 344.241 161.206 362.656 143.37C368.241 137.958 374.645 130.598 381.007 126.154C383.943 124.561 402.942 123.384 406.533 124.725C407.615 128.855 403.816 146.627 401.719 150.166C399.824 153.37 389.181 162.407 385.815 165.374C380.304 170.16 374.876 175.042 369.532 180.019C361.677 186.499 354.139 194 346.47 200.717C343.313 203.482 338.631 208.047 335.3 210.371L334.854 210.068C333.107 211.471 327.782 217.44 326.764 217.645L326.372 217.456C326.485 216.756 326.436 216.974 326.754 216.325C326.542 216.325 317.691 222.437 317.258 222.989L316.757 222.784C307.048 231.041 296.842 239.323 287.374 247.782C283.215 249.761 279.673 254.084 275.994 256.383C273.173 258.146 260.991 258.541 258.184 257.758L257.966 257.337C258.688 253.884 270.097 249.584 273.479 242.532C279.364 234.647 284.631 225.88 289.985 217.619C291.254 215.664 295.74 207.571 296.537 206.816Z" fill="white" fill-opacity="0.7"/>
<path d="M406.534 124.725C407.616 128.855 403.817 146.627 401.72 150.166C399.825 153.37 389.182 162.407 385.816 165.375C380.305 170.16 374.877 175.042 369.533 180.019C361.677 186.5 354.14 194 346.471 200.717C343.314 203.483 338.631 208.047 335.301 210.371L334.854 210.069C333.107 211.471 327.782 217.44 326.764 217.646L326.373 217.456C326.485 216.756 326.437 216.974 326.755 216.326C326.543 216.326 317.692 222.437 317.258 222.99L316.757 222.784C318.478 221.095 319.728 217.665 321.424 216.281C326.678 211.985 331.72 207.453 336.874 203.038C338.798 201.39 341.438 199.397 343.06 197.561C343.58 195.422 349.3 192.105 351.06 189.591L350.851 189.407C345.873 191.77 344.168 185.255 341.573 183.435C338.471 184.716 338.605 182.608 335.702 181.647C335.436 181.558 334.456 181.202 334.183 181.344C331.151 182.931 327.811 187.985 324.58 188.881C325.396 187.902 326.546 186.962 327.532 186.145C335.192 179.798 341.785 172.339 349.165 165.692C350.671 164.332 352.268 162.971 353.53 161.378C361.286 154.84 365.785 150.357 373.014 143.336C373.711 142.472 376.046 140.584 377.038 140.001C378.818 138.356 380.163 137.167 381.689 135.294C383.879 131.251 395.072 128.88 399.353 129.15C401.032 129.256 402.815 129.196 404.099 128.146L404.963 126.44C405.988 126.147 405.779 125.974 406.534 124.725Z" fill="white" fill-opacity="0.7"/>
<path d="M406.534 124.725C407.616 128.855 403.817 146.627 401.72 150.166C399.825 153.37 389.182 162.407 385.816 165.375C380.305 170.16 374.877 175.042 369.533 180.019C361.677 186.5 354.14 194 346.471 200.717C343.314 203.483 338.631 208.047 335.301 210.371L334.854 210.069C333.107 211.471 327.782 217.44 326.764 217.646L326.373 217.456C326.485 216.756 326.437 216.974 326.755 216.326C326.543 216.326 317.692 222.437 317.258 222.99L316.757 222.784C318.478 221.095 319.728 217.665 321.424 216.281C326.678 211.985 331.72 207.453 336.874 203.038C338.798 201.39 341.438 199.397 343.06 197.561C351.018 191.031 357.917 183.258 365.493 176.299C373.143 169.271 397.763 151.12 400.997 142.323C401.536 140.853 401.703 140.198 401.048 138.745C402.269 135.274 403.287 131.735 404.099 128.146L404.963 126.44C405.988 126.147 405.779 125.974 406.534 124.725Z" fill="white" fill-opacity="0.7"/>
<path d="M381.689 135.294C383.879 131.251 395.071 128.88 399.352 129.15C401.032 129.256 402.814 129.196 404.099 128.146C403.286 131.735 402.268 135.274 401.048 138.745C397.05 145.252 393.896 145.085 386.606 144.954C381.753 140.723 384.03 137.827 382.254 135.308L381.689 135.294Z" fill="white" fill-opacity="0.7"/>
<path d="M382.453 127.651C386.249 127.05 402.124 125.044 404.963 126.44L404.099 128.146C402.815 129.196 401.032 129.256 399.353 129.15C395.072 128.88 383.879 131.251 381.689 135.294C380.163 137.168 378.818 138.356 377.039 140.001C376.046 140.584 373.711 142.472 373.015 143.336C365.785 150.357 361.286 154.84 353.53 161.378C352.268 162.971 350.672 164.332 349.165 165.692C341.785 172.339 335.192 179.798 327.532 186.145C326.546 186.962 325.396 187.902 324.581 188.881C321.549 190.747 320.463 193.106 315.447 195.672C316.526 193.86 321.048 189.77 322.805 188.014C328.065 182.702 333.355 177.421 338.679 172.17C341.894 168.993 346.394 164.067 349.589 161.295C357.522 152.558 365.943 144.665 374.158 136.235C376.557 133.774 380.478 130.167 382.453 127.651Z" fill="white"/>
<path d="M315.447 195.672C316.526 193.859 321.048 189.77 322.804 188.014C328.065 182.702 333.354 177.421 338.679 172.17C341.894 168.993 346.393 164.067 349.589 161.295C346.602 167.172 335.554 174.998 331.267 180.521C330.169 181.937 327.538 183.658 326.536 185.21C328.772 184.983 331.472 181.446 333.242 179.855C340.15 173.635 345.677 166.529 353.529 161.378C352.267 162.971 350.671 164.332 349.165 165.691C341.785 172.339 335.191 179.797 327.532 186.144C326.546 186.962 325.396 187.901 324.58 188.881C321.549 190.747 320.463 193.106 315.447 195.672Z" fill="white" fill-opacity="0.7"/>
<path d="M369.534 180.018C368.172 183.535 346.805 200.536 340.584 206.868L334.952 211.584L329.263 216.831L324.905 220.542L331.2 217.111L339.268 213.684L342.09 212.44C343.864 212.141 346.442 210.115 347.427 210.102C352.039 210.04 360.379 212.202 363.693 215.406C365.519 217.172 361.615 221.92 360.458 223.307C359.229 225.083 358.398 227.061 356.6 228.494C351.468 232.726 343.447 234.117 337.403 236.667C335.061 237.655 333.954 237.668 333.272 238.214L315.033 244.583L305.03 248.665L303.397 249.823L313.263 249.278L330.651 249.081C330.775 249.142 330.905 249.179 331.037 249.177C344.647 248.901 358.438 248.063 372.045 247.52C377.828 247.285 383.926 246.78 389.533 247.396C384.127 248.077 374.111 248.089 368.346 248.329C354.993 249.007 341.626 249.525 328.26 249.881C324.688 249.962 308.298 249.884 306.268 250.536L306.313 250.921C305.375 251.088 304.923 250.987 304.365 251.523C302.54 253.271 298.714 252.406 295.597 253.558C292.363 254.753 287.223 256.936 284.506 258.85C282.849 259.624 281.894 259.522 280.122 259.557C273.762 259.689 267.611 261.112 261.34 261.861C260.997 261.902 260.374 260.824 259.351 261.051C259.479 261.687 259.599 262.289 259.703 262.927C258.702 261.887 257.956 261.225 258.253 259.674C258.618 259.289 258.973 258.765 259.597 258.755C264.372 258.704 272.102 259.497 276.339 256.993C278.947 255.451 285.533 250.129 287.374 247.782C296.841 239.323 307.049 231.042 316.757 222.786L317.256 222.99C317.69 222.437 326.543 216.325 326.755 216.325C326.437 216.973 326.485 216.756 326.373 217.455L326.762 217.645C327.78 217.439 333.107 211.47 334.854 210.068L335.3 210.371C338.631 208.046 343.313 203.483 346.47 200.717C354.139 194 361.678 186.499 369.534 180.018Z" fill="white" fill-opacity="0.7"/>
<path d="M317.258 222.989C317.692 222.437 326.543 216.325 326.755 216.325C326.437 216.974 326.485 216.756 326.372 217.456L326.764 217.645C327.782 217.44 333.107 211.471 334.854 210.068L335.3 210.371C332.4 213.46 327.272 217.748 324.85 220.558C329.038 218.692 345.555 211.254 349.341 210.486C352.026 211.122 358.648 212.956 361.054 214.192C360.023 214.446 351.342 211.514 349.184 211.015C343.907 212.7 337.533 215.921 332.336 218.105C329.59 219.258 327.818 220.561 324.751 221.454L324.455 221.258C324.336 220.472 324.266 219.698 324.022 218.949C322.172 219.922 319.085 222.861 317.258 222.989Z" fill="white" fill-opacity="0.7"/>
<path d="M349.172 212.035C351.131 212.709 360.341 215.632 361.443 216.348C361.247 217.289 360.829 217.546 360.139 218.22C359.05 219.762 355.819 223.69 354.512 224.894C341.008 224.133 348.629 221.127 346.811 216.66C347.248 216.615 349.894 215.722 350.739 215.5L349.306 215.234C348.895 214.582 348.86 214.335 348.581 213.593C347.543 213.536 347.261 213.868 346.227 214.383L345.597 214.14C346.782 213.428 347.974 212.726 349.172 212.035Z" fill="white" fill-opacity="0.7"/>
<path d="M349.172 212.035C351.131 212.709 360.341 215.632 361.443 216.348C361.247 217.289 360.829 217.546 360.139 218.22C358.347 217.273 352.968 216.043 350.739 215.5L349.306 215.234C348.895 214.582 348.86 214.335 348.581 213.593C347.543 213.536 347.261 213.868 346.227 214.383L345.597 214.14C346.782 213.428 347.974 212.726 349.172 212.035Z" fill="white"/>
<path d="M345.597 214.14L346.226 214.383C347.26 213.868 347.543 213.536 348.58 213.593C348.86 214.335 348.895 214.582 349.306 215.234L350.739 215.5C349.894 215.722 347.248 216.615 346.811 216.66C340.176 218.346 330.188 223.577 324.908 224.46C327.05 222.977 331.585 221.149 334.084 219.913C337.925 218.008 341.759 216.043 345.597 214.14Z" fill="white"/>
<path d="M389.534 247.398C403.63 247.35 417.706 246.473 431.795 246.103C434.926 246.023 438.058 245.911 441.189 246.084C447.458 250.619 453.403 255.584 458.984 260.941C458.676 261.217 458.12 261.67 457.863 261.997L458.499 263.022C458.236 263.995 458.435 263.529 457.42 264.319C457.147 264.13 456.971 263.979 456.685 263.873C451.806 262.094 441.651 253.429 436.834 254.11C434.564 254.245 431.58 253.888 429.245 253.798C419.373 253.423 409.497 253.535 399.622 253.22C395.652 253.095 391.429 253.586 387.498 253.188C388.892 252.735 390.051 252.828 391.522 252.809C391.975 252.257 391.814 252.588 391.747 251.669C391.378 251.9 391.541 251.904 391.281 251.849L391.464 251.682C392.784 251.624 393.443 251.47 394.753 251.203C386.746 251.123 378.727 252.013 370.64 251.926C361.735 251.486 349.043 252.748 340.095 253.159C329.022 253.67 317.903 253.991 306.978 255.95C302.205 256.804 296.19 258.275 291.334 258.963C290.714 259.049 289.195 258.176 288.543 257.806C287.32 257.655 286.562 258.295 285.438 258.908C286.986 259.509 288.357 259.759 289.905 260.199C299.646 262.964 307.877 268.983 317.749 271.388C321.42 272.281 339.363 271.854 341.239 273.055C339.145 273.562 320.087 272.217 317.126 271.693C308.603 270.19 298.065 262.893 289.394 260.742C287.596 260.299 285.926 260.106 284.506 258.85C287.223 256.936 292.362 254.752 295.596 253.557C298.714 252.405 302.542 253.272 304.367 251.521C304.925 250.985 305.375 251.088 306.313 250.921L306.268 250.535C308.298 249.883 324.689 249.961 328.261 249.88C341.627 249.524 354.994 249.007 368.347 248.329C374.112 248.088 384.129 248.079 389.534 247.398Z" fill="white" fill-opacity="0.7"/>
<path d="M394.753 251.203L440.798 248.207C445.111 251.049 449.045 254.675 453.025 257.967C453.757 258.571 457.238 261.683 457.864 261.998L458.5 263.022C458.237 263.995 458.436 263.53 457.421 264.32C457.148 264.13 456.972 263.979 456.686 263.873C451.807 262.094 441.652 253.429 436.835 254.11C434.564 254.245 431.581 253.888 429.246 253.798C419.374 253.423 409.498 253.535 399.622 253.22C395.653 253.095 391.43 253.586 387.499 253.188C388.892 252.735 390.052 252.829 391.523 252.809C391.975 252.257 391.815 252.588 391.747 251.669C391.378 251.9 391.542 251.904 391.282 251.849L391.465 251.682C392.785 251.624 393.443 251.47 394.753 251.203Z" fill="white"/>
<path d="M436.835 254.11C441.652 253.429 451.807 262.094 456.686 263.873C456.971 263.979 457.148 264.13 457.421 264.319C452.543 267.361 449.036 269.93 443.881 272.801C440.891 271.812 434.218 268.273 432.56 265.408C430.155 261.249 436.472 256.641 436.835 254.11Z" fill="white" fill-opacity="0.7"/>
<path d="M370.641 251.926C378.728 252.013 386.747 251.123 394.753 251.203C393.443 251.47 392.784 251.624 391.465 251.682L391.281 251.849C391.542 251.904 391.378 251.9 391.747 251.669C391.815 252.588 391.975 252.257 391.522 252.809C390.051 252.828 388.892 252.735 387.498 253.188C384.659 253.172 367.461 253.159 366.437 252.388C367.95 252.308 369.151 252.135 370.641 251.926Z" fill="white" fill-opacity="0.7"/>
<path d="M306.04 147.411C307.988 144.993 320.837 138.566 323.005 140.221C325.033 141.777 326.186 153.207 326.35 156.301C323.938 161.113 320.157 166.695 317.414 171.451C310.593 183.275 303.179 194.91 296.538 206.819C295.74 207.579 291.256 215.661 289.987 217.619C284.633 225.879 279.364 234.648 273.479 242.532L273.251 242.751C271.513 244.446 269.4 247.337 267.743 248.584C264.392 251.105 261.059 252.386 257.924 255.404C257.61 256.615 257.308 257.749 257.062 258.975L257.198 259.361C260.1 267.412 262.909 268.219 262.982 277.143L262.951 278.131C262.412 281.071 262.849 282.26 261.884 285.072L261.169 284.735C261.59 286.98 264.516 290.132 265.883 291.991C270.311 298.015 274.673 304.169 279.402 309.959C283.76 315.297 294.954 324.955 296.307 331.445L296.598 330.911L296.803 330.143C297.552 330.547 297.646 330.754 298.233 331.395C300.336 334.215 303.827 337.907 306.244 340.723L327.814 365.569C329.446 367.481 334.667 373.249 335.749 374.851C335.452 374.771 335.149 374.689 334.849 374.609C330.244 369.638 325.208 363.394 320.834 358.42C314.537 351.258 308.543 344.629 302.473 337.323C301.902 336.636 300.398 334.399 299.56 334.634C299.251 336.195 309.474 357.639 310.583 360.667C311.335 362.719 313.937 367.028 314.343 369.344C314.779 371.854 311.206 388.326 307.27 386.812C302.768 385.072 294.955 380.034 292.491 375.65C290.847 372.857 291.523 373.013 290.576 370.66C287.16 362.17 283.8 353.567 280.374 345.074C280.363 345.045 280.259 345.002 280.127 344.955L273.385 323.108L270.646 315.862L269.585 313.829L270.292 337.424L270.381 345.466L270.602 346.429C270.567 347.955 270.656 349.573 270.8 350.419C271.44 354.166 270.921 358.463 271.065 362.259L272.094 392.869C272.211 397.618 272.89 402.479 271.882 407.144C272.112 417.126 272.752 427.756 272.873 437.551C272.037 438.668 270.383 441.006 269.522 441.957C266.615 446.523 261.021 453.203 256.872 456.475C255.138 456.838 253.365 455.853 252.36 454.509C248.853 449.811 241.095 440.275 239.805 434.793C238.69 430.05 239.209 419.439 239.294 414.419C239.443 407.159 239.532 399.898 239.555 392.635C238.659 387.192 239.252 376.923 239.294 371.19C239.381 359.476 240.639 345.738 239.812 334.172L239.979 334.062L241.477 318.14L241.885 315.213L239.842 318.618L237.528 323.652L234.74 329.64L232.315 334.187C232.077 334.218 231.906 334.29 231.823 334.426C224.731 346.019 219.432 359.094 211.884 370.357C211.825 370.44 200.028 375.669 199.22 375.978L198.713 375.737C193.177 377.735 190.814 379.411 189.612 372.151C189.277 368.719 188.968 365.314 188.499 361.895C184.872 357.19 190.407 350.285 193.001 345.365L201.916 331.426L200.052 333.725L188.087 345.69C178.326 354.362 157.591 376.765 152.893 378.37C145.966 384.771 136.402 394.163 129.183 399.845C124.423 400.147 110.943 401.236 107.087 400.287C100.745 399.815 105.479 389.559 105.794 385.617C105.94 383.78 108.037 376.352 108.854 375.142C113.538 368.202 121.772 363.054 127.855 357.103L128.127 356.835C129.633 353.996 136.732 348.274 139.475 345.888C146.88 339.407 154.369 333.019 161.937 326.731C163.898 325.08 174.143 316.833 175.127 315.024L178.21 312.973L190.879 302.969L194.752 299.942L196.689 298.69L196.648 298.369L196.163 298.127L195.157 298.41L193.621 299.175L184.221 303.49L169.31 309.777C165.417 311.039 157.159 315.437 155.389 315.273C151.889 314.946 142.339 311.321 140.08 308.809C138.918 304.461 147.176 295.528 150.918 293.292C152.064 292.608 155.612 291.547 157.091 291.046L170.887 286.392C172.078 285.99 176.212 284.785 177.98 283.778L184.546 281.543L197.373 276.743L189.384 277.147L176.338 277.594C172.061 277.132 121.011 279.323 114.244 278.849C116.624 278.442 121.953 278.431 124.659 278.354L144.249 277.775C158.088 277.191 171.938 276.787 185.787 276.572C188.513 276.537 197.22 276.08 199.295 276.247C202.455 273.373 212.681 273.517 217.184 273.414C222.401 273.87 224.924 273.86 229.08 270.391C229.662 269.907 230.147 269.484 230.885 269.378C234.243 266.921 242.567 263.041 243.818 260.526C247.481 260.151 251.276 261.226 253.604 258.075C256.365 254.315 256.431 249.386 256.562 244.9L256.872 242.888C257.241 240.386 257.598 239.202 258.302 236.736C260.747 232.49 264.306 224.622 266.227 220.1C266.312 219.792 266.402 219.482 266.499 219.178C267.424 216.321 267.997 217.513 269.162 216.004C277.061 202.074 284.546 187.723 292.196 173.64C294.384 169.608 305.413 150.138 306.04 147.411Z" fill="white" fill-opacity="0.7"/>
<path d="M306.039 147.411C307.985 144.993 320.836 138.565 323.004 140.22C325.033 141.773 326.184 153.206 326.348 156.3C323.936 161.112 320.159 166.694 317.417 171.45C310.596 183.274 303.178 194.908 296.537 206.818C295.737 207.58 291.254 215.661 289.985 217.618C284.631 225.878 279.366 234.647 273.481 242.531L273.25 242.75C271.511 244.446 269.399 247.337 267.742 248.583C264.391 251.105 261.058 252.385 257.922 255.404C257.608 256.614 257.307 257.748 257.06 258.975L257.196 259.36C260.098 267.412 262.908 268.218 262.98 277.143L262.95 278.13C262.41 281.071 262.848 282.259 261.883 285.072L261.168 284.735C261.588 286.98 264.514 290.131 265.881 291.99C270.31 298.015 274.675 304.168 279.405 309.958C283.763 315.296 294.953 324.953 296.306 331.444L296.597 330.911L296.801 330.143C297.551 330.547 297.644 330.753 298.231 331.395C300.335 334.215 303.825 337.907 306.243 340.723L327.812 365.568C329.444 367.479 334.672 373.251 335.752 374.851C335.453 374.771 335.15 374.689 334.848 374.609C330.243 369.637 325.207 363.393 320.833 358.419C314.535 351.257 308.542 344.629 302.472 337.322C301.9 336.635 300.397 334.396 299.559 334.633C299.247 336.19 309.472 357.636 310.582 360.666C311.333 362.717 313.936 367.027 314.342 369.343C314.779 371.851 311.205 388.331 307.268 386.812C302.766 385.071 294.952 380.033 292.489 375.649C290.845 372.856 291.522 373.014 290.575 370.66C287.158 362.169 283.799 353.567 280.373 345.073C280.362 345.044 280.257 345 280.123 344.952L273.386 323.107L270.648 315.863L269.585 313.828L270.292 337.425L270.383 345.467L270.606 346.439C270.572 347.963 270.659 349.575 270.803 350.418C271.443 354.166 270.92 358.463 271.064 362.258L272.093 392.868C272.209 397.617 272.892 402.478 271.885 407.144C272.114 417.126 272.75 427.754 272.872 437.55C272.036 438.668 270.382 441.006 269.52 441.956C266.613 446.523 261.02 453.202 256.871 456.475C255.136 456.837 253.363 455.853 252.358 454.508C248.851 449.809 241.093 440.274 239.803 434.792C238.688 430.048 239.207 419.438 239.293 414.418C239.441 407.158 239.53 399.897 239.554 392.633C238.658 387.19 239.254 376.922 239.296 371.189C239.383 359.475 240.638 345.738 239.811 334.171L239.977 334.062L241.475 318.14L241.884 315.216L239.841 318.617L237.53 323.652L234.738 329.64L232.317 334.187C232.078 334.217 231.905 334.288 231.822 334.425C224.73 346.019 219.431 359.094 211.883 370.357C211.825 370.439 200.016 375.673 199.218 375.978L198.711 375.736C199.809 374.532 209.188 370.909 211.489 370.032C214.543 365.307 217.155 360.015 219.823 355.056L234.572 327.45C235.668 325.352 239.48 316.818 240.825 316.147C243.31 309.045 250.646 291.642 256.682 287.216C259.348 279.371 257.859 270.303 254.106 263.09C253.63 262.024 253.997 262.407 252.994 261.883C249.241 262.243 242.935 266.021 241.154 269.377C240.389 269.307 240.663 269.384 239.992 268.995C239.222 269.316 239.221 269.254 238.566 269.733C236.745 270.487 235.29 271.098 233.403 271.688L232.748 271.31C237.884 268.95 241.103 269.059 244.467 264.66C245.202 263.7 250.352 261.732 251.87 261.585L251.987 261.365L251.673 261.097C243.623 259.607 241.074 264.238 234.462 267.652C233.165 268.323 232.387 269.143 230.884 269.377C234.241 266.92 242.57 263.04 243.82 260.525C247.485 260.15 251.278 261.227 253.606 258.074C256.368 254.314 256.434 249.386 256.564 244.899L256.871 242.887C257.239 240.385 257.597 239.202 258.301 236.736C260.745 232.49 264.304 224.621 266.226 220.099C266.311 219.791 266.401 219.482 266.498 219.176C267.423 216.319 267.996 217.512 269.161 216.003C277.059 202.072 284.544 187.723 292.194 173.64C294.382 169.609 305.413 150.136 306.039 147.411Z" fill="white" fill-opacity="0.7"/>
<path d="M306.039 147.411C307.985 144.993 320.836 138.565 323.004 140.22C325.033 141.773 326.184 153.206 326.348 156.3C323.936 161.112 320.159 166.694 317.417 171.45C310.596 183.274 303.178 194.908 296.537 206.818C295.737 207.579 291.254 215.661 289.985 217.618C284.631 225.878 279.366 234.647 273.481 242.531L273.25 242.75C271.511 244.446 269.399 247.337 267.742 248.583C264.391 251.105 261.058 252.385 257.922 255.404C257.608 256.614 257.307 257.748 257.06 258.975L257.196 259.36C260.098 267.412 262.908 268.218 262.98 277.143L262.95 278.13C262.41 281.071 262.848 282.259 261.883 285.072L261.168 284.735C261.588 286.98 264.514 290.131 265.881 291.99C270.31 298.015 274.675 304.168 279.405 309.958C283.763 315.296 294.953 324.953 296.306 331.444L296.597 330.911L296.801 330.143C297.551 330.547 297.644 330.753 298.231 331.395C300.335 334.215 303.825 337.907 306.243 340.723L327.812 365.568C329.444 367.479 334.672 373.251 335.752 374.851C335.453 374.771 335.15 374.689 334.848 374.609C330.243 369.637 325.207 363.393 320.833 358.419C314.535 351.257 308.541 344.629 302.472 337.322C301.9 336.635 300.397 334.396 299.559 334.633C299.247 336.19 309.472 357.637 310.582 360.666C311.333 362.717 313.936 367.027 314.342 369.343C314.779 371.851 311.205 388.331 307.268 386.812C302.765 385.071 294.952 380.033 292.489 375.649C290.845 372.856 291.522 373.016 290.575 370.663C287.158 362.172 283.799 353.567 280.373 345.073C280.361 345.044 280.256 345 280.123 344.952L273.386 323.107L270.648 315.863L269.585 313.828L270.292 337.425L270.383 345.467L270.606 346.443C270.572 347.965 270.659 349.575 270.803 350.418C271.443 354.166 270.92 358.463 271.064 362.258L272.093 392.868C272.209 397.617 272.892 402.478 271.884 407.144C271.308 401.068 271.461 391.443 271.279 385.068C270.705 369.364 270.249 353.653 269.91 337.943C269.753 332.795 270.057 323.543 269.479 318.935C268.694 317.399 268.416 313.578 266.956 312.19C266.38 312.928 266.421 313.73 266.256 314.77C265.929 314.086 265.975 310.132 265.915 308.941C264.571 302.707 260.465 294.799 257.374 289.093C257.021 288.37 256.924 287.974 256.682 287.216C259.348 279.371 257.859 270.303 254.106 263.09C253.63 262.024 253.997 262.407 252.994 261.883C249.241 262.243 242.935 266.021 241.154 269.377C240.389 269.306 240.663 269.384 239.992 268.995C239.222 269.316 239.221 269.254 238.566 269.733C236.745 270.487 235.289 271.098 233.403 271.688L232.748 271.31C237.884 268.95 241.103 269.059 244.467 264.66C245.202 263.7 250.352 261.732 251.87 261.585L251.987 261.365L251.673 261.097C243.623 259.607 241.074 264.238 234.462 267.652C233.165 268.323 232.387 269.143 230.883 269.377C234.241 266.92 242.57 263.04 243.82 260.525C247.485 260.15 251.278 261.227 253.606 258.074C256.368 254.314 256.434 249.386 256.564 244.899L256.871 242.887C257.239 240.385 257.597 239.202 258.301 236.736C260.745 232.49 264.304 224.621 266.226 220.099C266.311 219.791 266.401 219.482 266.498 219.176C267.423 216.319 267.996 217.512 269.161 216.003C277.059 202.072 284.544 187.723 292.194 173.64C294.382 169.608 305.412 150.136 306.039 147.411Z" fill="white" fill-opacity="0.7"/>
<path d="M309.415 146.849C312.572 145.479 318.697 142.681 321.889 141.987C322.155 145.688 322.689 151.385 322.12 154.926C322.416 159.423 307.427 180.012 304.649 185.002C295.133 202.095 283.302 217.71 273.126 234.397C272.174 235.958 264.069 245.724 263.105 246.276C263.402 244.552 270.336 223.288 271.037 222.292C274.532 217.324 282.505 196.469 285.621 193.378C290.197 184.141 295.798 174.333 300.648 165.076C302.764 161.449 305.198 154.149 307.742 150.597C308.169 149.449 308.892 147.992 309.415 146.849Z" fill="white" fill-opacity="0.7"/>
<path d="M309.415 146.849C312.572 145.479 318.697 142.681 321.889 141.987C322.155 145.688 322.689 151.384 322.12 154.926C318.905 156.679 312.376 161.609 310.957 154.701C310.777 153.817 310.726 153.514 310.379 152.689L310.061 152.168L310.035 151.956C310.613 150.769 310.581 150.716 310.186 149.478L309.794 149.31C308.67 149.786 309.03 149.615 308.198 150.692L307.742 150.597C308.169 149.449 308.892 147.992 309.415 146.849Z" fill="white"/>
<path d="M309.415 146.849C312.572 145.479 318.697 142.681 321.889 141.987C321.789 142.609 321.719 144.037 321.327 144.322C320.649 144.816 319.962 144.58 319.271 145.031C316.625 146.755 313.982 148.63 311.432 150.496C310.848 150.925 310.514 151.723 310.061 152.168L310.035 151.956C310.613 150.769 310.581 150.716 310.186 149.478L309.794 149.31C308.67 149.786 309.03 149.615 308.198 150.692L307.742 150.597C308.169 149.449 308.892 147.992 309.415 146.849Z" fill="white"/>
<path d="M307.742 150.597L308.198 150.692C309.03 149.615 308.67 149.786 309.794 149.31L310.186 149.478C310.581 150.716 310.613 150.769 310.035 151.956L310.061 152.168L310.379 152.689C307.915 157.386 305.648 161.519 302.7 165.966C299.774 168.558 299.43 171.023 297.105 173.761C298.133 170.484 300.323 168.603 300.648 165.076C302.764 161.449 305.198 154.149 307.742 150.597Z" fill="white"/>
<path d="M300.647 165.076C300.323 168.604 298.133 170.485 297.105 173.761C299.43 171.024 299.774 168.559 302.7 165.966L291.858 184.573C290.856 186.285 287.512 192.222 286.398 193.469C286.186 193.451 285.801 193.44 285.621 193.378C290.197 184.141 295.798 174.333 300.647 165.076Z" fill="white" fill-opacity="0.7"/>
<path d="M299.597 378.462C295.782 376.779 290.718 359.485 288.617 354.812C288.27 354.035 284.969 344.14 284.959 343.556C286.25 347.772 289.407 353.932 292.49 357.195C295.859 360.763 298.297 354.937 299.784 352.586C300.118 353.062 299.992 352.795 300.14 353.386C299.122 348.749 295.377 341.686 293.974 336.895C293.797 336.288 294.09 336.008 294.366 335.607L294.681 335.568C295.573 336.246 295.827 337.483 296.209 338.594C300.638 347.519 305.179 359.941 310.083 368.349C311.053 369.441 311.416 369.797 311.368 371.329C311.294 373.657 309.338 382.377 307.97 383.738L307.652 383.815C306.75 382.961 300.85 379.101 299.597 378.462Z" fill="white" fill-opacity="0.7"/>
<path d="M307.742 369.325L308.204 368.404C309.251 367.919 308.673 368.063 310.083 368.349C311.053 369.441 311.416 369.798 311.368 371.329C311.294 373.658 309.338 382.377 307.97 383.739L307.652 383.816C306.75 382.962 300.85 379.101 299.598 378.462C299.492 374.907 297.301 365.597 305.369 368.715C306.294 369.072 306.445 369.252 307.466 369.306L307.742 369.325Z" fill="white"/>
<path d="M307.742 369.325L308.205 368.404C309.252 367.919 308.674 368.063 310.083 368.349C311.053 369.441 311.416 369.798 311.368 371.329C311.294 373.658 309.338 382.377 307.97 383.739L307.652 383.816C307.868 378.867 309.714 374.48 307.742 369.325Z" fill="white"/>
<path d="M296.209 338.594C300.638 347.519 305.179 359.941 310.083 368.349C308.673 368.063 309.251 367.918 308.204 368.403L307.742 369.325L307.466 369.306C304.771 361.64 298.367 347.782 295.853 339.564C295.972 339.239 296.09 338.918 296.209 338.594Z" fill="white" fill-opacity="0.7"/>
<path d="M256.681 287.217C256.924 287.974 257.021 288.371 257.374 289.093C256.1 290.525 254.933 292.606 253.822 294.131C252.217 296.338 246.722 302.634 246.29 305.37C244.324 317.834 245.181 332.034 244.811 344.771C244.567 353.197 244.551 361.044 244.63 369.4C244.644 369.515 244.66 369.629 244.675 369.744C244.77 380.644 244.591 391.545 244.138 402.438C243.741 412.117 243.203 422.651 243.76 432.337C243.891 434.613 244.734 436.957 246.056 438.839C246.731 440.32 247.243 441.053 248.469 442.164C249.235 443.623 253.44 451.536 254.351 452.358L255.494 454.881C256.479 455.282 256.209 455.267 256.871 456.474C255.135 456.837 253.363 455.852 252.358 454.507C248.851 449.809 241.093 440.274 239.803 434.792C238.688 430.048 239.207 419.438 239.292 414.418C239.441 407.157 239.53 399.897 239.553 392.633C238.657 387.19 239.254 376.922 239.296 371.189C239.383 359.475 240.638 345.738 239.811 334.171L239.977 334.062L241.475 318.14L241.883 315.216L239.841 318.617L237.53 323.652L234.738 329.64L232.317 334.187C232.078 334.217 231.905 334.288 231.821 334.425C224.73 346.019 219.431 359.094 211.883 370.357C211.815 370.443 200.016 375.673 199.218 375.978L198.711 375.736C199.809 374.532 209.188 370.909 211.489 370.032C214.543 365.307 217.155 360.014 219.823 355.056L234.572 327.45C235.668 325.352 239.48 316.818 240.824 316.147C243.31 309.045 250.645 291.642 256.681 287.217Z" fill="white" fill-opacity="0.7"/>
<path d="M265.917 308.941C265.977 310.133 265.927 314.086 266.254 314.77C266.419 313.73 266.379 312.927 266.956 312.188C268.418 313.576 268.694 317.401 269.479 318.936C270.057 323.544 269.753 332.794 269.91 337.942C270.249 353.653 270.705 369.364 271.279 385.068C271.461 391.443 271.306 401.068 271.883 407.145C272.113 417.126 272.752 427.753 272.873 437.548C272.037 438.666 270.382 441.004 269.52 441.955L269.023 441.919C268.295 442.764 268.1 443.076 267.131 443.676L267.041 443.227C267.992 441.952 268.194 441.589 268.585 440.047L270.024 437.401C269.577 434.793 269.496 429.857 269.369 427.059C269.575 418.873 268.561 410.456 268.12 402.314C267.685 394.292 267.476 385.842 267.411 377.807C267.627 375.164 267.419 371.416 267.445 368.683C267.555 357.185 266.173 345.762 265.617 334.271C265.206 325.783 265.679 317.449 265.917 308.941Z" fill="white" fill-opacity="0.7"/>
<path d="M265.225 427.613C265.326 426.948 265.434 426.28 265.548 425.615C265.79 424.131 265.927 424.006 266.748 422.647L267.736 422.493C269.197 424.179 268.955 424.944 269.369 427.06C269.495 429.857 269.576 434.794 270.024 437.401L268.585 440.048C268.193 441.589 267.992 441.952 267.04 443.227L267.131 443.677C268.1 443.076 268.295 442.765 269.022 441.92L269.52 441.955C266.612 446.522 261.019 453.202 256.87 456.475C256.208 455.267 256.479 455.283 255.492 454.882L254.351 452.361C253.441 451.542 249.234 443.622 248.469 442.164C248.957 437.854 250.479 431.974 254.488 429.495C259.449 426.424 262.253 433.406 264.786 434.209C265.418 433.278 265.202 432.523 265.224 431.226L265.225 427.613Z" fill="white"/>
<path d="M265.226 427.613C265.327 426.948 265.434 426.28 265.549 425.615C265.79 424.131 265.928 424.006 266.748 422.647L267.736 422.493C269.197 424.179 268.955 424.944 269.369 427.06C269.496 429.857 269.577 434.794 270.024 437.401L268.585 440.048C268.194 441.589 267.992 441.952 267.041 443.227L267.131 443.677C268.1 443.076 268.295 442.765 269.023 441.92L269.52 441.955C266.613 446.522 261.019 453.202 256.87 456.475C256.208 455.267 256.479 455.283 255.493 454.882L254.351 452.361C254.453 452.255 254.555 452.149 254.657 452.043C257.27 450.72 259.783 446.744 261.418 444.129C263.963 440.06 266.344 436.21 265.224 431.226L265.226 427.613Z" fill="white"/>
<path d="M255.492 454.882C260.303 451.394 264.859 444.849 268.585 440.048C268.193 441.589 267.992 441.952 267.041 443.227L267.131 443.677C268.1 443.076 268.295 442.765 269.022 441.92L269.52 441.955C266.612 446.522 261.019 453.202 256.87 456.475C256.208 455.267 256.479 455.283 255.492 454.882Z" fill="white" fill-opacity="0.7"/>
<path d="M244.676 369.743L245.199 369.762C246.417 372.136 246.023 391.161 246.294 395.397C246.885 404.637 247.332 414.795 247.235 424.067C247.177 427.423 246.332 435.622 246.71 437.954C246.387 438.548 246.537 438.407 246.058 438.84C244.735 436.958 243.891 434.614 243.76 432.337C243.203 422.651 243.742 412.117 244.139 402.437C244.592 391.543 244.771 380.643 244.676 369.743Z" fill="white"/>
<path d="M265.226 427.612C264.91 419.621 265.689 408.882 265.953 400.628C266.171 393.794 265.146 376.754 266.559 370.944C267.08 372.967 267.158 375.617 267.411 377.807C267.476 385.843 267.685 394.292 268.12 402.315C268.561 410.456 269.575 418.873 269.369 427.059C268.955 424.943 269.197 424.179 267.736 422.493L266.749 422.647C265.928 424.005 265.79 424.13 265.549 425.614C265.434 426.279 265.327 426.947 265.226 427.612Z" fill="white"/>
<path d="M252.862 268.838L252.925 268.446C253.922 268.084 254.686 267.31 254.806 266.214C254.3 264.923 254.008 264.464 254.105 263.09C257.859 270.303 259.349 279.372 256.682 287.218C250.646 291.644 243.309 309.047 240.823 316.148C239.479 316.819 235.667 325.352 234.571 327.449L219.823 355.056C217.155 360.015 214.544 365.307 211.491 370.032C209.191 370.908 199.809 374.531 198.711 375.735C193.175 377.733 190.814 379.413 189.612 372.151C190.149 373.185 190.832 374.903 191.686 375.53L191.825 376.108C191.859 374.717 191.57 373.468 191.99 372.222C191.901 368.5 191.762 364.781 191.572 361.062C192.056 360.981 192.471 360.811 192.944 360.657L192.545 360.304C192.379 359.209 193.299 358.688 193.92 357.76C197.062 353.065 211.358 327.498 210.768 323.817C210.887 323.271 231.151 290.33 233.16 287.025C234.054 285.558 239.719 278.727 241.31 276.957C244.12 273.829 249.282 271.202 252.862 268.838Z" fill="white" fill-opacity="0.7"/>
<path d="M252.862 268.838L252.925 268.446C253.922 268.084 254.686 267.31 254.806 266.214C254.3 264.923 254.008 264.464 254.105 263.09C257.859 270.303 259.349 279.372 256.682 287.218C250.646 291.644 243.309 309.047 240.823 316.148C239.479 316.819 235.667 325.352 234.571 327.449L219.823 355.056C217.155 360.015 214.544 365.307 211.491 370.032C209.191 370.908 199.809 374.531 198.711 375.735C193.175 377.733 190.814 379.413 189.612 372.151C190.149 373.185 190.832 374.903 191.686 375.53L191.825 376.108C191.859 374.717 191.57 373.468 191.99 372.222C191.901 368.5 191.762 364.781 191.572 361.062C192.056 360.981 192.471 360.811 192.944 360.657C199.809 356.832 206.228 353.958 206.272 365.111C214.996 347.881 226.043 332.996 234.936 316.556C235.276 315.367 236.101 314.324 236.962 313.476L237.824 313.691C239.104 312.48 244.238 300.723 245.494 298.25C247.066 295.151 250.233 289.46 251.362 286.078C252.695 282.083 253.904 273.739 253.756 269.429C253.698 268.992 253.366 269.018 252.862 268.838Z" fill="white" fill-opacity="0.7"/>
<path d="M234.936 316.556C235.196 317.757 234.964 317.754 234.556 319.122C230.693 325.776 227.313 334.271 223.681 341.169C218.807 350.431 214 359.488 209.314 368.853C204.282 371.007 198.391 374.624 193.086 375.43C192.443 375.529 192.065 372.674 191.99 372.221C191.901 368.499 191.762 364.78 191.572 361.061C192.056 360.981 192.471 360.811 192.944 360.657C199.809 356.832 206.228 353.957 206.272 365.111C214.996 347.881 226.043 332.996 234.936 316.556Z" fill="white"/>
<path d="M234.936 316.556C235.276 315.368 236.101 314.324 236.962 313.476L237.824 313.691C237.045 315.05 235.433 318.02 234.556 319.122C234.965 317.754 235.197 317.757 234.936 316.556Z" fill="white" fill-opacity="0.7"/>
<path d="M194.384 300.237C185.681 306.991 176.084 315.527 167.663 322.805L145.693 341.473C141.102 345.442 132.507 353.625 128.126 356.83C129.633 353.991 136.731 348.273 139.474 345.887C146.878 339.406 154.368 333.019 161.935 326.731C163.894 325.083 174.119 316.849 175.122 315.028L178.209 312.974L190.877 302.968L194.75 299.942L194.856 299.87C194.692 299.99 194.534 300.112 194.384 300.237Z" fill="white" fill-opacity="0.7"/>
<path d="M234.461 267.653C241.073 264.239 243.622 259.607 251.673 261.098L251.987 261.366L251.869 261.582C250.351 261.729 245.202 263.701 244.467 264.661C241.102 269.059 237.883 268.951 232.748 271.311L233.402 271.685C230.226 272.989 226.589 275.266 223.654 275.15C223.117 275.131 223.1 275.183 222.576 275.347L223.128 275.684L225.024 275.521L224.959 275.771L224.539 275.948L224.664 276.679C224.181 277.07 224.332 276.883 224.135 277.223C223.371 278.739 200.384 298.935 199.055 299.556L199.346 298.754L198.537 298.096C197.41 298.356 197.949 298.165 196.922 299.144L196.744 298.633C196.725 298.646 196.703 298.655 196.683 298.667L196.646 298.369L196.161 298.126L195.155 298.406L193.623 299.174L184.219 303.49L169.282 309.785C165.377 311.057 157.151 315.435 155.388 315.27C151.886 314.942 142.333 311.316 140.079 308.805C138.918 304.457 147.174 295.528 150.916 293.292C152.061 292.608 155.611 291.546 157.09 291.045L170.885 286.393C172.077 285.99 176.227 284.78 177.989 283.771L184.545 281.543L197.372 276.743L189.387 277.148L176.336 277.594C172.056 277.132 121.005 279.323 114.243 278.85C116.622 278.442 121.951 278.431 124.657 278.354L144.251 277.772C158.091 277.187 171.939 276.788 185.789 276.573C188.515 276.537 197.218 276.08 199.294 276.247C202.452 273.373 212.679 273.517 217.182 273.414C222.4 273.87 224.922 273.86 229.079 270.392C229.66 269.907 230.145 269.484 230.883 269.378C232.386 269.143 233.164 268.324 234.461 267.653Z" fill="white" fill-opacity="0.7"/>
<path d="M230.884 269.378C232.388 269.143 233.164 268.324 234.462 267.653C241.074 264.239 243.621 259.608 251.671 261.098L251.988 261.365L251.869 261.583C250.351 261.731 245.204 263.7 244.468 264.66C241.104 269.06 237.883 268.951 232.747 271.311L233.401 271.687C230.225 272.991 226.589 275.264 223.654 275.149C223.116 275.13 223.1 275.184 222.576 275.348L222.055 275.419C218.65 275.865 214.067 275.3 211.716 275.695C209.025 276.151 202.01 279.362 198.968 280.499C193.935 282.375 187.765 284.055 182.941 286.01C181.409 286.45 171.32 289.636 170.263 290.237L170.553 290.625C169.367 291.085 168.695 291.088 168.097 291.939L168.507 292.408L159.454 295.494C158.765 294.733 158.709 294.791 157.728 294.399C154.542 295.311 152.582 295.523 150.12 297.787L149.881 298.012C145.783 300.398 143.641 305.158 140.412 308.315C140.809 304.894 147.19 295.87 150.265 294.454C155.527 292.029 162.122 290.124 167.673 288.191C176.634 285.073 185.472 281.707 194.398 278.505C196.115 277.892 197.792 277.297 199.294 276.247C202.453 273.373 212.681 273.517 217.184 273.415C222.402 273.871 224.922 273.861 229.079 270.393C229.661 269.908 230.145 269.484 230.884 269.378Z" fill="white" fill-opacity="0.7"/>
<path d="M157.728 294.399C161.013 292.992 166.792 291.281 170.263 290.237L170.553 290.626C169.367 291.085 168.695 291.088 168.097 291.939L168.507 292.408L159.454 295.494C158.765 294.733 158.71 294.791 157.728 294.399Z" fill="white" fill-opacity="0.7"/>
<path d="M224.135 277.223C223.371 278.739 200.383 298.938 199.056 299.557L199.347 298.754L198.537 298.096C197.41 298.356 197.95 298.167 196.923 299.146L196.745 298.632C196.725 298.644 196.705 298.657 196.685 298.67L196.647 298.368L196.163 298.126L195.154 298.408L193.621 299.175L193.561 299.202L193.55 299.187C181.202 304.512 168.163 309.715 155.591 314.529C154.687 314.876 153.59 314.6 152.698 314.327C154.562 313.714 156.11 312.693 157.622 311.45L159.544 310.506L163.112 308.839C164.23 308.579 173.885 303.97 175.896 303.119C176.458 302.997 180.682 301.14 181.59 300.777C190.363 297.27 198.507 293.808 206.559 288.802C209.401 287.035 221.107 276.668 223.43 276.52L224.135 277.223ZM194.842 299.882C194.683 299.998 194.529 300.117 194.383 300.238L194.378 300.232L194.751 299.941L194.842 299.882Z" fill="white" fill-opacity="0.7"/>
<path d="M140.412 308.315C143.641 305.158 145.783 300.398 149.881 298.012L149.854 298.529L151.095 298.439C154.219 298.96 156.378 299.608 158.986 301.561C158.505 302.91 156.984 306.61 156.959 307.701C157.645 308.087 157.267 307.99 158.161 307.785C160.598 307.734 161.163 307.242 163.112 308.838L159.544 310.505L157.621 311.449C156.11 312.692 154.562 313.713 152.698 314.327C149.109 312.503 143.105 311.18 140.412 308.315Z" fill="white" fill-opacity="0.7"/>
<path d="M140.412 308.315C143.641 305.158 145.783 300.398 149.881 298.012L149.854 298.529C146.965 300.851 144.884 304.117 142.532 306.902C145.679 307.358 149.531 308.09 152.614 307.502C153.841 307.268 155.225 306.828 156.217 307.213L156.43 308.186C155.711 309.85 155.736 310.258 155.636 312.04C156.206 311.732 156.963 311.61 157.621 311.449C156.11 312.692 154.562 313.713 152.698 314.327C149.109 312.503 143.105 311.18 140.412 308.315Z" fill="white"/>
<path d="M140.412 308.315C143.641 305.158 145.783 300.398 149.881 298.012L149.854 298.529C146.965 300.851 144.884 304.117 142.532 306.902L142.624 307.689C144.497 309.06 151.795 312.117 154.249 312.41C154.572 312.448 155.281 312.172 155.636 312.04C156.206 311.732 156.963 311.61 157.621 311.449C156.11 312.692 154.562 313.713 152.698 314.327C149.109 312.503 143.105 311.18 140.412 308.315Z" fill="white" fill-opacity="0.7"/>
<path d="M156.43 308.186C158.364 308.684 158.263 308.883 159.544 310.505L157.622 311.449C156.963 311.61 156.207 311.732 155.637 312.04C155.736 310.258 155.712 309.85 156.43 308.186Z" fill="white"/>
<path d="M158.162 307.785C159.444 307.239 161.882 306.645 163.286 306.314C166.564 305.537 172.97 301.702 175.896 303.119C173.885 303.97 164.23 308.578 163.112 308.838C161.164 307.242 160.599 307.734 158.162 307.785Z" fill="white" fill-opacity="0.7"/>
<path d="M182.941 286.011C183.543 286.056 184.104 286.097 184.707 286.123C183.055 288.043 171.2 291.708 168.507 292.408L168.097 291.939C168.695 291.088 169.367 291.085 170.554 290.626L170.263 290.237C171.32 289.636 181.41 286.451 182.941 286.011Z" fill="white" fill-opacity="0.7"/>
<path d="M149.881 298.012L150.12 297.787C152.582 295.523 154.542 295.311 157.728 294.399C158.709 294.791 158.765 294.733 159.454 295.494C157.765 295.905 152.905 296.901 151.61 297.588L151.095 298.439L149.854 298.529L149.881 298.012Z" fill="white" fill-opacity="0.7"/>
<path d="M252.994 261.881C253.997 262.405 253.63 262.023 254.105 263.089C254.008 264.464 254.3 264.923 254.806 266.214C254.686 267.31 253.921 268.083 252.924 268.446L252.861 268.839C249.282 271.202 244.12 273.829 241.31 276.957C239.719 278.726 234.054 285.557 233.16 287.025C231.151 290.33 210.89 323.267 210.768 323.817C211.358 327.498 197.062 353.065 193.919 357.76C193.298 358.688 192.378 359.209 192.544 360.303L192.944 360.657C192.47 360.811 192.055 360.981 191.572 361.061C191.761 364.78 191.9 368.499 191.989 372.221C191.569 373.467 191.858 374.717 191.825 376.108L191.685 375.53C190.831 374.904 190.149 373.185 189.612 372.151C189.277 368.718 188.966 365.313 188.498 361.893C184.868 357.185 190.414 350.28 193.006 345.36L194.741 342.639L201.917 331.425L200.052 333.724L194.43 339.346L188.106 345.67C178.354 354.329 157.592 376.765 152.892 378.369C145.965 384.769 136.402 394.163 129.183 399.844C124.423 400.146 110.938 401.235 107.085 400.285C107.514 400.256 107.941 400.31 108.377 400.342L108.195 399.947L109.55 400.098C108.706 399.385 106.847 399.828 105.477 399.057L106.1 398.669C107.222 398.977 108.715 399.357 109.793 398.859L107.378 398.563L106.418 398.12C106.022 397.066 106.142 397.41 106.549 396.074C110.887 397.172 124.213 394.295 127.5 390.964C133.413 386.69 139.184 380.739 144.968 376.458C146.376 374.533 184.826 341.243 186.076 340.758L186.27 341.262L185.76 342.162C187.47 340.977 190.256 338.231 191.753 336.654C198.763 329.274 206.856 322.95 211.751 313.88C212.396 313.54 232.273 278.286 236.72 272.926L238.701 270.496L238.567 269.731C239.221 269.253 239.222 269.317 239.993 268.996C240.663 269.384 240.388 269.307 241.154 269.378C242.935 266.022 249.241 262.241 252.994 261.881Z" fill="white" fill-opacity="0.7"/>
<path d="M144.968 376.458C146.375 374.534 184.836 341.234 186.076 340.758L186.269 341.263L185.76 342.162C182.554 344.783 178.846 348.807 175.688 351.694C166.426 360.166 157.294 369.871 148.04 378.199L148.093 377.8L147.667 377.643C144.518 380.463 140.431 384.801 137.243 387.252C137.191 386.24 137.234 386.247 136.864 385.322L136.216 385.123C139.094 382.174 142.296 379.849 145.083 377.001L144.968 376.458Z" fill="white"/>
<path d="M144.968 376.458L145.082 377.001C142.296 379.85 139.094 382.175 136.216 385.123L136.864 385.322C137.233 386.247 137.191 386.241 137.242 387.252C140.431 384.802 144.518 380.463 147.667 377.643L148.092 377.801L148.04 378.199C141.435 384.567 133.935 391.572 126.952 397.542C119.68 398.589 113.285 397.831 107.378 398.563L106.418 398.12C106.021 397.067 106.142 397.41 106.549 396.074C110.887 397.173 124.213 394.295 127.5 390.965C133.413 386.69 139.184 380.739 144.968 376.458Z" fill="white"/>
<path d="M210.768 323.817C211.358 327.498 197.062 353.065 193.92 357.76C193.299 358.688 192.379 359.208 192.545 360.304L192.944 360.657C192.471 360.811 192.056 360.981 191.573 361.061C191.407 360.085 191.248 358.63 191.594 357.705C193.632 352.243 197.29 346.966 200.214 341.898C203.708 335.841 207.132 329.746 210.768 323.817Z" fill="white"/>
<path d="M238.567 269.731L238.7 270.495L236.72 272.927C232.273 278.287 212.389 313.553 211.751 313.881C211.664 311.507 221.8 297.697 222.277 294.495C221.765 294.422 215.65 296.471 214.745 297.055C207.875 301.49 199.193 305.081 192.407 309.294C179.073 317.571 167.449 329.238 155.449 339.217C150.516 343.25 145.673 347.39 140.922 351.636C140.041 352.423 136.865 355.194 136.34 355.891L135.075 357.044C129.72 361.646 121.149 368.631 116.517 373.436C113.726 375.478 111.674 377.463 110.63 380.835L109.68 382.197C110.109 383.376 110.186 383.366 111 384.262C110.546 385.415 109.727 387.3 109.374 388.418C108.526 390.814 107.558 393.794 106.549 396.074C106.142 397.41 106.021 397.067 106.418 398.12L107.378 398.563L109.793 398.859C108.714 399.356 107.222 398.977 106.1 398.669L105.477 399.058C106.846 399.828 108.706 399.385 109.55 400.098L108.195 399.947L108.377 400.342C107.941 400.31 107.514 400.256 107.086 400.285C100.741 399.812 105.478 389.555 105.792 385.614C105.937 383.777 108.038 376.349 108.854 375.141C113.538 368.201 121.77 363.053 127.853 357.102L128.125 356.832C132.506 353.627 141.103 345.441 145.693 341.471L167.663 322.805C176.085 315.528 185.68 306.992 194.383 300.238C195.084 299.653 195.968 299.13 196.745 298.632L196.923 299.146C197.95 298.166 197.41 298.356 198.537 298.096L199.346 298.754L199.055 299.557C200.383 298.937 223.371 278.74 224.134 277.224C224.332 276.883 224.18 277.07 224.663 276.678L224.539 275.949L224.96 275.772L225.023 275.522L223.13 275.685L222.576 275.348C223.1 275.184 223.116 275.13 223.654 275.149C226.589 275.265 230.225 272.991 233.401 271.687C235.289 271.096 236.745 270.486 238.567 269.731Z" fill="white" fill-opacity="0.7"/>
<path d="M109.68 382.198C110.109 383.376 110.186 383.367 111 384.263C110.546 385.416 109.727 387.301 109.374 388.418C109.324 388.043 109.358 388.03 109.151 387.693C107.723 385.374 109.075 384.263 109.68 382.198Z" fill="white" fill-opacity="0.7"/>
<path d="M111 384.263C114.222 379.24 119.058 379.333 124.486 379.718C131.219 383.562 126.045 387.053 127.5 390.965C124.213 394.295 110.887 397.173 106.549 396.075C107.558 393.794 108.526 390.814 109.374 388.418C109.727 387.301 110.546 385.415 111 384.263Z" fill="white"/>
<path d="M194.384 300.237L194.376 300.229L194.751 299.942L194.857 299.87C194.693 299.99 194.534 300.112 194.384 300.237Z" fill="white" fill-opacity="0.7"/>
<path d="M193.624 299.174L193.559 299.2L193.548 299.189C194.082 298.928 194.536 298.676 195.004 298.482L193.624 299.174Z" fill="white" fill-opacity="0.7"/>
<path d="M196.744 298.633C196.725 298.645 196.703 298.655 196.684 298.667L196.657 298.467L196.744 298.633Z" fill="white" fill-opacity="0.7"/>
<path d="M196.589 298.338L196.207 298.149C196.294 298.137 196.384 298.126 196.476 298.119L196.589 298.338Z" fill="white" fill-opacity="0.7"/>
<path d="M135.075 357.044C135.217 357.687 135.395 358.159 134.775 358.775C131.633 361.9 120.984 372.563 117.46 373.648L118.075 373.041C117.241 373.33 117.37 373.343 116.517 373.436C121.149 368.632 129.72 361.647 135.075 357.044Z" fill="white" fill-opacity="0.7"/>
<path d="M136.34 355.891C136.515 357.658 136.646 356.99 135.513 358.74C133.567 361.743 115.033 377.977 113.19 378.574L112.826 377.63C112.039 378.841 111.433 380.627 110.63 380.835C111.674 377.463 113.726 375.479 116.517 373.436C117.37 373.343 117.241 373.33 118.075 373.041L117.46 373.648C120.984 372.563 131.633 361.9 134.775 358.775C135.395 358.159 135.217 357.687 135.075 357.044L136.34 355.891Z" fill="white" fill-opacity="0.7"/>
<path d="M251.707 56.0846C252.714 55.6586 253.54 55.1051 254.684 55.7291C258.565 57.8475 268.734 72.358 270.069 75.8532C271.573 79.7985 270.972 92.5886 271.071 97.0591C271.325 108.427 270.613 120.746 270.988 131.97C272.429 137.376 271.251 147.097 271.071 152.817L270.023 185.019C269.942 187.452 269.779 190.069 269.766 192.615L269.592 200.006L269.551 214.532L276.288 201.338L276.276 201.322C277.731 200.153 280.674 193.121 281.739 191.162L297.762 162.046C298.999 159.787 304.854 147.997 306.039 147.411C305.411 150.139 294.381 169.61 292.194 173.64C284.544 187.723 277.059 202.073 269.161 216.003C267.996 217.513 267.423 216.319 266.498 219.177C266.401 219.482 266.311 219.792 266.226 220.1C264.304 224.622 260.745 232.491 258.301 236.736C257.597 239.201 257.239 240.383 256.871 242.883L256.564 244.899C256.434 249.385 256.366 254.311 253.606 258.071C251.278 261.224 247.485 260.151 243.82 260.526C243.054 260.211 241.593 260.039 240.548 259.667L240.809 259.402C242.016 259.557 246.854 260.276 247.475 259.365C246.865 258.501 245.537 257.874 244.554 257.277C246.048 257.912 248.791 259.196 250.247 259.44L250.38 258.907C249.263 257.115 244.89 255.771 243.011 254.349C237.901 250.553 235.76 244.927 232.824 239.551C228.809 232.203 224.816 224.895 221.067 217.403C220.118 215.508 218.35 213.188 217.08 211.464C217.589 211.844 218.114 212.201 218.635 212.565C219.623 212.049 219.297 212.427 219.683 211.419C219.156 207.003 214.72 203.522 213.971 201.133C213.999 198.588 188.626 151.216 186.032 142.49C187.178 136.705 189.095 125.35 192.016 120.637C193.519 120.17 194.823 120.332 196.234 121.026C200.242 122.999 211.341 128.2 213.438 131.713C213.58 131.791 213.727 131.864 213.865 131.951C215.387 132.913 227.569 162.881 229.283 166.968C230.944 170.925 232.797 176.833 235.408 180.574L242.122 196.571L240.545 177.654C240.665 168.759 238.965 142.581 239.52 137.493C239.517 127.964 235.952 78.6404 237.976 73.2923C242.587 68.287 245.65 61.8029 251.707 56.0846Z" fill="white" fill-opacity="0.7"/>
<path d="M239.433 75.1352C240.46 79.6077 241.216 97.7508 241.46 103.029C241.236 106.283 241.864 113.386 242.065 116.889L243.223 139.687C243.351 142.067 243.835 147.59 243.696 149.572C243.331 159.54 244.99 172.827 245.477 182.905C245.631 186.086 246.239 200.441 246.839 202.659C249.816 213.655 257.201 225.698 257.079 237.709C257.862 237.465 257.595 237.488 258.301 236.737C257.597 239.202 257.239 240.383 256.871 242.884L256.564 244.9C256.434 249.386 256.366 254.311 253.606 258.072C251.278 261.225 247.485 260.151 243.82 260.527C243.054 260.212 241.593 260.037 240.548 259.664L240.809 259.403C242.016 259.557 246.853 260.276 247.475 259.365C246.865 258.501 245.537 257.875 244.554 257.277C246.048 257.913 248.791 259.196 250.247 259.441L250.38 258.908C249.264 257.116 244.89 255.772 243.011 254.35C237.901 250.553 235.76 244.928 232.824 239.551C228.809 232.203 224.816 224.892 221.067 217.4C220.118 215.505 218.35 213.189 217.08 211.465C217.589 211.845 218.114 212.202 218.635 212.566C219.624 212.05 219.297 212.428 219.683 211.419C219.157 207.004 214.72 203.523 213.971 201.134C214.002 198.595 188.627 151.218 186.032 142.49C187.178 136.706 189.095 125.351 192.016 120.638C193.519 120.171 194.823 120.333 196.234 121.027C200.243 123 211.342 128.201 213.438 131.713C213.58 131.792 213.727 131.865 213.865 131.952C215.387 132.914 227.57 162.884 229.283 166.968C230.945 170.927 232.799 176.838 235.411 180.579L242.122 196.572L240.545 177.655C240.665 168.76 238.965 142.574 239.52 137.49C239.517 127.958 235.952 78.6423 237.976 73.293L239.433 75.1352Z" fill="white" fill-opacity="0.7"/>
<path d="M239.432 75.1352C240.46 79.6077 241.216 97.7508 241.46 103.029C241.236 106.283 241.864 113.386 242.065 116.889L243.223 139.687C243.351 142.067 243.835 147.59 243.696 149.572C243.331 159.54 244.99 172.827 245.477 182.905C245.631 186.086 246.239 200.441 246.839 202.659C249.816 213.655 257.201 225.698 257.079 237.709C257.862 237.465 257.595 237.488 258.301 236.737C257.597 239.202 257.239 240.383 256.871 242.884L256.564 244.9C256.434 249.386 256.366 254.311 253.606 258.072C252.229 257.044 249.758 254.433 248.87 252.905C249.658 253.383 250.301 254.049 250.981 254.679C250.887 248.3 250.891 239.149 249.861 232.909C247.937 221.245 242.986 209.283 238.369 198.486C235.501 191.777 232.587 184.464 229.408 177.908C223.749 164.718 218.555 151.321 213.055 138.068C212.429 136.558 211.06 133.517 210.01 132.364C207.486 129.591 198.764 124.445 195.394 123.074C194.828 122.752 194.071 122.181 193.518 121.791L193.419 121.368C192.839 121.166 192.519 120.989 192.016 120.638C193.519 120.171 194.823 120.333 196.234 121.027C200.242 123 211.342 128.201 213.438 131.713C213.58 131.792 213.727 131.865 213.865 131.952C215.387 132.914 227.57 162.884 229.283 166.968C230.945 170.927 232.799 176.838 235.411 180.579L242.122 196.572L240.545 177.655C240.665 168.76 238.965 142.574 239.519 137.49C239.517 127.958 235.952 78.6425 237.976 73.293L239.432 75.1352Z" fill="white" fill-opacity="0.7"/>
<path d="M237.976 73.2922L239.431 75.1367C240.459 79.6091 241.217 97.7503 241.461 103.028C241.237 106.282 241.865 113.384 242.066 116.887L243.222 139.686C243.35 142.065 243.833 147.59 243.694 149.572C243.329 159.54 244.989 172.827 245.476 182.905C245.629 186.086 246.241 200.441 246.84 202.658C249.817 213.654 257.2 225.696 257.079 237.708C257.862 237.463 257.593 237.486 258.299 236.734C257.595 239.201 257.241 240.383 256.872 242.885L256.563 244.898C256.912 236.115 250 219.97 246.95 211.36C245.583 207.814 243.607 204.195 242.5 200.576C242.089 199.231 242.329 196.708 242.004 195.035C241.58 192.072 241.555 185.381 241.448 182.019C241.161 171.839 240.809 161.66 240.391 151.484C240.221 147.822 240.061 140.944 239.519 137.491C239.517 127.963 235.951 78.6389 237.976 73.2922Z" fill="white" fill-opacity="0.7"/>
<path d="M192.014 120.638C192.518 120.99 192.837 121.168 193.418 121.369L193.518 121.79C191.079 125.65 190.091 136.303 188.534 141.148C188.223 142.228 188.422 142.203 189.122 143.495L189.337 143.883C189.905 142.698 190.176 142.343 191.481 142.109C192.682 142.656 192.339 142.554 193.192 143.847L193.57 143.758L193.667 142.226L194.018 142.013L194.277 142.52C193.544 146.203 213.015 187.682 215.604 193.41C216.667 194.098 218.807 199.582 219.368 201C219.525 201.399 219.432 202.6 219.415 203.095C220.37 205.573 225.358 213.538 226.862 216.396C231.591 225.382 241.777 246.286 248.869 252.905C249.757 254.434 252.227 257.045 253.604 258.072C251.276 261.226 247.483 260.15 243.818 260.526C243.052 260.211 241.592 260.038 240.547 259.665L240.81 259.402C242.017 259.556 246.856 260.275 247.474 259.363C246.865 258.499 245.539 257.873 244.556 257.276C246.05 257.912 248.792 259.196 250.248 259.44L250.378 258.907C249.262 257.115 244.888 255.773 243.009 254.35C237.899 250.554 235.759 244.927 232.823 239.551C228.808 232.203 224.815 224.894 221.067 217.401C220.117 215.506 218.349 213.189 217.08 211.464C217.589 211.845 218.113 212.202 218.634 212.565C219.624 212.049 219.297 212.429 219.683 211.42C219.157 207.004 214.722 203.523 213.973 201.133C214.004 198.594 188.626 151.213 186.033 142.489C187.179 136.704 189.094 125.351 192.014 120.638Z" fill="white" fill-opacity="0.7"/>
<path d="M189.337 143.883C189.906 142.698 190.177 142.344 191.481 142.109C192.682 142.656 192.339 142.554 193.192 143.848L193.57 143.758L193.667 142.226L194.019 142.013L194.277 142.521C193.544 146.203 213.014 187.682 215.604 193.409L215.284 194.059C213.99 192.275 214.107 191.479 212.429 189.827C205.504 174.685 195.832 159.2 189.337 143.883Z" fill="white" fill-opacity="0.7"/>
<path d="M212.429 189.828C214.108 191.48 213.99 192.276 215.284 194.059L215.604 193.41C216.668 194.098 218.807 199.583 219.368 201C219.526 201.399 219.432 202.6 219.415 203.095C216.854 198.877 214.641 194.256 212.429 189.828Z" fill="white" fill-opacity="0.7"/>
<path d="M193.518 121.79C194.071 122.179 194.827 122.751 195.394 123.073C198.764 124.444 207.488 129.59 210.012 132.363C211.062 133.517 212.43 136.559 213.056 138.068C218.556 151.321 223.749 164.719 229.408 177.909C229.356 178.936 229.275 179.181 229.75 180.138L229.401 180.719C226.646 176.169 224.405 170.591 221.986 165.786C216.261 154.415 211.257 144.86 206.904 132.862C206.587 136.585 207.365 139.169 205.045 142.603C201.983 147.137 197.793 144.972 194.277 142.52L194.019 142.013L193.667 142.226L193.57 143.758L193.192 143.847C192.339 142.553 192.682 142.656 191.481 142.109C190.177 142.343 189.906 142.698 189.337 143.883L189.122 143.494C188.422 142.203 188.223 142.227 188.535 141.148C190.091 136.303 191.079 125.65 193.518 121.79Z" fill="white" fill-opacity="0.7"/>
<path d="M193.518 121.79C194.071 122.179 194.827 122.751 195.394 123.073C196.001 125.244 193.253 137.518 192.855 141.324C191.453 141.579 189.247 142.457 188.535 141.148C190.091 136.303 191.079 125.65 193.518 121.79Z" fill="white"/>
<path d="M244.921 153.285C245.37 150.906 245.077 135.712 245.071 132.312C245.52 133.493 244.986 135.689 245.561 136.919C250 138.038 256.032 134.009 261.343 134.747C262.146 134.859 262.141 133.83 263.599 132.87C264.977 133.962 264.523 136.685 266.272 137.335L266.831 136.75C266.864 146.602 266.584 156.452 265.993 166.285C265.46 174.434 264.786 182.539 264.039 190.671C263.844 192.798 264.394 197.168 264.397 199.532C264.407 206.449 264.88 213.286 266.224 220.099C264.303 224.621 260.744 232.489 258.299 236.735C257.593 237.486 257.862 237.464 257.079 237.708C257.2 225.696 249.817 213.655 246.84 202.658C246.24 200.441 245.629 186.086 245.476 182.905C244.989 172.827 243.329 159.54 243.694 149.572C244.991 153.039 244.158 155.305 244.673 158.713C244.734 156.903 244.816 155.093 244.921 153.285Z" fill="white" fill-opacity="0.7"/>
<path d="M251.707 56.0846C252.715 55.6584 253.539 55.1078 254.684 55.7328C258.567 57.8526 268.738 72.3663 270.069 75.8568C271.572 79.8029 270.971 92.5886 271.071 97.0589C271.325 108.427 270.613 120.745 270.988 131.969C272.428 137.376 271.251 147.097 271.071 152.816L270.023 185.018C269.942 187.451 269.779 190.069 269.766 192.614L269.592 200.005L269.55 214.531L276.287 201.337L276.276 201.322C277.73 200.152 280.673 193.126 281.738 191.165L297.762 162.046C298.998 159.787 304.854 147.996 306.038 147.41C305.412 150.137 294.381 169.609 292.194 173.64C284.544 187.723 277.059 202.072 269.161 216.002C267.996 217.512 267.423 216.318 266.498 219.176C266.4 219.481 266.311 219.791 266.225 220.099C264.881 213.287 264.408 206.449 264.398 199.532C264.395 197.169 263.844 192.797 264.039 190.67C264.785 182.538 265.462 174.435 265.995 166.286C266.586 156.453 266.864 146.602 266.831 136.751C266.841 128.134 267.063 118.414 266.755 109.886C266.811 100.799 267.755 81.763 264.758 74.1773C264.211 72.4256 262.364 70.2619 261.024 69.0328C259.452 66.1963 256.792 61.1986 254.832 58.8686L253.799 57.1853C252.321 56.9091 252.868 57.1405 251.707 56.0846Z" fill="white" fill-opacity="0.7"/>
<path d="M254.831 58.8698C256.791 61.1997 259.451 66.1953 261.024 69.0317C261.103 71.5694 261.307 73.2671 260.472 75.7236C254.635 92.8838 247.632 79.8671 244.279 79.2714C245.037 72.3335 249.425 67.9289 252.961 62.1706C253.692 60.9794 254.578 60.1907 254.831 58.8698Z" fill="white" fill-opacity="0.7"/>
<path d="M251.708 56.0842C252.869 57.1402 252.319 56.9093 253.798 57.1855L254.831 58.8696C254.578 60.1905 253.693 60.9793 252.961 62.1704C249.425 67.9287 245.037 72.3333 244.28 79.2712C244.018 81.9368 243.819 84.6081 243.682 87.283C243.707 88.6893 243.465 92.681 243.928 93.5664L244.28 93.7661C244.211 94.7974 244.053 95.9153 244.272 96.9051L243.303 96.8752C243.303 99.501 243.371 102.33 243.107 104.925L242.973 97.2002L242.504 97.0079C241.307 98.1284 242.035 100.774 241.461 103.028C241.217 97.7497 240.459 79.6087 239.431 75.1363L237.976 73.2919C242.587 68.2864 245.65 61.8027 251.708 56.0842Z" fill="white"/>
<path d="M251.708 56.0842C252.869 57.1402 252.319 56.9093 253.798 57.1855C250.351 59.7351 240.905 71.594 239.431 75.1363L237.976 73.2919C242.587 68.2864 245.65 61.8027 251.708 56.0842Z" fill="white" fill-opacity="0.7"/>
<path d="M243.303 96.8757C243.32 93.9596 243.215 90.0637 243.682 87.2835C243.707 88.6898 243.465 92.6814 243.928 93.5668L244.281 93.7666C244.211 94.7978 244.053 95.9158 244.272 96.9056L243.303 96.8757Z" fill="white"/>
<path d="M266.755 109.886C266.335 114.354 267.061 125.493 265.834 128.983C265.318 127.726 265.146 123.532 265.042 121.961C264.004 106.331 263.285 90.4313 264.156 74.7972C264.356 74.5904 264.557 74.3836 264.757 74.1765C267.755 81.7615 266.811 100.798 266.755 109.886Z" fill="white" fill-opacity="0.7"/>
<path d="M241.461 103.029C242.035 100.775 241.307 98.129 242.505 97.0085L242.974 97.2009L243.107 104.925C243.371 102.33 243.303 99.5016 243.303 96.8759L244.272 96.9057L244.492 97.2699L243.817 97.7446C243.507 102.707 243.883 109.371 244.062 114.431C244.412 122.926 244.605 131.427 244.639 139.928C244.636 142.167 244.217 151.902 244.921 153.285C244.817 155.093 244.734 156.902 244.673 158.712C244.158 155.304 244.991 153.039 243.694 149.571C243.834 147.59 243.35 142.065 243.222 139.686L242.066 116.887C241.865 113.384 241.237 106.282 241.461 103.029Z" fill="white" fill-opacity="0.7"/>
<path d="M138.619 207.926C142.508 205.901 151.446 203.493 155.388 205.267C166.947 210.471 178.696 216.395 190.056 222.112C193.339 223.762 197.619 226.392 200.909 227.491C203.219 228.033 207.771 233.152 209.662 235.067C210.699 235.851 214.097 239.059 214.542 240.148C218.781 244.948 222.212 248.549 226.745 253.035C230.194 255.447 236.422 259.063 240.548 259.666C241.593 260.039 243.054 260.21 243.82 260.525C242.57 263.04 234.241 266.92 230.883 269.377C230.145 269.483 229.661 269.91 229.079 270.394C224.923 273.862 222.4 273.873 217.182 273.417C212.679 273.519 202.453 273.372 199.294 276.246C197.218 276.079 188.516 276.536 185.79 276.571C171.939 276.787 158.091 277.19 144.251 277.774L124.657 278.353C121.951 278.43 116.622 278.441 114.243 278.849C105.105 278.595 94.0244 279.669 84.6583 279.582C82.4054 279.425 71.5949 280.417 70.0078 279.348C66.2344 276.803 49.6809 265.163 51.4535 260.446C51.9461 259.884 52.4656 259.344 53.0082 258.827C56.9766 255.123 68.0771 247.972 73.3858 246.321C76.2261 245.438 86.0959 245.71 89.7309 245.742C102.826 245.896 115.922 246.24 129.007 246.782C132.509 245.673 144.452 247.259 148.791 247.195C154.69 247.108 161.159 247.69 167.065 247.921C168.815 247.987 173.609 248.521 175.379 248.22L193.503 248.871L205.887 249.347L184.655 239.614L175.966 236.369C170.785 233.279 148.374 224.775 144.97 222.191C144.051 221.494 143.411 220.585 142.844 219.592C141.256 216.811 137.736 211.028 138.619 207.926Z" fill="white" fill-opacity="0.7"/>
<path d="M138.619 207.926C142.508 205.901 151.446 203.493 155.388 205.267C166.947 210.471 178.696 216.395 190.056 222.112C193.339 223.762 197.619 226.392 200.909 227.491C203.219 228.033 207.771 233.152 209.662 235.067C210.699 235.851 214.097 239.059 214.542 240.148C218.781 244.948 222.212 248.549 226.745 253.035C224.478 253.546 219.743 253.186 217.201 253.228C213.222 253.289 209.241 253.266 205.263 253.156L205.475 252.888C206.611 252.589 212.376 252.823 213.895 252.839C212.42 252.039 210.92 250.892 209.541 251.318C208.388 251.678 207.49 251.824 206.561 251.227C207.068 250.604 208.305 250.633 209.314 250.486L209.307 250.202L208.361 249.835C207.279 250.262 134.596 247.496 129.007 246.782C132.509 245.673 144.451 247.259 148.791 247.195C154.69 247.108 161.159 247.69 167.065 247.921C168.815 247.987 173.609 248.521 175.379 248.22L193.503 248.871L205.887 249.347L184.655 239.614L175.966 236.369C170.784 233.279 148.374 224.775 144.97 222.191C144.051 221.494 143.411 220.585 142.844 219.592C141.256 216.811 137.736 211.028 138.619 207.926Z" fill="white" fill-opacity="0.7"/>
<path d="M152.664 207.752C159.162 208.236 182.324 221.715 189.085 225.379C193.623 227.823 198.218 230.158 202.865 232.387C204.612 233.219 207.951 235.107 209.664 235.068C210.7 235.852 214.096 239.057 214.541 240.146C214.16 241.684 218.931 244.995 219.823 247.43L219.482 247.577C215.283 246.543 167.796 229.015 166.386 227.836C166.674 227.682 166.482 227.813 166.77 227.255C165.74 225.745 153.305 220.465 150.45 219.007C152.604 217.408 153.746 218.037 156.07 215.031C156.301 213.107 153.589 209.957 152.664 207.752Z" fill="white" fill-opacity="0.7"/>
<path d="M140.237 209.105C144.548 208.463 148.303 207.886 152.664 207.752C153.588 209.957 156.301 213.107 156.07 215.031C153.746 218.037 152.604 217.408 150.45 219.007C146.983 219.598 148.124 215.516 145.377 214.107C146.252 215.568 148.102 217.8 146.876 219.225C145.474 217.34 144.428 215.304 143.107 213.633L142.669 213.73C141.734 212.383 140.961 210.605 140.237 209.105Z" fill="white"/>
<path d="M142.669 213.73L143.107 213.633C144.428 215.304 145.474 217.34 146.876 219.226C148.102 217.8 146.252 215.568 145.377 214.107C148.124 215.516 146.983 219.598 150.45 219.007C153.305 220.465 165.74 225.745 166.77 227.254C166.481 227.813 166.674 227.682 166.386 227.836C159.393 225.283 154.169 222.238 146.041 219.547C144.987 217.61 143.791 215.632 142.669 213.73Z" fill="white" fill-opacity="0.7"/>
<path d="M226.744 253.034C230.192 255.446 236.421 259.062 240.547 259.666C241.592 260.039 243.052 260.212 243.819 260.527C242.568 263.041 234.242 266.921 230.885 269.378C230.146 269.484 229.661 269.908 229.08 270.393C224.922 273.861 222.402 273.871 217.184 273.415C212.682 273.518 202.454 273.373 199.295 276.247C197.22 276.08 188.513 276.536 185.788 276.572C171.937 276.787 158.09 277.188 144.25 277.773L124.658 278.354C121.952 278.431 116.624 278.441 114.244 278.849C105.106 278.595 94.025 279.671 84.6584 279.584C82.4058 279.427 71.5956 280.419 70.0084 279.35C66.2374 276.806 49.6807 265.164 51.4535 260.446C51.9073 260.906 52.5198 261.468 52.8753 261.982L54.3786 261.32C55.8996 262.216 57.1846 262.8 58.7586 263.761C62.934 266.308 68.0915 270.842 72.6185 272.271L73.4737 272.85C73.6687 274.401 73.5855 274.497 73.0707 276.023L72.1441 276.713C88.8348 276.299 105.54 275.412 122.229 274.895C126.274 274.773 130.356 274.642 134.394 274.385C139.546 274.837 167.349 273.736 172.109 272.316C173.819 273.334 179.22 272.663 181.46 272.763C196.05 273.399 210.24 271.273 223.55 265.055C225.871 263.97 232.52 262.939 233.396 260.739C228.425 259.297 224.704 257.094 220.386 254.261C218.952 253.32 219.157 253.381 217.201 253.23C219.743 253.188 224.477 253.545 226.744 253.034Z" fill="white" fill-opacity="0.7"/>
<path d="M226.744 253.034C230.192 255.446 236.42 259.062 240.547 259.666C241.592 260.038 243.052 260.212 243.818 260.527C242.568 263.041 234.242 266.921 230.885 269.378C230.146 269.484 229.661 269.907 229.079 270.392C224.922 273.861 222.402 273.871 217.184 273.414C219.407 272.477 223.429 273.048 224.468 272.425C229.246 269.548 234.88 265.883 239.605 263.032L239.527 262.704C238.668 262.181 238.116 262.36 237.078 262.444L236.65 262.482C235.527 261.182 235.092 261.166 233.396 260.739C228.425 259.297 224.704 257.093 220.386 254.261C218.952 253.32 219.157 253.381 217.201 253.23C219.743 253.188 224.477 253.545 226.744 253.034Z" fill="white" fill-opacity="0.7"/>
<path d="M52.8754 261.981L54.3787 261.32C55.8997 262.216 57.1846 262.8 58.7586 263.761C62.9339 266.307 68.0913 270.842 72.6183 272.271L73.4735 272.849C73.6685 274.4 73.5853 274.497 73.0705 276.022L72.1439 276.713C70.1319 276.938 68.8486 276.215 67.2258 275.056C64.5772 273.167 53.3757 264.615 52.8754 261.981Z" fill="white"/>
<path d="M51.4536 260.446C51.9462 259.884 52.4649 259.345 53.0076 258.828C56.9752 255.125 68.0753 247.973 73.3844 246.322C76.2231 245.439 86.0977 245.708 89.7322 245.741C102.828 245.895 115.92 246.242 129.005 246.784C134.585 247.497 207.278 250.262 208.36 249.835L209.308 250.201L209.314 250.487C208.305 250.635 207.067 250.603 206.559 251.226C207.489 251.823 208.386 251.679 209.539 251.319C210.918 250.892 212.419 252.038 213.895 252.838C212.376 252.822 206.608 252.588 205.473 252.886L205.264 253.156C196.606 253.718 185.966 252.822 177.469 253.554C164.076 253.378 151.083 251.085 136.906 251.595C126.992 251.451 116.494 250.943 106.655 250.824C97.5245 250.715 78.6989 249.386 70.5755 252.058C69.386 252.475 69.4512 252.456 68.5866 253.394C63.2757 256.416 59.7696 257.694 54.3786 261.32L52.8753 261.981C52.5198 261.468 51.9073 260.906 51.4536 260.446Z" fill="white" fill-opacity="0.7"/>
<path d="M68.5864 253.394C73.4894 255.944 82.8652 259.496 79.2281 266.285C77.4595 269.586 74.3247 270.135 72.6181 272.271C68.0912 270.842 62.9337 266.307 58.7584 263.761C57.1845 262.8 55.8995 262.216 54.3785 261.32C59.7694 257.694 63.2755 256.416 68.5864 253.394Z" fill="white"/>
<path d="M70.5757 252.058C78.6991 249.386 97.5247 250.715 106.655 250.825C116.494 250.943 126.992 251.451 136.907 251.595C138.876 251.949 139.714 252.019 141.697 252.119C135.449 253.14 74.0224 254.589 71.0356 252.437C70.8744 252.318 70.7292 252.183 70.5757 252.058Z" fill="white"/>
<path d="M72.6184 272.271C78.3037 272.255 83.8309 272.618 89.5005 272.811C104.646 273.331 119.827 272.962 134.973 273.206C132.428 273.71 121.595 273.142 120.535 274.08L120.709 274.391C122.909 274.314 133.255 273.659 134.393 274.385C130.355 274.642 126.273 274.773 122.228 274.895C105.54 275.412 88.8344 276.299 72.144 276.713L73.0705 276.023C73.5853 274.497 73.6685 274.401 73.4736 272.85L72.6184 272.271Z" fill="white"/>
<path d="M205.264 253.156C209.242 253.265 213.222 253.291 217.201 253.23C219.156 253.381 218.952 253.32 220.385 254.261C224.703 257.093 228.425 259.297 233.395 260.738C232.519 262.938 225.871 263.969 223.549 265.055C210.239 271.272 196.05 273.398 181.46 272.763C179.22 272.663 173.819 273.334 172.109 272.316L172.511 271.985C176.192 272.512 180.132 271.969 183.613 272.053C196.479 272.361 209.582 271.006 221.255 265.26C223.137 264.335 225.968 263.928 227.901 262.926C228.527 262.601 227.49 261.779 227.426 261.121C227.426 261.117 228.009 259.624 228.054 259.508C226.451 258.423 220.184 255.523 218.699 254.001C218.593 253.895 212.43 253.92 211.532 253.924L189.612 253.882C187.144 253.885 179.453 254.168 177.47 253.554C185.966 252.822 196.606 253.718 205.264 253.156Z" fill="white" fill-opacity="0.7"/>
<path d="M115.5 108.486C119.208 108.895 135.596 112.926 137.886 114.773C142.132 118.198 149.899 127.768 153.778 132.143L199.219 184.333C203.622 189.294 209.592 196.71 213.972 201.132C214.721 203.522 219.158 207.005 219.684 211.421C219.299 212.428 219.622 212.049 218.636 212.564C218.115 212.2 217.59 211.843 217.081 211.463C218.351 213.187 220.119 215.507 221.068 217.402C224.816 224.894 228.81 232.202 232.825 239.549C235.761 244.926 237.898 250.555 243.008 254.351C244.886 255.774 249.259 257.114 250.377 258.906L250.248 259.439C248.791 259.195 246.049 257.911 244.555 257.275C245.538 257.873 246.866 258.499 247.475 259.363C246.857 260.275 242.018 259.555 240.81 259.401L240.545 259.666C236.418 259.062 230.19 255.446 226.742 253.035C222.209 248.548 218.778 244.945 214.539 240.143C214.09 239.053 210.699 235.85 209.663 235.067C207.772 233.153 203.221 228.033 200.91 227.49C197.62 226.392 193.341 223.758 190.058 222.107C178.697 216.391 166.948 210.47 155.389 205.267C151.447 203.492 142.509 205.901 138.62 207.926C140.591 204.774 146.869 204.694 150.271 204.174C152.033 204.082 153.715 203.725 155.385 204.503C167.765 210.268 180.11 216.232 192.252 222.501C192.301 222.526 192.354 222.538 192.41 222.546L198.436 225.894L199.806 226.764L196.046 222.629L194.086 220.799L194.079 220.802C192.519 218.64 186.483 212.659 184.671 210.737L159.07 183.713C157.503 182.058 152.376 177.006 151.557 175.202C151.066 174.483 145.07 168.46 144.026 167.391C137.155 160.378 130.352 153.298 123.622 146.151C120.015 142.339 113.128 136.042 111.703 131.209C111.812 126.345 110.146 113.609 111.979 109.398C113.331 108.319 113.62 108.279 115.5 108.486Z" fill="white" fill-opacity="0.7"/>
<path d="M111.978 109.397C113.331 108.318 113.62 108.278 115.502 108.485C119.21 108.894 135.596 112.926 137.886 114.774C142.132 118.198 149.898 127.769 153.777 132.143L199.221 184.333C203.624 189.293 209.592 196.711 213.972 201.133C214.721 203.523 219.157 207.004 219.683 211.42C219.297 212.429 219.623 212.049 218.634 212.565C218.113 212.202 217.589 211.845 217.08 211.464C212.99 206.244 208.083 202.634 203.813 197.852C194.333 187.234 185.403 173.734 175.246 163.836C175.18 166.305 176.29 164.046 175.507 166.318C173.233 167.68 171.441 174.22 169.772 176.918C168.317 179.269 168.066 178.921 166.616 180.664C165.89 180.121 163.843 177.555 162.496 176.375C160.711 173.54 154.058 167.007 151.322 164.193C145.685 158.394 140.501 152.141 135.036 146.241C130.639 141.494 126.223 137.307 121.961 132.339L121.757 132.855L121.505 133.087C120.449 132.161 120.875 132.192 119.256 132.356C118.1 132.473 117.426 132.54 116.701 133.307C117.031 134.784 118.549 134.693 118.467 135.83L118.279 135.988C116.529 134.293 114.586 132.468 113.716 130.167C112.834 131.192 113.24 130.872 111.701 131.21C111.811 126.347 110.145 113.608 111.978 109.397Z" fill="white" fill-opacity="0.7"/>
<path d="M111.978 109.397C113.331 108.318 113.62 108.278 115.502 108.485C119.21 108.894 135.596 112.926 137.886 114.774C142.131 118.198 149.898 127.769 153.777 132.143L199.221 184.333C203.624 189.293 209.592 196.711 213.972 201.133C214.721 203.523 219.157 207.004 219.682 211.42C219.297 212.429 219.623 212.049 218.634 212.565C218.113 212.202 217.589 211.845 217.079 211.464C212.99 206.244 208.083 202.634 203.813 197.852C194.333 187.234 185.403 173.734 175.246 163.836C169.987 157.673 163.99 151.776 158.747 145.591C152.069 137.713 145.661 129.619 138.686 121.982C135.482 118.473 132.519 115.112 127.51 114.84C124.205 113.424 119.592 112.053 116.144 111.075L113.675 110.529C112.448 110.373 112.602 110.329 111.978 109.397Z" fill="white" fill-opacity="0.7"/>
<path d="M111.701 131.21C111.811 126.346 110.145 113.608 111.978 109.397C112.602 110.329 112.448 110.373 113.675 110.529L116.144 111.075C119.592 112.053 124.205 113.424 127.51 114.84C132.01 117.716 135.737 130.594 128.143 132.107C126.17 132.5 122.762 131.425 121.829 131.788L121.961 132.338L121.757 132.855L121.505 133.087C120.449 132.161 120.874 132.192 119.256 132.356C118.1 132.473 117.426 132.54 116.701 133.306C117.031 134.783 118.549 134.693 118.467 135.829L118.279 135.988C116.529 134.293 114.586 132.468 113.716 130.167C112.834 131.192 113.24 130.872 111.701 131.21Z" fill="white" fill-opacity="0.7"/>
<path d="M111.701 131.21C111.811 126.346 110.145 113.608 111.978 109.397C112.602 110.329 112.448 110.373 113.675 110.529L116.144 111.075C115.151 116.306 118.113 128.628 121.757 132.855L121.505 133.087C120.449 132.161 120.874 132.192 119.256 132.356C118.1 132.473 117.426 132.54 116.701 133.306C117.031 134.783 118.549 134.693 118.467 135.829L118.279 135.988C116.529 134.293 114.586 132.468 113.716 130.167C112.834 131.192 113.24 130.872 111.701 131.21Z" fill="white"/>
<path d="M111.701 131.21C111.811 126.346 110.145 113.608 111.978 109.397C112.602 110.329 112.448 110.373 113.675 110.529C112.219 115.247 114.364 126.741 113.716 130.167C112.834 131.192 113.24 130.872 111.701 131.21Z" fill="white" fill-opacity="0.7"/>
<path d="M118.278 135.988L118.467 135.83C118.549 134.694 117.031 134.784 116.701 133.307C117.426 132.541 118.1 132.473 119.255 132.356C120.874 132.192 120.449 132.161 121.505 133.087L121.757 132.856L121.961 132.339C126.223 137.307 130.638 141.494 135.036 146.241C140.501 152.141 145.684 158.394 151.321 164.193C154.057 167.007 160.711 173.539 162.495 176.375C163.542 178.721 167.798 182.545 167.756 184.243C165.082 183.643 163.023 179.826 160.611 179.013C157.158 176.166 148.415 167.079 145.004 163.539C136.991 155.223 125.539 144.681 118.278 135.988Z" fill="white" fill-opacity="0.7"/>
<path d="M452 4H60C29.0721 4 4 29.0721 4 60V452C4 482.928 29.0721 508 60 508H452C482.928 508 508 482.928 508 452V60C508 29.0721 482.928 4 452 4Z" stroke="white" stroke-opacity="0.15" stroke-width="8"/>
</g>
</g>
<defs>
<clipPath id="clip0_29_288">
<rect width="512" height="512" fill="white"/>
</clipPath>
</defs>
</svg>
