<svg width="512" height="512" viewBox="0 0 512 512" fill="none" xmlns="http://www.w3.org/2000/svg">
<g clip-path="url(#clip0_23_9)">
<rect width="512" height="512" rx="40" fill="url(#paint0_linear_23_9)"/>
<path opacity="0.32" d="M354.319 503L468 5H39L155.05 503H183.562H354.319Z" fill="url(#paint1_linear_23_9)"/>
<line opacity="0.28" x1="148" y1="471.5" x2="363" y2="471.5" stroke="white"/>
<rect x="148" y="472" width="215" height="35" fill="black"/>
<path d="M210.051 171.293C218.71 171.293 227.121 172.777 235.285 175.746C243.697 178.715 251.737 183.044 259.406 188.734C260.643 189.971 262.004 191.208 263.488 192.445C264.725 191.208 266.086 189.971 267.57 188.734C275.24 183.044 283.156 178.715 291.32 175.746C299.732 172.777 308.143 171.293 316.555 171.293C325.214 171.293 333.625 172.777 341.789 175.746C350.201 178.715 358.117 183.168 365.539 189.105C373.208 194.796 379.888 202.465 385.578 212.113C391.516 221.762 394.484 233.266 394.484 246.625V380.59C393 395.434 384.836 403.474 369.992 404.711C363.065 404.711 357.004 402.484 351.809 398.031C346.861 393.331 344.387 387.517 344.387 380.59V249.594C344.387 243.656 343.273 238.708 341.047 234.75C338.82 230.544 336.346 227.328 333.625 225.102C330.904 222.628 328.059 220.896 325.09 219.906C322.121 218.669 319.152 218.051 316.184 218.051C313.215 218.051 310.246 218.669 307.277 219.906C304.556 220.896 301.835 222.628 299.113 225.102C296.392 227.328 293.918 230.544 291.691 234.75C289.465 238.708 288.228 243.656 287.98 249.594V380.59C286.496 395.434 278.332 403.474 263.488 404.711C256.561 404.711 250.5 402.484 245.305 398.031C240.357 393.331 237.883 387.517 237.883 380.59V249.594C237.883 243.656 236.77 238.708 234.543 234.75C232.316 230.544 229.842 227.328 227.121 225.102C224.4 222.628 221.555 220.896 218.586 219.906C215.617 218.669 212.648 218.051 209.68 218.051C206.711 218.051 203.742 218.669 200.773 219.906C198.052 220.896 195.331 222.628 192.609 225.102C189.888 227.328 187.414 230.544 185.188 234.75C182.961 238.708 181.724 243.656 181.477 249.594V380.59C180.24 395.434 172.199 403.474 157.355 404.711C150.428 404.711 144.367 402.484 139.172 398.031C134.224 393.331 131.75 387.517 131.75 380.59V246.625C132.245 233.266 135.337 221.762 141.027 212.113C146.717 202.465 153.397 194.796 161.066 189.105C168.736 183.168 176.652 178.715 184.816 175.746C193.228 172.777 201.639 171.293 210.051 171.293Z" fill="black"/>
<path d="M196.051 155.293C204.71 155.293 213.121 156.777 221.285 159.746C229.697 162.715 237.737 167.044 245.406 172.734C246.643 173.971 248.004 175.208 249.488 176.445C250.725 175.208 252.086 173.971 253.57 172.734C261.24 167.044 269.156 162.715 277.32 159.746C285.732 156.777 294.143 155.293 302.555 155.293C311.214 155.293 319.625 156.777 327.789 159.746C336.201 162.715 344.117 167.168 351.539 173.105C359.208 178.796 365.888 186.465 371.578 196.113C377.516 205.762 380.484 217.266 380.484 230.625V364.59C379 379.434 370.836 387.474 355.992 388.711C349.065 388.711 343.004 386.484 337.809 382.031C332.861 377.331 330.387 371.517 330.387 364.59V233.594C330.387 227.656 329.273 222.708 327.047 218.75C324.82 214.544 322.346 211.328 319.625 209.102C316.904 206.628 314.059 204.896 311.09 203.906C308.121 202.669 305.152 202.051 302.184 202.051C299.215 202.051 296.246 202.669 293.277 203.906C290.556 204.896 287.835 206.628 285.113 209.102C282.392 211.328 279.918 214.544 277.691 218.75C275.465 222.708 274.228 227.656 273.98 233.594V364.59C272.496 379.434 264.332 387.474 249.488 388.711C242.561 388.711 236.5 386.484 231.305 382.031C226.357 377.331 223.883 371.517 223.883 364.59V233.594C223.883 227.656 222.77 222.708 220.543 218.75C218.316 214.544 215.842 211.328 213.121 209.102C210.4 206.628 207.555 204.896 204.586 203.906C201.617 202.669 198.648 202.051 195.68 202.051C192.711 202.051 189.742 202.669 186.773 203.906C184.052 204.896 181.331 206.628 178.609 209.102C175.888 211.328 173.414 214.544 171.188 218.75C168.961 222.708 167.724 227.656 167.477 233.594V364.59C166.24 379.434 158.199 387.474 143.355 388.711C136.428 388.711 130.367 386.484 125.172 382.031C120.224 377.331 117.75 371.517 117.75 364.59V230.625C118.245 217.266 121.337 205.762 127.027 196.113C132.717 186.465 139.397 178.796 147.066 173.105C154.736 167.168 162.652 162.715 170.816 159.746C179.228 156.777 187.639 155.293 196.051 155.293Z" fill="url(#paint2_linear_23_9)"/>
<rect x="2.5" y="2.5" width="507" height="507" rx="37.5" stroke="url(#paint3_linear_23_9)" stroke-width="5"/>
</g>
<defs>
<linearGradient id="paint0_linear_23_9" x1="256" y1="0" x2="256" y2="512" gradientUnits="userSpaceOnUse">
<stop stop-color="#2E2E2E"/>
<stop offset="1" stop-color="#1E1E1E"/>
</linearGradient>
<linearGradient id="paint1_linear_23_9" x1="253.5" y1="5" x2="253.5" y2="503" gradientUnits="userSpaceOnUse">
<stop stop-color="#989898"/>
<stop offset="1" stop-color="#1E1E1E"/>
</linearGradient>
<linearGradient id="paint2_linear_23_9" x1="249" y1="58" x2="249" y2="696" gradientUnits="userSpaceOnUse">
<stop stop-color="white"/>
<stop offset="1" stop-color="#999999"/>
</linearGradient>
<linearGradient id="paint3_linear_23_9" x1="-5.01058e-06" y1="37.9048" x2="512" y2="474.095" gradientUnits="userSpaceOnUse">
<stop stop-color="#666666"/>
<stop offset="1" stop-color="#1E1E1E"/>
</linearGradient>
<clipPath id="clip0_23_9">
<rect width="512" height="512" rx="40" fill="white"/>
</clipPath>
</defs>
</svg>
