<svg width="512" height="512" viewBox="0 0 512 512" fill="none" xmlns="http://www.w3.org/2000/svg">
<g clip-path="url(#clip0_49_28)">
<path d="M432 0H80C35.8172 0 0 35.8172 0 80V432C0 476.183 35.8172 512 80 512H432C476.183 512 512 476.183 512 432V80C512 35.8172 476.183 0 432 0Z" fill="url(#paint0_radial_49_28)"/>
<path d="M288.287 222.894C297.577 222.321 309.815 222.657 319.175 222.983C332.295 223.412 345.406 224.134 358.493 225.145C364.29 225.604 375.967 226.256 381.23 227.281C381.593 232.179 381.672 236.931 381.778 241.845C382.433 255.733 381.817 270.162 382.493 283.869C385.716 283.378 391.039 283.147 394.364 282.943C401.4 282.383 408.427 281.707 415.44 280.91C425.937 279.819 435.765 277.495 444.433 285.102C449.845 289.851 452.406 297.118 452.791 304.25C453.127 322.047 446.348 346.986 434.569 360.199C426.158 369.638 416.208 371.774 404.301 372.766C399.65 373.151 395.201 373.804 390.538 374.054C386.52 374.532 382.496 374.948 378.465 375.297C378.06 376.444 377.796 384.317 377.658 385.86C375.743 407.408 375.667 425.247 353.296 435.824C339.536 443.483 310.177 451.363 295.336 446.838C289.569 445.039 284.76 441.008 281.985 435.639C277.543 427.063 280.308 419.922 281.362 410.875C282.588 400.358 284.945 388.711 285.146 378.184C285.054 376.167 285.868 368.979 286.085 366.573C286.784 358.897 287.4 351.215 287.928 343.526C288.633 331.796 289.078 320.057 289.266 308.307C289.355 301.465 289.163 294.581 289.322 287.752C289.526 285.906 289.177 276.286 289.147 273.626C289.045 261.55 288.85 249.475 288.57 237.402C288.382 234.703 288.043 225.238 288.287 222.894Z" fill="url(#paint1_linear_49_28)" fill-opacity="0.33"/>
<path d="M133.649 137.602C137.077 119.468 133.703 97.6855 148.582 83.7843C163.32 70.0153 210.906 54.1884 226.814 71.2832C229.896 74.6495 231.916 78.8493 232.625 83.3582C233.528 89.3344 231.982 95.3633 231.399 101.266C230.416 111.262 227.852 124.161 227.572 134.054L227.569 134.324C225.45 153.305 224.082 172.363 223.459 191.452C223.248 198.156 223.146 204.863 223.149 211.571C223.159 214.42 223.37 222.051 223.064 224.414C222.701 226.451 223.153 232.139 223.087 234.634C222.823 244.468 224.009 256.808 223.505 266.431C223.835 271.233 223.795 276.309 223.937 281.147C223.996 283.22 224.27 287.554 224.102 289.442C192.996 289.518 161.909 287.874 130.984 284.512C130.313 281.674 130.306 271.932 130.243 268.673C130.136 255.569 130.264 241.143 129.74 228.148C126.559 228.392 121.087 228.922 118.031 228.883C110.628 229.305 101.612 230.976 94.115 231.589C89.3876 231.935 83.3745 233.461 78.6609 232.495C68.3639 230.392 60.9936 220.432 60.3292 210.227C59.1111 191.508 64.6921 169.272 76.0493 154.306C87.6616 139.005 104.441 140.285 121.624 138.49C123.401 138.126 131.693 137.658 133.649 137.602Z" fill="url(#paint2_linear_49_28)" fill-opacity="0.33"/>
<path d="M134.218 375.247C133.502 375.195 132.788 375.142 132.073 375.083C125.578 374.539 118.995 373.652 112.502 373.089C97.4138 371.78 87.3176 370.073 77.0019 357.569C65.0844 342.214 58.7114 319.579 59.2255 300.226C59.4796 290.672 66.7955 280.178 76.6492 278.965C83.2447 278.154 92.5269 280.082 99.4226 280.91L130.984 284.512C161.909 287.874 192.996 289.518 224.102 289.442C230.146 288.981 240.828 289.047 247.063 289.162C250.531 288.648 263.536 288.49 267.438 288.5C271.989 287.936 284.474 287.752 289.322 287.752C289.163 294.58 289.355 301.465 289.266 308.307C289.078 320.057 288.633 331.796 287.928 343.526C287.4 351.215 286.784 358.897 286.085 366.573C285.868 368.979 285.054 376.167 285.146 378.184C280.143 378.777 274.946 378.359 269.916 378.771C261.459 378.978 252.221 379.357 243.791 379.169C239.655 379.308 233.03 379.716 229.128 379.519C229.382 383.236 229.602 387.007 230.001 390.708C230.262 399.076 231.573 410.726 232.773 419.14C235.004 434.805 225.598 447.296 209.1 447.889C190.019 448.575 164.249 442.399 149.204 429.967C136.12 419.154 136.338 404.375 135.256 388.678C134.827 385.329 134.19 378.596 134.218 375.247Z" fill="url(#paint3_linear_49_28)" fill-opacity="0.33"/>
<path d="M282.532 121.43L280.651 101.287C279.668 91.0303 277.216 80.7934 284.444 72.3882C289.147 66.9192 295.877 64.3891 303.029 63.9115C321.564 63.0681 349.601 70.2391 363.829 82.2287C376.794 93.1512 375.835 108.98 377.506 124.189C377.869 127.318 378.34 133.716 378.343 136.78C385.611 137.546 392.884 138.262 400.161 138.928C415.378 140.395 424.642 141.552 435.199 154.877C446.398 169.016 453.971 194.931 452.511 212.935C452.014 219.091 448.645 225.64 443.656 229.308C436.566 234.522 431.471 233.724 423.255 232.554C414.416 231.229 405.557 230.03 396.684 228.955C392.116 228.415 385.452 227.967 381.231 227.281C375.967 226.256 364.29 225.603 358.493 225.145C345.406 224.134 332.295 223.412 319.175 222.983C309.815 222.657 297.578 222.321 288.287 222.894C272.543 223.026 256.717 223.623 241.009 223.689C236.257 224.203 228.011 224.321 223.064 224.414C223.37 222.051 223.159 214.42 223.149 211.571C223.146 204.863 223.248 198.156 223.459 191.451C224.082 172.362 225.45 153.305 227.569 134.324C232.203 133.816 239.338 133.897 244.341 133.672C257.135 133.786 270.674 133.106 283.613 133C282.984 130.571 282.862 124.453 282.532 121.43Z" fill="url(#paint4_linear_49_28)" fill-opacity="0.33"/>
<g opacity="0.45">
<path d="M394.364 282.943C401.401 282.383 408.427 281.707 415.44 280.91C425.937 279.819 435.765 277.495 444.433 285.102C449.845 289.851 452.406 297.118 452.791 304.25C453.128 322.047 446.348 346.986 434.569 360.199C426.158 369.638 416.208 371.774 404.301 372.766C399.651 373.151 395.201 373.804 390.538 374.054C393.402 347.629 397.152 308.894 394.364 282.943Z" fill="url(#paint5_linear_49_28)" fill-opacity="0.12"/>
<path d="M118.031 228.883C110.628 229.305 101.612 230.976 94.115 231.589C89.3876 231.935 83.3745 233.461 78.6609 232.495C68.3639 230.392 60.9936 220.432 60.3292 210.227C59.1111 191.508 64.6921 169.272 76.0493 154.306C87.6616 139.005 104.441 140.284 121.624 138.49C121.141 146.128 119.616 155.362 118.877 163.342C117.565 178.773 116.914 194.253 116.926 209.739C116.947 214.165 117.117 224.915 118.031 228.883Z" fill="url(#paint6_linear_49_28)" fill-opacity="0.12"/>
<path d="M282.532 121.43L280.65 101.287C279.668 91.0303 277.216 80.7934 284.444 72.3882C289.147 66.9192 295.877 64.3891 303.029 63.9115C321.564 63.0681 349.601 70.2391 363.829 82.2287C376.794 93.1512 375.835 108.98 377.506 124.189C377.869 127.318 378.34 133.716 378.343 136.78C357.096 134.934 335.795 133.735 314.475 133.184C305.438 132.932 292.505 132.57 283.613 133C282.984 130.571 282.862 124.453 282.532 121.43Z" fill="url(#paint7_linear_49_28)" fill-opacity="0.12"/>
<path d="M134.218 375.248C145.746 375.785 157.77 377.143 169.439 377.848C189.309 379.11 209.218 379.667 229.128 379.519C229.382 383.236 229.602 387.007 230.001 390.708C230.262 399.076 231.573 410.726 232.773 419.14C235.004 434.805 225.598 447.296 209.1 447.889C190.019 448.575 164.249 442.399 149.204 429.967C136.12 419.154 136.338 404.375 135.256 388.678C134.827 385.329 134.19 378.596 134.218 375.248Z" fill="url(#paint8_linear_49_28)" fill-opacity="0.12"/>
</g>
<path d="M382.493 283.869C385.716 283.378 391.039 283.147 394.364 282.943C397.152 308.894 393.402 347.629 390.538 374.054C386.52 374.532 382.496 374.947 378.465 375.297C378.983 372.822 379.747 360.258 380.008 356.847C381.349 340.019 382.173 323.154 382.486 306.277C382.608 300.453 382.971 289.482 382.493 283.869Z" fill="white" fill-opacity="0.12"/>
<path d="M133.649 137.602C132.482 147.567 131.866 158.84 131.314 168.854C130.456 182.303 129.947 195.772 129.788 209.247C129.751 212.34 129.421 225.781 129.74 228.148C126.559 228.392 121.087 228.922 118.031 228.883C117.117 224.915 116.947 214.165 116.926 209.739C116.914 194.253 117.565 178.773 118.877 163.342C119.616 155.362 121.141 146.128 121.624 138.49C123.402 138.126 131.693 137.658 133.649 137.602Z" fill="white" fill-opacity="0.12"/>
<path d="M134.218 375.248C145.746 375.785 157.77 377.143 169.439 377.848C189.309 379.11 209.218 379.667 229.128 379.519C229.382 383.236 229.603 387.007 230.001 390.708C221.769 394.175 163.304 390.21 151.919 389.231C149.549 389.027 136.896 387.35 135.738 387.676L135.256 388.678C134.827 385.329 134.19 378.596 134.218 375.248Z" fill="white" fill-opacity="0.12"/>
<path d="M282.532 121.43C285.452 120.549 291.586 120.547 294.793 120.476C320.018 119.922 345.382 121.525 370.434 124.449C371.808 124.609 376.31 125.463 377.256 124.943L377.506 124.189C377.869 127.318 378.34 133.716 378.343 136.78C357.096 134.934 335.795 133.735 314.475 133.184C305.438 132.932 292.505 132.57 283.613 133C282.984 130.571 282.862 124.453 282.532 121.43Z" fill="white" fill-opacity="0.12"/>
<path d="M288.287 222.894C297.578 222.321 309.815 222.657 319.175 222.983C332.295 223.412 345.406 224.134 358.493 225.145C364.29 225.604 375.967 226.256 381.231 227.281C381.593 232.179 381.672 236.931 381.778 241.845C380.334 241.45 371.053 240.784 369.072 240.616C349.575 238.82 330.021 237.732 310.444 237.356C306.994 237.257 291.576 236.888 288.57 237.402C288.382 234.703 288.043 225.238 288.287 222.894Z" fill="white" fill-opacity="0.08"/>
<path d="M223.505 266.431C223.835 271.233 223.795 276.309 223.937 281.147C223.996 283.22 224.27 287.554 224.102 289.442C192.996 289.518 161.909 287.874 130.984 284.512C130.313 281.674 130.306 271.932 130.244 268.673C131.081 269.813 138.131 270.166 139.982 270.357C158.662 272.304 177.409 273.534 196.184 274.035C204.38 274.305 215.82 273.989 223.525 274.588C223.354 271.873 223.347 269.147 223.505 266.431Z" fill="white" fill-opacity="0.08"/>
<path d="M267.438 288.5C271.989 287.936 284.474 287.752 289.322 287.752C289.163 294.581 289.355 301.465 289.266 308.307C289.078 320.057 288.633 331.796 287.928 343.526C287.4 351.215 286.784 358.897 286.085 366.573C285.868 368.979 285.054 376.167 285.146 378.184C280.143 378.777 274.946 378.359 269.916 378.771C270.295 378.227 270.612 371.177 270.77 369.846C274.026 342.62 274.155 315.931 274.066 288.569C271.726 288.609 269.771 288.622 267.438 288.5Z" fill="white" fill-opacity="0.08"/>
<path d="M227.569 134.324C232.203 133.816 239.338 133.897 244.341 133.672C243.379 134.124 243.013 134.023 242.842 135.005C242.186 138.726 241.823 143.131 241.441 146.869C239.486 165.698 238.419 184.609 238.244 203.538C238.165 208.563 237.76 218.379 238.102 223.03C238.831 223.827 239.579 223.557 241.009 223.689C236.257 224.203 228.011 224.322 223.064 224.414C223.37 222.051 223.159 214.42 223.149 211.571C223.146 204.863 223.248 198.156 223.459 191.452C224.082 172.363 225.45 153.305 227.569 134.324Z" fill="white" fill-opacity="0.08"/>
<path d="M432 4H80C38.0264 4 4 38.0264 4 80V432C4 473.974 38.0264 508 80 508H432C473.974 508 508 473.974 508 432V80C508 38.0264 473.974 4 432 4Z" stroke="url(#paint9_linear_49_28)" stroke-opacity="0.44" stroke-width="7.95754"/>
</g>
<defs>
<radialGradient id="paint0_radial_49_28" cx="0" cy="0" r="1" gradientUnits="userSpaceOnUse" gradientTransform="translate(256 256) rotate(90) scale(256)">
<stop stop-color="white" stop-opacity="0.12"/>
<stop offset="1" stop-color="white" stop-opacity="0"/>
</radialGradient>
<linearGradient id="paint1_linear_49_28" x1="313.272" y1="233.53" x2="348.507" y2="441.212" gradientUnits="userSpaceOnUse">
<stop stop-color="white"/>
<stop offset="1" stop-color="white"/>
</linearGradient>
<linearGradient id="paint2_linear_49_28" x1="197.178" y1="277.532" x2="165.083" y2="69.7698" gradientUnits="userSpaceOnUse">
<stop stop-color="white"/>
<stop offset="1" stop-color="white"/>
</linearGradient>
<linearGradient id="paint3_linear_49_28" x1="266.676" y1="303.37" x2="70.7208" y2="355.697" gradientUnits="userSpaceOnUse">
<stop stop-color="white"/>
<stop offset="1" stop-color="white"/>
</linearGradient>
<linearGradient id="paint4_linear_49_28" x1="236.517" y1="216.53" x2="438.043" y2="151.806" gradientUnits="userSpaceOnUse">
<stop stop-color="white"/>
<stop offset="1" stop-color="white"/>
</linearGradient>
<linearGradient id="paint5_linear_49_28" x1="455.339" y1="313.548" x2="380.641" y2="333.576" gradientUnits="userSpaceOnUse">
<stop stop-color="white"/>
<stop offset="1" stop-color="white"/>
</linearGradient>
<linearGradient id="paint6_linear_49_28" x1="57.8581" y1="193.425" x2="127.897" y2="181.146" gradientUnits="userSpaceOnUse">
<stop stop-color="white"/>
<stop offset="1" stop-color="white"/>
</linearGradient>
<linearGradient id="paint7_linear_49_28" x1="322.767" y1="61.7831" x2="331.204" y2="130.014" gradientUnits="userSpaceOnUse">
<stop stop-color="white"/>
<stop offset="1" stop-color="white"/>
</linearGradient>
<linearGradient id="paint8_linear_49_28" x1="183.657" y1="375.248" x2="183.657" y2="447.941" gradientUnits="userSpaceOnUse">
<stop stop-color="white"/>
<stop offset="1" stop-color="white"/>
</linearGradient>
<linearGradient id="paint9_linear_49_28" x1="2.59623e-06" y1="37.9048" x2="512" y2="474.096" gradientUnits="userSpaceOnUse">
<stop stop-color="white" stop-opacity="0.12"/>
<stop offset="1" stop-color="white" stop-opacity="0.08"/>
</linearGradient>
<clipPath id="clip0_49_28">
<rect width="512" height="512" fill="white"/>
</clipPath>
</defs>
</svg>
