<svg width="512" height="512" viewBox="0 0 512 512" fill="none" xmlns="http://www.w3.org/2000/svg">
<g clip-path="url(#clip0_18_452)">
<rect width="512" height="512" rx="60" fill="white" fill-opacity="0.15"/>
<path d="M0 228L2.84444 231.947L5.68889 235.89L8.53333 239.823L11.3778 243.741L14.2222 247.64L17.0667 251.516L19.9111 255.362L22.7556 259.176L25.6 262.951L28.4444 266.684L31.2889 270.369L34.1333 274.003L36.9778 277.581L39.8222 281.099L42.6667 284.552L45.5111 287.936L48.3556 291.247L51.2 294.481L54.0444 297.634L56.8889 300.702L59.7333 303.681L62.5778 306.569L65.4222 309.36L68.2667 312.053L71.1111 314.643L73.9556 317.127L76.8 319.503L79.6444 321.767L82.4889 323.917L85.3333 325.951L88.1778 327.865L91.0222 329.657L93.8667 331.326L96.7111 332.868L99.5556 334.283L102.4 335.568L105.244 336.722L108.089 337.744L110.933 338.632L113.778 339.386L116.622 340.003L119.467 340.484L122.311 340.828L125.156 341.035L128 341.104L130.844 341.035L133.689 340.828L136.533 340.484L139.378 340.003L142.222 339.386L145.067 338.632L147.911 337.744L150.756 336.722L153.6 335.568L156.444 334.283L159.289 332.868L162.133 331.326L164.978 329.657L167.822 327.865L170.667 325.951L173.511 323.917L176.356 321.767L179.2 319.503L182.044 317.127L184.889 314.643L187.733 312.053L190.578 309.36L193.422 306.569L196.267 303.681L199.111 300.702L201.956 297.634L204.8 294.481L207.644 291.247L210.489 287.936L213.333 284.552L216.178 281.099L219.022 277.581L221.867 274.003L224.711 270.369L227.556 266.684L230.4 262.951L233.244 259.176L236.089 255.362L238.933 251.516L241.778 247.64L244.622 243.741L247.467 239.823L250.311 235.89L253.156 231.947L256 228L258.844 224.053L261.689 220.11L264.533 216.177L267.378 212.259L270.222 208.36L273.067 204.484L275.911 200.638L278.756 196.824L281.6 193.049L284.444 189.316L287.289 185.631L290.133 181.997L292.978 178.419L295.822 174.901L298.667 171.448L301.511 168.064L304.356 164.753L307.2 161.519L310.044 158.366L312.889 155.298L315.733 152.319L318.578 149.431L321.422 146.64L324.267 143.947L327.111 141.357L329.956 138.873L332.8 136.497L335.644 134.233L338.489 132.083L341.333 130.049L344.178 128.135L347.022 126.343L349.867 124.675L352.711 123.132L355.556 121.717L358.4 120.432L361.244 119.278L364.089 118.256L366.933 117.368L369.778 116.614L372.622 115.997L375.467 115.516L378.311 115.172L381.156 114.965L384 114.896L386.844 114.965L389.689 115.172L392.533 115.516L395.378 115.997L398.222 116.614L401.067 117.368L403.911 118.256L406.756 119.278L409.6 120.432L412.444 121.717L415.289 123.132L418.133 124.675L420.978 126.343L423.822 128.135L426.667 130.049L429.511 132.083L432.356 134.233L435.2 136.497L438.044 138.873L440.889 141.357L443.733 143.947L446.578 146.64L449.422 149.431L452.267 152.319L455.111 155.298L457.956 158.366L460.8 161.519L463.644 164.753L466.489 168.064L469.333 171.448L472.178 174.901L475.022 178.419L477.867 181.997L480.711 185.631L483.556 189.316L486.4 193.049L489.244 196.824L492.089 200.638L494.933 204.484L497.778 208.36L500.622 212.259L503.467 216.177L506.311 220.11L509.156 224.053L512 228V510.76H0V228Z" fill="white" fill-opacity="0.15"/>
<path d="M295.353 206.549C296.467 206.318 304.931 197.696 306.622 196.147C326.139 178.264 344.615 159.449 363.632 141.03C369.399 135.442 376.012 127.842 382.582 123.252C385.613 121.607 405.234 120.392 408.941 121.777C410.059 126.041 406.136 144.394 403.97 148.049C402.013 151.357 391.023 160.689 387.547 163.753C381.856 168.695 376.251 173.737 370.732 178.876C369.068 183.176 338.447 206.971 339.1 208.928C340.078 209.569 340.413 209.61 340.987 210.54C341.014 211.322 340.861 211.366 341.199 211.782L341.929 211.311C342.002 211.937 341.972 211.731 341.767 212.388C343.554 212.594 346.764 209.959 347.905 209.943C352.668 209.88 361.281 212.108 364.703 215.417C366.59 217.241 362.557 222.146 361.364 223.578C360.093 225.412 359.234 227.455 357.377 228.934C352.077 233.306 343.796 234.742 337.555 237.375C333.058 239.272 332.968 237.687 331.917 242.635C331.578 244.223 328.517 246.26 329.665 249.035C329.821 249.593 330.384 250.302 330.981 250.292C345.037 250.007 359.274 249.142 373.326 248.581C379.299 248.339 385.597 247.818 391.387 248.455C405.943 248.405 420.479 247.5 435.029 247.119C438.262 247.036 441.496 246.92 444.729 247.099C451.203 251.781 457.342 256.909 463.106 262.441C463.958 263.399 464.986 264.397 464.84 265.803C464.525 268.798 449.714 278.267 446.852 280.044C445.247 281.039 443.532 281.991 441.645 282.29C437.529 282.946 432.87 282.396 428.691 282.29C419.183 282.044 409.618 281.54 400.113 281.593C391.802 282.29 383.766 281.504 375.449 281.238C367.897 280.999 360.451 280.986 352.92 280.568C350.681 280.446 337.79 279.719 336.304 280.104L335.678 281.072C333.648 281.321 333.774 280.538 331.996 281.099C332.225 281.391 332.063 281.258 332.557 281.384C333.688 282.76 336.046 283.049 337.764 283.437C338.241 282.804 338.516 282.372 339.113 281.852C342.944 282.429 342.874 283.626 345.564 281.994C347.73 282.601 347.7 285.463 346.755 287.128L347.461 287.752L348.071 287.612L348.346 287.951C350.721 290.823 353.368 291.012 356.757 292.527C362.64 295.217 368.54 297.867 374.457 300.48C375.956 301.137 381.544 303.392 382.111 304.211C383.587 306.347 388.515 314.436 388.565 316.738C389.975 319.48 394.545 327.543 389.888 328.853C386.234 329.877 380.586 330.647 376.722 331.29C375.15 332.604 373.813 332.043 372.026 332.431C364.544 334.043 359.884 329.483 353.739 326.597C350.744 325.191 325.645 311.328 324.206 311.498C323.121 312.552 320.83 314.927 320.505 316.393C322.209 322.823 355.092 351.179 359.43 359.563C367.005 367.967 375.153 376.072 382.831 384.383C386.011 387.826 391.222 392.88 393.858 396.498C394.346 402.803 394.999 409.499 395.032 415.803C395.045 418.311 394.807 422.479 391.493 422.038C388.197 421.803 385.06 420.957 381.866 420.234C377.836 419.302 370 417.429 367.101 414.935C362.126 410.653 357.009 404.305 352.678 399.327L335.847 380.072C334.732 378.42 329.333 372.457 327.648 370.484L305.375 344.828C302.878 341.919 299.276 338.106 297.104 335.194C296.497 334.53 296.401 334.318 295.625 333.9L295.416 334.696L295.114 335.247C293.718 328.544 282.16 318.572 277.659 313.06C272.775 307.08 268.269 300.726 263.696 294.504C262.283 292.584 259.262 289.33 258.828 287.012L259.568 287.36C260.565 284.455 260.112 283.228 260.67 280.19L260.701 279.172C260.626 269.956 257.724 269.123 254.727 260.809L254.588 260.411C254.842 259.144 255.154 257.973 255.478 256.723C258.716 253.606 262.156 252.282 265.617 249.679C267.328 248.392 269.51 245.407 271.305 243.656L271.542 243.431C277.62 235.289 283.059 226.235 288.587 217.705C289.897 215.685 294.53 207.328 295.353 206.549Z" fill="white" fill-opacity="0.2"/>
<path d="M255.478 256.723C258.716 253.605 262.156 252.282 265.617 249.679C267.328 248.392 269.51 245.407 271.305 243.656L271.542 243.431C268.049 250.714 256.268 255.154 255.523 258.719L255.748 259.154C258.646 259.963 271.226 259.555 274.139 257.734C277.938 255.36 281.596 250.896 285.891 248.853C283.991 251.277 277.189 256.773 274.496 258.365C270.12 260.951 262.136 260.129 257.205 260.182C256.56 260.192 256.194 260.736 255.818 261.134C255.511 262.736 256.282 263.419 257.316 264.493C257.209 263.833 257.085 263.213 256.952 262.557C258.009 262.321 258.651 263.435 259.006 263.392C265.482 262.62 271.834 261.147 278.402 261.011C280.233 260.975 281.218 261.081 282.929 260.281C284.395 261.578 286.12 261.777 287.977 262.235C296.931 264.457 307.813 271.992 316.615 273.544C319.672 274.085 339.352 275.474 341.515 274.95C353.049 275.172 363.645 275.849 375.08 276.336L406.58 277.401C417.395 277.829 428.3 278.499 439.121 278.36C441.874 278.323 446.149 277.315 447.508 274.688C452.831 271.723 456.453 269.07 461.491 265.929C462.539 265.114 462.333 265.594 462.605 264.59L461.948 263.532C462.214 263.193 462.787 262.726 463.106 262.441C463.958 263.399 464.986 264.397 464.84 265.803C464.525 268.798 449.714 278.267 446.852 280.044C445.247 281.039 443.532 281.991 441.645 282.29C437.529 282.946 432.87 282.396 428.691 282.29C419.183 282.044 409.618 281.54 400.113 281.593C391.802 282.29 383.766 281.504 375.449 281.238C367.897 280.999 360.451 280.986 352.92 280.568C350.681 280.446 337.79 279.719 336.304 280.104L335.678 281.072C333.648 281.321 333.774 280.538 331.996 281.099C332.225 281.391 332.063 281.258 332.557 281.384C333.688 282.76 336.046 283.049 337.764 283.437C338.241 282.804 338.516 282.372 339.113 281.852C342.944 282.429 342.874 283.626 345.564 281.994C347.73 282.601 347.7 285.463 346.755 287.128L347.461 287.752L348.071 287.612L348.346 287.951C350.721 290.823 353.368 291.012 356.757 292.527C362.64 295.217 368.54 297.867 374.457 300.48C375.956 301.137 381.544 303.392 382.111 304.211C383.587 306.347 388.515 314.436 388.565 316.738C389.975 319.48 394.545 327.543 389.888 328.853C386.234 329.877 380.586 330.647 376.722 331.29C375.15 332.603 373.813 332.043 372.026 332.431C364.544 334.043 359.884 329.483 353.739 326.597C350.744 325.191 325.645 311.328 324.206 311.498C323.121 312.552 320.83 314.927 320.505 316.393C322.209 322.823 355.092 351.179 359.43 359.563C367.005 367.967 375.153 376.072 382.831 384.383C386.011 387.826 391.222 392.88 393.858 396.498C394.346 402.803 394.999 409.499 395.032 415.803C395.045 418.311 394.807 422.479 391.493 422.038C388.197 421.803 385.06 420.957 381.866 420.234C377.836 419.302 370 417.428 367.101 414.934C362.126 410.653 357.009 404.305 352.678 399.327L335.847 380.072C334.732 378.42 329.333 372.457 327.648 370.484L305.375 344.828C302.878 341.919 299.276 338.105 297.104 335.194C296.497 334.53 296.401 334.318 295.625 333.9L295.416 334.696L295.114 335.247C293.718 328.544 282.16 318.572 277.659 313.06C272.775 307.08 268.269 300.726 263.696 294.504C262.283 292.584 259.262 289.33 258.828 287.012L259.568 287.36C260.565 284.455 260.112 283.228 260.67 280.19L260.701 279.172C260.626 269.956 257.724 269.123 254.727 260.809L254.588 260.411C254.842 259.144 255.154 257.973 255.478 256.723Z" fill="white" fill-opacity="0.15"/>
<path d="M260.701 279.172L260.883 278.539C261.105 277.743 261.131 277.511 261.188 276.665L261.586 276.476C270.683 282.286 280.989 287.009 289.814 293.075C297.356 298.262 305.819 310.267 312.956 316.807C315.971 319.567 323.257 326.982 325.546 330.1L324.949 330.866L325.27 331.224C328.875 335.243 332.547 340.649 336.218 345.03C344.605 354.877 353.086 364.641 361.662 374.321C363.018 375.867 369.476 383.524 370.59 384.244L371.744 385.833C375.618 390.081 379.634 394.2 383.783 398.183C380.798 397.938 377.448 397.248 374.666 399.171C370.991 401.712 374.102 412.6 376.977 414.493L381.627 416.354L381.375 416.762C383.886 418.254 390.625 419.219 392.027 420.98L391.935 421.375C389.494 421.431 384.681 419.939 381.912 419.657L381.866 420.234C377.836 419.302 370 417.429 367.101 414.935C362.126 410.653 357.009 404.305 352.678 399.327L335.847 380.072C334.732 378.42 329.333 372.457 327.648 370.484L305.375 344.828C302.878 341.919 299.276 338.106 297.104 335.194C296.497 334.53 296.401 334.318 295.625 333.9L295.416 334.696L295.114 335.247C293.718 328.544 282.16 318.572 277.659 313.06C272.775 307.08 268.269 300.726 263.695 294.504C262.283 292.584 259.262 289.33 258.828 287.012L259.568 287.36C260.565 284.455 260.112 283.228 260.67 280.19L260.701 279.172Z" fill="white" fill-opacity="0.15"/>
<path d="M376.977 414.493C374.493 414.357 371.12 412.822 369.512 410.998C360.302 400.541 349.769 389.494 341.382 378.5L341.607 378.377C343.292 379.425 353.809 392.754 356.737 395.56C358.588 395.918 356.734 395.298 358.269 394.814C359.082 395.371 359.546 395.818 360.518 395.891C361.486 395.308 363.665 392.286 364.633 391.159C367.114 390.393 371.24 388.628 371.744 385.833C375.618 390.081 379.634 394.2 383.783 398.183C380.798 397.938 377.448 397.248 374.666 399.171C370.991 401.712 374.102 412.6 376.977 414.493Z" fill="white" fill-opacity="0.2"/>
<path d="M260.67 280.19C260.746 282.237 260.808 284.283 260.856 286.332C263.168 287.947 265.57 292.607 267.447 295.101C270.593 299.28 274.051 303.316 277.125 307.518C278.575 312.589 280.114 313.992 284.402 317.252L282.86 317.607C285.088 321.102 294.119 329.957 297.104 333.794C297.163 334.139 297.22 334.487 297.276 334.835L297.104 335.194C296.497 334.53 296.401 334.318 295.625 333.9L295.416 334.696L295.114 335.247C293.718 328.544 282.16 318.572 277.659 313.06C272.775 307.08 268.269 300.726 263.695 294.504C262.283 292.584 259.262 289.33 258.828 287.012L259.568 287.36C260.565 284.455 260.112 283.228 260.67 280.19Z" fill="white" fill-opacity="0.15"/>
<path d="M277.126 307.518C280.896 308.828 284.481 315.849 287.191 319.039C288.862 321.009 297.406 328.935 297.575 330.667C296.397 330.302 295.648 328.285 294.547 327.174C291.217 323.812 287.722 320.618 284.402 317.252C280.114 313.992 278.575 312.589 277.126 307.518Z" fill="white" fill-opacity="0.15"/>
<path d="M376.977 414.493C374.102 412.6 370.991 401.712 374.666 399.171C377.448 397.248 380.798 397.938 383.783 398.183L384.479 398.412C389.109 404.372 390.23 411.837 390.933 419.269L381.627 416.354L376.977 414.493Z" fill="white" fill-opacity="0.25"/>
<path d="M325.546 330.1C338.271 344.224 352.15 357.384 365.191 371.22C366.504 372.61 372.072 377.946 372.848 379.249C373.346 381.903 375.299 381.296 375.177 383.378C374.274 384.31 374.192 384.367 373.11 385.096C372.978 385.617 372.938 385.581 372.945 386.105L372.755 385.942L372.925 385.816C372.46 385.773 371.492 384.705 371.18 384.367L370.59 384.244C369.476 383.524 363.018 375.867 361.662 374.321C353.086 364.64 344.605 354.877 336.218 345.03C332.547 340.649 328.875 335.243 325.27 331.224L324.949 330.866L325.546 330.1Z" fill="white" fill-opacity="0.25"/>
<path d="M372.848 379.249C378.208 384.516 385.186 392.17 390.618 396.886C389.769 396.89 385.395 397.53 384.748 397.739C384.648 397.961 384.502 398.17 384.479 398.412L383.783 398.183C379.634 394.2 375.618 390.081 371.744 385.833L370.59 384.244L371.18 384.367C371.492 384.705 372.46 385.773 372.925 385.816L372.756 385.942L372.945 386.105C372.938 385.581 372.978 385.617 373.11 385.096C374.192 384.367 374.274 384.31 375.177 383.378C375.299 381.296 373.346 381.903 372.848 379.249Z" fill="white" fill-opacity="0.25"/>
<path d="M390.618 396.886C391.872 397.918 391.885 398.574 391.988 400.339C392.266 405.174 393.649 414.805 392.823 419.382L392.326 419.714C391.994 419.611 391.212 419.392 390.933 419.269C390.23 411.837 389.109 404.372 384.479 398.412C384.502 398.17 384.648 397.961 384.748 397.739C385.395 397.53 389.769 396.89 390.618 396.886Z" fill="white" fill-opacity="0.25"/>
<path d="M262.173 265.704C267.255 265.983 273.629 264.082 277.772 264.712C285.917 265.953 295.26 270.546 303.054 273.73C311.484 277.179 324.687 281.689 332.338 286.415C335.329 287.672 348.273 292.541 350.336 294.063C360.286 297.854 370.384 302.696 380.43 306.629C383.799 312.519 388.177 319.769 390.528 326.01L387.238 326.836C384.058 327.35 380.436 327.99 377.246 328.073C375.843 328.285 374.444 328.488 373.041 328.68C371.707 328.863 369.144 329.231 367.943 328.819C363.168 327.181 358.336 324.395 353.855 322.044C346.741 318.313 339.641 314.589 332.689 310.589C330.597 309.385 326.139 307.259 324.395 305.939C316.074 303.863 276.714 278.462 268.086 272.184C265.823 270.536 263.676 268.145 262.173 265.704Z" fill="white" fill-opacity="0.2"/>
<path d="M375.793 309.607C380.897 310.712 384.788 317.235 385.988 322.044C386.326 323.394 386.588 324.614 387.159 325.898C386.522 326.551 386.532 326.349 385.398 326.511L387.238 326.836C384.058 327.35 380.436 327.99 377.246 328.073C375.06 328.05 374.749 328.216 373.041 326.979C370.859 325.188 369.774 323.871 367.907 321.722C367.588 321.172 367.29 320.611 367.011 320.041C363.559 312.841 371.903 311.69 375.793 309.607Z" fill="white" fill-opacity="0.25"/>
<path d="M350.336 294.063C360.286 297.854 370.384 302.696 380.43 306.629C383.799 312.519 388.177 319.769 390.528 326.01L387.238 326.836L385.398 326.511C386.532 326.349 386.522 326.551 387.159 325.898C386.588 324.614 386.326 323.394 385.988 322.044C384.788 317.235 380.897 310.712 375.793 309.607C374.129 308.931 372.208 307.962 370.623 307.08C363.138 302.915 355.46 299.174 347.859 295.25L347.882 294.922C348.628 294.73 350.505 295.93 351.417 296.391L351.888 296.136L352.061 295.479C351.57 295.177 351.252 294.998 350.728 294.733L350.253 294.491L350.336 294.063Z" fill="white" fill-opacity="0.25"/>
<path d="M324.395 305.939C322.866 304.55 320.754 303.976 319.523 302.735C329.39 307.007 339.176 311.468 348.877 316.111C353.424 318.243 358.001 321.095 362.746 322.575C364.992 323.138 366.172 323.871 368.003 324.329L368.597 323.967C368.53 323.072 368.248 322.548 367.907 321.722C369.774 323.871 370.859 325.188 373.041 326.979C374.749 328.216 375.06 328.05 377.246 328.073C375.843 328.285 374.444 328.488 373.041 328.68C371.708 328.863 369.144 329.231 367.943 328.819C363.168 327.181 358.336 324.395 353.855 322.044C346.741 318.313 339.641 314.589 332.689 310.589C330.597 309.385 326.139 307.259 324.395 305.939Z" fill="white" fill-opacity="0.25"/>
<path d="M367.907 321.722C369.774 323.871 370.859 325.188 373.041 326.979C371.724 329.181 364.69 323.649 362.746 322.575C364.992 323.138 366.172 323.871 368.003 324.329L368.597 323.967C368.53 323.072 368.248 322.548 367.907 321.722Z" fill="white" fill-opacity="0.2"/>
<path d="M347.859 295.25C344.191 294.063 333.489 288.581 330.03 286.455L330.096 286.17C330.845 286.299 331.582 286.375 332.338 286.415C335.329 287.672 348.273 292.541 350.336 294.063L350.253 294.491L350.728 294.733C351.252 294.998 351.57 295.177 352.061 295.479L351.888 296.136L351.417 296.391C350.505 295.93 348.628 294.73 347.882 294.922L347.859 295.25Z" fill="white" fill-opacity="0.25"/>
<path d="M295.353 206.549C296.467 206.318 304.931 197.696 306.622 196.147C326.139 178.264 344.615 159.449 363.632 141.03C369.399 135.442 376.012 127.842 382.582 123.252C385.613 121.607 405.234 120.392 408.941 121.777C410.059 126.041 406.136 144.394 403.97 148.049C402.013 151.357 391.023 160.689 387.547 163.753C381.856 168.695 376.251 173.737 370.732 178.876C362.62 185.568 354.837 193.314 346.917 200.25C343.657 203.106 338.822 207.82 335.382 210.22L334.921 209.907C333.117 211.355 327.619 217.519 326.567 217.731L326.163 217.536C326.279 216.813 326.229 217.038 326.557 216.368C326.338 216.368 317.198 222.68 316.751 223.25L316.233 223.038C306.208 231.564 295.668 240.117 285.891 248.853C281.596 250.896 277.938 255.36 274.139 257.734C271.226 259.555 258.646 259.963 255.748 259.154L255.523 258.719C256.268 255.154 268.049 250.714 271.542 243.431C277.62 235.289 283.059 226.235 288.587 217.705C289.897 215.685 294.53 207.328 295.353 206.549Z" fill="white" fill-opacity="0.2"/>
<path d="M408.941 121.777C410.059 126.041 406.136 144.394 403.97 148.049C402.013 151.357 391.023 160.689 387.547 163.753C381.856 168.695 376.251 173.737 370.732 178.876C362.62 185.568 354.837 193.314 346.917 200.25C343.657 203.106 338.822 207.82 335.382 210.22L334.921 209.907C333.117 211.355 327.619 217.519 326.567 217.731L326.163 217.536C326.279 216.813 326.229 217.038 326.557 216.368C326.338 216.368 317.198 222.68 316.751 223.25L316.233 223.038C318.011 221.293 319.301 217.751 321.052 216.322C326.478 211.886 331.685 207.206 337.007 202.646C338.994 200.945 341.72 198.887 343.395 196.991C343.932 194.782 349.839 191.357 351.656 188.76L351.441 188.571C346.3 191.01 344.539 184.283 341.859 182.404C338.656 183.726 338.795 181.549 335.797 180.557C335.522 180.466 334.51 180.098 334.228 180.244C331.098 181.883 327.648 187.103 324.312 188.028C325.154 187.016 326.342 186.046 327.36 185.202C335.27 178.648 342.078 170.945 349.7 164.081C351.255 162.677 352.903 161.271 354.207 159.627C362.216 152.875 366.862 148.245 374.328 140.995C375.047 140.103 377.458 138.154 378.483 137.552C380.32 135.852 381.71 134.625 383.285 132.69C385.547 128.516 397.105 126.067 401.526 126.346C403.26 126.456 405.101 126.393 406.427 125.309L407.32 123.548C408.378 123.245 408.162 123.066 408.941 121.777Z" fill="white" fill-opacity="0.2"/>
<path d="M408.941 121.777C410.059 126.041 406.136 144.394 403.97 148.049C402.013 151.357 391.023 160.689 387.547 163.753C381.856 168.695 376.251 173.737 370.732 178.876C362.62 185.568 354.837 193.314 346.917 200.25C343.657 203.106 338.822 207.82 335.382 210.22L334.921 209.907C333.117 211.355 327.619 217.519 326.567 217.731L326.163 217.536C326.279 216.813 326.229 217.038 326.557 216.368C326.338 216.368 317.198 222.68 316.751 223.25L316.233 223.038C318.011 221.293 319.301 217.751 321.052 216.322C326.478 211.886 331.685 207.206 337.007 202.646C338.994 200.945 341.72 198.887 343.395 196.991C351.613 190.248 358.737 182.221 366.56 175.035C374.46 167.778 399.884 149.034 403.224 139.95C403.781 138.431 403.953 137.755 403.277 136.255C404.537 132.67 405.588 129.016 406.427 125.309L407.32 123.548C408.378 123.245 408.162 123.066 408.941 121.777Z" fill="white" fill-opacity="0.2"/>
<path d="M383.285 132.69C385.547 128.516 397.105 126.067 401.526 126.346C403.26 126.456 405.101 126.393 406.427 125.309C405.588 129.016 404.537 132.67 403.277 136.255C399.148 142.974 395.891 142.801 388.363 142.667C383.352 138.297 385.703 135.307 383.869 132.705L383.285 132.69Z" fill="white" fill-opacity="0.25"/>
<path d="M384.075 124.798C387.995 124.178 404.388 122.106 407.32 123.548L406.427 125.309C405.101 126.393 403.26 126.456 401.526 126.346C397.105 126.067 385.547 128.516 383.285 132.691C381.71 134.625 380.32 135.852 378.483 137.552C377.458 138.154 375.047 140.103 374.328 140.995C366.862 148.245 362.216 152.875 354.207 159.627C352.903 161.271 351.255 162.677 349.7 164.081C342.078 170.946 335.27 178.648 327.36 185.202C326.342 186.046 325.154 187.016 324.312 188.028C321.181 189.955 320.06 192.391 314.88 195.041C315.994 193.169 320.664 188.946 322.478 187.132C327.91 181.647 333.373 176.193 338.871 170.771C342.191 167.49 346.837 162.404 350.137 159.541C358.329 150.519 367.025 142.367 375.508 133.662C377.986 131.121 382.035 127.396 384.075 124.798Z" fill="white" fill-opacity="0.25"/>
<path d="M314.88 195.041C315.994 193.169 320.664 188.946 322.478 187.132C327.91 181.647 333.373 176.193 338.871 170.771C342.191 167.49 346.837 162.404 350.137 159.541C347.053 165.61 335.644 173.692 331.217 179.394C330.083 180.857 327.366 182.634 326.332 184.237C328.64 184.003 331.429 180.35 333.257 178.707C340.39 172.284 346.098 164.946 354.207 159.627C352.903 161.271 351.255 162.677 349.7 164.081C342.078 170.945 335.27 178.648 327.36 185.202C326.342 186.046 325.154 187.016 324.312 188.028C321.181 189.955 320.06 192.391 314.88 195.041Z" fill="white" fill-opacity="0.2"/>
<path d="M370.732 178.876C369.068 183.176 338.447 206.971 339.1 208.928C340.078 209.569 340.413 209.61 340.987 210.54C341.014 211.322 340.861 211.366 341.199 211.782L341.929 211.311C342.002 211.937 341.972 211.731 341.767 212.388C343.554 212.594 346.764 209.959 347.905 209.943C352.668 209.88 361.281 212.108 364.703 215.417C366.59 217.241 362.557 222.146 361.363 223.578C360.093 225.412 359.234 227.455 357.377 228.934C352.077 233.306 343.796 234.742 337.555 237.375C335.221 238.359 334.074 238.406 333.364 238.915C332.706 239.386 332.422 240.254 331.917 242.635C331.578 244.223 328.517 246.26 329.665 249.035C329.821 249.593 330.384 250.302 330.981 250.292C345.037 250.007 359.274 249.142 373.326 248.581C379.299 248.339 385.597 247.818 391.387 248.455C385.806 249.158 375.462 249.168 369.509 249.417C355.719 250.117 341.916 250.651 328.113 251.019C324.425 251.102 307.498 251.022 305.402 251.695L305.448 252.093C304.48 252.266 304.015 252.16 303.438 252.713C303.16 252.98 302.838 253.188 302.479 253.352C300.404 254.302 297.126 253.801 294.381 254.816C291.041 256.05 285.735 258.305 282.929 260.282C281.218 261.081 280.233 260.975 278.402 261.011C271.834 261.147 265.482 262.62 259.006 263.392C258.651 263.435 258.009 262.321 256.952 262.557C257.084 263.213 257.209 263.833 257.316 264.493C256.282 263.419 255.51 262.736 255.818 261.134C256.194 260.736 256.56 260.192 257.205 260.182C262.136 260.129 270.12 260.951 274.496 258.365C277.188 256.773 283.991 251.277 285.891 248.853C295.668 240.117 306.207 231.564 316.233 223.038L316.75 223.25C317.198 222.68 326.338 216.368 326.557 216.368C326.229 217.038 326.279 216.813 326.163 217.536L326.567 217.731C327.619 217.519 333.117 211.355 334.921 209.907L335.382 210.22C338.821 207.82 343.657 203.106 346.917 200.25C354.837 193.314 362.62 185.568 370.732 178.876Z" fill="white" fill-opacity="0.15"/>
<path d="M316.75 223.25C317.198 222.68 326.338 216.368 326.557 216.368C326.229 217.038 326.279 216.813 326.163 217.536L326.567 217.731C327.618 217.519 333.117 211.355 334.921 209.907L335.382 210.22C332.388 213.409 327.091 217.838 324.591 220.739C328.915 218.813 345.972 211.131 349.882 210.338C352.654 210.995 359.493 212.889 361.977 214.165C360.912 214.427 351.948 211.399 349.719 210.884C344.27 212.625 337.687 215.95 332.321 218.206C329.486 219.396 327.655 220.743 324.488 221.665L324.183 221.462C324.06 220.65 323.987 219.851 323.735 219.078C321.825 220.083 318.637 223.117 316.75 223.25Z" fill="white" fill-opacity="0.15"/>
<path d="M349.706 211.938C351.729 212.634 361.241 215.652 362.378 216.392C362.176 217.363 361.745 217.629 361.032 218.325C359.908 219.917 356.571 223.973 355.221 225.217C341.276 224.431 349.146 221.326 347.269 216.713C347.72 216.667 350.452 215.745 351.325 215.516L349.845 215.241C349.421 214.568 349.384 214.313 349.096 213.546C348.025 213.488 347.733 213.831 346.665 214.363L346.015 214.112C347.239 213.376 348.469 212.651 349.706 211.938Z" fill="white" fill-opacity="0.2"/>
<path d="M349.706 211.938C351.729 212.634 361.241 215.652 362.378 216.392C362.176 217.363 361.745 217.629 361.032 218.325C359.181 217.347 353.626 216.076 351.325 215.516L349.845 215.241C349.421 214.568 349.384 214.313 349.096 213.546C348.025 213.488 347.733 213.831 346.665 214.363L346.015 214.112C347.239 213.376 348.469 212.651 349.706 211.938Z" fill="white" fill-opacity="0.25"/>
<path d="M346.015 214.112L346.665 214.363C347.733 213.831 348.025 213.488 349.096 213.546C349.384 214.313 349.421 214.568 349.845 215.241L351.325 215.516C350.452 215.745 347.72 216.667 347.269 216.713C340.417 218.454 330.103 223.857 324.65 224.769C326.862 223.237 331.545 221.35 334.125 220.073C338.092 218.106 342.052 216.077 346.015 214.112Z" fill="white" fill-opacity="0.25"/>
<path d="M391.387 248.455C405.943 248.405 420.479 247.5 435.029 247.119C438.262 247.036 441.496 246.92 444.729 247.099C451.203 251.781 457.342 256.909 463.106 262.441C462.787 262.726 462.214 263.193 461.948 263.532L462.605 264.59C462.333 265.594 462.539 265.114 461.491 265.929C461.209 265.734 461.026 265.578 460.731 265.468C455.693 263.631 445.207 254.683 440.232 255.386C437.887 255.526 434.806 255.158 432.395 255.065C422.201 254.677 412.002 254.793 401.804 254.468C397.705 254.338 393.344 254.846 389.285 254.435C390.724 253.967 391.921 254.063 393.44 254.043C393.908 253.473 393.742 253.814 393.672 252.866C393.291 253.105 393.46 253.108 393.192 253.052L393.381 252.879C394.744 252.82 395.424 252.66 396.777 252.385C388.509 252.302 380.228 253.221 371.877 253.131C362.68 252.677 349.574 253.98 340.334 254.405C328.899 254.932 317.417 255.264 306.135 257.287C301.206 258.169 294.995 259.688 289.98 260.398C289.34 260.487 287.771 259.585 287.098 259.204C285.835 259.048 285.052 259.708 283.891 260.341C285.49 260.961 286.906 261.22 288.504 261.674C298.563 264.53 307.063 270.745 317.258 273.229C321.049 274.151 339.578 273.71 341.515 274.95C339.352 275.474 319.672 274.085 316.615 273.544C307.813 271.992 296.931 264.457 287.977 262.235C286.12 261.777 284.395 261.578 282.929 260.282C285.735 258.305 291.041 256.05 294.381 254.816C297.601 253.625 301.555 254.521 303.438 252.713C304.015 252.16 304.48 252.266 305.448 252.093L305.402 251.695C307.498 251.022 324.425 251.102 328.113 251.019C341.916 250.651 355.719 250.117 369.509 249.417C375.462 249.168 385.806 249.158 391.387 248.455Z" fill="white" fill-opacity="0.2"/>
<path d="M396.777 252.385L444.325 249.291C448.779 252.226 452.841 255.97 456.95 259.37C457.707 259.993 461.302 263.207 461.948 263.532L462.605 264.59C462.333 265.594 462.539 265.114 461.491 265.929C461.209 265.734 461.026 265.578 460.731 265.468C455.693 263.631 445.207 254.683 440.232 255.386C437.887 255.526 434.806 255.158 432.395 255.065C422.201 254.677 412.002 254.793 401.804 254.468C397.705 254.338 393.344 254.846 389.285 254.435C390.724 253.967 391.921 254.063 393.44 254.043C393.908 253.473 393.742 253.814 393.672 252.866C393.291 253.105 393.46 253.108 393.192 253.052L393.381 252.879C394.744 252.82 395.423 252.66 396.777 252.385Z" fill="white" fill-opacity="0.25"/>
<path d="M440.232 255.386C445.207 254.683 455.693 263.631 460.731 265.468C461.026 265.578 461.209 265.734 461.491 265.929C456.453 269.07 452.831 271.723 447.508 274.688C444.421 273.667 437.529 270.012 435.818 267.054C433.334 262.759 439.857 258 440.232 255.386Z" fill="white" fill-opacity="0.25"/>
<path d="M371.877 253.131C380.228 253.221 388.509 252.302 396.777 252.385C395.423 252.66 394.744 252.82 393.381 252.879L393.192 253.052C393.46 253.108 393.291 253.105 393.672 252.866C393.742 253.814 393.908 253.473 393.44 254.043C391.921 254.063 390.724 253.967 389.285 254.435C386.353 254.418 368.593 254.405 367.535 253.609C369.097 253.526 370.338 253.347 371.877 253.131Z" fill="white" fill-opacity="0.25"/>
<path d="M305.166 145.203C307.176 142.707 320.445 136.067 322.684 137.776C324.78 139.376 325.97 151.185 326.139 154.381C323.649 159.35 319.745 165.113 316.913 170.026C309.869 182.236 302.211 194.25 295.353 206.549C294.53 207.328 289.897 215.685 288.587 217.705C283.059 226.235 277.62 235.289 271.542 243.431L271.305 243.656C269.51 245.407 267.328 248.392 265.617 249.679C262.156 252.282 258.716 253.605 255.478 256.723C255.154 257.973 254.842 259.144 254.588 260.411L254.727 260.809C257.724 269.123 260.626 269.956 260.701 279.172L260.67 280.19C260.112 283.228 260.565 284.455 259.568 287.36L258.828 287.012C259.262 289.33 262.283 292.584 263.695 294.504C268.269 300.726 272.775 307.08 277.659 313.06C282.16 318.572 293.718 328.544 295.114 335.247L295.416 334.696L295.625 333.9C296.401 334.318 296.497 334.53 297.104 335.194C299.276 338.105 302.878 341.919 305.375 344.828L327.648 370.484C329.333 372.457 334.732 378.42 335.847 380.072C335.538 379.989 335.227 379.903 334.915 379.82C330.159 374.686 324.959 368.239 320.442 363.102C313.938 355.706 307.75 348.861 301.482 341.316C300.891 340.606 299.339 338.295 298.474 338.54C298.152 340.148 308.711 362.299 309.856 365.423C310.632 367.542 313.321 371.993 313.739 374.384C314.19 376.974 310.499 393.994 306.433 392.422C301.783 390.625 293.718 385.421 291.174 380.894C289.476 378.009 290.176 378.175 289.197 375.744C285.669 366.975 282.2 358.09 278.661 349.318C278.625 349.226 277.669 348.974 277.756 348.987C277.225 348.901 274.844 348.705 274.437 348.4C273.247 347.498 272.013 345.027 270.439 344.798C270.01 346.178 270.022 346.291 270.017 347.756L269.687 348.3L269.283 348.204L269.01 347.398C268.414 348.771 268.498 353.205 268.777 354.84C269.438 358.711 268.901 363.148 269.049 367.068L270.11 398.677C270.23 403.582 270.935 408.6 269.894 413.419C270.131 423.726 270.791 434.701 270.916 444.816C270.053 445.97 268.344 448.384 267.454 449.366C264.451 454.082 258.675 460.98 254.391 464.36C252.598 464.734 250.77 463.716 249.732 462.327C246.11 457.475 238.096 447.628 236.766 441.967C235.614 437.069 236.153 426.114 236.241 420.931C236.394 413.432 236.483 405.934 236.508 398.432C235.582 392.81 236.198 382.208 236.242 376.288C236.332 364.024 237.671 349.614 236.744 337.568C234.533 339.691 229.15 337.303 228.525 338.324C221.202 350.297 215.728 363.798 207.934 375.429C207.878 375.512 195.682 380.921 194.858 381.236L194.333 380.984C188.616 383.047 186.178 384.781 184.936 377.283C184.591 373.738 184.27 370.222 183.786 366.69C179.537 361.178 187.467 352.751 189.324 347.7C188.792 347.269 188.571 347.027 188.184 346.46C184.042 347.093 152.986 381.667 147.018 383.703C139.864 390.313 129.989 400.014 122.534 405.881C117.618 406.192 103.693 407.317 99.715 406.335C93.1637 405.847 98.0551 395.255 98.3788 391.185C98.5294 389.288 100.698 381.617 101.541 380.37C106.378 373.204 114.879 367.887 121.161 361.742L121.441 361.463C122.996 358.532 130.331 352.625 133.163 350.161C140.81 343.468 148.542 336.872 156.357 330.378C158.461 328.607 169.806 319.484 170.056 318.104C169.46 317.454 169.321 317.351 168.894 316.595L168.905 315.978C167.964 314.963 167.318 314.489 165.991 314.028L165.857 312.565C164.059 311.922 151.825 318.754 149.595 318.545C145.98 318.207 136.113 314.462 133.786 311.869C132.585 307.379 141.114 298.155 144.978 295.847C146.161 295.141 149.827 294.046 151.354 293.529L165.597 288.723C167.117 288.209 173.323 286.425 173.742 285.327C172.872 283.832 170.928 281.278 171.495 279.689C170.085 279.02 114.305 281.437 107.108 280.933C109.565 280.512 115.067 280.502 117.861 280.422L138.093 279.822C152.385 279.218 166.685 278.804 180.987 278.582C183.801 278.545 192.793 278.074 194.935 278.247C198.197 275.279 208.759 275.428 213.409 275.322C218.797 275.793 221.4 275.783 225.693 272.201C226.294 271.7 226.794 271.262 227.557 271.153C231.024 268.616 239.622 264.61 240.913 262.013C244.698 261.625 248.614 262.736 251.019 259.479C253.87 255.595 253.939 250.508 254.073 245.875L254.393 243.795C254.774 241.212 255.14 239.991 255.867 237.444C258.391 233.06 262.066 224.935 264.05 220.265C264.138 219.947 264.233 219.628 264.333 219.313C265.289 216.362 265.878 217.595 267.082 216.037C275.238 201.651 282.969 186.834 290.869 172.29C293.127 168.129 304.519 148.018 305.166 145.203Z" fill="white" fill-opacity="0.2"/>
<path d="M305.166 145.203C307.176 142.707 320.445 136.067 322.684 137.776C324.78 139.376 325.97 151.185 326.139 154.381C323.649 159.35 319.745 165.113 316.913 170.026C309.869 182.236 302.211 194.25 295.353 206.549C294.53 207.328 289.897 215.685 288.587 217.705C283.059 226.235 277.62 235.289 271.542 243.431L271.305 243.656C269.51 245.407 267.328 248.392 265.617 249.679C262.156 252.282 258.716 253.605 255.478 256.723C255.154 257.973 254.842 259.144 254.588 260.411L254.727 260.809C257.724 269.123 260.626 269.956 260.701 279.172L260.67 280.19C260.112 283.228 260.565 284.455 259.568 287.36L258.828 287.012C259.262 289.33 262.283 292.584 263.696 294.504C268.269 300.726 272.775 307.08 277.659 313.06C282.16 318.572 293.718 328.544 295.114 335.247L295.416 334.696L295.625 333.9C296.401 334.318 296.497 334.53 297.104 335.194C299.276 338.105 302.878 341.919 305.375 344.828L327.648 370.484C329.333 372.457 334.732 378.42 335.847 380.072C335.538 379.989 335.226 379.903 334.915 379.82C330.159 374.686 324.959 368.239 320.442 363.102C313.938 355.706 307.75 348.861 301.482 341.316C300.891 340.606 299.339 338.295 298.474 338.54C298.152 340.148 308.711 362.299 309.856 365.423C310.632 367.542 313.321 371.993 313.739 374.384C314.19 376.974 310.499 393.994 306.433 392.422C301.783 390.625 293.718 385.421 291.174 380.894C289.476 378.009 290.176 378.175 289.197 375.744C285.669 366.975 282.2 358.09 278.661 349.318C278.625 349.226 277.669 348.974 277.756 348.987C277.225 348.901 274.844 348.705 274.437 348.4C273.247 347.498 272.013 345.027 270.439 344.798C270.01 346.178 270.022 346.291 270.017 347.756L269.687 348.3L269.283 348.204L269.01 347.398C268.414 348.771 268.498 353.205 268.777 354.84C269.438 358.711 268.901 363.148 269.049 367.068L270.11 398.677C270.23 403.582 270.935 408.6 269.894 413.419C270.131 423.726 270.791 434.701 270.916 444.816C270.053 445.97 268.344 448.384 267.454 449.366C264.451 454.082 258.675 460.98 254.391 464.36C252.598 464.734 250.77 463.716 249.732 462.327C246.11 457.475 238.096 447.628 236.766 441.967C235.614 437.069 236.153 426.114 236.241 420.931C236.394 413.432 236.483 405.934 236.508 398.432C235.582 392.81 236.198 382.208 236.242 376.288C236.332 364.024 237.671 349.614 236.744 337.568C234.533 339.691 229.15 337.303 228.525 338.324C221.202 350.297 215.728 363.798 207.934 375.429C207.878 375.512 195.682 380.921 194.858 381.236L194.333 380.984C195.466 379.74 205.155 375.999 207.529 375.094C210.683 370.215 213.379 364.75 216.134 359.629L231.363 331.121C232.496 328.955 236.432 320.144 237.82 319.45C240.387 312.118 247.963 294.146 254.197 289.576C256.951 281.474 255.412 272.108 251.535 264.659C251.045 263.558 251.425 263.953 250.388 263.412C246.512 263.784 240.001 267.687 238.161 271.153C237.371 271.08 237.655 271.16 236.963 270.758C236.167 271.09 236.166 271.024 235.49 271.518C233.609 272.297 232.105 272.927 230.156 273.537L229.48 273.149C234.784 270.712 238.11 270.825 241.585 266.281C242.344 265.289 247.659 263.256 249.227 263.104L249.35 262.878L249.023 262.603C240.709 261.064 238.079 265.847 231.251 269.372C229.911 270.065 229.109 270.911 227.557 271.153C231.024 268.616 239.622 264.61 240.913 262.013C244.698 261.625 248.614 262.736 251.019 259.479C253.87 255.595 253.939 250.508 254.073 245.875L254.393 243.795C254.774 241.212 255.14 239.991 255.867 237.444C258.391 233.06 262.066 224.935 264.05 220.265C264.138 219.947 264.233 219.628 264.333 219.313C265.289 216.362 265.878 217.595 267.082 216.037C275.238 201.651 282.969 186.834 290.869 172.29C293.127 168.129 304.519 148.018 305.166 145.203Z" fill="white" fill-opacity="0.15"/>
<path d="M305.166 145.203C307.176 142.707 320.445 136.067 322.684 137.776C324.78 139.376 325.97 151.185 326.139 154.381C323.649 159.35 319.745 165.113 316.913 170.026C309.869 182.236 302.211 194.25 295.353 206.549C294.53 207.328 289.897 215.685 288.587 217.705C283.059 226.235 277.62 235.289 271.542 243.431L271.305 243.656C269.51 245.407 267.328 248.392 265.617 249.679C262.156 252.282 258.716 253.605 255.478 256.723C255.154 257.973 254.842 259.144 254.588 260.411L254.727 260.809C257.724 269.123 260.626 269.956 260.701 279.172L260.67 280.19C260.112 283.228 260.565 284.455 259.568 287.36L258.828 287.012C259.262 289.33 262.283 292.584 263.695 294.504C268.269 300.726 272.775 307.08 277.659 313.06C282.16 318.572 293.718 328.544 295.114 335.247L295.416 334.696L295.625 333.9C296.401 334.318 296.497 334.53 297.104 335.194C299.276 338.105 302.878 341.919 305.375 344.828L327.648 370.484C329.333 372.457 334.732 378.42 335.847 380.072C335.538 379.989 335.226 379.903 334.915 379.82C330.159 374.686 324.959 368.239 320.442 363.102C313.938 355.706 307.75 348.861 301.482 341.316C300.891 340.606 299.339 338.295 298.473 338.54C298.152 340.148 308.711 362.299 309.856 365.423C310.632 367.542 313.321 371.993 313.739 374.384C314.19 376.974 310.499 393.994 306.433 392.422C301.783 390.625 293.718 385.421 291.174 380.894C289.476 378.009 290.176 378.175 289.197 375.744C285.669 366.975 282.2 358.09 278.661 349.318C278.625 349.226 277.669 348.974 277.756 348.987C277.225 348.901 274.844 348.705 274.437 348.4C273.247 347.498 272.012 345.027 270.439 344.798C270.01 346.178 270.022 346.29 270.017 347.756L269.687 348.3L269.283 348.204L269.01 347.398C268.414 348.771 268.498 353.205 268.777 354.84C269.438 358.711 268.901 363.148 269.049 367.068L270.11 398.677C270.23 403.582 270.935 408.6 269.894 413.419C269.298 407.144 269.458 397.205 269.27 390.622C268.677 374.404 268.206 358.18 267.856 341.956C267.694 336.64 268.009 327.088 267.411 322.329C266.601 320.744 266.315 316.794 264.806 315.361C264.21 316.124 264.252 316.953 264.081 318.028C263.743 317.321 263.795 313.239 263.733 312.008C262.345 305.571 258.103 297.406 254.911 291.513C254.546 290.766 254.447 290.358 254.197 289.576C256.951 281.474 255.412 272.108 251.535 264.659C251.045 263.558 251.425 263.953 250.388 263.412C246.512 263.784 240.001 267.687 238.161 271.153C237.371 271.08 237.655 271.16 236.963 270.758C236.167 271.09 236.166 271.024 235.49 271.518C233.609 272.297 232.105 272.927 230.156 273.537L229.48 273.149C234.784 270.712 238.11 270.825 241.585 266.281C242.344 265.289 247.659 263.256 249.227 263.104L249.349 262.878L249.023 262.603C240.709 261.064 238.079 265.847 231.251 269.372C229.911 270.065 229.109 270.911 227.557 271.153C231.024 268.616 239.622 264.61 240.913 262.013C244.698 261.625 248.614 262.736 251.019 259.479C253.87 255.595 253.939 250.508 254.073 245.875L254.393 243.795C254.774 241.212 255.14 239.991 255.867 237.444C258.391 233.06 262.066 224.935 264.05 220.265C264.138 219.947 264.233 219.628 264.333 219.313C265.289 216.362 265.878 217.595 267.082 216.037C275.238 201.651 282.969 186.834 290.869 172.29C293.127 168.129 304.519 148.018 305.166 145.203Z" fill="white" fill-opacity="0.15"/>
<path d="M308.652 144.623C311.912 143.208 318.236 140.319 321.533 139.602C321.808 143.425 322.359 149.307 321.772 152.964C322.077 157.608 306.599 178.869 303.73 184.022C293.904 201.673 281.686 217.798 271.178 235.03C270.194 236.642 261.824 246.727 260.829 247.298C261.136 245.517 268.296 223.558 269.02 222.53C272.63 217.4 280.863 195.863 284.08 192.672C288.806 183.133 294.59 173.004 299.598 163.446C301.783 159.7 304.297 152.161 306.924 148.493C307.365 147.308 308.111 145.803 308.652 144.623Z" fill="white" fill-opacity="0.2"/>
<path d="M308.652 144.623C311.912 143.208 318.236 140.319 321.533 139.602C321.808 143.425 322.359 149.307 321.772 152.964C318.452 154.774 311.709 159.865 310.244 152.732C310.058 151.818 310.005 151.505 309.647 150.653L309.318 150.115L309.292 149.897C309.889 148.671 309.856 148.616 309.448 147.338L309.043 147.165C307.882 147.656 308.254 147.479 307.395 148.591L306.924 148.493C307.365 147.308 308.111 145.803 308.652 144.623Z" fill="white" fill-opacity="0.25"/>
<path d="M308.652 144.623C311.912 143.208 318.236 140.319 321.533 139.602C321.43 140.244 321.357 141.719 320.952 142.013C320.253 142.523 319.543 142.28 318.83 142.746C316.097 144.526 313.368 146.462 310.734 148.39C310.131 148.832 309.786 149.656 309.318 150.115L309.292 149.897C309.889 148.671 309.856 148.616 309.448 147.338L309.043 147.165C307.882 147.656 308.254 147.479 307.395 148.591L306.924 148.493C307.365 147.308 308.111 145.803 308.652 144.623Z" fill="white" fill-opacity="0.25"/>
<path d="M306.924 148.493L307.395 148.591C308.254 147.479 307.882 147.656 309.043 147.165L309.448 147.338C309.856 148.616 309.889 148.671 309.292 149.897L309.318 150.116L309.647 150.653C307.103 155.504 304.761 159.772 301.717 164.365C298.696 167.042 298.341 169.587 295.94 172.414C297.001 169.031 299.263 167.088 299.598 163.446C301.783 159.7 304.297 152.161 306.924 148.493Z" fill="white" fill-opacity="0.25"/>
<path d="M299.598 163.446C299.263 167.088 297.001 169.031 295.94 172.414C298.341 169.587 298.696 167.042 301.717 164.365L290.521 183.58C289.486 185.348 286.034 191.478 284.883 192.766C284.664 192.748 284.266 192.736 284.08 192.672C288.806 183.133 294.59 173.004 299.598 163.446Z" fill="white" fill-opacity="0.2"/>
<path d="M298.513 383.8C294.573 382.062 289.343 364.203 287.174 359.377C286.816 358.575 283.407 348.357 283.397 347.753C284.73 352.108 287.99 358.469 291.174 361.838C294.653 365.523 297.17 359.507 298.706 357.079C299.051 357.57 298.921 357.295 299.074 357.905C298.022 353.116 294.155 345.823 292.706 340.875C292.524 340.248 292.826 339.959 293.111 339.545L293.436 339.505C294.358 340.205 294.62 341.482 295.014 342.629C299.588 351.846 304.277 364.674 309.342 373.356C310.343 374.484 310.718 374.852 310.668 376.434C310.592 378.838 308.572 387.842 307.159 389.249L306.831 389.328C305.899 388.446 299.807 384.46 298.513 383.8Z" fill="white" fill-opacity="0.2"/>
<path d="M306.924 374.364L307.401 373.412C308.483 372.912 307.886 373.061 309.342 373.356C310.343 374.484 310.718 374.852 310.668 376.434C310.592 378.838 308.572 387.842 307.159 389.249L306.831 389.328C305.899 388.446 299.807 384.46 298.513 383.8C298.404 380.128 296.142 370.514 304.473 373.734C305.428 374.102 305.584 374.288 306.639 374.344L306.924 374.364Z" fill="white" fill-opacity="0.25"/>
<path d="M306.924 374.364L307.401 373.412C308.483 372.912 307.886 373.061 309.342 373.356C310.343 374.484 310.718 374.852 310.668 376.434C310.592 378.838 308.572 387.842 307.159 389.249L306.831 389.328C307.053 384.217 308.96 379.687 306.924 374.364Z" fill="white" fill-opacity="0.25"/>
<path d="M295.014 342.629C299.588 351.846 304.277 364.674 309.341 373.356C307.886 373.061 308.483 372.912 307.401 373.412L306.924 374.364L306.639 374.344C303.856 366.428 297.243 352.118 294.646 343.631C294.769 343.296 294.892 342.964 295.014 342.629Z" fill="white" fill-opacity="0.2"/>
<path d="M237.82 319.45C240.387 312.118 247.963 294.146 254.197 289.576C254.447 290.358 254.546 290.766 254.911 291.513C253.595 292.992 252.389 295.141 251.241 296.716C249.584 298.995 243.911 305.495 243.465 308.32C241.434 321.192 242.321 335.854 241.939 349.007C241.687 357.709 241.671 365.811 241.752 374.441C241.767 374.56 241.783 374.676 241.798 374.795C241.896 386.051 241.712 397.308 241.244 408.557C240.834 418.553 240.278 429.431 240.852 439.433C240.987 441.785 241.86 444.206 243.225 446.149C243.922 447.678 244.449 448.434 245.715 449.582C246.505 451.087 250.85 459.266 251.789 460.111L252.968 462.715C253.987 463.129 253.707 463.113 254.391 464.36C252.598 464.734 250.77 463.716 249.732 462.327C246.11 457.475 238.096 447.628 236.766 441.967C235.614 437.069 236.153 426.114 236.241 420.931C236.394 413.432 236.483 405.934 236.508 398.432C235.582 392.81 236.198 382.208 236.242 376.288C236.332 364.024 237.671 349.614 236.744 337.568C234.533 339.691 229.15 337.303 228.525 338.324C221.202 350.297 215.728 363.798 207.934 375.429C207.878 375.512 195.682 380.921 194.858 381.236L194.333 380.984C195.466 379.74 205.155 375.999 207.529 375.094C210.683 370.215 213.379 364.75 216.134 359.629L231.363 331.121C232.496 328.955 236.432 320.144 237.82 319.45Z" fill="white" fill-opacity="0.15"/>
<path d="M263.733 312.008C263.795 313.239 263.743 317.321 264.081 318.028C264.252 316.953 264.21 316.124 264.806 315.361C266.315 316.794 266.601 320.744 267.411 322.329C268.009 327.088 267.695 336.64 267.856 341.956C268.206 358.18 268.678 374.404 269.271 390.622C269.458 397.205 269.298 407.144 269.894 413.419C270.131 423.726 270.791 434.701 270.916 444.816C270.053 445.97 268.344 448.384 267.454 449.366L266.94 449.329C266.189 450.202 265.988 450.523 264.987 451.144L264.893 450.679C265.876 449.363 266.084 448.988 266.488 447.396L267.974 444.663C267.512 441.97 267.429 436.873 267.298 433.984C267.511 425.531 266.464 416.838 266.008 408.431C265.559 400.146 265.343 391.421 265.276 383.123C265.498 380.394 265.284 376.523 265.311 373.701C265.424 361.828 263.997 350.031 263.423 338.165C262.999 329.4 263.487 320.794 263.733 312.008Z" fill="white" fill-opacity="0.15"/>
<path d="M263.019 434.555C263.123 433.868 263.234 433.178 263.353 432.492C263.602 430.96 263.744 430.83 264.592 429.427L265.612 429.268C267.12 431.009 266.87 431.799 267.297 433.984C267.428 436.873 267.512 441.97 267.974 444.663L266.488 447.396C266.084 448.988 265.876 449.363 264.893 450.679L264.987 451.144C265.987 450.523 266.188 450.202 266.94 449.329L267.454 449.366C264.451 454.082 258.675 460.98 254.39 464.36C253.707 463.113 253.987 463.129 252.968 462.715L251.789 460.111C250.85 459.266 246.505 451.087 245.715 449.582C246.219 445.131 247.791 439.058 251.931 436.498C257.054 433.328 259.95 440.538 262.565 441.367C263.218 440.405 262.995 439.626 263.017 438.286L263.019 434.555Z" fill="white" fill-opacity="0.25"/>
<path d="M263.019 434.555C263.123 433.868 263.235 433.178 263.353 432.492C263.602 430.96 263.744 430.83 264.592 429.427L265.612 429.268C267.12 431.009 266.87 431.799 267.298 433.984C267.429 436.873 267.512 441.97 267.974 444.663L266.488 447.396C266.084 448.988 265.876 449.363 264.893 450.679L264.987 451.144C265.988 450.523 266.188 450.202 266.94 449.329L267.454 449.366C264.451 454.082 258.675 460.98 254.391 464.36C253.707 463.113 253.987 463.129 252.968 462.715L251.789 460.111C251.895 460.002 252 459.892 252.105 459.783C254.803 458.417 257.399 454.311 259.087 451.611C261.715 447.409 264.174 443.433 263.017 438.286L263.019 434.555Z" fill="white" fill-opacity="0.25"/>
<path d="M252.968 462.715C257.935 459.113 262.64 452.354 266.488 447.396C266.084 448.988 265.876 449.363 264.893 450.679L264.987 451.144C265.988 450.523 266.188 450.202 266.94 449.329L267.454 449.366C264.451 454.082 258.675 460.98 254.391 464.36C253.707 463.113 253.987 463.129 252.968 462.715Z" fill="white" fill-opacity="0.2"/>
<path d="M241.798 374.795L242.338 374.815C243.596 377.266 243.19 396.913 243.469 401.287C244.079 410.829 244.541 421.319 244.441 430.893C244.381 434.359 243.509 442.826 243.899 445.234C243.565 445.847 243.72 445.701 243.225 446.149C241.86 444.206 240.987 441.785 240.852 439.433C240.278 429.431 240.834 418.553 241.244 408.557C241.712 397.308 241.896 386.052 241.798 374.795Z" fill="white" fill-opacity="0.25"/>
<path d="M263.019 434.555C262.693 426.303 263.497 415.213 263.77 406.69C263.995 399.632 262.936 382.035 264.396 376.036C264.934 378.125 265.015 380.861 265.276 383.123C265.342 391.421 265.559 400.146 266.008 408.431C266.464 416.838 267.511 425.531 267.298 433.984C266.87 431.799 267.12 431.009 265.612 429.268L264.592 429.427C263.744 430.83 263.602 430.96 263.353 432.492C263.235 433.178 263.123 433.868 263.019 434.555Z" fill="white" fill-opacity="0.25"/>
<path d="M250.252 270.596L250.317 270.191C251.347 269.816 252.136 269.017 252.26 267.886C251.737 266.553 251.435 266.079 251.535 264.659C255.412 272.108 256.951 281.474 254.197 289.576C247.963 294.146 240.387 312.118 237.82 319.45C236.432 320.144 232.496 328.955 231.363 331.121L216.134 359.629C213.379 364.75 210.683 370.215 207.529 375.094C205.155 375.999 195.466 379.74 194.333 380.984C188.616 383.047 186.178 384.781 184.936 377.283C185.491 378.351 186.196 380.125 187.078 380.772L187.222 381.369C187.256 379.933 186.958 378.643 187.391 377.356C187.3 373.512 187.156 369.671 186.961 365.831C187.46 365.748 187.888 365.572 188.377 365.413L187.965 365.048C187.793 363.917 188.743 363.38 189.385 362.422C192.63 357.573 207.393 331.171 206.783 327.37C206.906 326.806 227.832 292.789 229.907 289.377C230.83 287.861 236.68 280.807 238.323 278.98C241.225 275.749 246.555 273.037 250.252 270.596Z" fill="white" fill-opacity="0.2"/>
<path d="M250.252 270.596L250.317 270.191C251.347 269.816 252.136 269.017 252.26 267.886C251.737 266.553 251.435 266.079 251.535 264.659C255.412 272.108 256.951 281.474 254.197 289.576C247.963 294.146 240.387 312.118 237.82 319.45C236.432 320.144 232.496 328.955 231.363 331.121L216.134 359.629C213.379 364.75 210.683 370.215 207.529 375.094C205.155 375.999 195.466 379.74 194.333 380.984C188.616 383.047 186.178 384.781 184.936 377.283C185.491 378.351 186.196 380.125 187.078 380.772L187.222 381.369C187.256 379.933 186.958 378.643 187.391 377.356C187.3 373.512 187.156 369.671 186.961 365.831C187.46 365.748 187.888 365.572 188.377 365.413C195.467 361.463 202.095 358.495 202.14 370.013C211.15 352.22 222.558 336.849 231.74 319.872C232.092 318.645 232.944 317.567 233.833 316.691L234.723 316.913C236.044 315.663 241.346 303.521 242.644 300.968C244.267 297.767 247.537 291.891 248.702 288.398C250.079 284.273 251.328 275.657 251.175 271.206C251.116 270.755 250.772 270.781 250.252 270.596Z" fill="white" fill-opacity="0.15"/>
<path d="M231.74 319.872C232.009 321.112 231.77 321.109 231.348 322.521C227.359 329.393 223.869 338.165 220.118 345.289C215.085 354.854 210.121 364.206 205.282 373.877C200.086 376.102 194.002 379.836 188.524 380.669C187.859 380.772 187.469 377.823 187.391 377.356C187.3 373.512 187.156 369.672 186.961 365.831C187.46 365.748 187.888 365.572 188.377 365.413C195.467 361.463 202.095 358.495 202.14 370.013C211.15 352.22 222.558 336.849 231.74 319.872Z" fill="white" fill-opacity="0.25"/>
<path d="M231.74 319.872C232.092 318.645 232.944 317.567 233.833 316.691L234.723 316.913C233.918 318.316 232.254 321.384 231.348 322.521C231.77 321.109 232.009 321.112 231.74 319.872Z" fill="white" fill-opacity="0.2"/>
<path d="M227.557 271.153C229.109 270.911 229.911 270.065 231.251 269.372C238.079 265.847 240.709 261.064 249.023 262.603L249.349 262.878L249.227 263.104C247.659 263.256 242.344 265.289 241.585 266.281C238.11 270.825 234.784 270.712 229.48 273.149L230.156 273.537C226.876 274.884 223.121 277.232 220.09 277.113C219.535 277.093 219.518 277.149 218.977 277.318L219.549 277.666L221.504 277.497L221.439 277.756L221.004 277.938L221.133 278.691C220.634 279.096 220.791 278.903 220.587 279.255C219.798 280.82 196.059 301.678 194.688 302.318L194.989 301.488L194.153 300.809C192.989 301.077 193.547 300.882 192.486 301.893L192.302 301.362C191.501 301.876 190.588 302.417 189.863 303.021C180.877 309.995 170.968 318.81 162.271 326.325L139.584 345.601C134.843 349.7 125.966 358.153 121.441 361.463C122.996 358.532 130.331 352.625 133.163 350.161C140.81 343.468 148.541 336.872 156.357 330.378C158.461 328.607 169.806 319.484 170.056 318.104C169.46 317.454 169.321 317.351 168.894 316.595L168.905 315.978C167.964 314.963 167.318 314.489 165.991 314.028L165.857 312.565C164.059 311.922 151.825 318.754 149.595 318.545C145.98 318.207 136.113 314.462 133.786 311.869C132.585 307.379 141.114 298.155 144.978 295.847C146.161 295.141 149.827 294.046 151.354 293.529L165.597 288.723C167.117 288.209 173.323 286.425 173.742 285.327C172.872 283.832 170.928 281.278 171.495 279.689C170.085 279.019 114.305 281.437 107.108 280.933C109.565 280.512 115.067 280.502 117.861 280.422L138.093 279.822C152.385 279.218 166.684 278.804 180.987 278.582C183.801 278.545 192.793 278.074 194.935 278.247C198.197 275.279 208.759 275.428 213.409 275.322C218.797 275.793 221.4 275.783 225.693 272.201C226.293 271.7 226.794 271.262 227.557 271.153Z" fill="white" fill-opacity="0.2"/>
<path d="M227.557 271.153C229.109 270.911 229.911 270.065 231.251 269.372C238.079 265.847 240.709 261.064 249.023 262.603L249.35 262.878L249.227 263.104C247.659 263.256 242.344 265.289 241.585 266.281C238.11 270.825 234.784 270.712 229.48 273.149L230.156 273.537C226.876 274.884 223.121 277.232 220.09 277.113C219.535 277.093 219.518 277.149 218.977 277.318L218.439 277.391C214.923 277.852 210.19 277.268 207.762 277.676C204.983 278.147 197.74 281.464 194.598 282.638C189.401 284.575 183.029 286.309 178.048 288.329C176.466 288.783 166.047 292.073 164.955 292.693L165.255 293.095C164.03 293.569 163.336 293.572 162.719 294.451L163.142 294.935L153.794 298.122C153.082 297.336 153.025 297.396 152.012 296.991C148.721 297.933 146.697 298.152 144.155 300.49L143.908 300.722C139.677 303.187 137.464 308.102 134.13 311.362C134.539 307.83 141.129 298.51 144.304 297.048C149.738 294.544 156.549 292.577 162.282 290.581C171.534 287.36 180.661 283.885 189.879 280.578C191.652 279.945 193.384 279.331 194.935 278.247C198.197 275.279 208.759 275.428 213.409 275.322C218.797 275.793 221.4 275.783 225.693 272.201C226.293 271.7 226.794 271.262 227.557 271.153Z" fill="white" fill-opacity="0.15"/>
<path d="M152.011 296.991C155.404 295.539 161.372 293.771 164.955 292.693L165.255 293.095C164.03 293.569 163.336 293.572 162.719 294.451L163.142 294.935L153.794 298.122C153.082 297.336 153.025 297.396 152.011 296.991Z" fill="white" fill-opacity="0.2"/>
<path d="M170.773 305.996C171.353 305.87 175.715 303.953 176.652 303.578C185.711 299.956 194.122 296.381 202.437 291.211C205.372 289.387 217.46 278.681 219.858 278.529L220.587 279.255C219.798 280.82 196.059 301.678 194.688 302.318L194.989 301.489L194.153 300.809C192.989 301.077 193.547 300.882 192.486 301.893L192.302 301.362C191.501 301.877 190.588 302.417 189.863 303.021L189.002 301.936C176.251 307.435 162.787 312.808 149.804 317.779C148.87 318.137 147.738 317.852 146.817 317.57C148.742 316.937 150.34 315.882 151.901 314.598L153.887 313.623L157.571 311.902C158.725 311.634 168.696 306.874 170.773 305.996Z" fill="white" fill-opacity="0.15"/>
<path d="M189.002 301.936C190.081 301.409 190.834 300.925 192.025 300.832L192.302 301.362C191.501 301.877 190.588 302.417 189.863 303.021L189.002 301.936Z" fill="white" fill-opacity="0.2"/>
<path d="M134.13 311.362C137.464 308.101 139.677 303.187 143.908 300.722L143.88 301.256L145.162 301.163C148.388 301.701 150.617 302.371 153.311 304.387C152.814 305.78 151.243 309.601 151.217 310.728C151.926 311.126 151.535 311.027 152.459 310.814C154.976 310.761 155.559 310.254 157.571 311.902L153.887 313.623L151.901 314.598C150.34 315.882 148.742 316.937 146.817 317.57C143.111 315.686 136.911 314.32 134.13 311.362Z" fill="white" fill-opacity="0.2"/>
<path d="M134.13 311.362C137.464 308.101 139.677 303.187 143.908 300.722L143.88 301.256C140.897 303.654 138.748 307.027 136.319 309.902C139.569 310.373 143.547 311.129 146.731 310.522C147.998 310.28 149.427 309.826 150.451 310.224L150.671 311.229C149.929 312.947 149.954 313.368 149.851 315.209C150.44 314.89 151.222 314.764 151.901 314.598C150.34 315.882 148.742 316.937 146.817 317.57C143.111 315.686 136.911 314.32 134.13 311.362Z" fill="white" fill-opacity="0.25"/>
<path d="M134.13 311.362C137.464 308.101 139.677 303.187 143.908 300.722L143.88 301.256C140.897 303.654 138.748 307.027 136.319 309.902L136.414 310.715C138.348 312.131 145.884 315.288 148.418 315.59C148.752 315.63 149.484 315.345 149.851 315.209C150.44 314.89 151.222 314.764 151.901 314.598C150.34 315.882 148.742 316.937 146.817 317.57C143.111 315.686 136.911 314.32 134.13 311.362Z" fill="white" fill-opacity="0.15"/>
<path d="M150.671 311.229C152.668 311.743 152.564 311.949 153.887 313.623L151.901 314.598C151.222 314.764 150.44 314.89 149.852 315.209C149.954 313.368 149.929 312.947 150.671 311.229Z" fill="white" fill-opacity="0.25"/>
<path d="M152.459 310.814C153.783 310.251 156.301 309.637 157.75 309.295C161.135 308.493 167.751 304.533 170.773 305.996C168.696 306.874 158.725 311.634 157.571 311.902C155.559 310.254 154.976 310.761 152.459 310.814Z" fill="white" fill-opacity="0.2"/>
<path d="M178.048 288.329C178.67 288.375 179.249 288.418 179.871 288.445C178.165 290.428 165.923 294.212 163.142 294.935L162.719 294.451C163.336 293.572 164.03 293.569 165.255 293.095L164.955 292.693C166.047 292.073 176.466 288.783 178.048 288.329Z" fill="white" fill-opacity="0.2"/>
<path d="M143.908 300.722L144.155 300.49C146.697 298.152 148.721 297.933 152.012 296.991C153.025 297.396 153.082 297.336 153.794 298.122C152.049 298.547 147.031 299.575 145.694 300.285L145.162 301.163L143.88 301.256L143.908 300.722Z" fill="white" fill-opacity="0.2"/>
<path d="M235.49 271.518C236.166 271.024 236.167 271.09 236.963 270.758C237.655 271.16 237.371 271.08 238.161 271.153C240.001 267.687 246.512 263.784 250.388 263.412C251.425 263.953 251.045 263.558 251.535 264.659C251.435 266.079 251.737 266.553 252.26 267.886C252.136 269.017 251.347 269.816 250.317 270.191L250.252 270.596C246.555 273.037 241.225 275.749 238.323 278.98C236.68 280.807 230.83 287.861 229.907 289.377C227.832 292.789 206.906 326.806 206.783 327.37C207.393 331.171 192.63 357.573 189.385 362.422C188.743 363.38 187.793 363.917 187.965 365.048L188.377 365.413C187.888 365.572 187.46 365.748 186.961 365.831C187.156 369.672 187.3 373.512 187.392 377.356C186.958 378.643 187.256 379.933 187.222 381.369L187.078 380.772C186.196 380.125 185.491 378.351 184.936 377.283C184.591 373.738 184.27 370.222 183.786 366.69C179.537 361.178 187.467 352.751 189.324 347.7C188.792 347.269 188.571 347.027 188.184 346.46C184.042 347.093 152.986 381.667 147.018 383.703C139.864 390.313 129.989 400.014 122.534 405.881C117.618 406.192 103.693 407.317 99.715 406.335C100.158 406.305 100.598 406.362 101.049 406.395L100.861 405.987L102.26 406.143C101.388 405.406 99.468 405.864 98.0535 405.068L98.6975 404.667C99.8556 404.985 101.397 405.377 102.511 404.862L100.017 404.557L99.0259 404.1C98.6159 403.012 98.7403 403.367 99.1612 401.987C103.641 403.121 117.402 400.15 120.797 396.711C126.902 392.296 132.862 386.151 138.835 381.73C140.288 379.744 180.005 345.355 181.285 344.864L181.485 345.385L180.959 346.314C182.725 345.09 185.602 342.254 187.148 340.626C194.387 333.005 202.744 326.475 207.799 317.109C208.457 316.771 228.99 280.353 233.583 274.818L235.628 272.307L235.49 271.518Z" fill="white" fill-opacity="0.15"/>
<path d="M138.835 381.73C140.287 379.744 180.005 345.355 181.285 344.864L181.485 345.385L180.959 346.314C177.648 349.02 173.82 353.175 170.559 356.157C160.994 364.906 151.563 374.928 142.007 383.528L142.061 383.116L141.622 382.954C138.37 385.866 134.15 390.346 130.857 392.877C130.804 391.832 130.848 391.839 130.466 390.884L129.797 390.678C132.769 387.633 136.075 385.232 138.953 382.291L138.835 381.73Z" fill="white" fill-opacity="0.25"/>
<path d="M138.835 381.73L138.953 382.291C136.075 385.232 132.769 387.633 129.797 390.678L130.466 390.884C130.848 391.839 130.804 391.832 130.857 392.877C134.15 390.346 138.37 385.866 141.622 382.954L142.061 383.116L142.007 383.528C135.186 390.104 127.442 397.337 120.231 403.503C112.721 404.584 106.117 403.801 100.017 404.557L99.0258 404.1C98.6159 403.012 98.7403 403.367 99.1611 401.987C103.641 403.121 117.402 400.15 120.797 396.711C126.902 392.296 132.862 386.151 138.835 381.73Z" fill="white" fill-opacity="0.25"/>
<path d="M206.783 327.37C207.393 331.171 192.63 357.573 189.385 362.422C188.743 363.38 187.793 363.917 187.965 365.048L188.377 365.413C187.888 365.572 187.46 365.748 186.961 365.831C186.79 364.823 186.626 363.321 186.983 362.365C189.087 356.724 192.865 351.275 195.885 346.042C199.492 339.787 203.029 333.492 206.783 327.37Z" fill="white" fill-opacity="0.25"/>
<path d="M235.49 271.518L235.628 272.307L233.583 274.818C228.99 280.353 208.457 316.771 207.799 317.109C207.709 314.658 218.176 300.397 218.669 297.091C218.14 297.015 211.825 299.131 210.89 299.734C203.796 304.314 194.831 308.022 187.823 312.373C174.054 320.92 162.05 332.968 149.658 343.273C144.564 347.438 139.562 351.713 134.657 356.097C133.747 356.91 130.467 359.772 129.925 360.492L128.618 361.682C123.089 366.435 114.238 373.648 109.454 378.609C106.572 380.719 104.454 382.768 103.375 386.251L102.394 387.657C102.837 388.874 102.917 388.864 103.757 389.789C103.288 390.98 102.443 392.927 102.078 394.081C101.202 396.555 100.203 399.632 99.1612 401.987C98.7403 403.367 98.6159 403.012 99.0258 404.1L100.017 404.557L102.511 404.862C101.397 405.377 99.8556 404.985 98.6975 404.667L98.0535 405.068C99.4679 405.864 101.388 405.406 102.26 406.143L100.861 405.987L101.049 406.395C100.598 406.361 100.158 406.305 99.715 406.335C93.1637 405.847 98.0551 395.255 98.3788 391.185C98.5294 389.288 100.698 381.617 101.541 380.37C106.378 373.204 114.879 367.887 121.161 361.742L121.441 361.463C125.966 358.153 134.843 349.7 139.584 345.601L162.271 326.325C170.968 318.81 180.877 309.995 189.863 303.021C190.588 302.417 191.501 301.877 192.302 301.362L192.486 301.893C193.547 300.882 192.989 301.077 194.153 300.809L194.989 301.488L194.688 302.318C196.059 301.678 219.798 280.82 220.587 279.255C220.791 278.903 220.634 279.096 221.133 278.691L221.004 277.938L221.439 277.756L221.504 277.497L219.549 277.666L218.977 277.318C219.518 277.149 219.535 277.093 220.09 277.113C223.121 277.232 226.876 274.884 230.156 273.537C232.105 272.927 233.609 272.297 235.49 271.518Z" fill="white" fill-opacity="0.15"/>
<path d="M102.394 387.657C102.837 388.874 102.917 388.864 103.757 389.789C103.288 390.98 102.443 392.927 102.078 394.081C102.027 393.693 102.061 393.679 101.848 393.331C100.373 390.937 101.77 389.789 102.394 387.657Z" fill="white" fill-opacity="0.2"/>
<path d="M103.757 389.789C107.084 384.602 112.079 384.698 117.684 385.096C124.636 389.066 119.294 392.671 120.797 396.711C117.402 400.15 103.641 403.121 99.1611 401.987C100.203 399.632 101.202 396.555 102.078 394.081C102.443 392.926 103.288 390.98 103.757 389.789Z" fill="white" fill-opacity="0.25"/>
<path d="M128.618 361.682C128.766 362.345 128.949 362.833 128.309 363.47C125.064 366.697 114.067 377.707 110.428 378.828L111.063 378.201C110.202 378.5 110.335 378.513 109.454 378.609C114.238 373.648 123.089 366.435 128.618 361.682Z" fill="white" fill-opacity="0.25"/>
<path d="M129.925 360.492C130.106 362.316 130.241 361.626 129.071 363.433C127.061 366.534 107.922 383.299 106.019 383.916L105.643 382.941C104.83 384.191 104.204 386.035 103.375 386.25C104.454 382.768 106.572 380.719 109.454 378.609C110.335 378.513 110.202 378.5 111.063 378.201L110.428 378.828C114.067 377.707 125.064 366.697 128.308 363.47C128.949 362.833 128.766 362.345 128.618 361.682L129.925 360.492Z" fill="white" fill-opacity="0.2"/>
<path d="M249.06 50.8944C250.1 50.4543 250.952 49.8842 252.134 50.5296C256.143 52.7178 266.648 67.7065 268.022 71.3112C269.575 75.3858 268.954 88.5936 269.057 93.2088C269.32 104.948 268.582 117.668 268.97 129.259C270.457 134.842 269.242 144.881 269.057 150.787L267.973 184.041C267.844 187.886 267.517 192.172 267.853 195.964C267.942 196.965 273.144 200.511 274.325 200.966C275.782 200.055 278.943 192.461 280.07 190.385L296.62 160.316C297.896 157.983 303.946 145.802 305.166 145.203C304.519 148.018 293.127 168.129 290.869 172.29C282.969 186.834 275.238 201.651 267.082 216.037C265.878 217.595 265.289 216.362 264.333 219.313C264.233 219.628 264.138 219.947 264.05 220.265C262.066 224.935 258.391 233.06 255.867 237.444C255.14 239.991 254.774 241.212 254.393 243.795L254.073 245.875C253.939 250.508 253.87 255.595 251.019 259.479C248.614 262.736 244.698 261.625 240.913 262.013C240.121 261.688 238.614 261.509 237.535 261.124L237.807 260.852C239.053 261.011 244.05 261.754 244.689 260.812C244.059 259.92 242.69 259.273 241.675 258.656C243.218 259.313 246.049 260.64 247.553 260.892L247.687 260.341C246.534 258.491 242.017 257.104 240.077 255.635C234.8 251.715 232.591 245.905 229.559 240.353C225.412 232.765 221.289 225.217 217.418 217.479C216.438 215.523 214.612 213.13 213.301 211.349C213.827 211.742 214.368 212.11 214.906 212.486C215.928 211.953 215.591 212.345 215.989 211.303C215.446 206.743 210.866 203.148 210.093 200.68C210.125 198.058 183.918 149.129 181.24 140.12C182.424 134.147 184.401 122.423 187.417 117.556C188.97 117.073 190.315 117.24 191.773 117.958C195.912 119.994 207.377 125.366 209.54 128.994C209.688 129.075 209.84 129.148 209.983 129.237C211.554 130.231 224.132 161.182 225.901 165.4C227.853 170.05 230.063 177.307 233.389 180.91C236.005 179.805 234.54 178.913 237.268 179.427C238.379 177.67 235.797 141.154 236.473 134.96C236.471 125.121 232.788 74.1855 234.879 68.6643C239.641 63.4953 242.804 56.7997 249.06 50.8944Z" fill="white" fill-opacity="0.2"/>
<path d="M234.879 68.6643L236.382 70.569C237.443 75.1875 238.226 93.9211 238.478 99.3717C238.247 102.732 238.895 110.065 239.103 113.683L240.297 137.227C240.429 139.684 240.928 145.389 240.784 147.435C240.408 157.729 242.121 171.45 242.624 181.857C242.783 185.142 243.414 199.966 244.034 202.255C247.108 213.611 254.732 226.046 254.606 238.449C255.415 238.197 255.138 238.22 255.867 237.444C255.14 239.991 254.774 241.212 254.393 243.795L254.073 245.875C253.939 250.508 253.87 255.595 251.019 259.479C248.614 262.736 244.698 261.625 240.913 262.013C240.121 261.688 238.614 261.509 237.535 261.124L237.807 260.852C239.053 261.011 244.05 261.754 244.689 260.812C244.059 259.92 242.69 259.273 241.675 258.656C243.218 259.313 246.049 260.64 247.553 260.892L247.687 260.341C246.534 258.491 242.017 257.104 240.077 255.635C234.8 251.715 232.591 245.905 229.559 240.353C225.412 232.765 221.289 225.217 217.418 217.479C216.438 215.523 214.612 213.13 213.301 211.349C213.827 211.742 214.368 212.11 214.906 212.486C215.928 211.953 215.591 212.345 215.989 211.303C215.446 206.743 210.866 203.148 210.093 200.68C210.125 198.058 183.918 149.129 181.24 140.12C182.424 134.147 184.401 122.423 187.417 117.556C188.97 117.073 190.315 117.24 191.773 117.958C195.912 119.994 207.377 125.366 209.54 128.994C209.688 129.075 209.84 129.148 209.983 129.237C211.554 130.231 224.132 161.182 225.901 165.4C227.853 170.05 230.063 177.307 233.389 180.91C236.005 179.805 234.54 178.913 237.268 179.427C238.379 177.67 235.797 141.154 236.473 134.96C236.471 125.121 232.788 74.1855 234.879 68.6643Z" fill="white" fill-opacity="0.2"/>
<path d="M234.879 68.6643L236.383 70.569C237.443 75.1875 238.226 93.9211 238.479 99.3717C238.247 102.732 238.895 110.065 239.103 113.683L240.297 137.227C240.429 139.684 240.928 145.389 240.784 147.435C240.408 157.729 242.121 171.45 242.624 181.857C242.783 185.142 243.414 199.966 244.034 202.255C247.108 213.611 254.732 226.046 254.606 238.449C255.415 238.197 255.138 238.22 255.867 237.444C255.14 239.991 254.774 241.212 254.393 243.795L254.073 245.875C253.939 250.508 253.87 255.595 251.019 259.479C249.597 258.418 247.046 255.721 246.129 254.143C246.942 254.637 247.606 255.323 248.309 255.973C248.212 249.387 248.217 239.938 247.154 233.495C245.166 221.449 240.055 209.095 235.287 197.945C232.325 191.017 229.314 183.468 226.032 176.698C220.188 163.077 214.826 149.242 209.146 135.556C208.499 133.997 207.087 130.855 206.002 129.665C203.396 126.801 194.387 121.487 190.907 120.071C190.322 119.738 189.541 119.147 188.97 118.745L188.866 118.311C188.267 118.103 187.937 117.919 187.417 117.556C188.97 117.073 190.315 117.24 191.773 117.958C195.912 119.994 207.377 125.366 209.54 128.994C209.688 129.075 209.84 129.148 209.983 129.237C211.554 130.231 224.132 161.182 225.902 165.4C227.853 170.05 230.877 177.85 232.454 181.336C233.828 180.755 238.15 200.219 238.472 199.929C238.762 199.667 235.973 179.183 237.268 179.427C238.379 177.67 235.797 141.154 236.473 134.96C236.471 125.121 232.788 74.1855 234.879 68.6643Z" fill="white" fill-opacity="0.2"/>
<path d="M234.879 68.6643L236.383 70.569C237.443 75.1875 238.226 93.9211 238.479 99.3717C238.247 102.732 238.895 110.065 239.103 113.683L240.297 137.227C240.429 139.684 240.928 145.389 240.784 147.435C240.408 157.729 242.121 171.45 242.624 181.857C242.783 185.142 243.414 199.966 244.034 202.255C247.108 213.611 254.732 226.046 254.606 238.449C255.415 238.197 255.138 238.22 255.867 237.444C255.14 239.991 254.774 241.212 254.393 243.795L254.073 245.875C254.434 236.804 247.297 220.133 244.147 211.241C242.735 207.579 240.694 203.842 239.551 200.105C239.127 198.716 239.375 196.111 239.04 194.383C238.601 191.323 238.576 184.414 238.465 180.942C238.169 170.429 237.806 159.918 237.374 149.41C237.198 145.629 237.033 138.525 236.473 134.96C236.471 125.121 232.788 74.1855 234.879 68.6643Z" fill="white" fill-opacity="0.15"/>
<path d="M187.417 117.556C187.937 117.919 188.267 118.103 188.866 118.311L188.97 118.745C186.452 122.732 185.431 133.733 183.824 138.736C183.502 139.851 183.708 139.825 184.431 141.159L184.652 141.56C185.239 140.337 185.519 139.97 186.866 139.729C188.106 140.293 187.752 140.187 188.633 141.524L189.024 141.431L189.124 139.849L189.487 139.629L189.753 140.153C188.997 143.956 209.103 186.79 211.777 192.704C212.875 193.415 215.085 199.079 215.664 200.543C215.827 200.955 215.73 202.194 215.713 202.706C216.699 205.265 221.85 213.491 223.403 216.441C228.286 225.721 238.805 247.308 246.129 254.143C247.046 255.721 249.597 258.418 251.019 259.479C248.614 262.736 244.698 261.625 240.913 262.013C240.121 261.688 238.614 261.509 237.535 261.124L237.807 260.852C239.053 261.011 244.05 261.754 244.689 260.812C244.059 259.92 242.69 259.273 241.675 258.656C243.218 259.313 246.049 260.64 247.553 260.892L247.687 260.341C246.534 258.491 242.017 257.104 240.077 255.635C234.8 251.715 232.591 245.905 229.559 240.353C225.412 232.765 221.289 225.217 217.418 217.479C216.438 215.523 214.612 213.13 213.301 211.349C213.827 211.742 214.368 212.11 214.906 212.486C215.928 211.953 215.591 212.345 215.989 211.303C215.446 206.743 210.866 203.148 210.093 200.681C210.125 198.058 183.918 149.129 181.24 140.12C182.424 134.147 184.401 122.423 187.417 117.556Z" fill="white" fill-opacity="0.15"/>
<path d="M184.652 141.56C185.239 140.337 185.519 139.97 186.866 139.729C188.106 140.293 187.752 140.187 188.634 141.524L189.024 141.431L189.124 139.849L189.487 139.629L189.753 140.153C188.997 143.956 209.103 186.79 211.777 192.704L211.447 193.375C210.11 191.533 210.232 190.711 208.498 189.006C201.347 173.368 191.359 157.377 184.652 141.56Z" fill="white" fill-opacity="0.25"/>
<path d="M208.498 189.006C210.232 190.711 210.11 191.533 211.447 193.375L211.777 192.704C212.875 193.415 215.085 199.079 215.664 200.543C215.827 200.955 215.73 202.194 215.713 202.706C213.068 198.35 210.782 193.578 208.498 189.006Z" fill="white" fill-opacity="0.2"/>
<path d="M188.97 118.745C189.541 119.147 190.322 119.738 190.907 120.071C194.387 121.487 203.396 126.801 206.002 129.665C207.087 130.856 208.499 133.997 209.146 135.556C214.826 149.242 220.188 163.077 226.032 176.698C225.978 177.758 225.895 178.012 226.385 179L226.026 179.6C223.18 174.901 220.866 169.141 218.368 164.179C212.456 152.437 207.288 142.569 202.793 130.179C202.466 134.024 203.269 136.693 200.874 140.239C197.712 144.921 193.384 142.685 189.753 140.153L189.487 139.629L189.124 139.849L189.024 141.431L188.634 141.524C187.752 140.187 188.106 140.293 186.866 139.729C185.519 139.97 185.239 140.337 184.652 141.56L184.431 141.159C183.708 139.825 183.502 139.851 183.824 138.736C185.431 133.733 186.452 122.732 188.97 118.745Z" fill="white" fill-opacity="0.25"/>
<path d="M188.97 118.745C189.541 119.147 190.322 119.738 190.907 120.071C191.533 122.313 188.697 134.987 188.286 138.918C186.838 139.181 184.559 140.088 183.824 138.736C185.431 133.733 186.452 122.732 188.97 118.745Z" fill="white" fill-opacity="0.25"/>
<path d="M242.052 151.27C242.516 148.813 242.213 133.122 242.207 129.612C242.67 130.831 242.119 133.099 242.712 134.369C247.296 135.524 253.526 131.364 259.009 132.126C259.839 132.241 259.834 131.179 261.339 130.188C262.763 131.315 262.293 134.127 264.1 134.798L264.677 134.194C264.711 144.368 264.423 154.539 263.812 164.694C263.262 173.109 262.565 181.479 261.794 189.876C261.593 192.073 262.16 196.586 262.164 199.027C262.174 206.17 262.662 213.23 264.05 220.265C262.066 224.935 258.391 233.06 255.867 237.444C255.138 238.22 255.415 238.197 254.606 238.449C254.732 226.046 247.108 213.611 244.034 202.255C243.414 199.966 242.783 185.142 242.624 181.857C242.121 171.45 240.408 157.729 240.784 147.435C242.124 151.016 241.264 153.355 241.796 156.875C241.858 155.005 241.944 153.137 242.052 151.27Z" fill="white" fill-opacity="0.15"/>
<path d="M249.06 50.8944C250.1 50.4543 250.952 49.8842 252.134 50.5296C256.143 52.7178 266.648 67.7065 268.022 71.3112C269.575 75.3858 268.954 88.5936 269.057 93.2088C269.32 104.948 268.582 117.668 268.97 129.259C270.457 134.842 269.242 144.881 269.057 150.787L267.973 184.041C267.844 187.886 267.517 192.172 267.853 195.964C267.942 196.965 273.144 200.511 274.325 200.966C275.782 200.055 278.943 192.461 280.071 190.385L296.62 160.316C297.896 157.983 303.946 145.802 305.166 145.203C304.519 148.018 293.127 168.129 290.869 172.29C282.969 186.834 275.238 201.651 267.082 216.037C265.878 217.595 265.289 216.362 264.333 219.313C264.233 219.628 264.138 219.947 264.05 220.265C262.662 213.23 262.174 206.17 262.164 199.027C262.16 196.586 261.593 192.073 261.794 189.876C262.565 181.479 263.262 173.109 263.812 164.694C264.422 154.539 264.711 144.368 264.677 134.194C264.687 125.296 264.917 115.26 264.598 106.453C264.656 97.0688 265.631 77.4102 262.535 69.5773C261.97 67.7682 260.064 65.5339 258.68 64.2647C257.057 61.3356 254.31 56.1769 252.286 53.7708L251.218 52.0316C249.691 51.7464 250.259 51.9849 249.06 50.8944Z" fill="white" fill-opacity="0.2"/>
<path d="M252.286 53.7708C254.31 56.1769 257.057 61.3356 258.68 64.2647C258.762 66.8854 258.973 68.6385 258.11 71.1752C252.083 88.8961 244.851 75.4541 241.389 74.8389C242.172 67.6744 246.702 63.1259 250.354 57.1795C251.11 55.9494 252.024 55.1349 252.286 53.7708Z" fill="white" fill-opacity="0.25"/>
<path d="M249.06 50.8944C250.259 51.9849 249.691 51.7464 251.218 52.0316L252.286 53.7708C252.024 55.1348 251.11 55.9494 250.354 57.1794C246.702 63.1258 242.172 67.6744 241.389 74.8389C241.119 77.5916 240.913 80.3502 240.772 83.1124C240.797 84.5647 240.548 88.6867 241.026 89.6011L241.39 89.8074C241.318 90.8723 241.156 92.0267 241.381 93.0489L240.38 93.018C240.381 95.7296 240.451 98.6507 240.178 101.33L240.04 93.3537L239.556 93.155C238.319 94.3121 239.071 97.0445 238.479 99.3717C238.226 93.9211 237.443 75.1875 236.383 70.569L234.879 68.6643C239.641 63.4953 242.805 56.7997 249.06 50.8944Z" fill="white" fill-opacity="0.25"/>
<path d="M249.06 50.8944C250.259 51.9849 249.691 51.7464 251.218 52.0316C247.659 54.6646 237.905 66.9109 236.383 70.569L234.879 68.6643C239.641 63.4953 242.805 56.7997 249.06 50.8944Z" fill="white" fill-opacity="0.2"/>
<path d="M240.38 93.0181C240.398 90.0067 240.289 85.9835 240.771 83.1125C240.797 84.5647 240.548 88.6868 241.026 89.6011L241.39 89.8074C241.318 90.8723 241.156 92.0268 241.381 93.0489L240.38 93.0181Z" fill="white" fill-opacity="0.25"/>
<path d="M264.598 106.453C264.165 111.068 264.914 122.57 263.647 126.174C263.114 124.876 262.937 120.545 262.829 118.923C261.757 102.782 261.015 86.3632 261.914 70.2184C262.121 70.0048 262.328 69.7912 262.535 69.5773C265.631 77.4101 264.656 97.0688 264.598 106.453Z" fill="white" fill-opacity="0.25"/>
<path d="M238.478 99.3717C239.071 97.0446 238.319 94.3121 239.556 93.155L240.04 93.3537L240.178 101.33C240.451 98.6507 240.381 95.7296 240.38 93.0181L241.381 93.0489L241.609 93.425L240.911 93.9152C240.591 99.0397 240.979 105.921 241.164 111.147C241.526 119.919 241.725 128.697 241.76 137.477C241.757 139.788 241.325 149.842 242.052 151.27C241.944 153.137 241.858 155.005 241.796 156.875C241.264 153.355 242.124 151.016 240.784 147.435C240.928 145.389 240.429 139.684 240.297 137.227L239.103 113.683C238.895 110.065 238.247 102.732 238.478 99.3717Z" fill="white" fill-opacity="0.25"/>
<path d="M146.782 207.514C153.492 208.015 177.411 221.933 184.392 225.717C189.078 228.241 193.823 230.652 198.622 232.954C200.426 233.813 203.875 235.763 205.643 235.723C206.713 236.532 210.22 239.842 210.68 240.966C210.286 242.555 215.212 245.974 216.134 248.488L215.782 248.641C211.445 247.573 162.408 229.472 160.952 228.255C161.25 228.095 161.051 228.231 161.349 227.654C160.285 226.095 147.443 220.643 144.495 219.138C146.72 217.486 147.899 218.136 150.299 215.032C150.538 213.045 147.737 209.792 146.782 207.514Z" fill="white" fill-opacity="0.15"/>
<path d="M132.28 207.696C133.514 211.846 136.66 220.839 140.863 222.815C161.763 232.649 183.413 241.146 204.297 250.973C203.166 251.413 128.112 248.558 122.35 247.821C125.965 246.674 138.304 248.312 142.784 248.246C148.876 248.157 155.554 248.756 161.652 248.995C163.558 249.067 168.967 249.679 170.512 249.245L203.678 250.968L170.722 236.992C165.15 233.743 142.322 225.072 138.836 222.424C137.887 221.704 137.226 220.766 136.641 219.741C135.002 216.869 131.368 210.9 132.28 207.696Z" fill="white" fill-opacity="0.25"/>
<path fill-rule="evenodd" clip-rule="evenodd" d="M132.28 207.696C136.296 205.605 145.524 203.115 149.595 204.947C161.531 210.321 173.664 216.439 185.396 222.342C188.787 224.046 193.205 226.765 196.603 227.899C198.989 228.46 203.69 233.747 205.642 235.724C206.713 236.533 210.22 239.843 210.679 240.967C215.057 245.925 218.599 249.642 223.28 254.275C226.841 256.766 233.273 260.501 237.535 261.124C238.614 261.509 240.121 261.688 240.913 262.013C239.622 264.61 231.023 268.616 227.556 271.153C226.793 271.263 226.293 271.701 225.692 272.201C221.4 275.783 218.797 275.792 213.409 275.321C208.76 275.427 198.198 275.279 194.935 278.247C192.793 278.075 183.801 278.546 180.987 278.582C166.684 278.804 152.384 279.219 138.093 279.822L117.861 280.423C115.067 280.503 109.564 280.512 107.107 280.934C97.6703 280.672 86.2277 281.782 76.5554 281.692C74.2293 281.53 63.0669 282.554 61.4275 281.45C57.5333 278.824 40.4357 266.802 42.2664 261.93C42.775 261.35 43.3106 260.793 43.8709 260.259C47.968 256.435 59.4314 249.048 64.9138 247.344C67.8458 246.432 78.0413 246.711 81.7947 246.744C95.3177 246.903 108.838 247.261 122.35 247.821C125.965 246.674 138.304 248.312 142.784 248.246C148.876 248.157 155.554 248.757 161.652 248.996C163.557 249.068 168.96 249.678 170.51 249.246L203.677 250.968L170.729 236.996C165.168 233.75 142.323 225.073 138.836 222.424C137.887 221.704 137.226 220.766 136.641 219.741C135.002 216.869 131.368 210.9 132.28 207.696Z" fill="white" fill-opacity="0.2"/>
<path fill-rule="evenodd" clip-rule="evenodd" d="M132.28 207.696C136.296 205.605 145.524 203.115 149.595 204.947C161.531 210.321 173.664 216.439 185.396 222.342C188.787 224.046 193.205 226.765 196.603 227.899C198.989 228.46 203.69 233.747 205.642 235.724C206.713 236.533 210.22 239.843 210.679 240.967C215.057 245.925 218.599 249.642 223.28 254.275C226.841 256.766 233.273 260.501 237.535 261.124C238.614 261.509 240.121 261.688 240.913 262.013C239.622 264.61 231.023 268.616 227.556 271.153C226.793 271.263 226.293 271.701 225.692 272.201C221.4 275.783 218.797 275.792 213.409 275.321C208.76 275.427 198.198 275.279 194.935 278.247C192.793 278.075 183.801 278.546 180.987 278.582C166.684 278.804 152.384 279.219 138.093 279.822L117.861 280.423C115.067 280.503 109.564 280.512 107.107 280.934C97.6703 280.672 86.2277 281.782 76.5554 281.692C74.2293 281.53 63.0669 282.554 61.4275 281.45C57.5333 278.824 40.4357 266.802 42.2664 261.93C42.775 261.35 43.3106 260.793 43.8709 260.259C47.968 256.435 59.4314 249.048 64.9138 247.344C67.8458 246.432 78.0413 246.711 81.7947 246.744C95.3177 246.903 108.838 247.261 122.35 247.821C125.965 246.674 138.304 248.312 142.784 248.246C148.876 248.157 155.554 248.757 161.652 248.996C163.557 249.068 168.96 249.678 170.51 249.246L203.677 250.968L170.729 236.996C165.168 233.75 142.323 225.073 138.836 222.424C137.887 221.704 137.226 220.766 136.641 219.741C135.002 216.869 131.368 210.9 132.28 207.696Z" fill="white" fill-opacity="0.2"/>
<path fill-rule="evenodd" clip-rule="evenodd" d="M132.28 207.696C136.296 205.605 145.524 203.115 149.594 204.947C161.531 210.321 173.664 216.438 185.396 222.341C188.787 224.045 193.205 226.765 196.603 227.899C198.989 228.46 203.69 233.747 205.642 235.724C206.713 236.533 210.22 239.843 210.679 240.967C215.057 245.925 218.599 249.642 223.28 254.275C220.939 254.803 216.051 254.434 213.427 254.478C209.318 254.541 205.208 254.514 201.1 254.401L201.316 254.123C202.488 253.815 208.443 254.057 210.012 254.073C208.489 253.248 206.939 252.064 205.515 252.505C204.324 252.876 203.398 253.025 202.438 252.408C202.962 251.765 204.24 251.798 205.282 251.646L205.276 251.351L204.297 250.973C203.168 251.413 128.112 248.558 122.35 247.821C125.965 246.674 138.304 248.312 142.784 248.246C148.876 248.157 155.554 248.757 161.652 248.996C163.557 249.068 168.96 249.678 170.51 249.246L203.678 250.968L170.729 236.996C165.168 233.75 142.323 225.073 138.836 222.424C137.887 221.704 137.226 220.766 136.641 219.741C135.002 216.869 131.368 210.9 132.28 207.696Z" fill="white" fill-opacity="0.15"/>
<path d="M133.949 208.912C138.401 208.249 142.279 207.653 146.782 207.514C147.737 209.792 150.538 213.045 150.299 215.032C147.899 218.136 146.72 217.486 144.495 219.138C140.916 219.748 142.094 215.533 139.257 214.077C140.161 215.586 142.071 217.891 140.805 219.363C139.357 217.416 138.277 215.314 136.912 213.588L136.46 213.688C135.495 212.297 134.696 210.461 133.949 208.912Z" fill="white" fill-opacity="0.25"/>
<path d="M136.46 213.688L136.912 213.588C138.277 215.314 139.357 217.416 140.805 219.363C142.071 217.891 140.161 215.586 139.257 214.077C142.094 215.533 140.916 219.748 144.495 219.138C147.443 220.643 160.285 226.095 161.349 227.654C161.051 228.231 161.25 228.095 160.952 228.255C153.731 225.618 148.337 222.474 139.942 219.695C138.854 217.695 137.619 215.652 136.46 213.688Z" fill="white" fill-opacity="0.2"/>
<path d="M223.28 254.275C226.841 256.766 233.273 260.5 237.535 261.124C238.614 261.509 240.121 261.688 240.913 262.013C239.622 264.61 231.024 268.616 227.557 271.153C226.794 271.262 226.293 271.7 225.693 272.201C221.4 275.783 218.797 275.793 213.409 275.322C208.759 275.428 198.197 275.279 194.935 278.247C192.793 278.074 183.801 278.545 180.987 278.582C166.685 278.804 152.385 279.218 138.093 279.822L117.861 280.422C115.067 280.502 109.565 280.512 107.108 280.933C97.6707 280.671 86.2279 281.782 76.5555 281.693C74.2293 281.53 63.0661 282.555 61.4272 281.45C57.533 278.824 40.4356 266.802 42.2663 261.93C42.7349 262.404 43.3674 262.984 43.7345 263.515L45.287 262.832C46.8576 263.757 48.1845 264.361 49.8099 265.352C54.1217 267.982 59.4476 272.665 64.1224 274.141L65.0056 274.738C65.2069 276.34 65.121 276.439 64.5894 278.015L63.6326 278.728C80.8682 278.3 98.1194 277.385 115.353 276.851C119.53 276.725 123.746 276.589 127.915 276.323C133.235 276.791 161.946 275.653 166.861 274.187C168.627 275.239 174.205 274.546 176.518 274.648C191.585 275.305 206.238 273.11 219.983 266.689C222.38 265.568 229.245 264.503 230.15 262.232C225.017 260.743 221.174 258.467 216.715 255.542C215.235 254.571 215.446 254.634 213.427 254.478C216.052 254.435 220.94 254.803 223.28 254.275Z" fill="white" fill-opacity="0.15"/>
<path d="M223.281 254.275C226.841 256.766 233.273 260.5 237.535 261.124C238.614 261.509 240.121 261.688 240.913 262.013C239.622 264.61 231.024 268.616 227.557 271.153C226.794 271.262 226.294 271.7 225.693 272.201C221.4 275.783 218.797 275.793 213.409 275.322C215.704 274.353 219.858 274.944 220.93 274.3C225.865 271.329 231.682 267.545 236.563 264.6L236.481 264.261C235.594 263.721 235.024 263.906 233.952 263.993L233.51 264.032C232.351 262.689 231.902 262.673 230.15 262.232C225.017 260.743 221.174 258.467 216.715 255.542C215.235 254.571 215.446 254.634 213.427 254.478C216.052 254.435 220.94 254.803 223.281 254.275Z" fill="white" fill-opacity="0.15"/>
<path d="M43.7345 263.515L45.287 262.832C46.8576 263.757 48.1845 264.361 49.8099 265.352C54.1217 267.982 59.4476 272.665 64.1224 274.141L65.0056 274.738C65.2069 276.34 65.121 276.439 64.5894 278.015L63.6326 278.728C61.5548 278.96 60.2296 278.214 58.5538 277.016C55.8187 275.066 44.2512 266.235 43.7345 263.515Z" fill="white" fill-opacity="0.25"/>
<path d="M42.2663 261.93C42.7751 261.349 43.3107 260.792 43.8712 260.258C47.9683 256.434 59.431 249.049 64.9134 247.344C67.8448 246.432 78.0419 246.711 81.7952 246.744C95.3184 246.903 108.838 247.261 122.351 247.822C128.113 248.558 203.179 251.413 204.297 250.972L205.276 251.35L205.282 251.645C204.24 251.798 202.962 251.765 202.438 252.408C203.398 253.025 204.324 252.876 205.515 252.504C206.939 252.063 208.489 253.247 210.013 254.073C208.444 254.057 202.488 253.814 201.316 254.123L201.1 254.401C192.159 254.982 181.171 254.057 172.397 254.813C158.567 254.63 145.15 252.262 130.51 252.79C120.271 252.64 109.431 252.116 99.2706 251.994C89.8419 251.881 70.4015 250.508 62.0128 253.267C60.7844 253.698 60.8517 253.678 59.959 254.647C54.4745 257.768 50.854 259.088 45.287 262.832L43.7345 263.515C43.3674 262.984 42.7349 262.404 42.2663 261.93Z" fill="white" fill-opacity="0.15"/>
<path d="M59.9589 254.647C65.0222 257.28 74.7042 260.948 70.9483 267.959C69.122 271.368 65.8848 271.936 64.1224 274.141C59.4475 272.665 54.1216 267.982 49.8099 265.352C48.1845 264.361 46.8576 263.757 45.2869 262.832C50.8539 259.088 54.4745 257.768 59.9589 254.647Z" fill="white" fill-opacity="0.25"/>
<path d="M62.0128 253.267C70.4015 250.508 89.8419 251.881 99.2706 251.994C109.431 252.116 120.271 252.64 130.51 252.79C132.543 253.154 133.409 253.227 135.456 253.33C129.004 254.385 65.5721 255.881 62.4878 253.659C62.3213 253.536 62.1714 253.397 62.0128 253.267Z" fill="white" fill-opacity="0.25"/>
<path d="M64.1225 274.141C69.9936 274.124 75.7012 274.499 81.5561 274.698C97.1965 275.235 112.874 274.854 128.514 275.106C125.886 275.627 114.699 275.04 113.605 276.008L113.784 276.33C116.057 276.25 126.74 275.574 127.915 276.323C123.746 276.589 119.53 276.725 115.353 276.851C98.1194 277.384 80.8682 278.3 63.6326 278.728L64.5894 278.015C65.121 276.439 65.2069 276.34 65.0056 274.738L64.1225 274.141Z" fill="white" fill-opacity="0.25"/>
<path d="M201.1 254.401C205.208 254.514 209.318 254.541 213.427 254.478C215.446 254.634 215.235 254.571 216.715 255.542C221.174 258.467 225.017 260.742 230.15 262.232C229.245 264.503 222.38 265.568 219.983 266.689C206.238 273.11 191.585 275.305 176.518 274.648C174.205 274.546 168.627 275.239 166.861 274.187L167.277 273.846C171.078 274.39 175.146 273.829 178.741 273.915C192.028 274.234 205.559 272.834 217.614 266.901C219.557 265.946 222.481 265.525 224.476 264.49C225.123 264.155 224.052 263.306 223.986 262.626C223.986 262.623 224.588 261.081 224.635 260.961C222.979 259.84 216.507 256.846 214.973 255.274C214.865 255.164 208.5 255.191 207.573 255.194L184.937 255.151C182.388 255.154 174.445 255.446 172.397 254.813C181.171 254.057 192.159 254.982 201.1 254.401Z" fill="white" fill-opacity="0.2"/>
<path fill-rule="evenodd" clip-rule="evenodd" d="M104.767 105.949C106.164 104.835 106.463 104.792 108.406 105.006C112.235 105.428 129.156 109.593 131.521 111.501C135.905 115.037 143.925 124.919 147.931 129.437L194.859 183.332C199.406 188.454 205.569 196.113 210.092 200.68C210.866 203.148 215.447 206.743 215.99 211.303C215.592 212.345 215.928 211.953 214.907 212.486C214.369 212.11 213.827 211.742 213.301 211.349C214.612 213.13 216.438 215.522 217.419 217.479C221.289 225.216 225.413 232.765 229.559 240.353C232.591 245.905 234.801 251.715 240.078 255.635C242.018 257.104 246.535 258.491 247.687 260.341L247.553 260.892C246.049 260.64 243.218 259.313 241.674 258.657C242.69 259.274 244.06 259.92 244.689 260.812C244.051 261.754 239.053 261.011 237.806 260.852L237.535 261.124C233.273 260.5 226.842 256.767 223.281 254.276C218.599 249.643 215.057 245.924 210.679 240.966C210.219 239.842 206.714 236.533 205.643 235.723C203.691 233.747 198.99 228.461 196.604 227.9C193.206 226.766 188.788 224.046 185.397 222.341C173.665 216.438 161.532 210.32 149.595 204.947C145.525 203.114 136.296 205.605 132.28 207.697C134.315 204.441 140.799 204.358 144.312 203.82C146.131 203.725 147.866 203.357 149.59 204.161C162.375 210.114 175.123 216.272 187.662 222.746C187.668 222.749 187.674 222.751 187.68 222.753L191.724 225.348L196.553 227.872L196.458 227.584L191.7 223.042L188.417 219.596C186 216.83 181.393 212.252 179.833 210.596L153.395 182.691C151.777 180.982 146.483 175.766 145.637 173.903C145.13 173.161 138.941 166.941 137.863 165.836C130.767 158.594 123.743 151.282 116.793 143.901C113.068 139.965 105.953 133.464 104.481 128.473C104.594 123.451 102.875 110.298 104.767 105.949Z" fill="white" fill-opacity="0.2"/>
<path d="M104.767 105.948C106.164 104.834 106.463 104.792 108.406 105.007C112.235 105.429 129.156 109.593 131.521 111.5C135.906 115.037 143.926 124.92 147.931 129.437L194.859 183.331C199.406 188.454 205.569 196.114 210.093 200.681C210.866 203.148 215.446 206.743 215.989 211.303C215.591 212.345 215.928 211.953 214.906 212.486C214.368 212.11 213.827 211.742 213.301 211.349C209.078 205.958 204.011 202.23 199.601 197.292C189.812 186.327 180.59 172.387 170.101 162.165C170.033 164.714 171.18 162.382 170.371 164.728C168.023 166.135 166.172 172.889 164.448 175.675C162.947 178.102 162.687 177.742 161.19 179.543C160.44 178.982 158.326 176.332 156.935 175.114C155.092 172.186 148.221 165.44 145.396 162.534C139.575 156.545 134.222 150.088 128.578 143.995C124.037 139.094 119.478 134.77 115.076 129.639L114.866 130.173L114.605 130.412C113.515 129.456 113.954 129.487 112.282 129.657C111.089 129.778 110.393 129.847 109.644 130.639C109.985 132.164 111.552 132.071 111.468 133.244L111.274 133.408C109.467 131.657 107.461 129.772 106.562 127.396C105.651 128.455 106.07 128.125 104.481 128.473C104.595 123.451 102.874 110.297 104.767 105.948Z" fill="white" fill-opacity="0.2"/>
<path d="M104.767 105.948C106.164 104.834 106.463 104.792 108.406 105.007C112.235 105.429 129.156 109.593 131.521 111.5C135.906 115.037 143.926 124.92 147.931 129.437L194.859 183.331C199.406 188.454 205.569 196.114 210.093 200.681C210.866 203.148 215.446 206.743 215.989 211.303C215.591 212.345 215.928 211.953 214.906 212.486C214.368 212.11 213.827 211.742 213.301 211.349C209.078 205.958 204.011 202.23 199.601 197.292C189.812 186.327 180.59 172.387 170.101 162.165C164.67 155.801 158.478 149.711 153.064 143.324C146.168 135.188 139.55 126.831 132.348 118.944C129.039 115.321 125.979 111.85 120.807 111.569C117.394 110.106 112.63 108.691 109.07 107.681L106.52 107.117C105.252 106.956 105.412 106.911 104.767 105.948Z" fill="white" fill-opacity="0.15"/>
<path d="M104.481 128.473C104.595 123.451 102.874 110.297 104.767 105.948C105.412 106.911 105.252 106.956 106.52 107.117L109.07 107.681C112.63 108.691 117.394 110.106 120.807 111.569C125.454 114.539 129.303 127.838 121.46 129.4C119.422 129.806 115.903 128.696 114.94 129.07L115.076 129.639L114.866 130.173L114.605 130.412C113.515 129.456 113.954 129.487 112.282 129.657C111.089 129.778 110.393 129.847 109.644 130.639C109.985 132.164 111.552 132.071 111.468 133.244L111.274 133.408C109.467 131.657 107.461 129.772 106.562 127.396C105.651 128.455 106.07 128.125 104.481 128.473Z" fill="white" fill-opacity="0.25"/>
<path d="M104.481 128.473C104.595 123.451 102.874 110.297 104.767 105.948C105.412 106.911 105.252 106.956 106.52 107.117L109.07 107.681C108.044 113.083 111.102 125.807 114.866 130.173L114.605 130.412C113.515 129.456 113.954 129.487 112.282 129.657C111.089 129.778 110.393 129.847 109.644 130.639C109.985 132.164 111.552 132.071 111.468 133.244L111.274 133.408C109.467 131.657 107.461 129.772 106.562 127.396C105.651 128.455 106.07 128.125 104.481 128.473Z" fill="white" fill-opacity="0.25"/>
<path d="M104.481 128.473C104.595 123.451 102.874 110.297 104.767 105.948C105.412 106.911 105.252 106.956 106.52 107.117C105.016 111.99 107.231 123.859 106.562 127.396C105.651 128.455 106.07 128.125 104.481 128.473Z" fill="white" fill-opacity="0.2"/>
<path d="M111.273 133.408L111.468 133.244C111.552 132.071 109.985 132.164 109.644 130.639C110.393 129.847 111.089 129.778 112.282 129.657C113.954 129.487 113.515 129.456 114.605 130.412L114.866 130.173L115.076 129.639C119.478 134.77 124.037 139.094 128.578 143.995C134.222 150.088 139.574 156.545 145.396 162.534C148.221 165.44 155.092 172.186 156.934 175.114C158.016 177.536 162.411 181.486 162.367 183.239C159.606 182.62 157.48 178.678 154.989 177.838C151.423 174.898 142.394 165.514 138.872 161.858C130.598 153.27 118.772 142.384 111.273 133.408Z" fill="white" fill-opacity="0.25"/>
<path d="M178.313 199.67C180.15 201.583 181.268 203.565 182.496 205.892C180.517 204.162 179.152 202.855 177.322 200.967L178.313 199.67Z" fill="white" fill-opacity="0.2"/>
<rect x="4" y="4" width="504" height="504" rx="56" stroke="white" stroke-opacity="0.15" stroke-width="8"/>
</g>
<defs>
<clipPath id="clip0_18_452">
<rect width="512" height="512" rx="60" fill="white"/>
</clipPath>
</defs>
</svg>
