<svg xmlns="http://www.w3.org/2000/svg" width="16" height="16" viewBox="0 0 16 16">
 <defs>
  <style id="current-color-scheme" type="text/css">
   .ColorScheme-Text { color:#444444; }
  </style>
 </defs>
 <path style="fill:currentColor" class="ColorScheme-Text" transform="matrix(0.007447,0,0,-0.007447,1.0000,12.5835)" d="M1880 608V436H1504Q1539 360 1544 252Q1548 132 1500 28Q1445 -96 1324 -164Q1187 -244 972 -244Q656 -249 480 -104Q352 0 308 164Q284 249 288 308L628 304Q628 119 772 52Q853 15 952 20H964Q1057 27 1112 56Q1217 104 1224 222Q1231 340 1036 436H0V608ZM1572 960H1232V1000Q1225 1041 1204 1080Q1176 1131 1120 1160Q1056 1200 952 1200Q776 1200 712 1112Q680 1062 684 992V988Q692 944 728 900Q795 824 940 788H404L380 848Q351 925 344 996Q336 1100 368 1184Q409 1285 508 1352Q628 1431 832 1460Q970 1480 1076 1468Q1179 1460 1260 1424Q1338 1395 1392 1348Q1442 1306 1480 1248Q1512 1199 1536 1144Q1552 1101 1560 1052Q1569 1010 1570 986Z"/>
</svg>
