<svg xmlns="http://www.w3.org/2000/svg" width="16" height="16" viewBox="0 0 16 16">
 <defs>
  <style id="current-color-scheme" type="text/css">
   .ColorScheme-Text { color:#444444; }
  </style>
 </defs>
 <path style="fill:currentColor" class="ColorScheme-Text" transform="matrix(0.009115,0,0,-0.009115,1.0000,13.5964)" d="M0 1212H172V700H512V1212H684V16H512V528H172V16H0ZM1536 16H1024Q952 16 902.0 66.0Q852 116 852 184Q852 252 900 304L1316 748Q1364 796 1364.0 868.0Q1364 940 1314.0 990.0Q1264 1040 1194.0 1040.0Q1124 1040 1074.0 990.0Q1024 940 1024 868H852Q852 1012 952.0 1112.0Q1052 1212 1194.0 1212.0Q1336 1212 1436.0 1112.0Q1536 1012 1536.0 870.0Q1536 728 1436 628L1024 188H1536Z"/>
</svg>
