<svg xmlns="http://www.w3.org/2000/svg" width="16" height="16" viewBox="0 0 16 16">
 <defs>
  <style id="current-color-scheme" type="text/css">
   .ColorScheme-Text { color:#444444; }
  </style>
 </defs>
 <path style="fill:currentColor" class="ColorScheme-Text" transform="matrix(0.008861,0,0,-0.008861,1.0000,13.4405)" d="M384 1210H1580V1042H384ZM384 530V698H1580V530ZM128 1254Q184 1254 220 1216Q256 1178 256.0 1126.0Q256 1074 220 1036Q184 998 130.0 998.0Q76 998 38.0 1036.0Q0 1074 0.0 1126.0Q0 1178 38.0 1216.0Q76 1254 128 1254ZM128 742Q184 742 220 704Q256 666 256.0 614.0Q256 562 220 524Q184 486 130.0 486.0Q76 486 38.0 524.0Q0 562 0.0 614.0Q0 666 38.0 704.0Q76 742 128 742ZM384 18V186H1580V18ZM128 230Q184 230 220 192Q256 154 256.0 102.0Q256 50 220 12Q184 -26 130.0 -26.0Q76 -26 38.0 12.0Q0 50 0.0 102.0Q0 154 38.0 192.0Q76 230 128 230Z"/>
</svg>
