<svg xmlns="http://www.w3.org/2000/svg" width="16" height="16" viewBox="0 0 16 16">
 <defs>
  <style id="current-color-scheme" type="text/css">
   .ColorScheme-Text { color:#444444; }
  </style>
 </defs>
 <path style="fill:currentColor" class="ColorScheme-Text" transform="matrix(0.008216,0,0,-0.008216,1.0000,13.0446)" d="M160 614Q160 722 238.0 800.0Q316 878 424 878H768V1042H424Q307 1042 210 984Q111 925 56 828Q0 730 0.0 614.0Q0 498 56 400Q111 303 210 244Q307 186 424 186H768V350H424Q316 350 238.0 428.0Q160 506 160 614ZM512 530H1192V698H512ZM1280 1042H936V878H1280Q1388 878 1466.0 800.0Q1544 722 1544.0 614.0Q1544 506 1466.0 428.0Q1388 350 1280 350H936V186H1280Q1397 186 1494 244Q1593 303 1648 400Q1704 498 1704.0 614.0Q1704 730 1648 828Q1593 925 1494 984Q1397 1042 1280 1042Z"/>
</svg>
