<svg xmlns="http://www.w3.org/2000/svg" width="16" height="16" viewBox="0 0 16 16">
 <defs>
  <style id="current-color-scheme" type="text/css">
   .ColorScheme-Text { color:#444444; }
  </style>
 </defs>
 <path style="fill:currentColor" class="ColorScheme-Text" transform="matrix(0.009115,0,0,-0.009115,1.0000,13.5964)" d="M428 1382Q356 1382 306.0 1332.0Q256 1282 256 1210V870Q256 798 206.0 748.0Q156 698 84 698H0V530H84Q156 530 206.0 480.0Q256 430 256 358V18Q256 -54 306.0 -104.0Q356 -154 428 -154H596V18H428V442Q428 514 378.0 564.0Q328 614 256 614Q328 614 378.0 664.0Q428 714 428 786V1210H596V1382ZM1108 1382Q1180 1382 1230.0 1332.0Q1280 1282 1280 1210V870Q1280 798 1330.0 748.0Q1380 698 1452 698H1536V530H1452Q1380 530 1330.0 480.0Q1280 430 1280 358V18Q1280 -54 1230.0 -104.0Q1180 -154 1108 -154H940V18H1108V442Q1108 514 1158.0 564.0Q1208 614 1280 614Q1208 614 1158.0 664.0Q1108 714 1108 786V1210H940V1382Z"/>
</svg>
